<?xml version="1.0" encoding="UTF-8" standalone="no"?>
<!-- Created with Inkscape (http://www.inkscape.org/) -->

<svg
   width="24"
   height="24"
   viewBox="0 0 6.3499999 6.35"
   version="1.1"
   id="svg1"
   sodipodi:docname="facebook.svg"
   inkscape:version="1.3.2 (1:1.3.2+202311252150+091e20ef0f)"
   xmlns:inkscape="http://www.inkscape.org/namespaces/inkscape"
   xmlns:sodipodi="http://sodipodi.sourceforge.net/DTD/sodipodi-0.dtd"
   xmlns="http://www.w3.org/2000/svg"
   xmlns:svg="http://www.w3.org/2000/svg">
  <sodipodi:namedview
     id="namedview1"
     pagecolor="#ffffff"
     bordercolor="#666666"
     borderopacity="1.0"
     inkscape:showpageshadow="2"
     inkscape:pageopacity="0.0"
     inkscape:pagecheckerboard="0"
     inkscape:deskcolor="#d1d1d1"
     inkscape:zoom="33"
     inkscape:cx="11.984848"
     inkscape:cy="11.515152"
     inkscape:window-width="1850"
     inkscape:window-height="1016"
     inkscape:window-x="0"
     inkscape:window-y="0"
     inkscape:window-maximized="1"
     inkscape:current-layer="svg1" />
  <defs
     id="defs1" />
  <path
     d="m 3.1871597,0.10508854 c -1.7467925,0 -3.16284136,1.40312956 -3.16284136,3.13398426 0,1.4698389 1.02114606,2.7030614 2.39878906,3.0417558 V 4.1967289 H 1.7708846 V 3.2390728 H 2.4231074 V 2.8265062 c 0,-1.0666739 0.4870778,-1.561172 1.5441442,-1.561172 0.2003882,0 0.5460419,0.03895 0.6874659,0.077902 v 0.8681137 c -0.07455,-0.00784 -0.2042289,-0.01164 -0.3653078,-0.01164 -0.5187065,0 -0.7190948,0.1947548 -0.7190948,0.7006693 V 3.2390728 H 4.6034347 L 4.4258633,4.1967289 H 3.5703149 V 6.35 C 5.1363733,6.1626327 6.35,4.8412109 6.35,3.2390728 6.35,1.5082181 4.9339511,0.10508854 3.1871597,0.10508854 Z"
     id="path1"
     style="stroke-width:0.224884;fill:#ffffff;fill-opacity:1" />
</svg>
