<?xml version="1.0" encoding="UTF-8" standalone="no"?>
<!-- Created with Inkscape (http://www.inkscape.org/) -->

<svg
   width="24"
   height="24"
   viewBox="0 0 6.3499999 6.35"
   version="1.1"
   id="svg1"
   sodipodi:docname="linkedin.svg"
   inkscape:version="1.3.2 (1:1.3.2+202311252150+091e20ef0f)"
   xmlns:inkscape="http://www.inkscape.org/namespaces/inkscape"
   xmlns:sodipodi="http://sodipodi.sourceforge.net/DTD/sodipodi-0.dtd"
   xmlns="http://www.w3.org/2000/svg"
   xmlns:svg="http://www.w3.org/2000/svg">
  <sodipodi:namedview
     id="namedview1"
     pagecolor="#ffffff"
     bordercolor="#666666"
     borderopacity="1.0"
     inkscape:showpageshadow="2"
     inkscape:pageopacity="0.0"
     inkscape:pagecheckerboard="0"
     inkscape:deskcolor="#d1d1d1"
     inkscape:zoom="33"
     inkscape:cx="11.984848"
     inkscape:cy="12"
     inkscape:window-width="1850"
     inkscape:window-height="1016"
     inkscape:window-x="0"
     inkscape:window-y="0"
     inkscape:window-maximized="1"
     inkscape:current-layer="svg1" />
  <defs
     id="defs1" />
  <g
     id="layer1"
     style="fill:#ffffff;fill-opacity:1">
    <path
       d="M 5.6444172,0 H 0.70558262 C 0.31603456,0 0,0.31579034 0,0.70558264 V 5.6444173 C 0,6.0339653 0.31579031,6.35 0.70558262,6.35 H 5.6444172 C 6.0339653,6.35 6.35,6.0342096 6.35,5.6444173 V 0.70558264 C 6.35,0.31603458 6.0342096,0 5.6444172,0 Z M 1.9198981,5.4680826 H 0.97301542 V 2.4105577 H 1.9198981 Z M 1.4419384,2.0102634 c -0.3094404,0 -0.56002111,-0.2525346 -0.56002111,-0.564173 0,-0.3116385 0.25058071,-0.56417311 0.56002111,-0.56417311 0.3094405,0 0.559777,0.25253461 0.559777,0.56417311 0,0.3116384 -0.2505807,0.564173 -0.559777,0.564173 z M 5.4680826,5.4680826 H 4.5258403 V 3.8632423 c 0,-0.4401039 -0.167298,-0.6860442 -0.5155711,-0.6860442 -0.3788019,0 -0.5768731,0.2559538 -0.5768731,0.6860442 v 1.6048403 h -0.90805 V 2.4105577 h 0.90805 v 0.4117731 c 0,0 0.2730501,-0.5053135 0.9219712,-0.5053135 0.6489211,0 1.1127153,0.3958981 1.1127153,1.2150481 v 1.9357731 z"
       fill-rule="evenodd"
       id="path1"
       style="stroke-width:0.24423;fill:#ffffff;fill-opacity:1" />
  </g>
</svg>
