<?xml version="1.0" encoding="UTF-8" standalone="no"?>
<svg
   enable-background="new 0 0 1600 1200"
   viewBox="0 0 1600 1200"
   x="0px"
   y="0px"
   width="1600"
   height="1200"
   version="1.1"
   id="svg216"
   xmlns="http://www.w3.org/2000/svg"
   xmlns:svg="http://www.w3.org/2000/svg">
  <defs
     id="defs216" />
  <path
     d="M 271.7,1102.6 H 499 c 3.9,0 3.9,-6 0,-6 -75.8,0 -151.6,0 -227.3,0 -3.9,0 -3.9,6 0,6 z"
     fill="#e8e8e8"
     id="path1" />
  <path
     d="m 345.8,1079.1 h 228.1 64.7 c 3.9,0 3.9,-6 0,-6 -76,0 -152,0 -228.1,0 -21.6,0 -43.2,0 -64.7,0 -3.8,0 -3.8,6 0,6 z"
     fill="#e8e8e8"
     id="path2" />
  <path
     d="m 633.7,1042.1 h 154.4 c 3.9,0 3.9,-6 0,-6 -51.5,0 -103,0 -154.4,0 -3.9,0 -3.9,6 0,6 z"
     fill="#e8e8e8"
     id="path3" />
  <path
     d="m 765.9,1126.1 h 321.5 89.9 c 3.9,0 3.9,-6 0,-6 -107.2,0 -214.4,0 -321.5,0 -30,0 -59.9,0 -89.9,0 -3.9,0 -3.9,6 0,6 z"
     fill="#e8e8e8"
     id="path4" />
  <path
     d="m 1019.2,1102.6 h 212.5 c 3.9,0 3.9,-6 0,-6 -70.8,0 -141.7,0 -212.5,0 -3.9,0 -3.9,6 0,6 z"
     fill="#e8e8e8"
     id="path5" />
  <path
     d="m 459.3,374.6 c -5.2,0.9 -13.4,3 -22,8.3 -5.4,3.3 -16.4,11.3 -23.3,26 -2.5,5.2 -8.1,17.3 -5.3,32.3 4.1,22.2 23.6,33.3 26.7,35 9.9,-15.1 19.7,-30.3 29.6,-45.4 -2,-18.7 -3.9,-37.4 -5.7,-56.2 z"
     fill="#ec615b"
     id="path6"
     style="fill:#f1aa4b;fill-opacity:1" />
  <path
     d="m 466.7,429 c 14.6,-7.9 29.1,-15.8 43.7,-23.8 3.2,4 9.2,12.9 9.1,24.9 0,2.7 -0.3,5.2 -0.8,7.5 -17.4,-2.9 -34.7,-5.8 -52,-8.6 z"
     fill="#5222d0"
     id="path7" />
  <path
     d="m 310.1,498 c 1.8,23.5 3.5,47.1 5.3,70.6 6.4,-0.4 12.8,-0.9 19.1,-1.3 -2.1,-23.9 -4.2,-47.7 -6.3,-71.6 -6.1,0.8 -12.1,1.5 -18.1,2.3 z"
     fill="#5222d0"
     id="path8" />
  <path
     d="m 345.8,522.5 c 1,14.5 2,28.9 3.1,43.4 6.4,-0.6 12.8,-1.1 19.1,-1.7 -1.4,-14.5 -2.7,-28.9 -4.1,-43.4 -6.1,0.5 -12.1,1.1 -18.1,1.7 z"
     fill="#ec615b"
     id="path9" />
  <path
     d="m 573.3,612.1 c -99.2,9.1 -198.3,18.1 -297.5,27.2 -9.1,-145.2 -18.3,-290.4 -27.4,-435.7 98.9,-3.5 197.9,-7 296.8,-10.5 9.4,139.7 18.8,279.4 28.1,419 z"
     fill="none"
     stroke="#161616"
     stroke-miterlimit="10"
     stroke-width="2"
     id="path10" />
  <g
     fill="#e8e8e8"
     id="g94">
    <path
       d="m 350.7,176.1 c 1.1,7.9 2.3,15.8 3.4,23.7 0.3,1.9 3.2,1.1 2.9,-0.8 -1.1,-7.9 -2.3,-15.8 -3.4,-23.7 -0.3,-1.9 -3.2,-1.1 -2.9,0.8 z"
       id="path11" />
    <path
       d="m 352.8,175.9 c 22.5,-1.5 45.1,-2.4 67.6,-2.9 1.9,0 1.9,-3 0,-3 -22.6,0.5 -45.1,1.5 -67.6,2.9 -1.9,0.1 -1.9,3.1 0,3 z"
       id="path12" />
    <path
       d="m 419.5,171.8 c 1,8.5 1.8,16.9 2.3,25.4 0.1,1.9 3.1,1.9 3,0 -0.5,-8.5 -1.3,-17 -2.3,-25.4 -0.3,-1.9 -3.3,-1.9 -3,0 z"
       id="path13" />
    <path
       d="m 352.9,175.8 c 0.7,7.4 1.4,14.9 2.1,22.3 0.1,0.8 0.6,1.5 1.5,1.5 21.5,0.2 42.9,-3.2 64.5,-2.5 1.9,0.1 1.9,-2.9 0,-3 -21.5,-0.7 -42.9,2.6 -64.5,2.5 l 1.5,1.5 c -0.7,-7.4 -1.4,-14.9 -2.1,-22.3 -0.2,-1.9 -3.2,-1.9 -3,0 z"
       id="path14" />
    <path
       d="m 354.5,176.8 c 3.3,2 7.6,1 11.2,0.8 6,-0.3 12,-0.6 18,-0.9 12,-0.6 23.9,-1.3 35.9,-1.9 -0.5,-0.5 -1,-1 -1.5,-1.5 0.3,6.5 0.6,13 0.9,19.6 0.1,1.9 3.1,1.9 3,0 -0.3,-6.5 -0.6,-13 -0.9,-19.6 0,-0.8 -0.7,-1.5 -1.5,-1.5 -10.6,0.6 -21.3,1.1 -31.9,1.7 -5.3,0.3 -10.6,0.6 -16,0.8 -4.2,0.2 -12,2.2 -15.7,-0.1 -1.6,-1 -3.1,1.6 -1.5,2.6 z"
       id="path15" />
    <path
       d="m 354.4,177.4 c 1.5,6.1 2.5,12.3 3.1,18.6 1,-0.1 2,-0.3 2.9,-0.4 -1.1,-5.4 -0.8,-10.7 0.2,-16.2 -1,-0.1 -2,-0.3 -2.9,-0.4 0.2,6 0.6,11.7 2.9,17.2 0.7,1.6 3.2,0.4 2.7,-1.2 -1.7,-6.4 -3.3,-12.7 -1.6,-19.3 -1,0 -1.9,0 -2.9,0 0.9,6 1.8,12 2.7,18 0.3,1.9 3.2,1.1 2.9,-0.8 -0.9,-6 -1.8,-12 -2.7,-18 -0.2,-1.5 -2.6,-1.3 -2.9,0 -1.8,7.1 -0.2,14 1.6,20.9 0.9,-0.4 1.8,-0.8 2.7,-1.2 -2.1,-5 -2.3,-10.4 -2.5,-15.7 0,-1.6 -2.6,-2.1 -2.9,-0.4 -1.1,6 -1.5,11.8 -0.2,17.8 0.3,1.6 3.1,1.3 2.9,-0.4 -0.6,-6.5 -1.7,-13 -3.2,-19.4 -0.4,-1.8 -3.2,-1 -2.8,0.9 z"
       id="path16" />
    <path
       d="m 362.1,182.7 c 1.1,-1.8 2.2,-3.6 3.3,-5.4 -0.9,-0.5 -1.7,-1 -2.6,-1.5 -1.3,2.9 -2.5,5.8 -3.8,8.7 -0.6,1.4 1.2,3.3 2.4,1.8 2,-2.5 3.9,-5.1 5.9,-7.6 -0.8,-0.5 -1.7,-1 -2.5,-1.5 -0.8,2.4 -1.8,4.6 -3.2,6.8 -0.9,1.4 1.3,3.2 2.4,1.8 1.5,-1.9 3,-3.8 4.6,-5.7 -0.8,-0.6 -1.6,-1.2 -2.4,-1.8 -2,4.7 -4,9.3 -6,14 -0.6,1.4 1.2,3.3 2.4,1.8 3.6,-4.5 7.3,-9.1 10.9,-13.6 -0.8,-0.6 -1.6,-1.2 -2.4,-1.8 -2.7,4.4 -5.4,8.9 -8.1,13.3 -0.7,1.1 0.4,2.6 1.7,2.2 1.6,-0.5 1.8,-0.7 3,-1.7 -0.8,-0.5 -1.7,-1 -2.5,-1.5 -0.6,1.7 -1.6,3 -3.1,4.1 -1.5,1.1 -0.2,3.6 1.5,2.6 1.6,-0.9 3.1,-1.5 4.9,-1.7 -0.6,-0.6 -1.2,-1.2 -1.8,-1.8 -2.6,-1.3 -3.4,-3.1 -2.4,-5.5 0.3,-1.3 0.8,-2.5 1.4,-3.6 0.8,-1.4 2.3,-4.8 3.8,-1.8 1.1,2.2 -3.5,14.5 -4.1,6.9 -0.1,-2 0.1,-4 0.7,-5.8 0.4,-1.4 1,-2.7 1.7,-4 1,-2 1.5,-2 1.6,0 1.9,4 -0.4,10.3 -2.3,13.8 0.9,0.1 1.8,0.2 2.7,0.4 -0.8,-2.8 -1.1,-5.5 -0.5,-8.3 0.2,-1.1 1.2,-6.4 2.3,-4.7 2.3,3.3 -1.5,10.8 -3.1,13.7 0.9,0.3 1.9,0.5 2.8,0.8 -0.3,-2.7 -0.4,-5.3 0.1,-8 0.3,-1.8 1.4,-7.6 3.3,-7.8 2.7,-0.3 -2.5,12 -3.7,13.8 0.9,0.1 1.8,0.2 2.7,0.4 -0.9,-4.5 -0.9,-14.1 5.2,-15.6 -0.6,-0.3 -1.2,-0.7 -1.8,-1 1.1,6.1 -0.6,12 -4.8,16.5 0.8,0.2 1.7,0.4 2.5,0.7 -0.7,-2.8 -0.8,-5.5 -0.1,-8.3 0.4,-1.5 2.5,-7.8 4.5,-7.3 1.4,0.3 -0.4,6.1 -0.8,7.4 -1.1,3.2 -2.8,6 -5.3,8.4 0.8,0.2 1.7,0.4 2.5,0.7 -1.6,-6.7 1.2,-13.4 7.1,-17 -0.7,-0.3 -1.5,-0.6 -2.2,-0.9 2.3,6.1 -3.6,14 -7.5,18.1 0.8,0.2 1.7,0.4 2.5,0.7 -0.7,-2.9 -0.7,-5.7 0.2,-8.6 0.3,-0.9 3.3,-7.7 4.7,-7.2 2,0.7 -1.4,6.8 -2,7.7 -0.7,1.3 -2,3.6 -3.3,4.4 -1.5,1 -1.4,1.2 -1.5,-1 -0.1,-3 1.9,-6.4 3.6,-8.6 0.9,-1.2 2.4,-3.1 3.8,-3.6 1.6,-0.7 1.4,-0.9 1.2,1.2 -0.7,6.2 -4.2,11.8 -8.6,16.1 0.8,0.2 1.7,0.4 2.5,0.7 -0.9,-5.9 1.1,-12 5.5,-16.1 1.3,-1.2 2.8,-2 3.3,0.5 0.2,1 -1,3.4 -1.4,4.3 -1.4,3.3 -3.4,6.1 -5.9,8.6 h 2.1 c -1.8,-2.1 0.5,-6.7 1.6,-8.7 0.5,-0.9 4.8,-7.5 6,-6.9 1.4,0.7 -1.7,7.4 -2.1,8.1 -1.4,2.7 -3.2,5.1 -5.3,7.3 0.9,0.4 1.7,0.7 2.6,1.1 0.1,-7.3 3.5,-13.5 9.7,-17.4 -0.8,-0.4 -1.5,-0.9 -2.3,-1.3 0.1,6.7 -2.3,12.6 -7.1,17.3 0.9,0.4 1.7,0.7 2.6,1.1 0.6,-7.3 4,-13.6 9.6,-18.3 -0.8,-0.1 -1.6,-0.2 -2.4,-0.3 3.2,4.8 -3.8,13.8 -6.6,17.4 0.9,0.4 1.7,0.7 2.6,1.1 0.1,-2.8 0.6,-5.4 1.7,-8 0.6,-1.6 3.1,-7.1 4.9,-7.5 2.4,-0.5 -0.1,4.1 -0.9,5.8 -1.4,2.9 -3.3,5.4 -5.5,7.7 0.8,0.5 1.7,1 2.5,1.5 0.9,-6.2 3.4,-14.4 9.9,-16.7 -0.6,-0.5 -1.3,-1 -1.9,-1.4 -0.8,6.8 -3.8,12.6 -8.8,17.2 0.9,0.4 1.7,0.7 2.6,1.1 0.3,-3.2 1,-6.3 2.4,-9.3 0.9,-1.9 3.3,-6.9 5.5,-7.3 1.1,-0.2 0,1.5 -0.4,2.6 -0.6,1.6 -1.4,3.1 -2.2,4.5 -1.6,2.8 -3.6,5.3 -5.9,7.6 0.9,0.4 1.7,0.7 2.6,1.1 0.4,-6.4 3.4,-11.9 8.4,-15.8 -0.7,-0.6 -1.5,-1.1 -2.2,-1.7 -0.8,4.7 -3.2,8.4 -6.4,11.9 -1.9,2.1 -2.5,1.6 -2.7,-1.2 -0.2,-3.8 2.1,-7.6 5.9,-8.6 -0.6,-0.5 -1.3,-1 -1.9,-1.4 -0.3,6 -2.1,11.4 -5.3,16.4 0.9,0.3 1.9,0.5 2.8,0.8 0.3,-3 1.1,-5.9 2.5,-8.6 0.9,-1.8 3.2,-6.3 5.2,-6.8 2.9,-0.8 0,4.9 -0.7,6.3 -1.4,2.8 -3.3,5.2 -5.5,7.5 0.9,0.4 1.7,0.7 2.6,1.1 -0.4,-7.3 4,-13.7 10.9,-15.9 -0.6,-0.5 -1.3,-1 -1.9,-1.4 -0.8,7.1 -4.2,13.1 -9.7,17.7 0.9,0.4 1.7,0.7 2.6,1.1 0.8,-6.9 4.3,-12.8 10,-16.8 -0.7,-0.3 -1.5,-0.6 -2.2,-0.9 1.6,5.2 -3.9,12 -6.9,15.7 0.9,0.4 1.7,0.7 2.6,1.1 0.4,-5.1 3.3,-14.4 9.4,-15.3 -0.6,-0.6 -1.2,-1.2 -1.8,-1.8 -1.1,5.7 -3.4,10.8 -7.1,15.3 0.9,0.4 1.7,0.7 2.6,1.1 0.3,-6.1 2.7,-11.4 6.9,-15.7 -0.8,-0.1 -1.6,-0.2 -2.4,-0.3 2.3,4.2 -2.4,11.6 -4.5,15.3 l 2.7,1.2 c 1,-4.8 1.8,-12.9 6.3,-15.8 -0.6,-0.1 -1.2,-0.2 -1.8,-0.2 2.5,2.8 -2.3,12.2 -3.4,15 1,0.3 1.9,0.5 2.9,0.8 1.4,-5.1 2.7,-10.1 4.1,-15.2 -1,-0.1 -2,-0.3 -2.9,-0.4 0.2,4.8 -0.5,9.3 -2.1,13.9 1,0.1 2,0.3 2.9,0.4 0.5,-4.5 0,-11.5 2.6,-15.3 -0.9,-0.1 -1.8,-0.2 -2.7,-0.4 1.4,4.9 0.9,9.6 0.2,14.7 1,0.1 2,0.3 2.9,0.4 -0.4,-5.6 -0.8,-11.3 -1.2,-16.9 -0.9,0.4 -1.7,0.7 -2.6,1.1 3.8,3.9 2.3,9 0.6,13.5 0.9,-0.1 1.8,-0.2 2.7,-0.4 -1.1,-2.1 -3.3,-5.6 -3.2,-8.1 -1,-1.6 -0.6,-2.4 1.3,-2.3 0.9,1.6 1.2,3.3 0.8,5 0.9,-0.4 1.7,-0.7 2.6,-1.1 -1.6,-1.9 -2.4,-3.7 -2.9,-6 -0.7,0.6 -1.5,1.1 -2.2,1.7 0.4,1.1 0.8,2.3 1.2,3.4 0.9,0.1 1.8,0.2 2.7,0.4 -0.7,-2 -1,-3.8 -0.9,-5.9 -0.6,0.5 -1.3,1 -1.9,1.4 3.9,1.6 1.2,12 0.7,14.7 0.5,-0.4 1,-0.7 1.4,-1.1 -7.6,0.2 -15.2,0.4 -22.8,0.6 -1.9,0.1 -1.9,2.9 0,3 6.7,0.2 13.3,-0.8 19.9,-1.8 -0.3,-1 -0.5,-1.9 -0.8,-2.9 -7.8,2.1 -15.6,3.5 -23.6,4.1 -1.9,0.1 -1.9,2.9 0,3 7.8,0.3 15.4,-2.4 23.2,-2.1 -0.1,-1 -0.3,-2 -0.4,-2.9 -6,2 -12,2.6 -18.3,1.9 v 3 c 7.2,-0.7 14.4,-1.4 21.6,-2.1 -0.1,-1 -0.3,-2 -0.4,-2.9 -4.8,1.4 -9.5,1.9 -14.5,1.7 v 3 c 4.9,0 9.6,-0.6 14.3,-1.8 1.9,-0.5 1.1,-3.3 -0.8,-2.9 -5.6,1.2 -11.2,1.8 -16.9,1.8 v 3 c 6.8,-0.9 13.6,-2 20.4,-3.4 1.6,-0.3 1.3,-3.1 -0.4,-2.9 -6.5,0.8 -12.9,0.7 -19.3,-0.3 -1.9,-0.3 -2.7,2.6 -0.8,2.9 6.7,1 13.4,1.2 20.1,0.4 -0.1,-1 -0.3,-2 -0.4,-2.9 -6.5,1.3 -13,2.5 -19.6,3.3 -1.9,0.2 -2,3 0,3 6,0 11.8,-0.6 17.7,-1.9 -0.3,-1 -0.5,-1.9 -0.8,-2.9 -4.5,1.1 -8.9,1.7 -13.5,1.7 -1.9,0 -1.9,2.9 0,3 5.2,0.2 10.2,-0.4 15.3,-1.8 1.6,-0.5 1.3,-3.1 -0.4,-2.9 -7.2,0.7 -14.4,1.4 -21.6,2.1 -1.9,0.2 -1.9,2.8 0,3 6.6,0.7 12.9,0 19.1,-2 1.6,-0.5 1.3,-2.9 -0.4,-2.9 -7.8,-0.3 -15.4,2.4 -23.2,2.1 v 3 c 8.3,-0.6 16.4,-2 24.4,-4.2 1.9,-0.5 1.1,-3.2 -0.8,-2.9 -6.4,1 -12.7,1.9 -19.1,1.7 v 3 c 7.6,-0.2 15.2,-0.4 22.8,-0.6 0.6,0 1.3,-0.5 1.4,-1.1 1,-5.6 4.1,-15.5 -2.8,-18.4 -1,-0.4 -1.8,0.6 -1.9,1.4 -0.2,2.5 0.1,4.4 1,6.7 0.4,1.1 2.1,1.6 2.7,0.4 1.4,-2.9 0.6,-5.8 -2.3,-7.5 -1.2,-0.7 -2.5,0.4 -2.2,1.7 0.6,2.9 1.8,5.1 3.7,7.4 0.9,1.1 2.5,0.1 2.6,-1.1 0.3,-3.2 -2.5,-12.7 -7.6,-9.8 -4.6,2.7 1.5,13.6 3,16.7 0.6,1.3 2.3,0.7 2.7,-0.4 2.2,-5.7 3.2,-11.7 -1.4,-16.4 -0.9,-0.9 -2.7,-0.3 -2.6,1.1 0.4,5.6 0.8,11.3 1.2,16.9 0.1,1.6 2.7,2.2 2.9,0.4 0.8,-5.5 1.4,-10.8 -0.2,-16.3 -0.4,-1.3 -2,-1.4 -2.7,-0.4 -3.1,4.4 -2.5,11.7 -3,16.8 -0.2,1.8 2.4,1.9 2.9,0.4 1.7,-4.8 2.4,-9.6 2.2,-14.7 -0.1,-1.7 -2.5,-2.1 -2.9,-0.4 -1.4,5.1 -2.7,10.1 -4.1,15.2 -0.5,1.9 2.2,2.6 2.9,0.8 1.8,-4.6 6.6,-13.4 2.6,-18 -0.4,-0.5 -1.3,-0.6 -1.8,-0.2 -5.5,3.6 -6.5,11.7 -7.7,17.6 -0.3,1.6 1.9,2.7 2.7,1.2 2.7,-4.9 7.5,-12.8 4.5,-18.4 -0.5,-0.8 -1.7,-1 -2.4,-0.3 -4.8,5 -7.4,10.9 -7.8,17.8 -0.1,1.2 1.7,2.1 2.6,1.1 4.1,-4.9 6.7,-10.4 7.9,-16.6 0.2,-1.2 -0.7,-2 -1.8,-1.8 -7.5,1.1 -11.1,11.7 -11.6,18.2 -0.1,1.3 1.7,2 2.6,1.1 3.9,-4.7 9.7,-12.1 7.7,-18.6 -0.3,-0.9 -1.4,-1.5 -2.2,-0.9 -6.6,4.6 -10.6,11.3 -11.5,19.3 -0.2,1.4 1.7,1.8 2.6,1.1 6.1,-5.1 9.6,-12 10.5,-19.8 0.1,-1 -1,-1.7 -1.9,-1.4 -8.2,2.6 -13.6,10.2 -13.1,18.8 0.1,1.3 1.6,2 2.6,1.1 2.3,-2.3 14.3,-18.6 6.8,-20.4 -3.1,-0.8 -6.6,4 -8.1,6 -3.1,4.1 -4.7,8.8 -5.3,13.9 -0.2,1.6 2.1,1.9 2.8,0.8 3.6,-5.4 5.5,-11.4 5.8,-17.9 0,-1 -1,-1.7 -1.9,-1.4 -4.1,1.1 -6.6,4.1 -7.6,8.2 -0.7,2.6 -1.4,7.5 1.4,9.2 2.7,1.7 4.9,-1.3 6.4,-3.1 3.2,-3.7 5.8,-7.7 6.6,-12.6 0.2,-1.1 -1,-2.6 -2.2,-1.7 -6,4.6 -9.4,10.9 -9.9,18.4 -0.1,1.3 1.7,1.9 2.6,1.1 2.4,-2.4 15.2,-18.2 8.3,-20.8 -3.1,-1.2 -6.4,3.8 -7.8,5.8 -3.1,4.4 -4.6,9.3 -5.1,14.6 -0.1,1.4 1.7,1.9 2.6,1.1 5.6,-5.2 8.9,-11.7 9.7,-19.3 0.1,-0.9 -1,-1.7 -1.9,-1.4 -7.6,2.7 -10.9,11.4 -12,18.8 -0.2,1.4 1.4,2.7 2.5,1.5 2.4,-2.5 13.8,-18.2 6.8,-20.2 -3.2,-0.9 -6.7,4.6 -8.1,6.8 -2.6,4 -3.8,8.6 -4,13.3 -0.1,1.2 1.7,2.1 2.6,1.1 3.8,-4.7 11.2,-14.7 7.1,-21 -0.6,-0.9 -1.6,-0.9 -2.4,-0.3 -6.2,5.2 -9.8,12.4 -10.5,20.5 -0.1,1.3 1.7,1.9 2.6,1.1 5.3,-5.3 8,-12 7.9,-19.4 0,-1.1 -1.3,-1.9 -2.3,-1.3 -7.1,4.4 -11.1,11.7 -11.2,20 0,1.3 1.7,2 2.6,1.1 3.8,-4 6.9,-8.8 8.2,-14.2 0.6,-2.3 1,-6.8 -2.7,-6.6 -3.9,0.2 -8,7 -9.4,10 -1.5,3.4 -3.1,7.8 -0.4,10.9 0.5,0.6 1.6,0.5 2.1,0 4,-3.9 7,-8.8 8.1,-14.3 0.5,-2.5 0.7,-6.7 -2.9,-6.7 -3.8,0 -7.9,5.6 -9.4,8.5 -2.4,4.3 -3,9 -2.2,13.8 0.2,1.2 1.8,1.4 2.5,0.7 4.5,-4.4 7.8,-9.9 9.2,-16.1 0.6,-2.7 1.4,-7.3 -2.6,-7.2 -6.9,0.2 -16.4,17.5 -9.9,22 0.5,0.3 1.1,0.2 1.5,0 3.5,-1.7 15.9,-18.5 8.3,-20.7 -3.2,-1 -6.8,4.4 -8,6.7 -2.3,4.3 -2.8,9 -1.7,13.6 0.2,1.1 1.8,1.5 2.5,0.7 4.7,-5 11,-13.9 8.3,-21 -0.3,-0.9 -1.3,-1.4 -2.2,-0.9 -7.1,4.3 -10.4,12.4 -8.5,20.4 0.3,1.1 1.7,1.4 2.5,0.7 4,-3.9 6.2,-8.8 7.2,-14.3 0.4,-2.4 1.3,-6.8 -1.8,-7.8 -3.3,-1 -6.4,4.6 -7.5,7 -2,4.3 -2.3,9 -1.2,13.7 0.3,1.1 1.7,1.5 2.5,0.7 5,-5.4 7,-12.2 5.6,-19.4 -0.2,-0.8 -1.1,-1.2 -1.8,-1 -7.8,1.9 -8.6,12.9 -7.3,19.3 0.3,1.4 2.1,1.3 2.7,0.4 2.6,-3.7 4.3,-7.8 4.7,-12.4 0.2,-2.2 0.8,-6.8 -2.2,-7.6 -3,-0.8 -4.8,3.6 -5.7,5.7 -2.1,4.7 -2.6,9.7 -2,14.8 0.2,1.4 2,2.2 2.8,0.8 3.1,-5.4 5.7,-13.5 2.9,-19.5 -0.2,-0.5 -0.8,-0.8 -1.3,-0.7 -7.4,0.1 -7,14.2 -5.7,18.9 0.3,1.2 2.1,1.5 2.7,0.4 2.8,-4.9 4.6,-12.1 2.2,-17.6 -1.7,-3.9 -4.8,-2.1 -6.7,0.8 -2.7,4.2 -4.4,12.1 -1.7,16.7 2.1,3.6 4.8,0.9 6.3,-1.8 1.8,-3.3 4.7,-11.4 1.7,-14.9 -2.7,-3.1 -6.2,1.2 -7.7,3.4 -2.3,3.5 -4.5,9.9 -1.6,13.7 2.2,2.9 6.2,2.3 7.4,-1 0.5,-1.2 -0.8,-2 -1.8,-1.8 -2.1,0.3 -3.8,0.9 -5.6,2 0.5,0.9 1,1.7 1.5,2.6 2.1,-1.6 3.5,-3.4 4.5,-5.9 0.6,-1.5 -1.5,-2.3 -2.5,-1.5 -0.6,0.3 -1.1,0.6 -1.7,0.9 0.6,0.7 1.1,1.5 1.7,2.2 2.7,-4.4 5.4,-8.9 8.1,-13.3 0.9,-1.4 -1.3,-3.2 -2.4,-1.8 -3.6,4.5 -7.3,9.1 -10.9,13.6 0.8,0.6 1.6,1.2 2.4,1.8 2,-4.7 4,-9.3 6,-14 0.6,-1.4 -1.2,-3.3 -2.4,-1.8 -1.5,1.9 -3,3.8 -4.6,5.7 0.8,0.6 1.6,1.2 2.4,1.8 1.5,-2.4 2.6,-4.8 3.5,-7.5 0.4,-1.4 -1.6,-2.7 -2.5,-1.5 -2,2.5 -3.9,5.1 -5.9,7.6 0.8,0.6 1.6,1.2 2.4,1.8 1.3,-2.9 2.5,-5.8 3.8,-8.7 0.8,-1.7 -1.6,-3.2 -2.6,-1.5 -1.1,1.8 -2.2,3.6 -3.3,5.4 -1.3,-0.6 1.3,0.9 2.3,-0.8 z"
       id="path17" />
    <path
       d="m 416.4,174.2 c 0,3.4 0.1,6.9 0.2,10.3 0.1,2.5 1.2,7.8 -0.4,9.7 -1,1.2 0.3,3.3 1.8,2.4 0.7,-0.5 0.9,-0.6 1.5,-1.2 0.6,-0.8 0.5,-2.2 -0.7,-2.5 -1.8,-0.4 -3.1,-0.4 -4.9,0.2 -1.8,0.6 -1.1,3.5 0.8,2.9 1.1,-0.1 2.2,-0.1 3.3,-0.2 -0.2,-0.8 -0.4,-1.7 -0.7,-2.5 -0.3,0.3 -0.6,0.5 -0.8,0.8 0.6,0.8 1.2,1.6 1.8,2.4 2.2,-2.6 1.6,-4.4 1.4,-7.9 -0.2,-4.7 -0.3,-9.5 -0.3,-14.2 0,-2.2 -3,-2.2 -3,-0.2 z"
       id="path18" />
    <path
       d="m 268.5,261.3 c 41.1,-2.3 82.3,-3.2 123.5,-2.7 1.9,0 1.9,-3 0,-3 -41.2,-0.5 -82.4,0.4 -123.5,2.7 -1.9,0.1 -1.9,3.1 0,3 z"
       id="path19" />
    <path
       d="m 273.8,288.7 c 29.5,-3.1 59.1,-4.7 88.7,-4.7 1.9,0 1.9,-3 0,-3 -29.6,0 -59.2,1.5 -88.7,4.7 -1.9,0.2 -2,3.2 0,3 z"
       id="path20" />
    <path
       d="m 276.5,339.8 c 39.4,-4.1 78.9,-6.4 118.5,-6.7 1.9,0 1.9,-3 0,-3 -39.6,0.3 -79.1,2.6 -118.5,6.7 -1.9,0.2 -1.9,3.2 0,3 z"
       id="path21" />
    <path
       d="m 438.3,476.6 c -19.4,-7.5 -30.9,-29 -29,-49.4 2,-20.7 17.4,-38.4 35.9,-46.7 12.7,-5.7 26.7,-6.9 39.2,-0.2 9.8,5.2 18.2,13.2 24.1,22.6 12.3,19.6 11.4,43.3 -1.6,62.5 -7.8,11.5 -22.5,14.8 -35.4,16.8 -12.8,2 -26.3,1.3 -37.1,-6.6 -1.6,-1.1 -3.1,1.5 -1.5,2.6 10,7.3 22.3,8.8 34.3,7.6 11.9,-1.2 26,-3.8 35.6,-11.4 9.5,-7.5 15.2,-21.7 17.2,-33.3 1.9,-11.1 -0.2,-22.3 -4.9,-32.5 -10.5,-22.7 -34.7,-40.9 -60.4,-34.6 -22.2,5.4 -41.8,23.3 -47.2,45.8 -5.8,23.9 6.7,50.6 29.9,59.6 1.9,0.8 2.7,-2.1 0.9,-2.8 z"
       id="path22" />
    <path
       d="m 459.4,374.5 c 1.2,18.5 2.4,37 3.7,55.5 0.1,1.9 3.1,1.9 3,0 -1.2,-18.5 -2.4,-37 -3.7,-55.5 -0.1,-1.9 -3.1,-1.9 -3,0 z"
       id="path23" />
    <path
       d="m 465.9,431.8 c 15.2,-8.3 30.2,-17 45,-26.2 1.6,-1 0.1,-3.6 -1.5,-2.6 -14.7,9.2 -29.7,17.9 -45,26.2 -1.7,1 -0.2,3.6 1.5,2.6 z"
       id="path24" />
    <path
       d="m 466.5,432.3 c 17.2,0 34.2,4.1 51.1,7 1.9,0.3 2.7,-2.6 0.8,-2.9 -17.1,-2.9 -34.4,-7.1 -51.9,-7.1 -1.9,0 -1.9,3 0,3 z"
       id="path25" />
    <path
       d="m 463.9,430.3 c -9.6,15.9 -19.2,31.7 -28.9,47.6 -1,1.7 1.6,3.2 2.6,1.5 9.6,-15.9 19.2,-31.7 28.9,-47.6 1,-1.6 -1.6,-3.2 -2.6,-1.5 z"
       id="path26" />
    <path
       d="m 293.6,572 c 43.5,-3.3 86.9,-7.1 130.2,-11.6 1.9,-0.2 1.9,-3.2 0,-3 -43.4,4.4 -86.8,8.3 -130.2,11.6 -1.9,0.2 -1.9,3.2 0,3 z"
       id="path27" />
    <path
       d="m 308.4,498.3 c 1.6,23 3.3,46.1 4.9,69.1 0.1,1.9 3.1,1.9 3,0 -1.6,-23 -3.3,-46.1 -4.9,-69.1 -0.2,-1.9 -3.2,-1.9 -3,0 z"
       id="path28" />
    <path
       d="m 311.3,498.6 c 5.7,-1 11.4,-1.3 17.2,-1 -0.5,-0.5 -1,-1 -1.5,-1.5 1.5,23.4 3.7,46.7 6.4,69.9 0.2,1.9 3.2,1.9 3,0 -2.8,-23.2 -4.9,-46.6 -6.4,-69.9 -0.1,-0.8 -0.6,-1.5 -1.5,-1.5 -6.1,-0.3 -12,0.1 -18,1.1 -1.9,0.4 -1,3.3 0.8,2.9 z"
       id="path29" />
    <path
       d="m 342.8,522 c 2.3,13.9 3.7,28 4.2,42.1 0.1,1.9 3.1,1.9 3,0 -0.5,-14.4 -1.9,-28.7 -4.3,-42.9 -0.3,-1.9 -3.2,-1.1 -2.9,0.8 z"
       id="path30" />
    <path
       d="m 346.4,523.5 c 5.8,0 11.5,-0.3 17.2,-1.1 -0.5,-0.5 -1,-1 -1.5,-1.5 1.4,13.9 2.9,27.7 4.3,41.6 0.2,1.9 3.2,1.9 3,0 -1.4,-13.9 -2.9,-27.7 -4.3,-41.6 -0.1,-0.7 -0.6,-1.6 -1.5,-1.5 -5.7,0.7 -11.5,1.1 -17.2,1.1 -1.9,0 -1.9,3 0,3 z"
       id="path31" />
    <path
       d="m 378.4,498.1 c 2.4,21.6 3.9,43.2 4.5,65 0.1,1.9 3.1,1.9 3,0 -0.7,-21.7 -2.2,-43.4 -4.5,-65 -0.2,-1.9 -3.2,-1.9 -3,0 z"
       id="path32" />
    <path
       d="m 379.9,499.3 c 3.2,0.2 6.5,0.3 9.7,0.5 4.5,0.2 4.6,0.3 4.7,4.8 0.3,6.5 0.6,12.9 1,19.4 0.9,12.4 2.3,24.7 4.6,36.9 0.4,1.9 3.2,1.1 2.9,-0.8 -2.9,-15.4 -4.3,-31.1 -5.1,-46.8 -0.2,-3.6 -0.3,-7.1 -0.5,-10.7 -0.1,-1.4 0.1,-3.5 -1,-4.7 -1.2,-1.2 -3.3,-1 -4.8,-1.1 -3.9,-0.2 -7.7,-0.4 -11.6,-0.6 -1.8,0 -1.8,3 0.1,3.1 z"
       id="path33" />
    <path
       d="m 418.8,593.3 c 38.6,-2.7 77.1,-7.6 115.1,-14.7 1.9,-0.4 1.1,-3.2 -0.8,-2.9 -37.8,7.1 -76,11.9 -114.3,14.6 -2,0.1 -2,3.1 0,3 z"
       id="path34" />
    <path
       d="m 477.6,574.2 c 16.4,-1.7 32.9,-3.4 49.3,-5.1 1.9,-0.2 1.9,-3.2 0,-3 -16.4,1.7 -32.9,3.4 -49.3,5.1 -1.9,0.2 -1.9,3.2 0,3 z"
       id="path35" />
    <path
       d="m 505.6,554.2 c 7.5,-0.3 15.1,-0.6 22.6,-0.9 1.9,-0.1 1.9,-3.1 0,-3 -7.5,0.3 -15.1,0.6 -22.6,0.9 -2,0.1 -2,3.1 0,3 z"
       id="path36" />
    <path
       d="m 426.4,217.9 c 1.9,5.5 2.7,11.1 2.4,16.9 -0.1,1.9 2.9,1.9 3,0 0.3,-6.1 -0.5,-11.9 -2.5,-17.7 -0.7,-1.8 -3.6,-1 -2.9,0.8 z"
       id="path37" />
    <path
       d="m 428.9,218.2 c 27.5,-2.8 55,-4.6 82.6,-5.5 1.9,-0.1 1.9,-3.1 0,-3 -27.6,0.9 -55.2,2.7 -82.6,5.5 -1.9,0.2 -1.9,3.2 0,3 z"
       id="path38" />
    <path
       d="m 431.8,236.4 c 27.4,-2 54.7,-4 82.1,-6 1.9,-0.1 1.9,-3.1 0,-3 -27.4,2 -54.7,4 -82.1,6 -1.9,0.1 -1.9,3.1 0,3 z"
       id="path39" />
    <path
       d="m 511.9,213.2 c 0.9,6.2 1.8,12.3 2.7,18.5 0.3,1.9 3.2,1.1 2.9,-0.8 -0.9,-6.2 -1.8,-12.3 -2.7,-18.5 -0.3,-1.9 -3.2,-1.1 -2.9,0.8 z"
       id="path40" />
    <path
       d="m 995.5,294.6 c 0.1,3.8 0.3,7.5 0.8,11.3 0.3,1.9 3.3,1.9 3,0 -0.5,-3.7 -0.8,-7.5 -0.8,-11.3 0,-1.9 -3,-1.9 -3,0 z"
       id="path41" />
    <path
       d="m 997.7,296.1 h 194.1 c 1.9,0 1.9,-3 0,-3 -64.7,0 -129.4,0 -194.1,0 -1.9,0 -1.9,3 0,3 z"
       id="path42" />
    <path
       d="m 1190,295.8 v 6.6 c 0,1.9 3,1.9 3,0 0,-2.2 0,-4.4 0,-6.6 0,-2 -3,-2 -3,0 z"
       id="path43" />
    <path
       d="m 999.5,307 h 191.6 c 1.9,0 1.9,-3 0,-3 -63.9,0 -127.8,0 -191.6,0 -2,0 -2,3 0,3 z"
       id="path44" />
    <path
       d="m 999.2,260.1 c 2.5,11.3 4.6,22.7 6.3,34.1 0.3,1.9 3.2,1.1 2.9,-0.8 -1.8,-11.4 -3.9,-22.8 -6.3,-34.1 -0.5,-1.9 -3.3,-1.1 -2.9,0.8 z"
       id="path45" />
    <path
       d="m 1001,259.9 c 13.1,0.4 26.8,2 39.9,0.4 1.9,-0.2 1.9,-3.2 0,-3 -13.1,1.6 -26.8,0 -39.9,-0.4 -1.9,-0.1 -1.9,2.9 0,3 z"
       id="path46" />
    <path
       d="m 1039.4,260.9 c -1.4,10.8 -2.7,21.6 -4.1,32.5 -0.2,1.9 2.8,1.9 3,0 1.4,-10.8 2.7,-21.6 4.1,-32.5 0.2,-1.9 -2.8,-1.9 -3,0 z"
       id="path47" />
    <path
       d="m 1015.9,256.6 c -2,-0.9 -4.4,-1.8 -5.9,-3.4 -2.6,-2.6 -2.4,-6.1 -2.8,-9.5 -0.6,-4.5 -3.1,-8.5 -3.4,-13.1 -0.8,0.4 -1.5,0.9 -2.3,1.3 9.3,6 17.5,14.5 17.2,26.3 -0.1,1.9 2.9,1.9 3,0 0.4,-12.9 -8.5,-22.3 -18.7,-28.9 -0.9,-0.6 -2.3,0.2 -2.3,1.3 0.2,2.7 1,5.1 1.9,7.7 1.3,3.6 1.3,7.1 2,10.8 1.1,5.5 4.9,7.9 9.7,10.1 1.8,0.7 3.3,-1.8 1.6,-2.6 z"
       id="path48" />
    <path
       d="m 1018.8,243.8 c -1.1,-7.6 3.9,-14.9 6.7,-21.6 2.2,-5.3 3.8,-10.7 3.5,-16.5 -1,0.1 -2,0.3 -2.9,0.4 3.7,17.3 8.3,33.7 0.4,50.7 -0.8,1.7 1.8,3.3 2.6,1.5 3.6,-7.8 5.5,-16.2 5.1,-24.8 -0.5,-9.5 -3.2,-18.9 -5.2,-28.2 -0.3,-1.7 -3,-1.3 -2.9,0.4 0.6,13.9 -12.2,25.1 -10.1,38.9 0.2,1.9 3.1,1.1 2.8,-0.8 z"
       id="path49" />
    <path
       d="m 1067.7,185.9 c 1.2,36.4 1.6,72.7 0.9,109.1 0,1.9 3,1.9 3,0 0.6,-36.4 0.3,-72.8 -0.9,-109.1 0,-2 -3,-2 -3,0 z"
       id="path50" />
    <path
       d="m 1070,186.4 c 4.3,-3.6 11.6,-2 16.4,-0.5 1.8,0.6 2.6,-2.3 0.8,-2.9 -6.1,-1.9 -14.1,-3.1 -19.3,1.3 -1.5,1.2 0.6,3.3 2.1,2.1 z"
       id="path51" />
    <path
       d="m 1085.2,185.9 c 0.2,35.9 0.4,71.7 0.6,107.6 0,1.9 3,1.9 3,0 -0.2,-35.9 -0.4,-71.7 -0.6,-107.6 0,-2 -3,-2 -3,0 z"
       id="path52" />
    <path
       d="m 1072.2,210.1 c 4,-3.3 9.9,-3 13.6,0.5 1.4,1.3 3.5,-0.8 2.1,-2.1 -5,-4.7 -12.6,-4.8 -17.8,-0.5 -1.5,1.2 0.6,3.3 2.1,2.1 z"
       id="path53" />
    <path
       d="m 1070.9,198.6 c 4.4,-3.8 10.7,-3.9 15.3,-0.4 1.6,1.2 3,-1.5 1.5,-2.6 -5.8,-4.3 -13.6,-3.7 -19,0.9 -1.4,1.3 0.8,3.4 2.2,2.1 z"
       id="path54" />
    <path
       d="m 1088.3,211.6 c 4.5,0 8.9,0.5 13.3,1.6 -0.4,-0.5 -0.7,-1 -1.1,-1.4 0.6,27 0.3,53.9 -1.1,80.9 -0.1,1.9 2.9,1.9 3,0 1.4,-26.9 1.7,-53.9 1.1,-80.9 0,-0.6 -0.5,-1.3 -1.1,-1.4 -4.7,-1.2 -9.3,-1.7 -14.1,-1.7 -2,-0.1 -2,2.9 0,2.9 z"
       id="path55" />
    <path
       d="m 1089,240 c 4,-2.6 8.8,-2.7 12.9,-0.3 1.7,1 3.2,-1.6 1.5,-2.6 -5,-3 -11.1,-2.9 -15.9,0.3 -1.6,1 -0.1,3.6 1.5,2.6 z"
       id="path56" />
    <path
       d="m 1088.5,225.7 c 3.5,-1.7 7.5,-1.8 11.1,-0.3 1.8,0.7 3.3,-1.8 1.5,-2.6 -4.7,-2 -9.5,-1.9 -14.1,0.3 -1.7,0.9 -0.2,3.5 1.5,2.6 z"
       id="path57" />
    <path
       d="m 1110.1,293 c 0,-1.7 -1.1,-7.9 -0.1,-9.1 1.4,-1.7 9.1,-1.1 11.1,-1.2 6.9,-0.4 13.9,-0.7 20.8,-0.8 13.9,-0.2 27.8,0.3 41.6,1.4 -0.5,-0.5 -1,-1 -1.5,-1.5 0.6,4.5 0.9,9 0.8,13.6 0,1.9 3,1.9 3,0 0,-4.6 -0.2,-9.1 -0.8,-13.6 -0.1,-0.9 -0.6,-1.4 -1.5,-1.5 -17.1,-1.3 -34.4,-1.7 -51.5,-1.1 -4,0.1 -7.9,0.3 -11.9,0.6 -2.9,0.2 -8.3,-0.4 -11,0.9 -3.9,1.8 -2.1,9.1 -2,12.4 0,1.8 3,1.9 3,-0.1 z"
       id="path58" />
    <path
       d="m 1120.4,279.3 c -0.2,-1.1 -1.2,-4.4 -1,-5.5 0.7,-3 3.6,-2.3 5.8,-2.3 3.6,-0.1 7.3,-0.1 10.9,-0.2 7.6,-0.1 15.2,-0.3 22.9,-0.4 7.3,-0.1 14.6,-0.3 21.9,-0.4 4,-0.1 8,-0.1 11.9,-0.2 2.8,0 4.4,-1 5.3,2.6 0.4,1.6 0.1,3.7 0,5.3 -0.1,1.9 2.9,1.9 3,0 0.1,-2.6 0.9,-7.7 -1.2,-9.9 -1.9,-1.9 -5.8,-1 -8.1,-0.9 -11.3,0.2 -22.5,0.4 -33.8,0.6 -10.9,0.2 -21.9,0.4 -32.8,0.6 -2.2,0 -6.9,-0.9 -8.5,1.1 -1.9,2.3 0.4,8 0.8,10.5 0.4,1.8 3.3,1 2.9,-0.9 z"
       id="path59" />
    <path
       d="m 1182.9,283.2 c 4.5,0.1 9.1,0.2 13.6,-0.1 2.2,-0.2 4.4,-1 4.2,-3.6 -0.2,-1.9 -3.2,-1.9 -3,0 0.1,1.1 -13.5,0.8 -14.8,0.7 -1.9,-0.1 -1.9,2.9 0,3 z"
       id="path60" />
    <path
       d="m 1129.2,269.2 c -0.1,-1.7 -0.6,-4 -0.4,-5.7 0.2,-2 -0.3,-2.3 2,-2.6 3.2,-0.4 7.3,0.7 10.5,0.9 6.7,0.5 13.5,0.8 20.2,0.9 6.7,0.1 13.5,0.1 20.2,-0.2 3,-0.1 6.6,-0.9 9.6,-0.5 1.4,-0.6 2.5,-0.2 3.2,1.1 1.1,0.5 1.5,1.4 1.4,2.5 0.3,0.8 0.4,1.8 0.7,2.7 0.7,1.8 3.6,1 2.9,-0.8 -0.9,-2.2 -0.3,-5.5 -2.1,-7.4 -1.6,-1.7 -3.9,-1.3 -6.1,-1.2 -9.9,0.5 -19.9,0.8 -29.8,0.7 -9.6,-0.2 -19.2,-0.7 -28.8,-1.6 -2,-0.2 -5.1,-1 -6.5,1 -1.6,2.4 -0.2,7.5 0,10.1 0.2,2 3.2,2 3,0.1 z"
       id="path61" />
    <path
       d="m 1205.9,368.2 v 44.5 c 0,1.9 3,1.9 3,0 0,-14.8 0,-29.7 0,-44.5 0,-1.9 -3,-1.9 -3,0 z"
       id="path62" />
    <path
       d="m 1208.4,368.2 h 78 c 1.9,0 1.9,-3 0,-3 -26,0 -52,0 -78,0 -1.9,0 -1.9,3 0,3 z"
       id="path63" />
    <path
       d="m 1285,367.2 v 44.5 c 0,1.9 3,1.9 3,0 0,-14.8 0,-29.7 0,-44.5 0,-1.9 -3,-1.9 -3,0 z"
       id="path64" />
    <path
       d="m 1207.4,415.2 h 78 c 1.9,0 1.9,-3 0,-3 -26,0 -52,0 -78,0 -1.9,0 -1.9,3 0,3 z"
       id="path65" />
    <path
       d="m 1241.4,365.2 c 0,-2.6 0.2,-5 0.9,-7.5 0.3,-1.1 0.7,-2.8 1.4,-3.6 0.3,-1 1,-1.3 2.2,-0.9 1.6,-0.7 2.4,-0.2 2.5,1.6 1.2,4.2 1.4,9 2,13.4 0.3,1.9 3.2,1.1 2.9,-0.8 -0.6,-4.4 -0.8,-9.1 -2,-13.4 -0.6,-2.4 -2.4,-4.9 -5.1,-5.1 -6.7,-0.4 -7.9,11.8 -7.9,16.3 0.2,1.9 3.2,1.9 3.1,0 z"
       id="path66" />
    <path
       d="m 1210.8,374.7 v 33 c 0,1.9 3,1.9 3,0 0,-11 0,-22 0,-33 0,-1.9 -3,-1.9 -3,0 z"
       id="path67" />
    <path
       d="m 1213.9,374.7 h 68 c 1.9,0 1.9,-3 0,-3 -22.7,0 -45.4,0 -68,0 -1.9,0 -1.9,3 0,3 z"
       id="path68" />
    <path
       d="m 1280,373.7 v 35 c 0,1.9 3,1.9 3,0 0,-11.7 0,-23.3 0,-35 0,-1.9 -3,-1.9 -3,0 z"
       id="path69" />
    <path
       d="m 1212.9,409.2 h 65 c 1.9,0 1.9,-3 0,-3 -21.7,0 -43.4,0 -65,0 -1.9,0 -1.9,3 0,3 z"
       id="path70" />
    <path
       d="m 1215.7,395.9 c 2.2,-3.2 4.2,-3.9 5.9,-2.3 0.3,0.2 0.5,0.4 0.8,0.6 0.7,0.3 1.2,0.8 1.9,1 1.2,0.4 2.6,0.3 3.8,-0.2 0.9,-0.4 1.7,-1.1 2,-2.1 0.5,-1.6 -0.7,-1.9 -0.8,-3.3 -0.5,-0.6 -0.3,-1.2 0.6,-2 0.2,-2.3 1.6,-2.8 4,-1.4 0.6,0 1.2,0.2 1.7,0.1 1.8,-0.3 2,-0.9 3.3,-2 4.2,-3.4 8.9,-1.7 10,3.7 0.1,0.7 0.6,5.3 -0.2,5.8 -0.8,-1 -1.6,-1.9 -2.4,-2.9 2.6,0.4 4.5,1.8 5.6,4 0.6,1 1.9,0.9 2.6,0 2,-2.1 4,-2.2 6,-0.2 0.7,-0.7 1.4,-1.4 2.1,-2.1 -0.8,-0.7 -1.5,-1.4 -2.3,-2.1 -2.6,-2.2 -2.4,-4.7 0.7,-7.6 4.2,0.2 6.4,4.3 4.6,8 -2.3,4.5 -7.8,5.1 -12.3,4.7 v 3 c 6.5,0.4 13.1,0.8 19.6,1.2 1.9,0.1 1.9,-2.9 0,-3 -6.5,-0.4 -13.1,-0.8 -19.6,-1.2 -1.9,-0.1 -1.9,2.8 0,3 5.2,0.5 10.9,-0.5 14.2,-5.1 2.6,-3.7 2.4,-9.3 -1.4,-12.2 -2.9,-2.2 -7.3,-1.8 -9.7,1.1 -3.6,4.5 0.6,9.4 4,12.4 1.4,1.3 3.5,-0.7 2.1,-2.1 -3.2,-3.4 -8.1,-2.8 -10.7,0.8 h 2.6 c -2.5,-4.1 -7.2,-7.1 -11.9,-4.6 -3.6,2 -4.9,7.2 -1.6,10.2 3.4,3.1 8.3,0.7 10.1,-2.8 2,-4 1.6,-10.3 -1.3,-13.9 -2.9,-3.6 -8,-4 -11.6,-1.3 -2.5,1.9 -1,2.2 -5.2,1.9 -1.4,-0.1 -2.6,-0.4 -4,0 -1.5,0.4 -2.9,1.3 -3.6,2.8 -0.5,1.1 -0.7,2.1 -0.2,3.3 0.1,0.4 1.2,1.3 1.1,1.6 -0.4,2.2 -6.2,-1.8 -7.2,-2 -4.5,-0.7 -7.5,4.1 -6.2,8 0.6,1.8 3.5,1.1 2.9,-0.8 z"
       id="path71" />
    <path
       d="m 1301.4,311.4 v 34.4 c 0,1.9 3,1.9 3,0 0,-11.5 0,-22.9 0,-34.4 0,-1.9 -3,-1.9 -3,0 z"
       id="path72" />
    <path
       d="m 1304.6,311.2 h 55.2 c 1.9,0 1.9,-3 0,-3 -18.4,0 -36.8,0 -55.2,0 -2,0 -2,3 0,3 z"
       id="path73" />
    <path
       d="m 1303.7,348.2 h 55.2 c 1.9,0 1.9,-3 0,-3 -18.4,0 -36.8,0 -55.2,0 -1.9,0 -1.9,3 0,3 z"
       id="path74" />
    <path
       d="m 1358.3,311 v 35.3 c 0,1.9 3,1.9 3,0 0,-11.8 0,-23.5 0,-35.3 0,-2 -3,-2 -3,0 z"
       id="path75" />
    <path
       d="m 1304.8,312.7 v 32.7 c 0,1.9 3,1.9 3,0 0,-10.9 0,-21.8 0,-32.7 0,-2 -3,-2 -3,0 z"
       id="path76" />
    <path
       d="m 1305.9,345.6 h 52.7 c 1.9,0 1.9,-3 0,-3 -17.6,0 -35.1,0 -52.7,0 -2,0 -2,3 0,3 z"
       id="path77" />
    <path
       d="m 1306.7,313.3 h 51 c 1.9,0 1.9,-3 0,-3 -17,0 -34,0 -51,0 -1.9,0 -1.9,3 0,3 z"
       id="path78" />
    <path
       d="m 1357,312.2 v 31.4 c 0,1.9 3,1.9 3,0 0,-10.5 0,-21 0,-31.4 0,-1.9 -3,-1.9 -3,0 z"
       id="path79" />
    <path
       d="m 1316.4,337.7 c 8.3,-4 17.7,-5.9 26.1,-1 1.7,1 3.2,-1.6 1.5,-2.6 -9.3,-5.5 -19.8,-3.5 -29.1,1 -1.8,0.8 -0.2,3.4 1.5,2.6 z"
       id="path80" />
    <path
       d="m 1316.4,333.5 c -1.8,-2.2 2.8,-2.9 3.4,-4.1 0.5,-0.9 -0.2,-3.7 0.1,-3.6 0.9,0.2 1.9,-0.4 1.9,-1.4 -0.1,-4.7 5,2.8 4.8,2.5 0.6,0.7 1.2,1.4 2.2,1.8 1.4,0.6 4.4,-1 5.2,-0.4 0.9,0.8 2.1,0.4 2.5,-0.7 0.8,-0.3 1.6,-0.6 2.5,-0.8 -0.1,1.3 1.7,2 2.6,1.1 2.7,2.1 3.1,3.8 1.1,5 -1.5,1.3 0.7,3.4 2.1,2.1 2.6,-2.2 4.4,-6 2,-9.1 -2,-2.6 -5.3,-2.4 -7.4,-0.1 0.9,0.4 1.7,0.7 2.6,1.1 0.2,-2.2 -1.1,-4 -3.5,-4.2 -2.6,-0.2 -4.1,2 -4.9,4.2 0.8,-0.2 1.7,-0.4 2.5,-0.7 -1.7,-1.4 -2,-0.8 -3.9,-0.9 -5.1,-0.2 -3.6,-3.4 -6.9,-5.3 -3.3,-1.9 -6.5,1 -6.5,4.4 0.6,-0.5 1.3,-1 1.9,-1.4 -1.5,-0.3 -3.3,-0.4 -4.3,0.9 -1.1,1.4 0.6,2.5 0.2,3.5 -0.6,1.6 -3.5,1.1 -4.2,3.2 -0.7,2 0.7,3.8 1.9,5.2 1.2,1.4 3.3,-0.8 2.1,-2.3 z"
       id="path81" />
    <path
       d="m 1328.4,307.2 c -0.6,-1.3 -0.9,-2.6 -0.6,-4 0.1,-0.9 0.9,-3.8 2.3,-3.4 1,0.3 2,2.9 2.2,3.8 0.5,1.6 0.6,3.1 0.4,4.8 -0.2,1.9 2.8,1.9 3,0 0.3,-2.7 -0.1,-5.3 -1.4,-7.7 -1,-2 -2.9,-4.7 -5.5,-3.9 -2,0.6 -3.3,3.1 -3.8,5 -0.6,2.4 -0.3,4.8 0.8,7 0.9,1.7 3.4,0.2 2.6,-1.6 z"
       id="path82" />
    <path
       d="m 1305.8,362.9 v 45.9 c 0,1.9 3,1.9 3,0 0,-15.3 0,-30.6 0,-45.9 0,-2 -3,-2 -3,0 z"
       id="path83" />
    <path
       d="m 1307.3,361.8 h 46.5 c 1.9,0 1.9,-3 0,-3 -15.5,0 -31,0 -46.5,0 -2,0 -2,3 0,3 z"
       id="path84" />
    <path
       d="m 1352.3,360.3 v 48.4 c 0,1.9 3,1.9 3,0 0,-16.1 0,-32.3 0,-48.4 0,-1.9 -3,-1.9 -3,0 z"
       id="path85" />
    <path
       d="m 1308.5,412.2 h 44 c 1.9,0 1.9,-3 0,-3 -14.7,0 -29.3,0 -44,0 -1.9,0 -1.9,3 0,3 z"
       id="path86" />
    <path
       d="m 1322.2,378.2 c -0.7,5.8 3,12.1 9.2,12.8 6.5,0.7 11.3,-4.3 11.1,-10.6 -0.1,-1.9 -3.1,-1.9 -3,0 0.2,4.7 -3.4,8.5 -8.3,7.5 -4.5,-0.9 -6.4,-5.5 -6,-9.7 0.2,-1.9 -2.8,-1.9 -3,0 z"
       id="path87" />
    <path
       d="m 1332.3,390.3 c -0.2,1.4 0.7,2.5 0.3,3.8 -0.6,2 -3.2,3.9 -4.5,5.4 -2.2,2.6 -3.8,5.2 -3.9,8.7 -0.1,1.9 2.9,1.9 3,0 0.2,-4.6 4.1,-7.3 6.7,-10.7 0.8,-1 1.6,-2.1 1.9,-3.3 0.3,-1.4 -0.7,-2.5 -0.5,-3.9 0.2,-1.9 -2.8,-1.9 -3,0 z"
       id="path88" />
    <path
       d="m 1325.4,390.2 c -3.5,-0.2 -10.1,-2.4 -8.5,-7.3 0.8,-2.6 4.1,-2.7 5.5,-4.5 1.9,-2.3 0.3,-3.6 -1.2,-5.3 -1.4,-1.6 -4.3,-2.2 -0.4,-5.7 2.2,-2 5.8,0.5 7.6,2 1.1,1 1.3,2.1 2.8,2.8 1,0.5 2.3,0.7 3.4,0.3 1.8,-0.8 3.8,-6.1 5.7,0.5 0.2,0.8 1.1,1.3 1.8,1 0.1,2.1 0.2,4.1 0.2,6.2 -1.2,1.5 0.9,3.6 2.1,2.1 1.9,-2.4 4.1,-5.4 2.7,-8.6 -1.1,-2.4 -3.5,-3.3 -5.9,-2.6 0.6,0.3 1.2,0.7 1.8,1 -0.8,-2.7 -2.1,-5.5 -5.2,-5.7 -1,-0.1 -1.9,0.1 -2.7,0.6 0.2,-0.1 -1.2,1.5 -1.2,1.5 -2.1,1.1 -2.7,-0.8 -3.9,-2 -2.1,-2.3 -3.8,-3.6 -7.2,-3.1 -2.6,0.4 -6.3,2.2 -7.2,4.9 -1.1,3.2 1.6,4.1 2.8,6.5 1.3,0.5 1.3,1.1 -0.1,1.8 -0.3,0.6 -0.7,0.9 -1.2,1.1 -0.4,0.3 -1,0.5 -1.4,0.9 -0.8,0.9 -1.4,1.8 -1.8,2.9 -2.3,7.3 5.2,11.2 11.2,11.6 2.2,0.2 2.2,-2.8 0.3,-2.9 z"
       id="path89" />
    <path
       d="m 1326.5,360 c -0.1,-1.5 -0.6,-4.2 1.2,-5.1 1.9,-0.9 1.6,2 1.4,3 -0.4,1.9 2.5,2.7 2.9,0.8 0.3,-1.6 0.5,-3.4 -0.3,-4.9 -0.8,-1.4 -2.3,-2.2 -3.8,-2 -4.1,0.5 -4.6,4.9 -4.3,8.2 0,1.9 3,1.9 2.9,0 z"
       id="path90" />
    <path
       d="m 1309.5,362.6 v 44.1 c 0,1.9 3,1.9 3,0 0,-14.7 0,-29.4 0,-44.1 0,-2 -3,-2 -3,0 z"
       id="path91" />
    <path
       d="m 1311.3,408.9 h 39.9 c 1.9,0 1.9,-3 0,-3 -13.3,0 -26.6,0 -39.9,0 -1.9,0 -1.9,3 0,3 z"
       id="path92" />
    <path
       d="m 1352.3,407.8 c 0,-15.4 0,-30.9 0,-46.3 0,-1.9 -3,-1.9 -3,0 v 46.3 c 0,1.9 3,1.9 3,0 z"
       id="path93" />
    <path
       d="m 1312,363 h 39.5 c 1.9,0 1.9,-3 0,-3 -13.2,0 -26.3,0 -39.5,0 -1.9,0 -1.9,3 0,3 z"
       id="path94" />
  </g>
  <path
     d="m 753.2,903.4 c -6.7,-5.4 -15.8,-6.5 -23.2,-2.8 -8.7,4.4 -13.4,14.7 -11.2,25 1.8,13.7 3.6,27.5 5.4,41.2 -36.5,16.7 -53.9,27.6 -52.4,32.6 1.8,6.1 31.4,3.5 88.9,-7.6 -2.5,-29.5 -5,-58.9 -7.5,-88.4 z"
     fill="#191919"
     id="path95" />
  <path
     d="m 728.8,578.8 c -1.4,20.1 -3.7,52.7 -7.6,93.1 -4.8,50.7 -6.8,101.8 -13.6,152.3 -7,52.4 -14.7,88.3 3,100.8 6.4,4.5 14.1,4.5 19.6,3.8 5.8,-1.5 11.6,-3.1 17.4,-4.6 5.7,2.8 13.4,5.5 19.6,2.3 18.2,-9.3 1,-57 2.3,-125.4 0.9,-45.1 9.6,-90.1 21.2,-149.2 8.8,-45.1 15.5,-68.5 3,-80 -15.2,-14.1 -48.9,-0.6 -64.9,6.9 z"
     fill="#ffffff"
     stroke="#161616"
     stroke-miterlimit="10"
     stroke-width="2"
     id="path96" />
  <path
     d="m 757.5,569.4 c 3.8,17.7 8.1,44.5 7.8,77.1 -0.5,52.6 -12.8,85.8 -21.7,125.3 -8.1,35.8 -15.9,88 -12.4,155.3 5.3,-1 10.7,-2.1 16,-3.1 1.2,0.9 6.1,4.2 12.9,3.6 1,-0.1 7.6,-0.8 11.9,-5.7 5.3,-6 4.2,-14.9 3.6,-19.2 -2.3,-18.7 -2.8,-37.6 -4.7,-56.4 -2,-19.8 -1.7,-35.2 -1.6,-44.5 0.1,-7 0.6,-20.1 3.1,-41.4 4.4,-37.1 8.4,-43.4 17.1,-97.3 6.6,-40.6 3.7,-33.2 6.2,-42.4 2.3,-8.2 6.2,-20.1 4.1,-35.2 -1,-7.1 -2.8,-11.1 -5.7,-14 -6,-5.9 -14.9,-5.8 -20.2,-5.7 -7.1,0.1 -12.9,2.1 -16.4,3.6 z"
     fill="#6d6c6c"
     opacity="0.14"
     id="path97" />
  <path
     d="m 786,671.4 c -7.5,16.6 -15.4,38.4 -20.2,64.7 -8.4,46.4 -0.1,70 -7.2,119.6 -2.6,18.3 -7.5,41.3 -17.1,67.3 3.6,0.5 7.2,1 10.9,1.6 5.4,1.9 12.2,3.3 17.1,0 8.8,-5.9 5.8,-23.2 3.6,-43.5 0,0 -2.7,-25 -3.1,-72.5 -0.2,-26.3 2.2,-45.7 5.7,-74 3.1,-25.4 6.9,-46.9 10.3,-63.2 z"
     fill="#6d6c6c"
     opacity="0.1"
     id="path98" />
  <path
     d="m 879.4,895.8 c -6.7,-5.4 -15.8,-6.5 -23.2,-2.8 -8.7,4.4 -13.4,14.7 -11.2,25 1.8,13.7 3.6,27.5 5.4,41.2 -36.5,16.7 -53.9,27.6 -52.4,32.6 1.8,6.1 31.4,3.5 88.9,-7.6 -2.6,-29.5 -5.1,-58.9 -7.5,-88.4 z"
     fill="#191919"
     id="path99" />
  <path
     d="m 842.1,575.7 c 5.8,47.5 12,96.5 18.6,147.4 4.5,35 5.6,43.3 9.1,56.9 6,23.6 14.1,43.7 21.1,80.2 3.3,17 5,30.8 -2.9,41.2 -5.9,7.8 -17.4,14 -20,11.6 -1.1,-1.1 -0.4,-3.9 0.6,-6.4 -2.4,2.3 -17.6,16.6 -29.7,11.6 -7.1,-2.9 -10,-11.2 -11.4,-15.7 C 813.3,859 811,815.4 811,815.4 c -0.9,-16.8 -3.1,-34 -7.4,-68.5 -3.2,-25.3 -9.2,-61.9 -22.1,-106.4 -1.9,-1.2 -20.5,-13.6 -21.7,-36.5 -0.1,-1.7 -0.8,-19 10.1,-30.7 14.4,-15.5 45.2,-16.6 72.2,2.4 z"
     fill="#ffffff"
     stroke="#161616"
     stroke-miterlimit="10"
     stroke-width="2"
     id="path100" />
  <path
     d="m 761.4,587.7 c -3.6,10.4 -4.6,22.1 1.1,32 4.9,8.5 12.8,17.8 22.4,20.8 1.8,0.6 2.6,-2.3 0.8,-2.9 -8.8,-2.7 -16.2,-11.6 -20.6,-19.4 -5.3,-9.2 -4.1,-20 -0.8,-29.7 0.7,-1.8 -2.2,-2.6 -2.9,-0.8 z"
     fill="#ffffff"
     id="path101" />
  <path
     d="m 758.4,606.3 c 0.9,15.6 10.9,28.6 26.1,32.9 1.9,0.5 2.7,-2.4 0.8,-2.9 -13.8,-3.9 -23,-15.7 -23.9,-30 -0.1,-1.9 -3.1,-1.9 -3,0 z"
     fill="#ffffff"
     id="path102" />
  <path
     d="m 802.7,562.7 c 2.6,7.8 6.6,20.4 11,36 12.8,45.2 34.9,123.5 36.3,217.7 0.2,15.7 0.8,95.6 8,96 1.7,0.1 4.5,-4.3 8.3,-3.3 2.6,0.7 2.7,3.1 5,4 5,1.9 13.3,-6.7 17.3,-13 1.4,-2.2 4.6,-7.2 5.3,-14.3 0.4,-3.2 0.1,-5.5 -1,-12.3 -1.6,-10.5 -2.4,-15.7 -3,-18.3 -4.3,-20.3 -12,-39.8 -18.3,-67.3 -2.7,-11.6 -4.5,-22 -6.7,-34 -0.7,-3.8 -2.6,-14.9 -4.7,-28.7 -4.7,-31.6 -6.2,-53.3 -9.3,-81 -1.7,-15.1 -4.3,-36.4 -8.3,-62.3 -1,-2.2 -2.8,-5.6 -6,-8.7 -1.1,-1 -4.5,-4.1 -13.7,-7 -4.5,-1.6 -11.4,-3.3 -20.2,-3.5 z"
     fill="#6d6c6c"
     opacity="0.14"
     id="path103" />
  <path
     d="m 867.7,773 c 5.5,25.6 9.2,47.5 11.7,64.7 4,28 4.2,38.2 -1,49 -7.8,16.3 -24,26 -23,27.3 0.4,0.5 3,-0.5 12,-6.3 0.3,2.4 1,5.1 3,6 5.1,2.2 16.4,-8.8 21.3,-19.3 6.7,-14.5 1.8,-29.4 -2.7,-43.7 -5.6,-18.1 -13.1,-43.9 -21.3,-77.7 z"
     fill="#6d6c6c"
     opacity="0.2"
     id="path104" />
  <path
     d="m 734.7,405.7 c -9.8,-1.3 -18.8,11.5 -36.3,37 -12,17.4 -20.4,32.7 -25.9,43.3 -11.9,-0.6 -23.8,-1.2 -35.7,-1.9 -11.1,-0.6 -22.2,-1.2 -33.3,-1.9 -4.4,-1.5 -11,-3.7 -19.1,-5.6 -13.1,-3.2 -40.2,-8.5 -41.9,-3.8 -0.5,1.5 1.3,4.6 12.9,11.9 -0.8,2 -3.7,10.4 0,20.1 0.6,1.5 3.9,9.6 11.7,13.8 10,5.3 23.8,2.4 33.9,-7.5 7.8,4.7 50.1,29.4 89.9,12.5 13,-5.5 22.1,-13.9 30.2,-21.3 14.7,-13.5 34,-31.2 34.5,-55.8 0.4,-17.8 -9,-39.2 -20.9,-40.8 z"
     fill="#ffffff"
     stroke="#161616"
     stroke-miterlimit="10"
     stroke-width="2"
     id="path105" />
  <path
     d="m 541.7,474 c 3.9,3.9 7.7,8.1 12.1,11.4 4.3,3.2 9.2,5 14.2,6.7 1.4,0.5 2,-1.7 0.6,-2.2 -5.3,-1.8 -10.4,-3.8 -14.8,-7.4 -3.8,-3.1 -7.1,-6.7 -10.5,-10.1 -1,-1 -2.6,0.6 -1.6,1.6 z"
     fill="#161616"
     id="path106" />
  <path
     d="m 589,484.3 c -3.8,1.4 -7.3,3.6 -10,6.6 -1.9,2.1 -4.7,5.4 -4,8.4 0.7,3.4 4.9,3.4 7.7,3.4 4.5,-0.1 8.8,-1.4 12.7,-3.7 1.2,-0.7 0.1,-2.7 -1.1,-1.9 -2.5,1.5 -5.2,2.6 -8.1,3.1 -2.5,0.4 -9.8,1.3 -8.5,-3.4 1.3,-4.8 7.7,-8.7 12,-10.3 1.2,-0.5 0.6,-2.7 -0.7,-2.2 z"
     fill="#161616"
     id="path107" />
  <path
     d="m 554.1,486.5 c -2.1,6.7 -2.1,13.2 5.1,16.4 5.3,2.4 13,1.2 15.7,-4.5 0.6,-1.3 -1.3,-2.4 -1.9,-1.1 -2.2,4.7 -8.5,5.5 -12.9,3.5 -6.1,-2.7 -5.5,-8.2 -3.8,-13.7 0.4,-1.4 -1.7,-2 -2.2,-0.6 z"
     fill="#161616"
     id="path108" />
  <path
     d="m 553.6,501.3 c 0.4,5.7 3.9,11.3 9.9,12.4 5.3,1 10.2,-2.2 12.1,-7 0.5,-1.3 -1.6,-1.9 -2.2,-0.6 -1.6,4 -6.1,6.4 -10.4,5.2 -4.4,-1.3 -6.9,-5.7 -7.2,-10 0,-1.4 -2.3,-1.4 -2.2,0 z"
     fill="#161616"
     id="path109" />
  <path
     d="m 575.2,507.8 c 7.8,-1.4 5.2,12.5 -0.5,12 -1.4,-0.1 -1.4,2.1 0,2.3 4.8,0.4 7.4,-5.5 7.7,-9.5 0.3,-4.4 -3.5,-7.6 -7.8,-6.8 -1.4,0.1 -0.8,2.2 0.6,2 z"
     fill="#161616"
     id="path110" />
  <path
     d="m 574.6,499.7 c 0,-0.1 0.1,-0.1 0.1,-0.2 -0.4,0.1 -0.7,0.2 -1.1,0.3 0.8,0.2 0.9,2.8 0.8,3.3 -0.1,1.3 -0.6,2.5 -1.6,3.5 -1,1 0.6,2.6 1.6,1.6 1.5,-1.5 2.3,-3.6 2.2,-5.8 -0.1,-1.6 -0.6,-4.4 -2.5,-4.8 -0.4,-0.1 -0.8,0 -1.1,0.3 0,0.1 -0.1,0.1 -0.1,0.2 -0.8,1.1 0.7,2.7 1.7,1.6 z"
     fill="#161616"
     id="path111" />
  <path
     d="m 569.2,492.3 c 2.4,0.1 3.9,2.4 3.3,4.7 -0.4,1.4 1.8,2 2.2,0.6 1,-3.7 -1.5,-7.4 -5.4,-7.5 -1.6,-0.1 -1.6,2.2 -0.1,2.2 z"
     fill="#161616"
     id="path112" />
  <path
     d="m 749.5,421.8 c -2.9,8.5 -7.7,20 -15.3,32.6 -7.8,12.9 -16.5,27.2 -33.4,39.2 -6.2,4.4 -24.9,17.4 -52.6,18.4 -26.1,0.9 -45.3,-9.3 -52.9,-13.9 -6,4.5 -10.1,4.8 -12.8,4.2 -2.4,-0.6 -3.3,-1.8 -7.5,-3.1 -3.6,-1.1 -6.5,-1.3 -8.1,-1.4 -5.8,-0.4 -11.8,-0.8 -13.4,1.9 -2.1,3.7 4.7,11.6 10,15.9 2.4,1.9 6.6,5.2 12.5,6.1 13.9,2.2 24.2,-9.9 24.8,-10.6 3.4,2.1 8.3,5 14.5,7.8 10.1,4.7 24.4,11.2 43.4,11.1 21.6,0 37.2,-8.5 40.4,-10.3 3.8,-2.2 10.9,-8.4 25,-20.9 13.1,-11.6 17.9,-16.7 22.3,-23.7 2.6,-4.1 5.9,-9.4 7.8,-16.7 4.1,-15.6 -1.4,-29.8 -4.7,-36.6 z"
     fill="#6d6c6c"
     opacity="0.12"
     id="path113" />
  <path
     d="m 754.8,433.8 c -1.9,6.6 -5.2,15.9 -10.9,26.2 -5.3,9.6 -19.3,34.3 -49,49.5 -8.8,4.5 -24,12.1 -45.1,11.7 -23.4,-0.5 -40.2,-10.5 -47.3,-15.3 -4,2.5 -10,5.7 -17.8,7.8 -10.4,2.7 -17.9,1.8 -18.1,3.3 -0.2,1.5 7,4.7 14.5,4.5 10.5,-0.3 17.9,-7.2 20.6,-10 6.9,5 32.7,22.6 66.5,18.1 26.1,-3.5 42.6,-18.2 57.1,-31.2 10.8,-9.7 23.3,-21.2 28.1,-40.4 2.5,-9.8 2.1,-18.4 1.4,-24.2 z"
     fill="#6d6c6c"
     opacity="0.15"
     id="path114" />
  <path
     d="m 724.1,406.1 c -2,2.3 -5.5,7.2 -8.5,30.6 -4,31.8 -1.9,57 0,75.8 2.2,22.3 5.3,49.2 9.8,79.8 17.4,5.4 46.3,11.5 81,6 15.7,-2.5 29.1,-6.8 39.9,-11.3 -2.3,-25 -2,-45.2 -1.3,-58.5 3.4,-68.7 6.5,-87.8 6.5,-87.8 2.3,-13.7 4.4,-22.2 -0.7,-29.9 -5.1,-7.9 -14.8,-10.6 -45.7,-12.6 -46.9,-3.2 -70.5,-4.5 -81,7.9 z"
     fill="#ec615b"
     id="path115"
     style="fill:#f1aa4b;fill-opacity:1" />
  <path
     d="m 791.6,398.4 c 3.1,11 5.7,22.7 7.9,35.1 11.4,65.2 3.4,123 -7.9,166.1 5.8,-0.4 11.9,-1.1 18.4,-2.2 13.8,-2.3 25.9,-5.9 35.9,-9.6 -1.4,-19.9 -1.8,-36.9 -1.8,-50.4 0.1,-37.7 3.4,-66.5 4.8,-78 1.8,-14 3.7,-25.7 5.3,-34.2 0.4,-2.4 0.8,-6.8 -1.3,-11.4 -2.4,-5.3 -6.9,-8.1 -8.8,-9.2 -6.5,-3.9 -13.1,-3.9 -16.7,-3.9 -8.6,-0.3 -20,-0.8 -35.8,-2.3 z"
     fill="#6d6c6c"
     opacity="0.14"
     id="path116" />
  <path
     d="m 853.4,422 c -17.7,45.9 -21.4,78.7 -21,100.8 0.1,8.3 1,28.2 -9.6,49.1 -6.5,12.7 -15,21.6 -21.5,27.2 6,-0.8 12.6,-2 19.7,-3.9 9.1,-2.4 17,-5.4 23.7,-8.3 -0.9,-25.8 -0.8,-53.8 0.9,-83.7 1.5,-29.2 4.3,-56.3 7.8,-81.2 z"
     fill="#6d6c6c"
     opacity="0.16"
     id="path117" />
  <path
     d="m 839.8,406.4 c 12.3,-5.4 29,10.4 39.8,20.5 11.8,11.1 35.7,33.6 36.9,70.4 1,30.7 -14.3,52.9 -21.9,62.2 -11.9,14.5 -25.4,22.1 -33.4,25.8 -0.1,3.4 -0.6,8.8 -2.9,14.7 -1.3,3.2 -7.9,20 -20.5,20.7 -1.7,0.1 -7.5,0.1 -14.2,-6.2 -0.4,0 -2.4,-0.3 -3.7,-2.1 -1.2,-1.7 -1.3,-4.2 -0.1,-6.2 -0.3,-0.2 -2.9,-1.5 -3.5,-4.6 -0.7,-3.4 1.6,-5.9 1.8,-6 0.1,-1.7 0.5,-3.9 2.1,-5 1.8,-1.2 3.7,-0.2 6.6,-0.4 1.9,-0.2 4.6,-0.9 7.8,-3.7 -3.6,-1 -11.7,-3.6 -11.5,-6.5 0.1,-3.4 11.8,-5.4 14.4,-5.9 6.4,-1.1 11.9,-0.9 15.6,-0.6 2.2,-4 5.4,-9.9 9.2,-17 6.4,-12 9.6,-18 11.5,-22.3 3.6,-8 7.6,-20.1 8.7,-37 -4.5,-4.4 -11.4,-10.7 -20.2,-17.6 -19,-14.8 -25.4,-15.1 -30.6,-23.5 -9.8,-15.7 -5.1,-43.9 8.1,-49.7 z"
     fill="#ffffff"
     stroke="#161616"
     stroke-miterlimit="10"
     stroke-width="2"
     id="path118" />
  <path
     d="m 817.1,594.4 c 1.6,7.8 13.6,6 18.4,3.2 1.2,-0.7 0.1,-2.7 -1.1,-1.9 -3.5,2.1 -13.9,4.4 -15.1,-1.8 -0.3,-1.5 -2.5,-0.9 -2.2,0.5 z"
     fill="#161616"
     id="path119" />
  <path
     d="m 818.3,606.9 c 6,4.3 14.8,2.3 21.1,-0.6 1.3,-0.6 0.2,-2.5 -1.1,-1.9 -5.6,2.5 -13.5,4.3 -18.8,0.6 -1.2,-0.9 -2.3,1.1 -1.2,1.9 z"
     fill="#161616"
     id="path120" />
  <path
     d="m 822.8,615.7 c 6.2,3 13.4,2.6 19.1,-1.4 1.2,-0.8 0.1,-2.8 -1.1,-1.9 -5,3.5 -11.3,4.1 -16.8,1.4 -1.3,-0.7 -2.5,1.2 -1.2,1.9 z"
     fill="#161616"
     id="path121" />
  <path
     d="m 835.5,410.2 c -2,6.8 21.4,13.3 41.9,35.3 7.1,7.6 21.6,23.1 25,46.1 4.3,28.5 -10.6,51.3 -16.1,59.5 -10.6,16.1 -23.5,25.6 -31.3,30.5 0,2.8 -0.4,13 -8.2,21.6 -1.6,1.8 -7.9,8.7 -17.1,9.7 -5.3,0.6 -10.1,-0.9 -10.3,-0.3 -0.1,0.6 3.6,1.4 8.4,4.7 3.1,2.1 3.2,3 4.7,3.7 6.2,2.9 16,-5.9 17.1,-6.8 10.2,-9.3 11.4,-23.1 11.6,-28.2 2.3,-1.3 5.4,-3.1 9,-5.5 3.7,-2.5 14.6,-9.7 23.2,-19.2 2.3,-2.5 14,-15.8 19.7,-37.1 2,-7.5 7.5,-29.2 -1.3,-52.9 -3.9,-10.3 -8.9,-17 -17.9,-28.7 -8,-10.5 -13.9,-15.7 -25.3,-25.8 -8.2,-7.3 -13.1,-10.7 -19.7,-11.1 -4.5,-0.3 -12.3,0.8 -13.4,4.5 z"
     fill="#6d6c6c"
     opacity="0.18"
     id="path122" />
  <path
     d="m 904,456 c 3.4,8.4 8.3,23.7 7.6,43.2 -0.7,21.2 -7.6,36.6 -10.3,41.9 -12.4,25 -32,38.4 -41.6,44 7.8,-2.9 19.1,-8.4 29.8,-18.7 31.3,-30.2 26.7,-72.8 26.3,-75.8 -1.8,-15 -7.2,-26.7 -11.8,-34.6 z"
     fill="#6d6c6c"
     opacity="0.18"
     id="path123" />
  <path
     d="m 789.4,329.4 c 6,20.1 8.2,31.8 16.7,50.2 4,8.6 7.8,15.4 10.5,19.9 -8.7,4.1 -22.8,9.4 -40.9,10.1 -10.7,0.4 -19.9,-1 -27,-2.6 0.7,-5.5 1.1,-12.4 0.6,-20.2 -0.7,-9.8 -2.8,-18.1 -4.8,-24.2 -9.6,-1.2 -19.3,-2.5 -28.9,-3.7 -1.9,-4.2 -3.8,-8.5 -5.7,-12.7 -2.6,-0.1 -5.3,-0.2 -7.9,-0.3 2,-5.8 5,-14.9 8.5,-26.2 6.5,-21.3 6.4,-24.3 9.9,-29.1 9.7,-13.1 31.4,-21.5 45.7,-14.4 8.5,4.1 13.5,20.5 23.3,53.2 z"
     fill="#ffffff"
     stroke="#161616"
     stroke-miterlimit="10"
     stroke-width="2"
     id="path124" />
  <path
     d="m 702.2,347.5 c 5,0.1 9.9,-0.3 14.8,-1 1.9,-0.3 1.1,-3.2 -0.8,-2.9 -4.7,0.7 -9.3,1 -14,0.9 -1.9,0 -1.9,3 0,3 z"
     fill="#161616"
     id="path125" />
  <path
     d="m 700.3,309.3 c 2.8,-1.5 6.5,-0.7 8.3,1.9 1.1,1.6 3.7,0.1 2.6,-1.5 -2.8,-4 -8.1,-5.3 -12.4,-3 -1.7,0.9 -0.2,3.5 1.5,2.6 z"
     fill="#161616"
     id="path126" />
  <path
     d="m 723.9,312.8 c 3.6,-1.1 7.5,0.1 9.6,3.3 1.1,1.6 3.7,0.1 2.6,-1.5 -2.9,-4.2 -8.1,-6.2 -13,-4.6 -1.8,0.5 -1.1,3.4 0.8,2.8 z"
     fill="#161616"
     id="path127" />
  <path
     d="m 724.6,324 c -0.1,-1.1 0.1,-2.2 0.7,-3.2 0.1,-0.2 0.3,-0.5 0.5,-0.7 -0.4,-0.5 -0.6,-0.6 -0.5,-0.1 -0.2,0.2 -0.1,1.2 -0.2,1.5 -0.1,0.5 -0.3,1 -0.5,1.5 -0.1,0.2 -0.2,0.4 -0.3,0.5 0.5,0.9 0.8,1 1,0.3 0.4,-0.4 0.6,-1.3 0.9,-1.8 0.3,-0.6 0.6,-1.2 0.9,-1.8 0.8,-1.5 -1.1,-3 -2.4,-1.8 -0.7,0.7 -1.1,1.4 -1.4,2.3 -0.5,1.9 2.4,2.7 2.9,0.8 0.1,-0.5 0.3,-0.7 0.6,-1 -0.8,-0.6 -1.6,-1.2 -2.4,-1.8 -0.7,1.4 -1.5,2.8 -2.1,4.3 -0.5,1.1 -0.4,2.4 0.7,3.1 2.7,1.7 4.4,-1.8 4.9,-3.9 0.4,-2 0.4,-6.2 -2.9,-5.3 -2.6,0.8 -3.6,4.6 -3.5,6.9 0.2,2.1 3.2,2.1 3.1,0.2 z"
     fill="#161616"
     id="path128" />
  <path
     d="m 716.9,295.8 c 0.7,-4.3 2.4,-11.5 7.1,-18.9 1.7,-2.6 5.2,-8.1 10.9,-11.8 10.9,-7.1 27.6,-6.5 39.7,2.2 11.9,8.5 17.8,23.7 15.2,38.9 -24.2,-3.4 -48.6,-6.9 -72.9,-10.4 z"
     fill="#5222d0"
     id="path129"
     style="fill:#091a3e;fill-opacity:1" />
  <path
     d="m 677.1,296.1 c 37.5,4.7 74.9,9.4 112.4,14.1 5.7,0.7 5.7,-8.3 0,-9 -37.5,-4.7 -74.9,-9.4 -112.4,-14.1 -5.8,-0.7 -5.7,8.3 0,9 z"
     fill="#161616"
     id="path130"
     style="fill:#091a3e;fill-opacity:1" />
  <path
     d="m 765.6,305.2 c -6.6,2.4 -10.5,7 -14.9,12.3 -9.4,11.4 -6.6,15.6 -13.2,22.7 -10.5,11.3 -21.2,4.6 -30.6,15.7 -8,9.4 -6.9,22.1 -6.6,25 0.3,2.8 1.7,14.1 11,21.9 8.1,6.7 18.9,8.2 19.6,6.7 0.2,-0.5 -0.6,-1.9 -6.6,-5.9 1.7,1.2 4.5,2.7 8,3.4 4.1,0.7 8,0 8,-0.6 0,-0.5 -2.2,-0.4 -3.9,-2.2 -1,-1.1 -1.4,-2.3 -1.7,-3.4 3.3,2.1 7.4,4 11.3,2.8 10.7,-3.2 12.6,-26.9 13.2,-34.8 2,-25.4 -5.3,-39.3 3.6,-48.3 0.7,-0.8 4.3,-4.4 8.3,-3.6 5,0.9 8.8,8.6 7.2,13.7 -1.4,4.4 -6.4,5.6 -6.1,6.5 0.5,1 8.9,-0.6 16,-6.2 2.6,-2 4.7,-3.7 5.8,-6.7 1.9,-5.3 -0.3,-11.3 -3.3,-14.9 -6.2,-7.2 -17.9,-6.7 -25.1,-4.1 z"
     fill="#161616"
     stroke="#161616"
     stroke-miterlimit="10"
     stroke-width="2"
     id="path131" />
  <path
     d="m 775.5,338 c -1.6,0.2 -3.9,0.2 -4,-0.3 -0.1,-0.3 0.5,-0.7 0.5,-0.7 0,0 -1.9,2.4 -4.3,2.7 -1.1,0.1 -2.1,-0.2 -2.8,-0.6 4.2,8.9 8.5,19.6 12.2,32 4,13.6 6.3,25.9 7.6,36.5 4.3,0 10.4,-0.5 17.4,-2.7 5.7,-1.8 10.2,-4.2 13.6,-6.3 -9,-14.1 -13.6,-25.4 -16.2,-33.1 -1.2,-3.6 -3.8,-12.1 -5,-16.3 -2.3,-7.6 -4.2,-13.9 -5.4,-18.1 -0.6,0.6 -1.7,1.5 -3,2.4 -1.9,1.4 -5.6,4 -10.6,4.5 z"
     fill="#6d6c6c"
     opacity="0.22"
     id="path132" />
  <path
     d="m 752.6,260.7 c 9.7,1.9 17,9.7 18.2,18.8 1.3,10.9 -6.7,18.4 -7.5,19 10.4,1.3 20.7,2.5 31.1,3.8 0.2,-2.4 0.3,-5.7 -0.4,-9.5 -2,-12.2 -9.2,-19.8 -10.7,-21.3 -2.4,-2.4 -10.9,-10.5 -23.6,-11.2 -2.9,-0.1 -5.4,0.2 -7.1,0.4 z"
     fill="#321693"
     id="path133"
     style="fill:#091a3e;fill-opacity:1" />
  <path
     d="m 528.5,698.4 c 0.5,5.4 0.9,10.9 1.4,16.3 l 509.1,0.9 c 1.5,-5.4 3,-10.9 4.5,-16.3 -171.6,-0.3 -343.3,-0.6 -515,-0.9 z"
     fill="#ffffff"
     id="path134" />
  <path
     d="m 535.3,699.1 h 5.4 c 1.9,0 1.9,-3 0,-3 -1.8,0 -3.6,0 -5.4,0 -2,0 -2,3 0,3 z"
     fill="#161616"
     id="path135" />
  <path
     d="m 529.8,702 h 200.7 c 0,0 133.8,0 200.7,0 H 1045 c 3.9,0 3.9,-6 0,-6 -66.9,0 -133.8,0 -200.7,0 -66.9,0 -133.8,0 -200.7,0 -37.9,0 -75.9,0 -113.8,0 -3.8,0 -3.8,6 0,6 z"
     fill="#161616"
     id="path136" />
  <path
     d="m 531.2,716.8 h 395.2 111.8 c 3.9,0 3.9,-6 0,-6 -131.7,0 -263.5,0 -395.2,0 -37.3,0 -74.5,0 -111.8,0 -3.9,0 -3.9,6 0,6 z"
     fill="#161616"
     id="path137" />
  <path
     d="m 547.1,731.4 v 251.3 71.8 c 0,3.9 6,3.9 6,0 0,-83.8 0,-167.6 0,-251.3 0,-23.9 0,-47.9 0,-71.8 0,-3.8 -6,-3.8 -6,0 z"
     fill="#161616"
     id="path138" />
  <path
     d="m 964.9,727.4 v 227.5 64.6 c 0,3.9 6,3.9 6,0 0,-75.8 0,-151.7 0,-227.5 0,-21.5 0,-43 0,-64.6 0,-3.9 -6,-3.9 -6,0 z"
     fill="#161616"
     id="path139" />
  <path
     d="m 133.8,984.5 h 228.8 229.8 128.9 c 3.9,0 3.9,-6 0,-6 -76.3,0 -152.5,0 -228.8,0 -76.6,0 -153.2,0 -229.8,0 -43,0 -85.9,0 -128.9,0 -3.9,0 -3.9,6 0,6 z"
     fill="#161616"
     id="path140" />
  <path
     d="m 836.3,987.2 h 202.7 201.7 114.8 c 3.9,0 3.9,-6 0,-6 -67.6,0 -135.1,0 -202.7,0 -67.2,0 -134.5,0 -201.7,0 -38.3,0 -76.5,0 -114.8,0 -3.9,0 -3.9,6 0,6 z"
     fill="#161616"
     id="path141" />
  <path
     d="m 548.3,731.3 v 245.8 70 c 0,3.9 6,3.9 6,0 0,-81.9 0,-163.9 0,-245.8 0,-23.3 0,-46.6 0,-70 0,-3.9 -6,-3.9 -6,0 z"
     fill="#161616"
     id="path142" />
  <path
     d="m 549.6,732.6 v 244.8 69.7 c 0,3.9 6,3.9 6,0 0,-81.6 0,-163.2 0,-244.8 0,-23.2 0,-46.4 0,-69.7 0,-3.8 -6,-3.8 -6,0 z"
     fill="#161616"
     id="path143" />
  <path
     d="m 964.4,725.9 v 222.7 63.6 c 0,3.9 6,3.9 6,0 0,-74.2 0,-148.5 0,-222.7 0,-21.2 0,-42.4 0,-63.6 0,-3.8 -6,-3.8 -6,0 z"
     fill="#161616"
     id="path144" />
  <path
     d="m 965.8,727.3 v 220.8 62.9 c 0,3.9 6,3.9 6,0 0,-73.6 0,-147.2 0,-220.8 0,-21 0,-42 0,-62.9 0,-3.9 -6,-3.9 -6,0 z"
     fill="#161616"
     id="path145" />
  <path
     d="m 534.5,717.3 c 5.2,6.3 9.8,12.9 13.9,19.9 2,3.3 7.2,0.3 5.2,-3 -4.4,-7.4 -9.4,-14.4 -14.9,-21.1 -2.5,-3 -6.7,1.2 -4.2,4.2 z"
     fill="#161616"
     id="path146" />
  <path
     d="m 554.8,735.1 c 7.4,-6.2 14.7,-12.5 22.1,-18.7 2.9,-2.5 -1.3,-6.7 -4.2,-4.2 -7.4,6.2 -14.7,12.5 -22.1,18.7 -3,2.5 1.3,6.7 4.2,4.2 z"
     fill="#161616"
     id="path147" />
  <path
     d="m 947.7,720.4 c 6.2,3.9 12.4,7.8 18.6,11.7 3.3,2.1 6.3,-3.1 3,-5.2 -6.2,-3.9 -12.4,-7.8 -18.6,-11.7 -3.3,-2 -6.3,3.2 -3,5.2 z"
     fill="#161616"
     id="path148" />
  <path
     d="m 983.8,713.3 c -5.2,4.2 -10.2,8.7 -14.9,13.4 -2.7,2.7 1.5,7 4.2,4.2 4.7,-4.7 9.7,-9.2 14.9,-13.4 3,-2.4 -1.2,-6.6 -4.2,-4.2 z"
     fill="#161616"
     id="path149" />
  <path
     d="m 952.4,720.7 c 8,1.2 15.8,1.5 23.8,0.7 -0.5,-1.9 -1,-3.7 -1.5,-5.6 -3.3,2.1 -6.7,2.7 -10.6,3.1 -2.2,0.3 -4.4,3.3 -2.1,5.1 3.1,2.5 6.2,3.3 10.1,2.3 3.7,-0.9 2.2,-6.7 -1.6,-5.8 -1.5,0.6 -3,0.3 -4.3,-0.8 -0.7,1.7 -1.4,3.4 -2.1,5.1 4.8,-0.5 9.5,-1.2 13.6,-4 2.3,-1.5 1.7,-5.9 -1.5,-5.6 -7.4,0.7 -14.9,0.6 -22.3,-0.5 -3.7,-0.4 -5.3,5.4 -1.5,6 z"
     fill="#161616"
     id="path150" />
  <path
     d="m 981.4,715 c -2.8,-0.6 -5.6,-0.2 -8,1.4 -1.3,0.9 -1.9,2.6 -1.1,4.1 0.8,1.3 2.8,2 4.1,1.1 1.1,-0.8 2.2,-1.1 3.3,-0.8 1.6,0.3 3.2,-0.5 3.7,-2.1 0.5,-1.5 -0.4,-3.4 -2,-3.7 z"
     fill="#161616"
     id="path151" />
  <path
     d="m 541.3,720.1 c 1.8,1.2 8.5,4.3 8.2,6.9 l 3,-3 c -0.4,0 -1.6,-4.6 -1.9,-5.4 -0.9,1.5 -1.7,3 -2.6,4.5 6,-0.3 11.7,-1.5 17.2,-3.7 -1,-1.7 -1.9,-3.3 -2.9,-5 -3.4,3.5 -7,6.8 -10.9,9.8 l 4.1,4.1 c 3.6,-6.1 -1.5,-11.1 -6.7,-13.7 -0.5,1.9 -1,3.7 -1.5,5.6 4.1,-0.2 8.2,-0.3 12.3,-0.1 3.9,0.2 3.8,-5.8 0,-6 -4.1,-0.2 -8.2,-0.2 -12.3,0.1 -2.8,0.2 -4.3,4.2 -1.5,5.6 1.8,0.9 6.2,2.8 4.6,5.5 -1.4,2.4 1.6,6 4.1,4.1 4.3,-3.3 8.4,-6.8 12.1,-10.7 1.9,-2 0,-6.2 -2.9,-5 -5.1,2 -10.2,3.2 -15.6,3.5 -2.4,0.1 -3.5,2.4 -2.6,4.5 1.7,3.8 1.6,8.4 7.1,8.3 1.8,0 2.8,-1.4 3,-3 0.8,-6 -7.1,-9.4 -11.1,-12 -3.4,-2.2 -6.4,3 -3.2,5.1 z"
     fill="#161616"
     id="path152" />
  <path
     d="m 574.1,695.3 c 0,-4.9 0,-9.8 0,-14.8 0,-1.9 -3,-1.9 -3,0 v 14.8 c 0,2 3,2 3,0 z"
     fill="#e8e8e8"
     id="path153" />
  <path
     d="m 572.6,681.8 h 83 c 1.9,0 1.9,-3 0,-3 -27.7,0 -55.3,0 -83,0 -1.9,0 -1.9,3 0,3 z"
     fill="#e8e8e8"
     id="path154" />
  <path
     d="m 654.1,680.3 v 14.1 c 0,1.9 3,1.9 3,0 0,-4.7 0,-9.4 0,-14.1 0,-2 -3,-2 -3,0 z"
     fill="#e8e8e8"
     id="path155" />
  <path
     d="m 576.4,687.4 h 63.5 c 1.9,0 1.9,-3 0,-3 -21.2,0 -42.3,0 -63.5,0 -1.9,0 -1.9,3 0,3 z"
     fill="#e8e8e8"
     id="path156" />
  <path
     d="m 590.5,693.1 h 48.7 c 1.9,0 1.9,-3 0,-3 -16.2,0 -32.5,0 -48.7,0 -1.9,0 -1.9,3 0,3 z"
     fill="#e8e8e8"
     id="path157" />
  <path
     d="m 593.9,680 c 0,-3.4 0,-6.7 0,-10.1 0,-1.9 -3,-1.9 -3,0 V 680 c 0,1.9 3,1.9 3,0 z"
     fill="#e8e8e8"
     id="path158" />
  <path
     d="m 594.3,670.8 h 72.3 c 1.9,0 1.9,-3 0,-3 -24.1,0 -48.2,0 -72.3,0 -1.9,0 -1.9,3 0,3 z"
     fill="#e8e8e8"
     id="path159" />
  <path
     d="m 656.5,681.1 h 9.4 c 1.9,0 1.9,-3 0,-3 -3.1,0 -6.3,0 -9.4,0 -1.9,0 -1.9,3 0,3 z"
     fill="#e8e8e8"
     id="path160" />
  <path
     d="m 665.1,669.6 v 9.7 c 0,1.9 3,1.9 3,0 0,-3.2 0,-6.5 0,-9.7 0,-2 -3,-2 -3,0 z"
     fill="#e8e8e8"
     id="path161" />
  <path
     d="m 608.8,675.8 h 17.3 c 1.9,0 1.9,-3 0,-3 -5.8,0 -11.5,0 -17.3,0 -2,0 -2,3 0,3 z"
     fill="#e8e8e8"
     id="path162" />
  <path
     d="M 638.6,678.3 H 654 c 1.9,0 1.9,-3 0,-3 -5.1,0 -10.3,0 -15.4,0 -1.9,0 -1.9,3 0,3 z"
     fill="#e8e8e8"
     id="path163" />
  <path
     d="m 610.7,666.4 c -2.4,-2.3 -2.9,-5.8 -2.7,-9 0.4,-5.3 5.2,-5.5 9.2,-3.9 1.8,0.7 2.6,-2.2 0.8,-2.9 -4.5,-1.8 -10.4,-1.7 -12.4,3.6 -1.7,4.5 -0.5,11 3,14.3 1.4,1.4 3.5,-0.8 2.1,-2.1 z"
     fill="#e8e8e8"
     id="path164" />
  <path
     d="m 616.7,652 c 9.4,-4.2 13.3,11.6 5.2,15.6 -1.7,0.9 -0.2,3.4 1.5,2.6 11.6,-5.8 4.8,-26.6 -8.2,-20.8 -1.8,0.8 -0.2,3.4 1.5,2.6 z"
     fill="#e8e8e8"
     id="path165" />
  <path
     d="m 617,651.2 c -0.5,-3.2 -1.7,-6.1 -3.6,-8.7 -1.1,-1.6 -3.7,-0.1 -2.6,1.5 1.7,2.4 2.8,5 3.3,8 0.3,1.9 3.2,1.1 2.9,-0.8 z"
     fill="#e8e8e8"
     id="path166" />
  <path
     d="m 615.6,646.1 c 0.3,-0.8 0.7,-1.5 1.2,-2.2 0.2,-0.3 0.5,-0.7 0.8,-1 0.1,-0.2 0.3,-0.3 0.5,-0.5 -0.5,-1 -0.8,-1.2 -1,-0.7 -0.5,0.5 -1,1.8 -1.3,2.5 -0.5,0.9 -1.1,1.7 -1.7,2.5 -1.1,1.6 1.5,3.1 2.6,1.5 1.1,-1.5 2.1,-3.1 2.9,-4.8 0.7,-1.4 1.1,-3.2 -0.7,-3.9 -3,-1.1 -5.3,3.6 -6.1,5.7 -0.8,1.9 2.1,2.7 2.8,0.9 z"
     fill="#e8e8e8"
     id="path167" />
  <path
     d="m 1107,847.4 c 0.4,4.7 0.8,9.5 1.2,14.2 46.1,-0.4 92.2,-0.8 138.3,-1.2 -0.5,-4.5 -1,-9 -1.5,-13.4 -46.1,0.2 -92,0.3 -138,0.4 z"
     fill="#ffffff"
     id="path168" />
  <path
     d="m 1107.9,863.2 h 138.2 c 3.9,0 3.9,-6 0,-6 -46.1,0 -92.1,0 -138.2,0 -3.8,0 -3.9,6 0,6 z"
     fill="#161616"
     id="path169" />
  <path
     d="m 1108.8,849.5 h 135.6 c 3.9,0 3.9,-6 0,-6 -45.2,0 -90.4,0 -135.6,0 -3.9,0 -3.9,6 0,6 z"
     fill="#161616"
     id="path170" />
  <path
     d="m 1104.1,847.4 v 10.2 c 0,3.9 6,3.9 6,0 0,-3.4 0,-6.8 0,-10.2 0,-3.9 -6,-3.9 -6,0 z"
     fill="#161616"
     id="path171" />
  <path
     d="M 1243.1,847.4 V 861 c 0,3.9 6,3.9 6,0 0,-4.5 0,-9.1 0,-13.6 0,-3.9 -6,-3.9 -6,0 z"
     fill="#161616"
     id="path172" />
  <path
     d="m 1175.7,861.9 v 172.3 c 0,3.9 6,3.9 6,0 0,-57.4 0,-114.8 0,-172.3 0,-3.9 -6,-3.9 -6,0 z"
     fill="#161616"
     id="path173" />
  <path
     d="m 1175.5,1033.3 c -10.3,6.1 -20.6,12.2 -31,18.3 -3.3,2 -0.3,7.2 3,5.2 10.3,-6.1 20.6,-12.2 31,-18.3 3.4,-2 0.3,-7.2 -3,-5.2 z"
     fill="#161616"
     id="path174" />
  <path
     d="m 1177.2,1037.6 c 11.7,6.5 23.3,13.1 35,19.6 3.4,1.9 6.4,-3.3 3,-5.2 -11.7,-6.5 -23.3,-13.1 -35,-19.6 -3.4,-1.9 -6.4,3.3 -3,5.2 z"
     fill="#161616"
     id="path175" />
  <path
     d="m 1146.3,1059 c 22.2,-0.2 44.3,-0.9 66.5,-2 3.8,-0.2 3.9,-6.2 0,-6 -22.1,1.1 -44.3,1.8 -66.5,2 -3.9,0 -3.9,6 0,6 z"
     fill="#161616"
     id="path176" />
  <path
     d="m 1149.6,864.1 c 9,12.8 17.2,26.2 24.6,40 1.8,3.4 7,0.4 5.2,-3 -7.4,-13.8 -15.6,-27.2 -24.6,-40 -2.2,-3.2 -7.4,-0.2 -5.2,3 z"
     fill="#161616"
     id="path177" />
  <path
     d="m 1209.7,859.8 c -13.1,12.5 -24.3,26.7 -33.4,42.3 -2,3.3 3.2,6.4 5.2,3 8.9,-15.2 19.8,-28.9 32.5,-41 2.8,-2.7 -1.5,-7 -4.3,-4.3 z"
     fill="#161616"
     id="path178" />
  <path
     d="m 965.3,977.4 c -0.8,14.3 -1.5,28.6 -2.3,42.9 -38.2,16.6 -56.6,27.5 -55.1,32.5 1.7,6 31.1,3.9 88,-6.1 0.4,-24.5 0.8,-49 1.1,-73.5 -10.5,1.4 -21.1,2.8 -31.7,4.2 z"
     fill="#161616"
     id="path179" />
  <path
     d="m 1083.9,745.7 c -8.5,7.6 -20.6,18.6 -34.7,32.2 -33.6,32.6 -58.3,56.5 -75,81.2 -13.8,20.5 -34.3,59.5 -35.9,123.3 13.8,3.8 31.2,7 51.4,6.8 6.8,-0.1 13.3,-0.5 19.2,-1.2 -2.6,-14.5 -4.7,-37.2 0.6,-63.8 3.7,-18.7 9.9,-33.7 15.5,-44.6 45,-20 75.4,-44.5 94.8,-63.2 19.6,-18.9 41.9,-40.5 35.9,-55.8 -5.5,-14.5 -34.8,-20.1 -71.8,-14.9 z"
     fill="#ec615b"
     id="path180"
     style="fill:#f1aa4b;fill-opacity:1" />
  <path
     d="m 1131.2,745.8 c -15.1,20.1 -33.2,41.9 -54.9,64.1 -27.2,27.9 -54.1,50.4 -78.2,68.3 -8.4,36.9 -16.8,73.8 -25.2,110.6 3.6,0.6 7.7,1.1 12.2,1.1 9.1,0.2 16.9,-1.1 22.9,-2.7 -1.9,-12.6 -3.2,-29.9 -0.8,-50 3,-24.8 10.6,-44.3 16.8,-57.2 22.6,-10.4 40.5,-21 53.4,-29.4 0,0 40.4,-26.2 71.7,-66.4 0.7,-0.9 3.1,-4 5,-8.8 1.5,-3.9 3.4,-8.7 1.9,-13.7 -1.4,-4.5 -4.8,-7 -8.4,-9.5 -2.8,-1.9 -8.3,-5.2 -16.4,-6.4 z"
     fill="#6d6c6c"
     opacity="0.18"
     id="path181" />
  <path
     d="m 1023.2,880.5 c -4.3,8 -8.5,16.4 -12.6,25.2 -13.8,29.7 -23.4,58.1 -30.1,83.9 9.2,-0.4 18.3,-0.8 27.5,-1.1 -2.1,-12.1 -3.7,-28.4 -1.9,-47.3 2.5,-26.7 10.6,-47.5 17.1,-60.7 z"
     fill="#6d6c6c"
     opacity="0.16"
     id="path182" />
  <path
     d="m 1027,991.2 c 4.6,14.3 9.2,28.6 13.8,42.9 -34,20.4 -50.1,32.7 -48.2,36.8 2.3,5 31.6,-2.4 88,-22.2 -7.8,-22.7 -15.6,-45.4 -23.4,-68.1 -10.1,3.4 -20.2,7 -30.2,10.6 z"
     fill="#161616"
     id="path183" />
  <path
     d="m 1191.9,765.1 c 7.1,36.1 -3.6,56.4 -8.7,64.2 -10.2,15.6 -23.8,20.4 -63.5,40.1 -15.5,7.7 -39.1,19.7 -68,35.6 2,12.7 5.2,27.3 10.3,43.2 4.8,15 10.4,28.1 15.8,39.1 -5.3,5.1 -16,14.1 -32.3,19.3 -17.6,5.7 -32.7,4 -40.1,2.7 -15.7,-31 -19.7,-58.2 -20.8,-74.8 -1.3,-20 -2.8,-42.7 8.9,-65.1 9,-17.2 17.7,-18.8 54.1,-46.6 54.7,-41.7 60.2,-57.3 88.4,-63.1 23.1,-4.7 43.6,0.8 55.9,5.4 z"
     fill="#ec615b"
     id="path184"
     style="fill:#f1aa4b;fill-opacity:1" />
  <path
     d="m 1154.5,758.4 c 0.5,11.6 -0.4,29.8 -9.7,48.4 -7.8,15.7 -18.2,26.9 -52.5,50.1 -30.5,20.6 -54.8,36.5 -70.5,46.7 10,33.5 20,67 30,100.5 3,-1 6.6,-2.5 10.3,-4.6 6.8,-3.9 11.6,-8.6 14.7,-12.2 -4.4,-9.4 -8.8,-19.9 -12.7,-31.4 -6.4,-18.4 -10.4,-35.6 -12.9,-50.5 24.8,-13.8 42.2,-22.8 52.4,-27.9 15.2,-7.6 22.7,-11.4 30.4,-15.1 2.6,-1.2 8.4,-3.9 16,-7.9 8.5,-4.4 12.7,-6.5 16.5,-9.1 3.1,-2.1 10.9,-7.6 17.2,-16.7 9,-13 9.8,-26.6 10.4,-36.5 0.4,-6.4 0.3,-15.7 -2.1,-26.6 -5.2,-2.2 -12.2,-4.6 -20.6,-6 -6.5,-1.2 -12.2,-1.4 -16.9,-1.2 z"
     fill="#6d6c6c"
     opacity="0.22"
     id="path185" />
  <path
     d="m 1194,785.1 c -1.6,5.3 -4.5,13 -9.6,21.3 -15.7,25.2 -39.7,35.2 -56.5,43.6 -19.9,10 -46.7,26.5 -76.5,55 8.4,-4.7 18.7,-10.3 30.7,-16.7 21.2,-11.3 31.7,-16.9 42.6,-22.1 8.5,-4 18.2,-8.3 32.7,-16 10.4,-5.5 16.1,-8.9 21.5,-15.2 6.1,-7.1 8.8,-14.2 10.6,-19 2.2,-6 5.3,-16.7 4.5,-30.9 z"
     fill="#6d6c6c"
     opacity="0.11"
     id="path186" />
  <path
     d="m 1051,906 c 0.1,8.4 0.7,17.4 1.8,26.9 2.8,24.3 8.7,45.2 15,62.1 1.8,-1 3.9,-2.4 6.1,-4.3 1.4,-1.2 2.6,-2.4 3.5,-3.5 -4.2,-8.7 -8.3,-18.4 -12.2,-28.9 -6.9,-19 -11.3,-36.7 -14.2,-52.3 z"
     fill="#6d6c6c"
     opacity="0.17"
     id="path187" />
  <path
     d="m 1126,569.3 c -12.5,4.2 -14.7,19.1 -23.1,36.1 0,0 -13.2,27 -42.1,49.2 -10.5,8.1 -33.2,22.4 -71.1,24.9 -3.7,-1.5 -9.4,-3.5 -16.6,-4.7 -10.3,-1.7 -24.7,-4.2 -34.4,4.1 -4.4,3.8 -9.3,11 -7.1,15.4 2.7,5.4 14.7,3.3 34.4,2.4 27.3,-1.2 26,1.8 45,0.6 17,-1.1 43.8,-2.7 71.7,-19 26.7,-15.5 40.5,-36.2 43.8,-41.5 6.4,-10 9.3,-18.1 15.2,-34.4 7.8,-21.4 6.5,-26.2 4.3,-29 -3.8,-5.2 -13,-6.5 -20,-4.1 z"
     fill="#ffffff"
     stroke="#161616"
     stroke-miterlimit="10"
     stroke-width="2"
     id="path188" />
  <path
     d="m 977.8,682.6 c -6.3,1.2 -15.4,1.5 -20,6.7 -2.6,3 -2.2,8.3 2.6,8.3 1.4,0 1.5,-2.3 0,-2.3 -2.4,-2.5 -2.2,-4.5 0.8,-5.9 1,-0.7 2.1,-1.2 3.3,-1.7 1.3,-0.5 2.6,-0.8 3.9,-1.1 3.3,-0.7 6.6,-1.3 10,-1.9 1.4,-0.2 0.8,-2.3 -0.6,-2.1 z"
     fill="#161616"
     id="path189" />
  <path
     d="m 930.6,691.9 c 5.9,7.4 15.1,-1.2 22.2,0.7 1.4,0.4 2,-1.8 0.6,-2.2 -3.1,-0.8 -5.8,-0.4 -8.9,0.6 -4.1,1.3 -9.1,3.5 -12.4,-0.7 -0.8,-1.1 -2.4,0.5 -1.5,1.6 z"
     fill="#161616"
     id="path190" />
  <path
     d="m 934.2,682.8 c 0.2,3 2.2,4.2 5.1,4.2 6.5,0 12.2,-2.6 18.7,-0.5 1.4,0.4 2,-1.7 0.6,-2.2 -3.3,-1.1 -6.5,-1.2 -9.9,-0.9 -2.4,0.2 -12,2.9 -12.2,-0.7 -0.2,-1.3 -2.4,-1.3 -2.3,0.1 z"
     fill="#161616"
     id="path191" />
  <path
     d="m 944,676.6 c 1,2.4 2.7,3.5 5.3,3.9 5.1,0.7 9.5,0.9 14.2,3 1.3,0.6 2.5,-1.4 1.1,-1.9 -2.6,-1.1 -5.2,-2.1 -8,-2.6 -3.2,-0.6 -9.1,0.4 -10.5,-3 -0.5,-1.3 -2.7,-0.7 -2.1,0.6 z"
     fill="#161616"
     id="path192" />
  <path
     d="m 1138.1,569.6 c -5.7,1.4 -4,16.7 -7,30.9 -5,22.9 -21.3,37.2 -39.3,53 -12.2,10.7 -26.5,23.3 -48.3,28.9 -7.5,1.9 -19.9,4 -33.2,4.7 -18,0.9 -26.9,1.4 -27.5,1.3 -3,-0.3 -10.3,-1.1 -18.1,2.3 -1.6,0.7 -6,2.6 -5.7,4 0.4,2.1 10.8,1.5 34.2,1.3 17.3,-0.1 15.5,0.2 20.8,0 10,-0.4 27.4,-1 47,-8.1 27.9,-10 45.1,-27.7 53,-35.9 7.6,-8 11.8,-14.2 13.1,-16.1 6.2,-9.3 9.1,-17.6 14.8,-33.9 6.6,-19 6.6,-24 4,-27.9 -1.8,-2.3 -5.1,-5.2 -7.8,-4.5 z"
     fill="#6d6c6c"
     opacity="0.16"
     id="path193" />
  <path
     d="m 933.3,695.1 c 0.7,-1.8 3.7,-9.2 11.7,-13.1 12,-5.7 23.7,2 24.2,2.3 -2.6,1.4 -4.8,2.4 -6.4,3 -2.5,1.1 -3.5,1.3 -4.4,2.3 -1.5,1.9 -1.1,4.7 -0.7,6.4 -3.2,0.7 -7.4,1.2 -12.4,1 -4.8,-0.1 -8.9,-1 -12,-1.9 z"
     fill="#6d6c6c"
     opacity="0.13"
     id="path194" />
  <path
     d="m 1145.8,586 c -4.2,14 -13.4,37.6 -33.6,60.4 -27.5,31.1 -59.8,43.2 -74.5,47.7 11.3,-2 53.3,-10.9 82.9,-49.3 17.5,-22.8 23.1,-46 25.2,-58.8 z"
     fill="#6d6c6c"
     opacity="0.14"
     id="path195" />
  <path
     d="m 1122.6,570.1 c -6.3,6.9 -10.8,16 -13.7,49.6 -4.3,49.1 2.5,60.4 -5.1,84.7 -3.5,11.1 -10.7,27.2 -27.4,44.5 11.8,7.6 30.9,18 56.5,24 25.3,5.9 46.8,5 60.8,3.4 18,-55.3 16.5,-100 12.8,-127.5 -3.5,-26.2 -11.4,-86.5 -42.8,-94.1 -14.9,-3.7 -31.8,5.3 -41.1,15.4 z"
     fill="#ffffff"
     stroke="#161616"
     stroke-miterlimit="10"
     stroke-width="2"
     id="path196" />
  <path
     d="m 1155.7,554.9 c -0.5,4.1 -1.2,10.2 -1.9,17.5 -4.7,48.9 0.8,57.8 -2.8,86.6 -2,16.4 -6.2,47.1 -27.8,75.7 -9,11.9 -18.5,20.2 -25.3,25.3 10.9,5.5 27.5,12.4 48.7,15.6 19,2.8 35.1,1.7 46.5,0 3.2,-9.2 7,-21.7 10,-36.7 5.6,-27.8 6,-51.5 5.3,-67.9 -1.3,-31.7 -4.2,-99.7 -39,-113.6 -5.4,-2.1 -10.3,-2.5 -13.7,-2.5 z"
     fill="#6d6c6c"
     opacity="0.12"
     id="path197" />
  <path
     d="m 1207.7,698.5 c -1.2,-0.2 -4,12.2 -8.1,23.4 -5.2,14.5 -15,34 -35.3,55.1 9.8,-0.5 19.7,-0.9 29.5,-1.4 3.3,-10.6 7.5,-26.4 10.9,-45.9 2.2,-13.1 4.5,-30.9 3,-31.2 z"
     fill="#6d6c6c"
     opacity="0.24"
     id="path198" />
  <path
     d="m 1182,568.8 c 11.3,2.2 16.1,20.1 20.1,35.8 4,15.8 11.7,48 0.9,90.4 -4.5,17.5 -8.5,33.8 -22.4,50.3 -18.1,21.6 -41.2,30 -52,33.1 -12,8.3 -18.2,12.5 -21.7,14.7 -2.5,1.6 -4,2.5 -6.7,4.4 -3.9,2.8 -4.6,3.7 -6.5,4.5 -2,0.8 -5.2,1.4 -10,-0.1 -0.4,0.1 -3.5,0.5 -5.8,-1.8 -1.4,-1.4 -1.7,-3 -1.7,-3.7 -0.3,0 -2.2,-0.2 -3.5,-1.8 -1.2,-1.5 -1.3,-3.6 -0.4,-5.4 -0.4,-0.8 -0.8,-1.9 -0.8,-3.3 -0.5,-7 7.8,-12.6 12.4,-15.8 4.9,-3.4 14.6,-8.8 29.6,-10.2 8.1,-4.3 20.2,-12 30.9,-24.9 3.4,-4 26.1,-32.2 24.3,-70.1 -0.7,-15.9 -6.4,-45.5 -9.6,-73.1 -0.2,-2 -0.8,-7.4 2.1,-12.6 4.2,-7.1 13.8,-11.7 20.8,-10.4 z"
     fill="#ffffff"
     stroke="#161616"
     stroke-miterlimit="10"
     stroke-width="2"
     id="path199" />
  <path
     d="m 1072.6,789.9 c 1.4,0 1.5,-2.3 0,-2.3 -1.4,0 -1.4,2.3 0,2.3 z"
     fill="#161616"
     id="path200" />
  <path
     d="m 1071.5,788.7 v 0.7 c 0.1,1.2 1.4,1.5 2.1,0.6 4,-5.3 9.4,-9.2 15.7,-11.2 1.4,-0.4 0.8,-2.6 -0.6,-2.2 -6.9,2.2 -12.7,6.4 -17.1,12.2 0.7,0.2 1.4,0.4 2.1,0.6 0,-0.2 0,-0.4 0,-0.7 0,-1.4 -2.3,-1.4 -2.2,0 z"
     fill="#161616"
     id="path201" />
  <path
     d="m 1077.1,796.8 c 5.1,-5.8 11.4,-10.2 18.6,-13.1 1.3,-0.5 0.8,-2.7 -0.6,-2.2 -7.6,3 -14.2,7.5 -19.6,13.6 -0.9,1.2 0.7,2.8 1.6,1.7 z"
     fill="#161616"
     id="path202" />
  <path
     d="m 1084.6,802.2 c 5.2,-5.9 11.2,-10.8 18,-14.8 1.2,-0.7 0.1,-2.7 -1.1,-1.9 -6.9,4.1 -13.1,9.1 -18.4,15.2 -1,1 0.6,2.6 1.5,1.5 z"
     fill="#161616"
     id="path203" />
  <path
     d="m 1177.6,572.6 c -3.8,5.5 2.4,15.2 5.9,22.4 5.1,10.6 5.9,22.1 7.5,45.1 2.9,41.7 -16.5,77.4 -17.9,79.9 -17.7,31.5 -45.2,50.4 -53.8,56.2 -14.6,9.8 -35.3,20.5 -33.6,24.6 0.6,1.5 3.9,1.7 5.3,1.6 4.8,-0.2 6.8,-3.9 13.5,-8.6 3.5,-2.5 3.4,-1.7 9.4,-5.3 3.5,-2.1 8.5,-5.3 14.4,-9.8 13.4,-3.6 23.3,-9.1 29.5,-13.1 9,-5.8 26.3,-19.1 36.9,-42.3 3.6,-7.9 5,-14.2 7.8,-26.7 2.9,-13.1 7.5,-34.6 4.9,-62 -1.2,-12.4 -3.3,-20.7 -6.2,-31.6 -4.5,-17.5 -8.6,-32.6 -16.4,-33.6 -2.6,-0.4 -5.7,1.1 -7.2,3.2 z"
     fill="#6d6c6c"
     opacity="0.13"
     id="path204" />
  <path
     d="m 1206.1,627.3 c -0.9,0 -0.7,10.5 -5,38.4 -3.9,25 -5.9,37.8 -11.4,49.5 -8,17 -18.9,27.7 -24.2,32.8 -15.1,14.6 -24.2,15.6 -47.3,32.6 -12.1,8.9 -21.1,17 -26.4,22 12,-8 23.9,-16 35.9,-23.9 11,-3.2 33.6,-11.6 51.8,-33.1 12.5,-14.8 17.4,-29.3 21.2,-40.6 13,-40.3 7,-77.7 5.4,-77.7 z"
     fill="#6d6c6c"
     opacity="0.16"
     id="path205" />
  <path
     d="m 1137.1,525.2 c -4.5,3.1 -5.3,9.1 -6,15.7 -0.7,6.7 -0.8,18.4 5.3,32.9 3.8,0 8.5,-0.3 13.7,-1.3 4.1,-0.8 7.7,-1.9 10.7,-3 -0.4,-13.3 -0.7,-26.6 -1.1,-39.9 -8.4,-6.2 -17.2,-8.1 -22.6,-4.4 z"
     fill="#ffffff"
     stroke="#161616"
     stroke-miterlimit="10"
     stroke-width="2"
     id="path206" />
  <path
     d="m 1113.3,458.5 c -7,4 -10,10.7 -15.9,23.7 -6.6,14.8 -11.2,27.6 -13,37 -0.3,1.4 0.4,2.8 1.7,3.4 1.7,0.8 4.7,1.1 6.3,1.5 0,3.9 0.5,10.6 4,17.8 6.4,13.1 18.2,18.4 21.7,19.8 11.1,-1.9 19.3,-5.7 24.2,-8.6 4.5,-2.5 10.3,-5.9 16,-12.5 5.1,-6 7.8,-12 9.2,-16 2.1,0 5.3,-0.2 8.6,-2 6.8,-3.7 12.6,-13.4 9,-19.3 -2.7,-4.3 -10.1,-6.1 -17.7,-3.3 0.1,-3.2 0,-7.6 -1.1,-12.8 -0.3,-1.3 -2.4,-10.8 -7.2,-17.5 -9.2,-12.9 -31.6,-19.3 -45.8,-11.2 z"
     fill="#ffffff"
     stroke="#161616"
     stroke-miterlimit="10"
     stroke-width="2"
     id="path207" />
  <path
     d="m 1091.9563,499.9709 c -2.5,-3.9 -8,-13.7 -7.2,-26.7 0.3,-4.4 0.9,-12.8 7,-20.7 7.4,-9.6 17.7,-12.1 20.7,-12.7 1.4,-2.3 3.8,-5.7 7.8,-8.5 1.6,-1.1 6,-3.8 16.8,-4.4 5.7,-0.3 14.4,-0.1 24.8,2.9 8.1,2.4 13.5,5.8 16.8,8.5 12.7,10 11.7,17.9 27.8,34.1 3.7,3.7 6.3,5 11.9,10.5 5.9,5.7 10.6,11.2 13.2,14.5 5.9,7.5 17,21.7 19.1,40.9 0.7,6.5 2.7,24.8 -8.7,38.8 -15.5,19.1 -50.5,20.6 -71.8,5.4 -4,-2.8 -20.6,-14.8 -19.7,-34.1 0.8,-17.4 15.3,-27.8 17.3,-29.3 1.7,0.7 5.2,1.8 8.6,0.6 7.1,-2.6 10.1,-13.5 6.4,-19 -1.5,-2.2 -3.9,-3.1 -4.6,-3.3 -5.8,-2 -11.2,2.3 -11.6,2.6 -7.8,-5.7 -13.7,-11.2 -17.8,-15.5 -5.6,-5.7 -8.4,-9.5 -9.4,-10.9 -3.1,-4.4 -5.4,-8.4 -6.9,-11.4 -4.6,1.1 -10.6,3.2 -16.9,7.3 -1.5,0.9 -6.5,4.3 -11.7,10.2 -0.6,0.7 -3.5,4 -6.6,9 -2.3,4.3 -4.1,8.1 -5.3,11.2 z"
     fill="#5222d0"
     id="path208"
     style="fill:#091a3e;fill-opacity:1" />
  <path
     d="m 1108.5,512.7 c 0,-0.1 0,-0.1 0,0 0,0.1 0.1,0.3 0.1,0.5 v 0.1 c -0.1,0.2 -0.2,0.3 -0.3,0.5 0.2,-0.2 0,-0.1 -0.4,0.2 -0.2,-0.1 -0.4,-0.1 -0.6,-0.2 -0.1,-0.1 -0.2,-0.1 -0.2,-0.2 -0.1,-0.2 -0.1,-0.4 -0.2,-0.6 v -0.1 c 0.1,-0.2 0.2,-0.3 0.3,-0.5 0.2,0 0.4,-0.1 0.6,-0.1 l 0.8,0.8 v 0.3 c -0.5,0.1 -1,0.3 -1.5,0.4 0,0 -0.1,-0.1 -0.1,-0.1 -0.1,-0.2 -0.2,-0.3 -0.3,-0.5 0.1,-0.3 0.3,-0.6 0.4,-0.8 0.2,-0.1 0.4,-0.1 0.6,-0.2 h -0.1 c -0.6,0.1 -1.1,0.5 -1.1,1.1 0,0.6 0.5,1.2 1.1,1.1 0.6,-0.1 1.2,-0.4 1.3,-1.1 0.2,-0.6 -0.1,-1.3 -0.7,-1.6 -0.6,-0.3 -1.2,-0.1 -1.5,0.4 -0.6,0.8 -0.2,2.1 0.8,2.2 0.9,0.1 1.7,-0.6 1.7,-1.5 0,-0.9 -0.9,-1.5 -1.8,-1.3 -0.9,0.3 -1.3,1.2 -0.9,2.1 0.3,0.6 1.1,0.7 1.5,0.4 0.7,-0.1 0.7,-0.8 0.5,-1.3 z"
     fill="#161616"
     id="path209" />
  <path
     d="m 1117.3,510.3 c 0.2,1 -0.2,0.9 -1.1,-0.3 0.2,-0.1 0.3,-0.2 0.5,-0.3 0.4,0 0.7,0.2 0.9,0.7 0.1,-0.6 -0.6,-1.1 -1.1,-1.1 -0.7,0 -1.1,0.5 -1.1,1.1 -0.1,0.9 0.8,1.6 1.6,1.5 1,0 1.6,-1 1.3,-1.9 -0.3,-0.9 -1.3,-1.4 -2.2,-0.9 -0.9,0.5 -1,1.4 -0.6,2.3 0.2,0.6 1.1,0.7 1.5,0.4 0.5,-0.3 0.6,-0.9 0.3,-1.5 z"
     fill="#161616"
     id="path210" />
  <path
     d="m 1114.5,516.9 c 0.6,0 0.7,0.2 0.3,0.7 0,0.4 -0.1,0.6 -0.4,0.6 -0.1,-0.4 -0.1,-0.9 -0.2,-1.3 0.3,-0.1 0.5,-0.1 0.8,0.1 -1,-1.1 -2.6,0.5 -1.6,1.6 0.7,0.8 2,0.6 2.5,-0.3 0.5,-0.9 0,-2 -0.9,-2.3 -1,-0.3 -2,0.4 -2.1,1.4 0,1.1 1.1,1.9 2.1,1.7 1.5,-0.4 0.9,-2.6 -0.5,-2.2 z"
     fill="#161616"
     id="path211" />
  <path
     d="m 1096,538.7 c 6.2,-1.1 11.6,-4.7 15.1,-10 0.8,-1.2 -1.1,-2.3 -1.9,-1.1 -3.2,4.8 -8,7.9 -13.7,9 -1.5,0.2 -0.9,2.3 0.5,2.1 z"
     fill="#161616"
     id="path212" />
  <path
     d="m 1130,469.4 c 1.8,3.6 4.1,8.4 6.7,14.1 8,17.4 8.9,22.2 9.2,26.4 0.4,6.3 -0.7,11.1 -1.6,14.5 -4.6,18.6 -18.1,31 -24.8,36.4 3.3,-0.4 7.3,-1.1 11.7,-2.6 6.8,-2.3 12.1,-5.4 15.7,-8 -0.3,3.1 -0.3,7.9 1.5,13.3 2,6.4 5.6,10.4 8.6,14.2 2.3,2.9 6.4,7.5 12.9,11.2 6.3,3.7 12.2,5 15.8,5.6 8.4,1.9 15.4,1.7 20.1,1.3 6.5,-0.6 16.8,-1.5 26.4,-8.9 2.4,-1.9 7.9,-6.2 11.2,-13.8 0.8,-1.8 2,-5.2 2.6,-14.2 0.7,-10.6 1.2,-18 -1.3,-27.4 -2.6,-9.7 -7.3,-17.2 -11.9,-22.7 -8,21.5 -27.3,33.9 -44.7,31.3 -13.6,-2.1 -21.8,-12.8 -24.2,-16.1 5.3,1.2 10.7,-0.4 13.8,-4.3 3.7,-4.4 4.8,-12.3 0,-16.5 -3.8,-3.3 -10.1,-3.4 -14.8,0.3 -5.7,-4.1 -12.2,-9.5 -18.8,-16.5 -5.9,-6.1 -10.5,-12.2 -14.1,-17.6 z"
     fill="#6d6c6c"
     opacity="0.1"
     id="path213"
     style="fill:#091a3e;fill-opacity:1" />
  <path
     d="m 1106.9,501.9 c -0.6,-1 -0.7,-2.5 0.3,-3.3 -0.3,0.1 -0.5,0.2 -0.8,0.3 h 0.3 c -0.3,-0.1 -0.5,-0.2 -0.8,-0.3 1,0.8 0.2,3.9 -0.2,4.8 0.2,-0.2 0.4,-0.3 0.7,-0.5 -0.1,0 -0.2,0.1 -0.2,0.1 0.3,0 0.6,0.1 0.9,0.1 -0.6,-0.3 -0.5,-1.9 -0.4,-2.3 0.1,-0.9 0.3,-1.7 0.7,-2.4 -0.5,0.1 -1,0.3 -1.5,0.4 0.5,0.4 0.6,1.2 0.5,1.8 0,0.3 -0.1,0.6 -0.2,0.8 -0.1,0.5 -0.3,0.5 0.2,0.6 0.2,0.2 0.4,0.3 0.7,0.5 0,-0.1 -0.1,-0.1 -0.1,-0.2 -0.9,-1.1 -2.8,0 -1.9,1.1 0.5,0.6 1.2,1 2,0.7 0.9,-0.3 1.2,-1.2 1.4,-2 0.5,-2 0.5,-4 -1.3,-5.3 -0.5,-0.4 -1.3,-0.1 -1.5,0.4 -1,2 -1.6,5.1 -0.3,7.1 0.5,0.8 1.6,1.2 2.4,0.6 0.9,-0.7 1,-2.5 1.1,-3.5 0.2,-1.5 -0.1,-5.8 -2.7,-4.5 -2.1,1.1 -1.9,4.5 -0.9,6.2 0.4,1.2 2.4,0 1.6,-1.2 z"
     fill="#161616"
     id="path214" />
  <path
     d="m 1102.3,491.7 c 5.3,-0.9 9.8,2 13.9,5.1 1.2,0.9 2.3,-1.1 1.1,-1.9 -4.6,-3.5 -9.6,-6.2 -15.6,-5.3 -1.4,0.1 -0.8,2.3 0.6,2.1 z"
     fill="#161616"
     id="path215" />
  <path
     d="m 1108.3,527.7 c 1.1,0.7 2.1,1.6 3,2.6 1,1.1 2.6,-0.5 1.6,-1.6 -1,-1.1 -2.2,-2.1 -3.5,-3 -1.2,-0.8 -2.3,1.2 -1.1,2 z"
     fill="#161616"
     id="path216" />
</svg>
