<?xml version="1.0" encoding="UTF-8" standalone="no"?>
<svg
   version="1.1"
   x="0px"
   y="0px"
   viewBox="0 0 1600 1200"
   xml:space="preserve"
   width="1600"
   height="1200"
   id="svg1"
   xmlns="http://www.w3.org/2000/svg"
   xmlns:svg="http://www.w3.org/2000/svg"><defs
   id="defs1" />

<g
   id="XMLID_2280_">
		<g
   id="XMLID_2321_">
			<path
   id="XMLID_2325_"
   d="m 560.5,1012.3 c 78.5,0 157,0 235.5,0 78.8,0 157.6,0 236.5,0 44.2,0 88.5,0 132.7,0 1.9,0 1.9,-3 0,-3 -78.5,0 -157,0 -235.5,0 -78.8,0 -157.6,0 -236.5,0 -44.2,0 -88.5,0 -132.7,0 -1.9,0 -1.9,3 0,3 z"
   style="fill:#e8e8e8" />
		</g>
	</g><g
   id="XMLID_2288_"
   style="fill:#f1aa4b;fill-opacity:1">
		<g
   id="XMLID_2329_"
   style="fill:#f1aa4b;fill-opacity:1">
			<path
   id="XMLID_2333_"
   d="m 1171.3,937.3 c 5.1,30.8 10.2,61.6 15.4,92.4 0.3,1.9 3.2,1.1 2.9,-0.8 -5.1,-30.8 -10.2,-61.6 -15.4,-92.4 -0.3,-1.9 -3.2,-1.1 -2.9,0.8 z"
   style="fill:#f1aa4b;fill-opacity:1" />
		</g>
	</g><g
   id="XMLID_2290_"
   style="fill:#f1aa4b;fill-opacity:1">
		<g
   id="XMLID_2337_"
   style="fill:#f1aa4b;fill-opacity:1">
			<path
   id="XMLID_2342_"
   d="m 1173.1,938 c 40.4,-2.5 80.9,-1.4 121,3.2 1.9,0.2 1.9,-2.8 0,-3 -40.2,-4.6 -80.7,-5.7 -121,-3.2 -1.9,0.1 -2,3.1 0,3 z"
   style="fill:#f1aa4b;fill-opacity:1" />
		</g>
	</g><g
   id="XMLID_2298_"
   style="fill:#f1aa4b;fill-opacity:1">
		<g
   id="XMLID_2345_"
   style="fill:#f1aa4b;fill-opacity:1">
			<path
   id="XMLID_2350_"
   d="m 1187.9,1032 c 29.8,9.3 61.4,10.7 91.9,4.1 1.9,-0.4 1.1,-3.3 -0.8,-2.9 -30,6.5 -61.1,5.1 -90.4,-4.1 -1.8,-0.6 -2.6,2.3 -0.7,2.9 z"
   style="fill:#f1aa4b;fill-opacity:1" />
		</g>
	</g><g
   id="XMLID_2300_"
   style="fill:#f1aa4b;fill-opacity:1">
		<g
   id="XMLID_2353_"
   style="fill:#f1aa4b;fill-opacity:1">
			<path
   id="XMLID_2358_"
   d="m 1293.2,940.4 c -2.5,31.3 -6.9,62.4 -13.4,93.1 -0.4,1.9 2.5,2.7 2.9,0.8 6.5,-31 11.1,-62.4 13.5,-93.9 0.1,-2 -2.9,-2 -3,0 z"
   style="fill:#f1aa4b;fill-opacity:1" />
		</g>
	</g><g
   id="XMLID_2307_">
		<g
   id="XMLID_2361_">
			<path
   id="XMLID_2366_"
   d="m 1178.4,978.8 c 14.1,21.5 30.6,41.3 49.1,59.2 1.4,1.3 3.5,-0.8 2.1,-2.1 -18.4,-17.7 -34.7,-37.3 -48.7,-58.6 -1,-1.6 -3.6,-0.1 -2.5,1.5 z"
   style="fill:#f1aa4b;fill-opacity:1" />
		</g>
	</g><g
   id="XMLID_2308_"
   style="fill:#f1aa4b;fill-opacity:1">
		<g
   id="XMLID_2370_"
   style="fill:#f1aa4b;fill-opacity:1">
			<path
   id="XMLID_2374_"
   d="m 1190.9,937.7 c 24.2,35.1 52.3,67.4 84,96 1.4,1.3 3.6,-0.8 2.1,-2.1 -31.4,-28.5 -59.4,-60.5 -83.5,-95.4 -1.1,-1.6 -3.7,-0.1 -2.6,1.5 z"
   style="fill:#f1aa4b;fill-opacity:1" />
		</g>
	</g><g
   id="XMLID_2316_"
   style="fill:#f1aa4b;fill-opacity:1">
		<g
   id="XMLID_2378_"
   style="fill:#f1aa4b;fill-opacity:1">
			<path
   id="XMLID_2382_"
   d="m 1236.7,939 c 14.3,18.3 29.6,35.7 45.9,52.2 1.4,1.4 3.5,-0.7 2.1,-2.1 -16.3,-16.5 -31.6,-34 -45.9,-52.2 -1.2,-1.5 -3.3,0.6 -2.1,2.1 z"
   style="fill:#f1aa4b;fill-opacity:1" />
		</g>
	</g><g
   id="XMLID_2318_"
   style="fill:#f1aa4b;fill-opacity:1">
		<g
   id="XMLID_2386_"
   style="fill:#f1aa4b;fill-opacity:1">
			<path
   id="XMLID_2391_"
   d="m 1205.9,934 c -6.5,-7.4 -11.8,-15.7 -15.6,-24.7 -1.8,-4.3 -3.3,-8.7 -4.4,-13.2 -0.5,-2.2 -1,-4.3 -1.3,-6.5 -0.2,-1 -0.9,-3.1 -0.5,-4 -0.2,-1.3 0.7,-1.7 2.7,-1.3 2.1,-1.3 3.6,-0.9 4.4,1.4 0.9,1.2 3.4,0.6 2.7,-1.2 -2.9,-7.4 -5.2,-14.9 -7,-22.6 -0.8,-3.6 -1.5,-7.1 -2.1,-10.7 -0.4,-2.3 -0.6,-4.5 -0.9,-6.8 -0.1,-1.2 -0.2,-2.4 -0.3,-3.6 -0.4,-1.9 0.5,-3.3 2.7,-4.3 0.8,0.9 2.7,0.3 2.6,-1.1 -1.4,-14 -2.7,-28 -1.5,-42 0.6,-7.3 1.9,-14.6 4.3,-21.5 0.7,-2 1.4,-4.1 2.4,-6.1 0.3,-0.8 0.7,-1.5 1.2,-2.2 2.1,0 4.1,0 6.2,0 3,1.2 5.3,8.1 6.2,10.6 4.9,13.8 6.9,28.5 9.1,42.9 2.4,15.8 4.8,31.6 7.2,47.4 0.2,1.6 2.4,1.2 2.9,0 0.9,-1 1.8,-2.1 2.7,-3.1 -0.7,-0.2 -1.4,-0.4 -2.1,-0.5 5.9,10.8 7.1,23.1 7.9,35.2 0.8,12.9 1.1,25.9 1,38.8 0,1.9 3,1.9 3,0 0.1,-14.2 -0.2,-28.3 -1.3,-42.5 -0.8,-11.4 -2.4,-22.9 -8,-33.1 -0.4,-0.7 -1.4,-1 -2.1,-0.5 -2.1,1.3 -3.2,2.6 -4.1,4.9 1,0 1.9,0 2.9,0 -2.9,-19.1 -5.6,-38.3 -8.7,-57.4 -1.4,-9 -3.1,-18.1 -5.7,-26.9 -1.9,-6.5 -4,-14 -9.4,-18.4 -11.8,-9.6 -16.3,16.7 -17.4,23.5 -2.8,16.9 -1.2,34.1 0.4,51 0.9,-0.4 1.7,-0.7 2.6,-1.1 -1.8,-2 -4.8,-1.9 -6.6,0.2 -2.8,3.3 -1,9.8 -0.5,13.5 1.7,12.8 4.9,25.3 9.6,37.4 0.9,-0.4 1.8,-0.8 2.7,-1.2 -2.4,-3.3 -7.3,-8 -11.2,-3.7 -3.3,3.7 -0.7,11.5 0.2,15.6 3.5,14.9 10.8,28.7 21,40.1 1.3,1.3 3.4,-0.9 2.1,-2.3 z"
   style="fill:#f1aa4b;fill-opacity:1" />
		</g>
	</g><g
   id="XMLID_2326_"
   style="fill:#f1aa4b;fill-opacity:1">
		<g
   id="XMLID_2394_"
   style="fill:#f1aa4b;fill-opacity:1">
			<path
   id="XMLID_2399_"
   d="m 1223.7,840.4 c -0.3,-5.4 0.2,-36.1 10.5,-33.4 1,0.3 1.8,-0.5 1.9,-1.4 2.2,-17.6 9.4,-33 16.5,-48.9 1.6,-3.5 3.2,-7.1 4.8,-10.6 2.1,-4.6 5.2,-12.9 11.3,-6.5 5.6,5.7 6.3,15.1 6.4,22.6 0.2,16.6 -0.6,33.3 -1,50 -0.4,17.8 -0.8,35.7 -1.2,53.5 0,1.6 2.7,2.1 2.9,0.4 0.9,0.2 1.8,0.5 2.7,0.7 0.2,0.9 0.2,1.8 0.2,2.7 0,1.2 -0.1,2.4 -0.1,3.6 -0.1,3 -0.2,5.9 -0.4,8.9 -0.3,6.3 -0.5,12.6 -0.8,18.8 -0.5,12.1 -0.9,24.3 -3.4,36.2 -0.4,1.9 2.5,2.7 2.9,0.8 3.7,-17.6 3.5,-35.9 4.2,-53.8 0.2,-4.6 0.5,-9.3 0.6,-13.9 0,-2.3 0,-4.8 -1.6,-6.5 -2.2,-2.5 -6.6,-1.7 -7.2,1.7 1,0.1 2,0.3 2.9,0.4 0.7,-32.9 1.7,-65.8 2.2,-98.7 0.2,-9.9 0.1,-27.2 -10.8,-32.1 -4,-1.8 -7.5,0.1 -9.7,3.7 -3.9,6.4 -6.5,14.2 -9.6,21.1 -6.8,15 -12.9,29.5 -15,46 0.6,-0.5 1.3,-1 1.9,-1.4 -6.1,-1.6 -9.4,4.5 -11,9.4 -2.9,8.6 -3.8,17.8 -3.3,26.8 0.3,1.9 3.3,1.9 3.2,-0.1 z"
   style="fill:#f1aa4b;fill-opacity:1" />
		</g>
	</g><g
   id="XMLID_2335_">
		<g
   id="XMLID_2402_">
			<path
   id="XMLID_2407_"
   d="m 1288.6,1009.3 c 18.9,0 37.7,0 56.6,0 1.9,0 1.9,-3 0,-3 -18.9,0 -37.7,0 -56.6,0 -1.9,0 -1.9,3 0,3 z"
   style="fill:#e8e8e8" />
		</g>
	</g><g
   id="XMLID_2343_">
		<g
   id="XMLID_2410_">
			<path
   id="XMLID_2415_"
   d="m 272.5,615.9 c 0,108.6 0,217.2 0,325.7 0,30.6 0,61.3 0,91.9 0,1.9 3,1.9 3,0 0,-108.6 0,-217.2 0,-325.7 0,-30.6 0,-61.3 0,-91.9 0,-1.9 -3,-1.9 -3,0 z"
   style="fill:#e8e8e8" />
		</g>
	</g><g
   id="XMLID_2351_">
		<g
   id="XMLID_2419_">
			<path
   id="XMLID_2423_"
   d="m 274.9,1034.2 c 63.4,0 126.7,0 190.1,0 1.9,0 1.9,-3 0,-3 -63.4,0 -126.7,0 -190.1,0 -2,0 -2,3 0,3 z"
   style="fill:#e8e8e8" />
		</g>
	</g><g
   id="XMLID_2359_">
		<g
   id="XMLID_2427_">
			<path
   id="XMLID_2431_"
   d="m 465.6,1032.7 c 0,-109.9 0,-219.8 0,-329.7 0,-31.3 0,-62.6 0,-93.9 0,-1.9 -3,-1.9 -3,0 0,4.4 0,8.8 0,13.3 0,1.9 3,1.9 3,0 0,-4.4 0,-8.8 0,-13.3 -1,0 -2,0 -3,0 0,109.9 0,219.8 0,329.7 0,31.3 0,62.6 0,93.9 0,1.9 3,1.9 3,0 z"
   style="fill:#e8e8e8" />
		</g>
	</g><g
   id="XMLID_2367_">
		<g
   id="XMLID_2435_">
			<path
   id="XMLID_2440_"
   d="m 464.1,606.2 c -61.8,0 -123.7,0 -185.5,0 -1.9,0 -1.9,3 0,3 61.8,0 123.7,0 185.5,0 1.9,0 1.9,-3 0,-3 z"
   style="fill:#e8e8e8" />
		</g>
	</g><g
   id="XMLID_2375_">
		<g
   id="XMLID_2443_">
			<path
   id="XMLID_2448_"
   d="m 295.6,687.5 c 0,-16.4 0,-32.8 0,-49.3 0,-1.9 -3,-1.9 -3,0 0,16.4 0,32.8 0,49.3 0,1.9 3,1.9 3,0 z"
   style="fill:#e8e8e8" />
		</g>
	</g><g
   id="XMLID_2384_">
		<g
   id="XMLID_2451_">
			<path
   id="XMLID_2456_"
   d="m 294.1,639 c 47.8,0 95.6,0 143.5,0 1.9,0 1.9,-3 0,-3 -47.8,0 -95.6,0 -143.5,0 -1.9,0 -1.9,3 0,3 z"
   style="fill:#e8e8e8" />
		</g>
	</g><g
   id="XMLID_2392_">
		<g
   id="XMLID_2459_">
			<path
   id="XMLID_2464_"
   d="m 437.5,639.7 c 0,13.8 0,27.5 0,41.3 0,1.9 3,1.9 3,0 0,-13.8 0,-27.5 0,-41.3 0,-1.9 -3,-1.9 -3,0 z"
   style="fill:#e8e8e8" />
		</g>
	</g><g
   id="XMLID_2400_">
		<g
   id="XMLID_2468_">
			<path
   id="XMLID_2472_"
   d="m 295.6,689 c 47.3,0 94.7,0 142,0 1.9,0 1.9,-3 0,-3 -47.3,0 -94.7,0 -142,0 -2,0 -2,3 0,3 z"
   style="fill:#e8e8e8" />
		</g>
	</g><g
   id="XMLID_2408_">
		<g
   id="XMLID_2476_">
			<path
   id="XMLID_2480_"
   d="m 358.4,672.2 c -3.3,-1.5 -5.5,-4.9 -4.8,-8.6 0.9,-4.4 6.1,-7.6 10.2,-5.3 3.7,2.1 3.8,7.6 1.7,11 -2,3.4 -7.1,4.5 -9.4,0.8 -1,-1.6 -3.6,-0.1 -2.6,1.5 2.9,4.7 9.5,5 13.2,1.1 3.9,-4.1 4.5,-12.4 -0.1,-16.2 -4.7,-3.9 -12,-1.5 -14.8,3.5 -3.1,5.4 -0.4,12.2 5.1,14.8 1.7,0.9 3.3,-1.7 1.5,-2.6 z"
   style="fill:#e8e8e8" />
		</g>
	</g><g
   id="XMLID_2449_">
		<g
   id="XMLID_2517_">
			<path
   id="XMLID_2521_"
   d="m 294.6,790.5 c 0,-16.4 0,-32.8 0,-49.3 0,-1.9 -3,-1.9 -3,0 0,16.4 0,32.8 0,49.3 0,1.9 3,1.9 3,0 z"
   style="fill:#e8e8e8" />
		</g>
	</g><g
   id="XMLID_2441_">
		<g
   id="XMLID_2510_">
			<path
   id="XMLID_2514_"
   d="m 293.1,742 c 47.8,0 95.6,0 143.5,0 1.9,0 1.9,-3 0,-3 -47.8,0 -95.6,0 -143.5,0 -1.9,0 -1.9,3 0,3 z"
   style="fill:#e8e8e8" />
		</g>
	</g><g
   id="XMLID_2433_">
		<g
   id="XMLID_2503_">
			<path
   id="XMLID_2507_"
   d="m 436.5,742.7 c 0,13.8 0,27.5 0,41.3 0,1.9 3,1.9 3,0 0,-13.8 0,-27.5 0,-41.3 0,-1.9 -3,-1.9 -3,0 z"
   style="fill:#e8e8e8" />
		</g>
	</g><g
   id="XMLID_2424_">
		<g
   id="XMLID_2496_">
			<path
   id="XMLID_2500_"
   d="m 294.6,792 c 47.3,0 94.7,0 142,0 1.9,0 1.9,-3 0,-3 -47.3,0 -94.7,0 -142,0 -2,0 -2,3 0,3 z"
   style="fill:#e8e8e8" />
		</g>
	</g><g
   id="XMLID_2416_">
		<g
   id="XMLID_2489_">
			<path
   id="XMLID_2493_"
   d="m 357.4,775.2 c -3.3,-1.5 -5.5,-4.9 -4.8,-8.6 0.9,-4.4 6.1,-7.6 10.2,-5.3 3.7,2.1 3.8,7.6 1.7,11 -2,3.4 -7.1,4.5 -9.4,0.8 -1,-1.6 -3.6,-0.1 -2.6,1.5 2.9,4.7 9.5,5 13.2,1.1 3.9,-4.1 4.5,-12.4 -0.1,-16.2 -4.7,-3.9 -12,-1.5 -14.8,3.5 -3.1,5.4 -0.4,12.2 5.1,14.8 1.7,0.9 3.3,-1.7 1.5,-2.6 z"
   style="fill:#e8e8e8" />
		</g>
	</g><g
   id="XMLID_2475_">
		<g
   id="XMLID_2557_">
			<path
   id="XMLID_2562_"
   d="m 296.5,899.9 c 0,-16.4 0,-32.8 0,-49.3 0,-1.9 -3,-1.9 -3,0 0,16.4 0,32.8 0,49.3 0,1.9 3,1.9 3,0 z"
   style="fill:#e8e8e8" />
		</g>
	</g><g
   id="XMLID_2473_">
		<g
   id="XMLID_2550_">
			<path
   id="XMLID_2555_"
   d="m 295,851.4 c 47.8,0 95.6,0 143.5,0 1.9,0 1.9,-3 0,-3 -47.8,0 -95.6,0 -143.5,0 -1.9,0 -1.9,3 0,3 z"
   style="fill:#e8e8e8" />
		</g>
	</g><g
   id="XMLID_2466_">
		<g
   id="XMLID_2543_">
			<path
   id="XMLID_2548_"
   d="m 438.4,852.1 c 0,13.8 0,27.5 0,41.3 0,1.9 3,1.9 3,0 0,-13.8 0,-27.5 0,-41.3 0,-2 -3,-2 -3,0 z"
   style="fill:#e8e8e8" />
		</g>
	</g><g
   id="XMLID_2465_">
		<g
   id="XMLID_2536_">
			<path
   id="XMLID_2541_"
   d="m 296.4,901.4 c 47.3,0 94.7,0 142,0 1.9,0 1.9,-3 0,-3 -47.3,0 -94.7,0 -142,0 -1.9,0 -1.9,3 0,3 z"
   style="fill:#e8e8e8" />
		</g>
	</g><g
   id="XMLID_2457_">
		<g
   id="XMLID_2529_">
			<path
   id="XMLID_2534_"
   d="m 359.3,884.6 c -3.3,-1.5 -5.5,-4.9 -4.8,-8.6 0.9,-4.4 6.1,-7.6 10.2,-5.3 3.7,2.1 3.8,7.6 1.7,11 -2,3.4 -7.1,4.5 -9.4,0.8 -1,-1.6 -3.6,-0.1 -2.6,1.5 2.9,4.7 9.5,5 13.2,1.1 3.9,-4.1 4.5,-12.4 -0.1,-16.2 -4.7,-3.9 -12,-1.5 -14.8,3.5 -3.1,5.4 -0.4,12.2 5.1,14.8 1.7,0.8 3.2,-1.7 1.5,-2.6 z"
   style="fill:#e8e8e8" />
		</g>
	</g><g
   id="XMLID_2482_">
		<g
   id="XMLID_2566_">
			<path
   id="XMLID_2570_"
   d="m 275.7,618.5 c -0.3,-3.5 -0.2,-7 0.4,-10.4 -0.5,0.4 -1,0.7 -1.4,1.1 3.1,0 6.1,0 9.2,-0.1 1.9,0 1.9,-3 0,-3 -3.1,0 -6.1,0 -9.2,0.1 -0.6,0 -1.3,0.5 -1.4,1.1 -0.6,3.7 -0.8,7.5 -0.5,11.2 0.1,1.9 3.1,1.9 2.9,0 z"
   style="fill:#e8e8e8" />
		</g>
	</g><g
   id="XMLID_2494_">
		<g
   id="XMLID_2574_">
			<path
   id="XMLID_2578_"
   d="m 295.7,607.1 c 0,-4.2 0,-8.4 0,-12.6 0,-1.9 -3,-1.9 -3,0 0,4.2 0,8.4 0,12.6 0,1.9 3,1.9 3,0 z"
   style="fill:#e8e8e8" />
		</g>
	</g><g
   id="XMLID_2501_">
		<g
   id="XMLID_2582_">
			<path
   id="XMLID_2587_"
   d="m 294.7,595.4 c 35.3,0 70.6,0 105.9,0 1.9,0 1.9,-3 0,-3 -35.3,0 -70.6,0 -105.9,0 -1.9,0 -1.9,3 0,3 z"
   style="fill:#e8e8e8" />
		</g>
	</g><g
   id="XMLID_2508_">
		<g
   id="XMLID_2590_">
			<path
   id="XMLID_2595_"
   d="m 399.1,595 c 0,4.2 0,8.4 0,12.6 0,1.9 3,1.9 3,0 0,-4.2 0,-8.4 0,-12.6 0,-1.9 -3,-1.9 -3,0 z"
   style="fill:#e8e8e8" />
		</g>
	</g><g
   id="XMLID_2515_">
		<g
   id="XMLID_2598_">
			<path
   id="XMLID_2603_"
   d="m 315.7,594.5 c 0,-4.4 0,-8.8 0,-13.2 0,-1.9 -3,-1.9 -3,0 0,4.4 0,8.8 0,13.2 0,1.9 3,1.9 3,0 z"
   style="fill:#e8e8e8" />
		</g>
	</g><g
   id="XMLID_2522_">
		<g
   id="XMLID_2606_">
			<path
   id="XMLID_2611_"
   d="m 315.9,581.7 c 32.2,0 64.5,0 96.7,0 1.9,0 1.9,-3 0,-3 -32.2,0 -64.5,0 -96.7,0 -1.9,0 -1.9,3 0,3 z"
   style="fill:#e8e8e8" />
		</g>
	</g><g
   id="XMLID_2535_">
		<g
   id="XMLID_2615_">
			<path
   id="XMLID_2619_"
   d="m 397.6,595.3 c 4.6,0 9.2,0 13.9,0 1.9,0 1.9,-3 0,-3 -4.6,0 -9.2,0 -13.9,0 -1.9,0 -1.9,3 0,3 z"
   style="fill:#e8e8e8" />
		</g>
	</g><g
   id="XMLID_2549_">
		<g
   id="XMLID_2623_">
			<path
   id="XMLID_2627_"
   d="m 411.1,581 c 0,3.8 0,7.5 0,11.3 0,1.9 3,1.9 3,0 0,-3.8 0,-7.5 0,-11.3 0,-1.9 -3,-1.9 -3,0 z"
   style="fill:#e8e8e8" />
		</g>
	</g><g
   id="XMLID_2563_">
		<g
   id="XMLID_2631_">
			<path
   id="XMLID_2636_"
   d="m 291.8,569.4 c 0,3.8 0,7.5 0,11.3 0,1.9 3,1.9 3,0 0,-3.8 0,-7.5 0,-11.3 0,-2 -3,-2 -3,0 z"
   style="fill:#e8e8e8" />
		</g>
	</g><g
   id="XMLID_2571_">
		<g
   id="XMLID_2639_">
			<path
   id="XMLID_2644_"
   d="m 294.4,570.1 c 29.7,0 59.3,0 89,0 1.9,0 1.9,-3 0,-3 -29.7,0 -59.3,0 -89,0 -1.9,0 -1.9,3 0,3 z"
   style="fill:#e8e8e8" />
		</g>
	</g><g
   id="XMLID_2580_">
		<g
   id="XMLID_2647_">
			<path
   id="XMLID_2652_"
   d="m 383,568.6 c 0,2.8 0,5.6 0,8.4 0,1.9 3,1.9 3,0 0,-2.8 0,-5.6 0,-8.4 0,-1.9 -3,-1.9 -3,0 z"
   style="fill:#e8e8e8" />
		</g>
	</g><g
   id="XMLID_2588_">
		<g
   id="XMLID_2655_">
			<path
   id="XMLID_2660_"
   d="m 294,582.2 c 7.3,0 14.6,0 21.9,0 1.9,0 1.9,-3 0,-3 -7.3,0 -14.6,0 -21.9,0 -1.9,0 -1.9,3 0,3 z"
   style="fill:#e8e8e8" />
		</g>
	</g><g
   id="XMLID_2596_">
		<g
   id="XMLID_2664_">
			<path
   id="XMLID_2668_"
   d="m 292.6,1022.4 c 43,0 86.1,0 129.1,0 1.9,0 1.9,-3 0,-3 -43,0 -86.1,0 -129.1,0 -1.9,0 -1.9,3 0,3 z"
   style="fill:#e8e8e8" />
		</g>
	</g><g
   id="XMLID_2604_">
		<g
   id="XMLID_2672_">
			<path
   id="XMLID_2676_"
   d="m 794.3,768.4 c 0,-16.8 0,-33.5 0,-50.3 0,-1.9 -3,-1.9 -3,0 0,16.8 0,33.5 0,50.3 0,1.9 3,1.9 3,0 z"
   style="fill:#e8e8e8" />
		</g>
	</g><g
   id="XMLID_2612_">
		<g
   id="XMLID_2680_">
			<path
   id="XMLID_2685_"
   d="m 746.5,769.9 c 31.7,0 63.3,0 95,0 1.9,0 1.9,-3 0,-3 -31.7,0 -63.3,0 -95,0 -2,0 -2,3 0,3 z"
   style="fill:#e8e8e8" />
		</g>
	</g><g
   id="XMLID_2620_">
		<g
   id="XMLID_2688_">
			<path
   id="XMLID_2693_"
   d="m 813.6,768.4 c 0,10.4 0,20.8 0,31.1 0,1.9 3,1.9 3,0 0,-10.4 0,-20.8 0,-31.1 0,-1.9 -3,-1.9 -3,0 z"
   style="fill:#e8e8e8" />
		</g>
	</g><g
   id="XMLID_2629_">
		<g
   id="XMLID_2696_">
			<path
   id="XMLID_2701_"
   d="m 780.8,805 c 28.5,0 56.9,0 85.4,0 1.9,0 1.9,-3 0,-3 -28.5,0 -56.9,0 -85.4,0 -1.9,0 -1.9,3 0,3 z"
   style="fill:#e8e8e8" />
		</g>
	</g><g
   id="XMLID_2637_">
		<g
   id="XMLID_2704_">
			<path
   id="XMLID_2709_"
   d="m 369.3,301.9 c 0,-26.1 0,-52.1 0,-78.2 0,-1.9 -3,-1.9 -3,0 0,26.1 0,52.1 0,78.2 0,1.9 3,1.9 3,0 z"
   style="fill:#e8e8e8" />
		</g>
	</g><g
   id="XMLID_2645_">
		<g
   id="XMLID_2713_">
			<path
   id="XMLID_2717_"
   d="m 367.8,226.7 c 41.5,0 82.9,0 124.4,0 1.9,0 1.9,-3 0,-3 -41.5,0 -82.9,0 -124.4,0 -1.9,0 -1.9,3 0,3 z"
   style="fill:#e8e8e8" />
		</g>
	</g><g
   id="XMLID_2653_">
		<g
   id="XMLID_2721_">
			<path
   id="XMLID_2725_"
   d="m 490.7,225.9 c 0,23.3 0,46.7 0,70 0,1.9 3,1.9 3,0 0,-23.3 0,-46.7 0,-70 0,-1.9 -3,-1.9 -3,0 z"
   style="fill:#e8e8e8" />
		</g>
	</g><g
   id="XMLID_2661_">
		<g
   id="XMLID_2729_">
			<path
   id="XMLID_2734_"
   d="m 367.1,303.4 c 41.2,0 82.4,0 123.6,0 1.9,0 1.9,-3 0,-3 -41.2,0 -82.4,0 -123.6,0 -1.9,0 -2,3 0,3 z"
   style="fill:#e8e8e8" />
		</g>
	</g><g
   id="XMLID_2669_">
		<g
   id="XMLID_2737_">
			<path
   id="XMLID_2742_"
   d="m 376,295.2 c 0,-21.1 0,-42.2 0,-63.3 0,-1.9 -3,-1.9 -3,0 0,21.1 0,42.2 0,63.3 0,1.9 3,1.9 3,0 z"
   style="fill:#e8e8e8" />
		</g>
	</g><g
   id="XMLID_2678_">
		<g
   id="XMLID_2745_">
			<path
   id="XMLID_2750_"
   d="m 374.5,233.4 c 36.2,0 72.5,0 108.7,0 1.9,0 1.9,-3 0,-3 -36.2,0 -72.5,0 -108.7,0 -1.9,0 -1.9,3 0,3 z"
   style="fill:#e8e8e8" />
		</g>
	</g><g
   id="XMLID_2686_">
		<g
   id="XMLID_2753_">
			<path
   id="XMLID_2758_"
   d="m 482.5,234.1 c 0,18.4 0,36.7 0,55.1 0,1.9 3,1.9 3,0 0,-18.4 0,-36.7 0,-55.1 0,-1.9 -3,-1.9 -3,0 z"
   style="fill:#e8e8e8" />
		</g>
	</g><g
   id="XMLID_2694_">
		<g
   id="XMLID_2762_">
			<path
   id="XMLID_2766_"
   d="m 376.8,297.4 c 35.3,0 70.5,0 105.8,0 1.9,0 1.9,-3 0,-3 -35.3,0 -70.5,0 -105.8,0 -2,0 -2,3 0,3 z"
   style="fill:#e8e8e8" />
		</g>
	</g><g
   id="XMLID_2702_">
		<g
   id="XMLID_2770_">
			<path
   id="XMLID_2774_"
   d="m 378.3,294.5 c 20.1,-17.3 39.8,-35.1 59.1,-53.3 1.4,-1.3 -0.7,-3.4 -2.1,-2.1 -19.3,18.3 -39,36 -59.1,53.3 -1.5,1.2 0.7,3.3 2.1,2.1 z"
   style="fill:#e8e8e8" />
		</g>
	</g><g
   id="XMLID_2710_">
		<g
   id="XMLID_2777_">
			<path
   id="XMLID_2781_"
   d="m 411.2,294.6 c 16,-18.7 33.1,-36.4 51.2,-53.1 1.4,-1.3 -0.7,-3.4 -2.1,-2.1 -18.1,16.7 -35.2,34.4 -51.2,53.1 -1.3,1.5 0.8,3.6 2.1,2.1 z"
   style="fill:#e8e8e8" />
		</g>
	</g><g
   id="XMLID_2718_">
		<g
   id="XMLID_2784_">
			<path
   id="XMLID_2788_"
   d="m 419.8,225 c 0.3,-1.9 0.9,-3.7 2,-5.3 1,-1.5 3.2,-4.1 5.2,-4 3,0.1 2.4,6.4 3.2,8.4 0.7,1.8 3.6,1 2.9,-0.8 -1.4,-3.6 -0.2,-10.7 -6.1,-10.6 -5.5,0.1 -9.3,6.8 -10.1,11.5 -0.3,1.9 2.6,2.7 2.9,0.8 z"
   style="fill:#e8e8e8" />
		</g>
	</g><g
   id="XMLID_2727_">
		<g
   id="XMLID_2791_">
			<path
   id="XMLID_2795_"
   d="m 1161.5,559.2 c 0,-5.5 0,-11 0,-16.4 0,-1.9 -3,-1.9 -3,0 0,5.5 0,11 0,16.4 0,1.9 3,1.9 3,0 z"
   style="fill:#e8e8e8" />
		</g>
	</g><g
   id="XMLID_2735_">
		<g
   id="XMLID_2798_">
			<path
   id="XMLID_2802_"
   d="m 1160,544.3 c 70,0 140,0 210.1,0 1.9,0 1.9,-3 0,-3 -70,0 -140,0 -210.1,0 -1.9,0 -1.9,3 0,3 z"
   style="fill:#e8e8e8" />
		</g>
	</g><g
   id="XMLID_2743_">
		<g
   id="XMLID_2805_">
			<path
   id="XMLID_2809_"
   d="m 1160,560 c 70,0 140,0 210.1,0 1.9,0 1.9,-3 0,-3 -70,0 -140,0 -210.1,0 -1.9,0 -1.9,3 0,3 z"
   style="fill:#e8e8e8" />
		</g>
	</g><g
   id="XMLID_2751_">
		<g
   id="XMLID_2812_">
			<path
   id="XMLID_2816_"
   d="m 1367.9,542.8 c 0,5.2 0,10.5 0,15.7 0,1.9 3,1.9 3,0 0,-5.2 0,-10.5 0,-15.7 0,-2 -3,-2 -3,0 z"
   style="fill:#e8e8e8" />
		</g>
	</g><g
   id="XMLID_2759_">
		<g
   id="XMLID_2819_">
			<path
   id="XMLID_2823_"
   d="m 1170.8,541.3 c 0,-31.2 0,-62.4 0,-93.6 0,-1.9 -3,-1.9 -3,0 0,31.2 0,62.4 0,93.6 0,2 3,2 3,0 z"
   style="fill:#e8e8e8" />
		</g>
	</g><g
   id="XMLID_2767_">
		<g
   id="XMLID_2826_">
			<path
   id="XMLID_2830_"
   d="m 1168.6,446.4 c 7.6,0 15.2,0 22.9,0 1.9,0 1.9,-3 0,-3 -7.6,0 -15.2,0 -22.9,0 -1.9,0 -1.9,3 0,3 z"
   style="fill:#e8e8e8" />
		</g>
	</g><g
   id="XMLID_2775_">
		<g
   id="XMLID_2833_">
			<path
   id="XMLID_2837_"
   d="m 1190.7,437 c 0,34.8 0,69.5 0,104.3 0,1.9 3,1.9 3,0 0,-34.8 0,-69.5 0,-104.3 0,-1.9 -3,-1.9 -3,0 z"
   style="fill:#e8e8e8" />
		</g>
	</g><g
   id="XMLID_2782_">
		<g
   id="XMLID_2840_">
			<path
   id="XMLID_2844_"
   d="m 1192.9,437.1 c 7.9,0 15.7,0 23.6,0 1.9,0 1.9,-3 0,-3 -7.9,0 -15.7,0 -23.6,0 -1.9,0 -2,3 0,3 z"
   style="fill:#e8e8e8" />
		</g>
	</g><g
   id="XMLID_2789_">
		<g
   id="XMLID_2847_">
			<path
   id="XMLID_2851_"
   d="m 1215.7,435.6 c 0,34.8 0,69.5 0,104.3 0,1.9 3,1.9 3,0 0,-34.8 0,-69.5 0,-104.3 0,-2 -3,-2 -3,0 z"
   style="fill:#e8e8e8" />
		</g>
	</g><g
   id="XMLID_2796_">
		<g
   id="XMLID_2854_">
			<path
   id="XMLID_2858_"
   d="m 1218.7,443.4 c 0,-9.5 0,-19.1 0,-28.6 0,-1.9 -3,-1.9 -3,0 0,9.5 0,19.1 0,28.6 0,2 3,2 3,0 z"
   style="fill:#e8e8e8" />
		</g>
	</g><g
   id="XMLID_2803_">
		<g
   id="XMLID_2861_">
			<path
   id="XMLID_2865_"
   d="m 1217.9,414.9 c 10,0 20,0 30,0 1.9,0 1.9,-3 0,-3 -10,0 -20,0 -30,0 -1.9,0 -1.9,3 0,3 z"
   style="fill:#e8e8e8" />
		</g>
	</g><g
   id="XMLID_2810_">
		<g
   id="XMLID_2868_">
			<path
   id="XMLID_2872_"
   d="m 1246.4,414.9 c 0,41.9 0,83.8 0,125.8 0,1.9 3,1.9 3,0 0,-41.9 0,-83.8 0,-125.8 0,-2 -3,-2 -3,0 z"
   style="fill:#e8e8e8" />
		</g>
	</g><g
   id="XMLID_2817_">
		<g
   id="XMLID_2875_">
			<path
   id="XMLID_2879_"
   d="m 1246.4,414.9 c 0,22.4 0,44.8 0,67.2 0,1.9 3,1.9 3,0 0,-22.4 0,-44.8 0,-67.2 0,-2 -3,-2 -3,0 z"
   style="fill:#e8e8e8" />
		</g>
	</g><g
   id="XMLID_2824_">
		<g
   id="XMLID_2882_">
			<path
   id="XMLID_2886_"
   d="m 1258.7,540.6 c 0.1,-3.9 0.1,-7.8 0.2,-11.7 -0.5,0.5 -1,1 -1.5,1.5 19,-2.5 38.1,-4 57.2,-4.4 9.4,-0.2 18.8,-0.1 28.2,0.3 3.7,0.1 10.3,-0.7 13.7,0.9 3.9,1.8 2.9,11.2 2.8,14.8 0,1.9 3,1.9 3,0 0,-5.3 1.2,-16.2 -5.6,-17.8 -4.4,-1 -9.4,-0.7 -13.9,-0.9 -5.8,-0.2 -11.7,-0.4 -17.5,-0.4 -22.7,-0.1 -45.4,1.4 -67.9,4.4 -0.8,0.1 -1.5,0.6 -1.5,1.5 -0.1,3.9 -0.1,7.8 -0.2,11.7 0,2 3,2 3,0.1 z"
   style="fill:#e8e8e8" />
		</g>
	</g><g
   id="XMLID_2831_">
		<g
   id="XMLID_2889_">
			<path
   id="XMLID_2893_"
   d="m 1277.3,527 c 0,-2.5 -0.4,-5.2 0,-7.7 0.5,-3.7 2.2,-3.7 5.7,-3.9 5.3,-0.3 10.5,-0.6 15.8,-0.8 10.8,-0.6 21.7,-1.2 32.5,-1.7 10.3,-0.6 20.7,-1.5 31.1,-1.6 3.3,0 7,0.1 9.3,2.8 3.1,3.7 0.5,7.9 -3.7,9.1 -4.3,1.2 -8.9,0.3 -13.2,1.3 -1.9,0.4 -1.1,3.3 0.8,2.9 6.1,-1.4 24.5,0.3 20.7,-11.8 -1.3,-4.2 -5.5,-6.5 -9.6,-7 -7.6,-1.1 -15.9,0.4 -23.5,0.8 -15.8,0.8 -31.5,1.7 -47.3,2.5 -3.9,0.2 -7.9,0.4 -11.8,0.6 -2.2,0.1 -5.4,-0.3 -7.5,0.8 -4.1,2.1 -2.2,10.4 -2.2,13.9 -0.1,1.8 2.9,1.8 2.9,-0.2 z"
   style="fill:#e8e8e8" />
		</g>
	</g><g
   id="XMLID_2838_">
		<g
   id="XMLID_2896_">
			<path
   id="XMLID_2900_"
   d="m 1108.5,164.9 c 0,-18.8 0,-37.6 0,-56.5 0,-1.9 -3,-1.9 -3,0 0,18.8 0,37.6 0,56.5 0,2 3,2 3,0 z"
   style="fill:#e8e8e8" />
		</g>
	</g><g
   id="XMLID_2845_">
		<g
   id="XMLID_2903_">
			<path
   id="XMLID_2907_"
   d="m 1107,110 c 35.4,0 70.9,0 106.3,0 1.9,0 1.9,-3 0,-3 -35.4,0 -70.9,0 -106.3,0 -2,0 -2,3 0,3 z"
   style="fill:#e8e8e8" />
		</g>
	</g><g
   id="XMLID_2852_">
		<g
   id="XMLID_2910_">
			<path
   id="XMLID_2914_"
   d="m 1211.8,109.1 c 0,17.1 0,34.1 0,51.2 0,1.9 3,1.9 3,0 0,-17.1 0,-34.1 0,-51.2 0,-1.9 -3,-1.9 -3,0 z"
   style="fill:#e8e8e8" />
		</g>
	</g><g
   id="XMLID_2859_">
		<g
   id="XMLID_2917_">
			<path
   id="XMLID_2921_"
   d="m 1107.6,165.8 c 34.8,0 69.5,0 104.3,0 1.9,0 1.9,-3 0,-3 -34.8,0 -69.5,0 -104.3,0 -1.9,0 -1.9,3 0,3 z"
   style="fill:#e8e8e8" />
		</g>
	</g><g
   id="XMLID_2866_">
		<g
   id="XMLID_2924_">
			<path
   id="XMLID_2928_"
   d="m 1149,109.1 c -0.1,-2.4 0,-4.7 0.5,-7 0.3,-1.5 1.1,-5.8 2.7,-6.4 0.6,0.3 1.2,0.6 1.8,0.9 0.2,0.6 0.3,1.2 0.4,1.8 0.3,1.1 0.5,2.2 0.7,3.2 0.5,2.2 1,4.3 1.5,6.5 0.4,1.9 3.3,1.1 2.9,-0.8 -0.9,-3.8 -1.5,-7.8 -2.7,-11.5 -0.7,-2.1 -2.1,-3.9 -4.5,-3.4 -2.6,0.5 -3.9,3.2 -4.7,5.4 -1.4,3.6 -1.9,7.5 -1.8,11.3 0.3,1.9 3.3,1.9 3.2,0 z"
   style="fill:#e8e8e8" />
		</g>
	</g><g
   id="XMLID_2873_">
		<g
   id="XMLID_2931_">
			<path
   id="XMLID_2935_"
   d="m 1114.5,157 c 19.4,-14.6 39.8,-27.6 61.1,-39.1 1.7,-0.9 0.2,-3.5 -1.5,-2.6 -21.3,11.5 -41.7,24.6 -61.1,39.1 -1.6,1.2 -0.1,3.8 1.5,2.6 z"
   style="fill:#e8e8e8" />
		</g>
	</g><g
   id="XMLID_2880_">
		<g
   id="XMLID_2938_">
			<path
   id="XMLID_2942_"
   d="m 1140.5,156.6 c 16.7,-13.3 34.7,-24.9 53.6,-34.8 1.7,-0.9 0.2,-3.5 -1.5,-2.6 -19.2,10.1 -37.3,21.9 -54.2,35.3 -1.5,1.2 0.6,3.3 2.1,2.1 z"
   style="fill:#e8e8e8" />
		</g>
	</g><g
   id="XMLID_2887_">
		<g
   id="XMLID_2945_">
			<path
   id="XMLID_2949_"
   d="m 1182.9,257.3 c 0,-10.4 0,-20.8 0,-31.2 0,-1.9 -3,-1.9 -3,0 0,10.4 0,20.8 0,31.2 0,1.9 3,1.9 3,0 z"
   style="fill:#e8e8e8" />
		</g>
	</g><g
   id="XMLID_2894_">
		<g
   id="XMLID_2952_">
			<path
   id="XMLID_2956_"
   d="m 1182,226.9 c 19.9,0 39.9,0 59.8,0 1.9,0 1.9,-3 0,-3 -19.9,0 -39.9,0 -59.8,0 -1.9,0 -1.9,3 0,3 z"
   style="fill:#e8e8e8" />
		</g>
	</g><g
   id="XMLID_2901_">
		<g
   id="XMLID_2959_">
			<path
   id="XMLID_2963_"
   d="m 1182,258.8 c 20.8,0 41.6,0 62.4,0 1.9,0 1.9,-3 0,-3 -20.8,0 -41.6,0 -62.4,0 -1.9,0 -1.9,3 0,3 z"
   style="fill:#e8e8e8" />
		</g>
	</g><g
   id="XMLID_2908_">
		<g
   id="XMLID_2966_">
			<path
   id="XMLID_2970_"
   d="m 1241.7,226.7 c 0,10.9 0,21.7 0,32.6 0,1.9 3,1.9 3,0 0,-10.9 0,-21.7 0,-32.6 0,-1.9 -3,-1.9 -3,0 z"
   style="fill:#e8e8e8" />
		</g>
	</g><g
   id="XMLID_2915_">
		<g
   id="XMLID_2973_">
			<path
   id="XMLID_2977_"
   d="m 1206.8,224.7 c -0.1,-1.3 0.5,-10.3 2.7,-9.2 0.6,0.3 1,3.8 1.1,4.5 0.4,2 0.5,4 0.4,6 0,1.9 3,1.9 3,0 0,-3.2 -0.3,-6.4 -1.1,-9.5 -0.5,-1.8 -1.2,-4.6 -3.6,-4.7 -2.3,-0.1 -3.5,2.7 -4.2,4.4 -1.1,2.7 -1.5,5.6 -1.3,8.5 0.2,1.9 3.2,1.9 3,0 z"
   style="fill:#e8e8e8" />
		</g>
	</g><g
   id="XMLID_2922_">
		<g
   id="XMLID_2980_">
			<path
   id="XMLID_2984_"
   d="m 1187,254.9 c 10.5,-6.5 20.8,-13.3 30.8,-20.5 1.5,-1.1 0.1,-3.7 -1.5,-2.6 -10,7.2 -20.3,14.1 -30.8,20.5 -1.7,1 -0.2,3.6 1.5,2.6 z"
   style="fill:#e8e8e8" />
		</g>
	</g><g
   id="XMLID_2929_">
		<g
   id="XMLID_2987_">
			<path
   id="XMLID_2991_"
   d="m 1203.8,255.8 c 8.8,-7 17.9,-13.4 27.4,-19.4 1.6,-1 0.1,-3.6 -1.5,-2.6 -9.7,6.1 -19,12.7 -28,19.9 -1.5,1.2 0.6,3.3 2.1,2.1 z"
   style="fill:#e8e8e8" />
		</g>
	</g><g
   id="XMLID_2936_">
		<g
   id="XMLID_2994_">
			<path
   id="XMLID_2998_"
   d="m 313.5,369.2 c 0,14.3 0,28.6 0,42.9 0,1.9 3,1.9 3,0 0,-14.3 0,-28.6 0,-42.9 0,-2 -3,-2 -3,0 z"
   style="fill:#e8e8e8" />
		</g>
	</g><g
   id="XMLID_2943_">
		<g
   id="XMLID_3001_">
			<path
   id="XMLID_3005_"
   d="m 291,415.3 c 22.3,0 44.6,0 67,0 1.9,0 1.9,-3 0,-3 -22.3,0 -44.6,0 -67,0 -1.9,0 -1.9,3 0,3 z"
   style="fill:#e8e8e8" />
		</g>
	</g><g
   id="XMLID_2950_">
		<g
   id="XMLID_3008_">
			<path
   id="XMLID_3012_"
   d="m 335.9,415.5 c 0,8.6 0,17.2 0,25.8 0,1.9 3,1.9 3,0 0,-8.6 0,-17.2 0,-25.8 0,-1.9 -3,-1.9 -3,0 z"
   style="fill:#e8e8e8" />
		</g>
	</g>
<circle
   id="XMLID_2957_"
   cx="683.59998"
   cy="60.099998"
   r="12.1"
   style="fill:#0e1e40;fill-opacity:1" /><circle
   id="XMLID_2964_"
   cx="716.59998"
   cy="83"
   r="10.8"
   style="fill:#0e1e40;fill-opacity:1" /><circle
   id="XMLID_2971_"
   cx="1116.2"
   cy="646.79999"
   r="9.3000002"
   style="fill:#444444" /><circle
   id="XMLID_2978_"
   cx="1085.8"
   cy="605.40002"
   r="7.6999998"
   style="fill:#444444" /><circle
   id="XMLID_2985_"
   cx="722.09998"
   cy="44.5"
   r="5.5"
   style="fill:#444444" /><circle
   id="XMLID_2992_"
   cx="377.39999"
   cy="502.79999"
   r="20.299999"
   style="fill:#0e1e40;fill-opacity:1" /><circle
   id="XMLID_2999_"
   cx="393.60001"
   cy="480.70001"
   r="19"
   style="fill:#f1aa4b;fill-opacity:1" /><circle
   id="XMLID_3000_"
   cx="1119"
   cy="598.90002"
   r="6.5"
   style="fill:#c6c6c6" /><circle
   id="XMLID_3006_"
   cx="1278.1"
   cy="96"
   r="13.1"
   style="fill:#f1aa4b;fill-opacity:1" /><g
   id="XMLID_3007_">
		<g
   id="XMLID_19_">
			<path
   id="XMLID_23_"
   d="m 755.1,209.5 c -2,-1.1 -1.9,-3.8 -1,-5.4 1.1,-1.8 2.5,-2.6 4.6,-3.2 2.5,-0.6 5.1,-0.6 7.6,-0.9 3.1,-0.4 6.5,-1.2 8.8,-3.6 2.9,-2.9 2.4,-6.7 2.1,-10.4 -0.5,-6.5 3.2,-12.3 10,-13 5.6,-0.6 13.6,0.3 13.9,-7.5 0.2,-4.6 -3.8,-10.6 1.2,-13.9 3.7,-2.4 9.9,-0.6 13.6,0.6 1.8,0.6 2.6,-2.3 0.8,-2.9 -6.3,-2.1 -18.1,-3.8 -19.8,5.1 -0.5,2.3 0.2,4.5 0.6,6.8 0.5,2.6 1.5,5.3 -1.2,7.5 -1.3,1.1 -3.6,0.9 -5.2,1 -4.6,0.3 -8.5,0.3 -12.1,3.5 -3.5,3 -5.1,7.3 -4.9,11.9 0.2,4.9 0.6,9.5 -5,11.2 -2.7,0.9 -5.6,0.7 -8.4,1.1 -4,0.5 -8.1,1.8 -9.8,5.8 -1.4,3.3 -0.7,7 2.5,8.8 1.9,1 3.4,-1.6 1.7,-2.5 z"
   style="fill:#898989" />
		</g>
	</g><g
   id="XMLID_3013_">
		<g
   id="XMLID_13_">
			<path
   id="XMLID_17_"
   d="m 792.9,190.3 c -2.7,-1.6 -1.8,-5.5 0.1,-7.4 2.3,-2.4 6.6,-2.5 9.6,-2.9 3.2,-0.4 6.5,-0.9 9.3,-2.6 2.1,-1.3 3.8,-3.3 4.4,-5.8 0.8,-3.8 -2.7,-9.2 -0.6,-12.5 2.1,-3.3 7.9,-1.8 11.1,-1.9 2.6,-0.1 5,-0.5 7.1,-2.2 2.6,-2.1 3.5,-5.3 3.8,-8.5 0.3,-2.1 0.2,-4.2 0.5,-6.3 0.4,-2.8 5,-10.8 8.2,-5.1 0.9,1.7 3.5,0.2 2.6,-1.5 -1.6,-2.9 -4.9,-3.8 -8,-2.6 -3.9,1.4 -5.3,5.3 -5.8,9.1 -0.5,3.5 0.1,7.4 -1.6,10.6 -1.9,3.5 -5.7,3.6 -9.2,3.5 -3.5,-0.1 -7.7,-0.6 -10.4,2.2 -3.1,3.3 -1.3,7.5 -0.7,11.4 1.5,9.9 -10.4,8.5 -16.6,10.1 -3.7,1 -6.9,3 -8,6.8 -1,3.3 -0.1,6.4 2.8,8.2 1.5,1 3,-1.6 1.4,-2.6 z"
   style="fill:#898989" />
		</g>
	</g><g
   id="XMLID_3014_"
   style="fill:#091a3e;fill-opacity:1">
		<g
   id="XMLID_97_"
   style="fill:#091a3e;fill-opacity:1">
			<path
   id="XMLID_101_"
   d="m 697.1,917.2 c -3,-3.7 -1.8,-9.3 1.6,-12.3 4.3,-3.8 10.4,-1.9 13.3,2.6 3,4.6 2.4,10.3 -1.9,13.9 -5.5,4.6 -14.2,1.4 -14.3,-6.1 0,-1.9 -3,-1.9 -3,0 0.1,7.8 7.8,13.4 15.3,10.7 7.8,-2.8 11,-11.9 7.1,-19 -3.4,-6.2 -11.3,-9.7 -17.5,-5.2 -5.5,4.1 -7.1,12.1 -2.7,17.5 1.2,1.5 3.3,-0.7 2.1,-2.1 z"
   style="fill:#091a3e;fill-opacity:1" />
		</g>
	</g><g
   id="XMLID_3015_"
   style="fill:#f1aa4b;fill-opacity:1">
		<g
   id="XMLID_91_"
   style="fill:#f1aa4b;fill-opacity:1">
			<path
   id="XMLID_95_"
   d="m 717.4,931.6 c -3.6,-2.3 -7.2,-5.5 -8.2,-9.8 -1.5,-6.5 4.5,-12 10.6,-8.5 3.9,2.3 7.6,6.9 6.9,11.7 -0.6,4.2 -7.1,8.1 -10.3,3.7 -1.1,-1.5 -3.7,-0.1 -2.6,1.5 3.4,4.7 10.2,4 13.8,-0.2 5,-5.8 0.6,-14.2 -4.6,-18.1 -5.9,-4.5 -13.4,-3.7 -16.3,3.7 -3.1,7.7 2.9,14.7 9.1,18.6 1.7,1 3.2,-1.6 1.6,-2.6 z"
   style="fill:#f1aa4b;fill-opacity:1" />
		</g>
	</g><g
   id="XMLID_3016_"
   style="fill:#091a3e;fill-opacity:1">
		<g
   id="XMLID_61_"
   style="fill:#091a3e;fill-opacity:1">
			<path
   id="XMLID_65_"
   d="m 390.9,821.5 c -3,-2.4 -4.1,-6.5 -1.2,-9.5 2.6,-2.8 5.9,-2.3 9.1,-0.8 2.9,1.3 5.7,2.9 9,2.3 10.2,-1.9 0.9,-16.6 9.2,-19.8 3.5,-1.3 4.1,0.7 6.3,2.8 1.1,1 2.1,1.6 3.6,1.7 2.4,0.2 4.4,-1.4 5.7,-3.3 2.2,-3.6 1.2,-8.3 2.2,-12.2 0.7,-2.6 2.1,-5.8 4.6,-7 3.1,-1.5 7.9,0.1 7.9,4 0,1.9 3,1.9 3,0 0.1,-8.7 -11.3,-9.4 -15.8,-3.6 -1.3,1.7 -2.1,3.8 -2.7,5.8 -0.7,2.8 0.1,7.1 -1.1,9.6 -3.6,7.6 -5.7,2.1 -7.5,0.4 -0.8,-0.7 -1.5,-1.3 -2.5,-1.6 -1.6,-0.6 -3.4,-0.4 -5,0.4 -4.8,2.2 -5.6,7.3 -5.7,12 -0.1,2.7 1,7.4 -3.6,8.1 -1.9,0.3 -4,-1 -5.6,-1.7 -2,-0.9 -3.9,-2 -6.2,-2.1 -9.5,-0.6 -13,11.2 -6,16.8 1.7,1.1 3.8,-1 2.3,-2.3 z"
   style="fill:#091a3e;fill-opacity:1" />
		</g>
	</g><g
   id="XMLID_3017_"
   style="fill:#091a3e;fill-opacity:1">
		<g
   id="XMLID_55_"
   style="fill:#091a3e;fill-opacity:1">
			<path
   id="XMLID_59_"
   d="m 426.1,777 c -1.9,-3.6 -1.1,-8 1.8,-10.9 3,-2.9 6.3,-1.8 9.8,-2.8 4.8,-1.4 5.1,-5.3 5.4,-9.7 1,-13.2 22.1,-6.1 23.7,-19.6 0.2,-1.9 -2.8,-1.9 -3,0 -0.9,7.8 -13.3,7 -18.5,10.1 -2,1.2 -3.6,2.7 -4.4,4.9 -1,2.6 -0.2,5.5 -1,8.1 -1.5,4.9 -7.1,3 -10.7,4.5 -1.8,0.8 -3.2,2 -4.4,3.5 -3.1,3.9 -3.5,9 -1.3,13.3 0.9,1.8 3.5,0.3 2.6,-1.4 z"
   style="fill:#091a3e;fill-opacity:1" />
		</g>
	</g><g
   id="XMLID_3018_">
		<g
   id="XMLID_49_">
			<path
   id="XMLID_53_"
   d="m 333.5,211.7 c -2.8,-7.7 -3.7,-18 4.4,-22.9 7.7,-4.6 15.1,2.5 15.9,10.1 0.7,6.8 -3.8,14.3 -10.5,16.3 -6.9,2 -14.2,-2.6 -15.5,-9.6 -0.3,-1.9 -3.2,-1.1 -2.9,0.8 1.6,8.6 10.8,14.2 19.2,11.7 8.5,-2.4 14,-11.9 12.6,-20.4 -1.4,-8.7 -9.7,-16.1 -18.6,-12.2 -10.8,4.6 -10.9,17.6 -7.4,27.1 0.5,1.7 3.4,1 2.8,-0.9 z"
   style="fill:#898989" />
		</g>
	</g><g
   id="XMLID_3020_"
   style="fill:#f1aa4b;fill-opacity:1">
		<g
   id="XMLID_37_"
   style="fill:#f1aa4b;fill-opacity:1">
			<path
   id="XMLID_41_"
   d="m 344.6,194.9 c -12,-2.2 -6.3,-21.7 2.6,-24 7.6,-2 10.3,7 9,12.8 -0.5,2.3 -1.3,4.6 -2.5,6.7 -1.5,2.7 -6.6,8.1 -9,2.4 -0.8,-1.8 -3.3,-0.2 -2.6,1.5 1.2,2.9 4.2,4.2 7.2,3.7 3.7,-0.7 6,-4.2 7.6,-7.4 3.5,-7.3 4.6,-18.1 -4.1,-22.2 -14.7,-7 -27.1,26.2 -9.1,29.4 1.9,0.3 2.8,-2.5 0.9,-2.9 z"
   style="fill:#f1aa4b;fill-opacity:1" />
		</g>
	</g><g
   id="XMLID_3022_">
		<g
   id="XMLID_85_">
			<path
   id="XMLID_89_"
   d="m 1109.4,740.8 c -4.1,-8.1 7.8,-13.1 11.3,-4.9 0.2,0.6 1.1,0.9 1.7,0.7 4.4,-1.7 6.1,-5.3 8.3,-9.2 1.6,-2.9 3.4,-6.5 7.2,-6.8 4.4,-0.4 8,3.9 7.6,8.1 -0.2,1.9 2.8,1.9 3,0 0.7,-6.3 -5.5,-12.2 -11.9,-10.9 -8.4,1.7 -7.7,13.2 -14.9,16 0.6,0.2 1.1,0.5 1.7,0.7 -5.1,-11.9 -22.3,-3.6 -16.5,8 0.8,1.5 3.4,0 2.5,-1.7 z"
   style="fill:#828282" />
		</g>
	</g><g
   id="XMLID_3029_">
		<g
   id="XMLID_79_">
			<path
   id="XMLID_83_"
   d="m 1079.8,247 c -3.9,4.3 -5.1,10.3 -3,15.8 1,2.5 2.7,4.5 4.8,6.1 3.2,2.5 9.6,4.9 8.4,9.7 -1,4.5 -6.8,8.8 -0.9,12.8 2.3,1.6 5.3,1.7 7.9,2.6 5.3,1.8 7.9,8 3.6,12.5 -1.3,1.4 0.8,3.5 2.1,2.1 3.5,-3.7 4,-9.3 1,-13.6 -1.5,-2.1 -3.6,-3.2 -6,-3.9 -1.5,-0.5 -3.1,-0.7 -4.6,-1.2 -3.5,-1.1 -3.6,-3.8 -2.1,-6.9 1.1,-2.4 2.7,-4 2.1,-6.8 -0.5,-2.3 -2.2,-4 -3.9,-5.4 -3,-2.4 -6.9,-4 -9,-7.4 -2.7,-4.5 -1.9,-10.4 1.5,-14.2 1.5,-1.5 -0.6,-3.6 -1.9,-2.2 z"
   style="fill:#828282" />
		</g>
	</g><g
   id="XMLID_3036_">
		<g
   id="XMLID_67_">
			<path
   id="XMLID_71_"
   d="m 1112.7,281.2 c -2.9,0.8 -4.5,3.4 -4.2,6.5 0.4,4.1 4.1,6.2 7.2,8.2 2.3,1.5 3.3,2.3 3.9,5.1 0.6,2.5 0.1,2.8 0,4.9 0,1.3 0.3,2.4 1.1,3.5 1,1.4 2.7,2.1 4.1,3.1 3.6,2.5 4.8,6.3 3.3,10.4 -0.7,1.8 2.2,2.6 2.9,0.8 1.1,-3.1 1.1,-6.3 -0.4,-9.2 -1.6,-3.2 -7.9,-5.6 -8,-9 0,-1.5 1,-2.8 0.8,-4.4 -0.2,-1.3 -0.7,-2.5 -1.5,-3.6 -1.3,-1.8 -3,-3 -4.9,-4.3 -2.2,-1.4 -9.5,-7.6 -3.7,-9.2 2,-0.4 1.2,-3.3 -0.6,-2.8 z"
   style="fill:#828282" />
		</g>
	</g><g
   id="XMLID_3043_">
		<g
   id="XMLID_31_">
			<path
   id="XMLID_35_"
   d="m 774.6,563.9 c -1.7,-3 -0.6,-7.5 3.1,-8.4 2.5,-0.6 5.7,0.6 7.1,2.8 3.6,5.4 -5.1,10.6 -9.3,6.9 -1.4,-1.3 -3.6,0.8 -2.1,2.1 7,6.2 19.9,-2.7 13.7,-11 -2.5,-3.3 -7.4,-4.9 -11.2,-3.4 -4.9,2 -6.2,8.1 -3.8,12.4 0.9,1.8 3.4,0.3 2.5,-1.4 z"
   style="fill:#898989" />
		</g>
	</g><g
   id="XMLID_3050_">
		<g
   id="XMLID_73_">
			<path
   id="XMLID_77_"
   d="m 776.7,555.1 c -2.6,-5.2 -3.5,-11.7 0.1,-16.7 3.3,-4.6 10.2,-6 14.3,-1.8 4.1,4.1 3.9,10.7 0.8,15.4 -3.5,5.3 -10.4,6.6 -16.1,4.6 -1.8,-0.7 -2.6,2.2 -0.8,2.9 7,2.6 15.3,0.5 19.5,-5.9 3.9,-6 3.8,-14.9 -1.8,-19.7 -4.9,-4.3 -12.4,-3 -16.9,1.3 -5.9,5.7 -5,14.8 -1.7,21.6 0.9,1.5 3.4,0 2.6,-1.7 z"
   style="fill:#828282" />
		</g>
	</g><g
   id="XMLID_3051_"
   style="fill:#091a3e;fill-opacity:1">
		<g
   id="XMLID_43_"
   style="fill:#091a3e;fill-opacity:1">
			<path
   id="XMLID_47_"
   d="m 1277.7,382.2 c 9.1,-7.3 18.3,-14.7 27.4,-22 -0.9,-0.4 -1.7,-0.7 -2.6,-1.1 -0.8,6.6 -2.6,12.9 -5.6,18.8 -0.6,1.3 0.7,2.9 2.1,2.1 10.9,-6.9 22.2,-13.2 33.9,-18.7 -0.7,-0.7 -1.4,-1.4 -2.1,-2.1 -4.2,6 -6.9,12.5 -8.3,19.7 -0.2,1.2 1,2.4 2.2,1.7 9.9,-5.8 19.7,-11.6 29.6,-17.4 -0.7,-0.6 -1.5,-1.1 -2.2,-1.7 -1.2,5.9 -2.3,11.7 -3.5,17.6 -0.4,1.9 2.5,2.7 2.9,0.8 1.2,-5.9 2.3,-11.7 3.5,-17.6 0.2,-1.2 -1,-2.4 -2.2,-1.7 -9.9,5.8 -19.7,11.6 -29.6,17.4 0.7,0.6 1.5,1.1 2.2,1.7 1.3,-6.9 4,-13.2 8,-19 0.9,-1.3 -0.8,-2.6 -2.1,-2.1 -11.7,5.5 -23,11.8 -33.9,18.7 0.7,0.7 1.4,1.4 2.1,2.1 3.2,-6.5 5.2,-13.2 6,-20.4 0.2,-1.4 -1.7,-1.8 -2.6,-1.1 -9.1,7.3 -18.3,14.7 -27.4,22 -1.4,1.4 0.7,3.5 2.2,2.3 z"
   style="fill:#091a3e;fill-opacity:1" />
		</g>
	</g><g
   id="XMLID_3057_"
   style="fill:#091a3e;fill-opacity:1">
		<g
   id="XMLID_25_"
   style="fill:#091a3e;fill-opacity:1">
			<path
   id="XMLID_29_"
   d="m 1315.9,401.3 c 6.8,-4.3 13.5,-8.6 20.2,-12.9 -0.8,-0.4 -1.5,-0.9 -2.3,-1.3 -0.6,4.8 -1.8,9.2 -3.5,13.7 -0.5,1.3 1.1,2.3 2.2,1.7 11.2,-6.1 22,-12.8 32.4,-20 -0.7,-0.6 -1.5,-1.1 -2.2,-1.7 -2,4.8 -4,9.6 -6,14.3 -0.7,1.8 2.2,2.6 2.9,0.8 2,-4.8 4,-9.6 6,-14.3 0.5,-1.2 -1.2,-2.4 -2.2,-1.7 -10.5,7.2 -21.3,13.9 -32.4,20 0.7,0.6 1.5,1.1 2.2,1.7 1.8,-4.7 2.9,-9.5 3.6,-14.5 0.1,-1.1 -1.4,-1.9 -2.3,-1.3 -6.7,4.3 -13.5,8.6 -20.2,12.9 -1.5,1.1 0,3.6 1.6,2.6 z"
   style="fill:#091a3e;fill-opacity:1" />
		</g>
	</g><circle
   id="XMLID_3058_"
   cx="732.29999"
   cy="690.79999"
   r="16.9"
   style="fill:#444444" />
<g
   id="leg_right_1_">
		<path
   id="XMLID_1760_"
   d="m 965.4,1036.4 c 1.1,6.7 2.2,13.4 3.3,20 -12.5,13.8 -23.9,22.7 -32.2,28.4 -9.3,6.4 -22.4,14.1 -33.8,30.1 -1.5,2.1 -2.6,3.8 -3.3,5 11.1,-3.2 22.3,-6.4 33.4,-9.6 24.8,-7.2 49.6,-14.4 74.3,-21.7 -4,-25.1 -8.1,-50.1 -12.1,-75.2 -9.9,7.7 -19.7,15.3 -29.6,23 z" />
		<path
   id="XMLID_1748_"
   d="m 906.1,706.1 c 0.2,6.3 0.6,15.4 1.4,26.4 1.1,16.7 4.1,54.9 19.6,135.2 11,56.9 22.4,104.9 33.8,152.8 1.7,7.1 3.1,12.9 4.1,16.9 10.8,-2 21.6,-4.1 32.4,-6.1 -1.5,-10.8 -3.6,-27 -6.1,-46.6 -9.6,-76.1 -15.6,-124.5 -18.3,-181.9 -1.1,-23.9 -1.9,-57.7 -0.7,-98.7 -22.1,0.6 -44.2,1.3 -66.2,2 z"
   style="fill:#ffffff" />
		<path
   id="XMLID_1768_"
   d="m 942.3,716.5 c 1,7.2 2.5,18.1 4.3,31.2 6.9,49.4 12.3,85.8 13.4,93.6 4.7,31.6 12.3,87.2 25.3,192 3.9,-0.4 7.9,-0.7 11.8,-1.1 -1.7,-10.9 -4.2,-27.8 -7,-48.4 -6.6,-49 -15.3,-114.2 -18.3,-195.8 -0.6,-16.3 -1.2,-39.8 -1.1,-68.3 -9.4,-1 -18.9,-2.1 -28.4,-3.2 z"
   style="opacity:0.11;fill:#606060" />
		<g
   id="XMLID_1717_">
			<g
   id="XMLID_1771_">
				<path
   id="XMLID_1775_"
   d="m 904.3,707.7 c 6.9,92 25.1,182.6 45.8,272.4 5.9,25.7 12,51.3 18.2,77 0.4,1.9 3.3,1.1 2.9,-0.8 -21.3,-89.2 -42.7,-178.6 -55.3,-269.5 -3.7,-26.3 -6.5,-52.6 -8.5,-79.1 -0.2,-1.9 -3.2,-1.9 -3.1,0 z"
   style="fill:#161616" />
			</g>
		</g>
		<g
   id="XMLID_1724_">
			<g
   id="XMLID_1779_">
				<path
   id="XMLID_1784_"
   d="m 969.6,722.3 c -0.1,95.7 7.4,191.4 22.4,285.9 4.3,27 9.2,53.8 14.7,80.6 0.4,1.9 3.3,1.1 2.9,-0.8 -19.2,-93.8 -31,-189.1 -35.2,-284.8 -1.2,-27 -1.7,-53.9 -1.7,-80.9 -0.1,-1.9 -3.1,-1.9 -3.1,0 z"
   style="fill:#161616" />
			</g>
		</g>
		<g
   id="XMLID_1725_">
			<g
   id="XMLID_1787_">
				<path
   id="XMLID_1792_"
   d="m 968.9,1055.8 c -13,10.9 -25.9,21.9 -38.9,32.8 -11,9.3 -23.3,18.2 -31,30.7 -0.7,1.1 0.4,2.6 1.7,2.2 36.1,-10.5 72.2,-20.9 108.3,-31.4 1.9,-0.5 1.1,-3.4 -0.8,-2.9 -36.1,10.5 -72.2,20.9 -108.3,31.4 0.6,0.7 1.1,1.5 1.7,2.2 7.8,-12.8 20.7,-21.9 32,-31.4 12.5,-10.5 24.9,-21 37.4,-31.5 1.5,-1.2 -0.7,-3.3 -2.1,-2.1 z"
   style="fill:#161616" />
			</g>
		</g>
	</g><g
   id="leg_left_1_">
		<path
   id="XMLID_1735_"
   d="m 1073.6,1020.1 c 4.5,14.1 8.9,28.1 13.4,42.2 -10.4,7.3 -19.5,13.8 -27.1,19.4 -16.4,11.9 -22.8,16.9 -30.2,24.1 -5.1,5 -9,9.4 -11.6,12.5 10,-1.6 32.5,-5.3 55.6,-10.3 19.1,-4.2 15.6,-4.3 23.7,-5.6 5.3,-0.8 11.7,-1.5 19.4,-5.2 3,-1.4 5.3,-2.8 6.9,-3.9 -0.4,-3.8 -0.8,-7.7 -1.3,-11.6 -2.7,-20.9 -7.2,-40.1 -12.5,-57.3 -12.2,-1.5 -24.2,-2.9 -36.3,-4.3 z" />
		<path
   id="XMLID_1732_"
   d="m 993.9,716.2 c 2,14.8 5.1,34.9 9.6,58.5 3.4,17.8 11.2,56.4 25.6,106.6 11.3,39.4 14.9,44.7 36.1,113 7,22.5 12.5,40.9 16,52.9 10.4,-2.9 20.8,-5.9 31.2,-8.8 -2.1,-11.2 -5.2,-27.9 -8.8,-48.1 -12.4,-69.7 -23.8,-133.3 -32,-209.1 -2.9,-26.5 -6.4,-63.5 -8.8,-108.2 -23,14.3 -46,28.7 -68.9,43.2 z"
   style="fill:#ffffff" />
		<g
   id="XMLID_1700_">
			<g
   id="XMLID_1739_">
				<path
   id="XMLID_1747_"
   d="m 993,720.6 c 12.2,90.9 39.5,178.8 67.6,265.8 8.2,25.2 16.4,50.4 24.6,75.6 0.6,1.8 3.5,1 2.9,-0.8 -28.5,-87.6 -58.9,-175.1 -78.7,-265.2 -5.5,-25.2 -10.1,-50.6 -13.6,-76.2 -0.2,-1.9 -3,-1.1 -2.8,0.8 z"
   style="fill:#161616" />
			</g>
		</g>
		<g
   id="XMLID_1708_">
			<g
   id="XMLID_1750_">
				<path
   id="XMLID_1759_"
   d="m 1061.7,689.3 c 7.6,105 21.6,209.5 41.9,312.9 5.8,29.3 12,58.5 18.8,87.6 0.4,1.9 3.3,1.1 2.9,-0.8 -23.8,-102.3 -41.4,-206 -52.6,-310.4 -3.2,-29.7 -5.8,-59.4 -8,-89.2 -0.1,-2.1 -3.1,-2.1 -3,-0.1 z"
   style="fill:#161616" />
			</g>
		</g>
		<g
   id="XMLID_1716_">
			<g
   id="XMLID_1763_">
				<path
   id="XMLID_1767_"
   d="m 1085.3,1062.6 c -24.6,16.1 -49.4,32.5 -69.3,54.4 -1,1.1 0,2.8 1.5,2.5 23.6,-4.7 47.2,-9.5 70.7,-14.2 5.8,-1.2 11.6,-2.3 17.4,-3.5 4.5,-0.9 9.5,-1.4 13.8,-3.4 5.3,-2.5 8.6,-8.9 4.2,-13.8 -1.3,-1.5 -3.4,0.7 -2.1,2.1 8.1,9.3 -17.4,12.4 -21.5,13.2 -9.4,1.9 -18.7,3.8 -28.1,5.7 -18.4,3.7 -36.8,7.4 -55.2,11.1 0.5,0.8 1,1.7 1.5,2.5 19.8,-21.7 44.3,-38 68.7,-54 1.5,-1.1 0,-3.7 -1.6,-2.6 z"
   style="fill:#161616" />
			</g>
		</g>
		<path
   id="XMLID_1737_"
   d="m 1043.3,730.4 c 1.3,8.8 4.8,32.9 6.1,41.9 19.5,134.4 24.8,173.4 38.5,228.5 2.7,10.8 6.5,25.4 11.5,42.6 4.5,-1.4 9,-2.7 13.5,-4.1 -1.8,-9.8 -4.3,-24.4 -7.4,-41.9 -13.7,-77.6 -20.6,-116.3 -24.3,-140.6 -5.3,-34.1 -11.6,-82.3 -15.5,-142 -7.5,5.2 -15,10.4 -22.4,15.6 z"
   style="opacity:0.1;fill:#606060" />
	</g><g
   id="skirt"
   style="fill:#f1aa4b;fill-opacity:1">
		<path
   id="XMLID_1682_"
   d="m 917.1,536.3 c -5.3,16 -10.2,33.7 -14,53 -10.5,52.5 -10.1,99.2 -6.3,135.7 8.3,3.7 20.2,8.4 34.9,12.3 16.6,4.3 45.8,11.7 82,5.7 13.7,-2.3 35.4,-7.6 59.4,-21.7 -0.7,-26.1 -3.3,-56.4 -9.4,-89.9 -6.7,-36.5 -16.2,-68.1 -25.7,-94.3 -40.3,-0.2 -80.6,-0.5 -120.9,-0.8 z"
   style="fill:#f1aa4b;fill-opacity:1" />
		<path
   id="XMLID_1690_"
   d="m 1012.3,539.5 c 3.3,8.8 6.3,18 9,27.7 18.4,66.5 13.5,127.8 3.7,174.2 8.6,-2.2 18.5,-5.5 29.2,-10.5 6.7,-3.1 12.7,-6.5 17.9,-9.7 0.2,-14.1 -0.2,-29.1 -1.5,-44.8 -4.6,-55.5 -18.7,-102.5 -33.6,-139 -8.2,0.6 -16.4,1.4 -24.7,2.1 z"
   style="opacity:0.11;fill:#f1aa4b;fill-opacity:1" />
	</g><g
   id="arm_right_1_">
		<path
   id="XMLID_1666_"
   d="m 936.5,321.7 c -2.6,1.9 -6.1,4.6 -9.9,8.2 -12.2,11.5 -18.5,23 -20.2,26.2 -5.2,10 -7.2,18.5 -10.3,32.2 -3.6,15.6 -3,21 -8.6,28.3 -5.4,7.1 -12.3,10.5 -15.5,12 -9.4,4.6 -17.8,4.7 -22.8,4.7 -11.2,0.1 -20.2,-3 -25.8,-5.6 -1.1,1.4 -2.3,2.9 -3.4,4.3 -3.2,-1.6 -8.1,-4 -14.2,-6.4 -12,-4.8 -18.1,-7.2 -25.3,-6.4 -1.5,0.2 -14.3,1.7 -17.2,9.9 -1,2.9 -0.9,7.1 1.3,9 2.6,2.2 7.6,1 12,0 3.7,-0.8 5.5,-1.8 7.7,-0.9 1.6,0.7 2.6,2.1 3.4,3.9 3.1,6.4 1.1,11.4 2.1,21.9 0.5,5.7 0.9,8.7 3,10.3 0.7,0.6 3.2,2.2 14.2,-0.9 4,-1.1 9.7,-3 16.3,-6.4 -0.4,2.7 -0.9,5.4 -1.3,8.2 6.8,1.7 16.7,3.7 28.8,4.7 17.7,1.5 29.8,2.5 44.2,-2.6 16,-5.7 26.4,-15.8 31.3,-21.5 9.7,-11.1 13.5,-22.1 15.5,-27.9 14.1,-40.5 -2.7,-96.6 -5.3,-105.2 z"
   style="fill:#ffffff" />
		<path
   id="XMLID_1674_"
   d="m 941.2,335.8 c -0.8,6.8 -2.2,16.8 -4.3,28.8 -4.6,25.6 -6.8,38.4 -13.3,51.5 -3.7,7.4 -11.8,23.9 -28.8,34.8 -29.3,18.8 -64.1,7.7 -70.4,5.6 -10.3,5.2 -20.6,10.3 -30.9,15.5 2.7,0.5 6,0.8 9.9,0.4 8.9,-0.8 15.5,-4.5 18.9,-6.9 0,3.1 0,6.3 0,9.4 6.8,1.6 16.7,3.5 28.8,4.3 17.1,1.1 29.7,1.9 44.2,-3.4 25.2,-9.3 37.6,-30.5 39.9,-34.8 7,-12.6 8.3,-23.5 9.9,-38.6 1.6,-15.2 2.2,-38.3 -3.9,-66.6 z"
   style="opacity:0.1;fill:#606060" />
		<g
   id="XMLID_1599_">
			<g
   id="XMLID_1685_">
				<path
   id="XMLID_1689_"
   d="m 935.7,320 c -15.6,11.2 -27.8,26.7 -34.7,44.7 -7.8,20.5 -7.7,43.5 -19.2,62.6 -1,1.7 1.6,3.2 2.6,1.5 10.5,-17.5 11.5,-38.1 17.4,-57.2 6.1,-19.7 18.6,-36.9 35.4,-49 1.6,-1.1 0.1,-3.7 -1.5,-2.6 z"
   style="fill:#161616" />
			</g>
		</g>
		<g
   id="XMLID_1600_">
			<g
   id="XMLID_1694_">
				<path
   id="XMLID_1698_"
   d="m 822.2,428.2 c 0.8,14.5 0.4,29 -1.2,43.4 -0.2,1.9 2.8,1.9 3,0 1.7,-14.4 2.1,-28.9 1.2,-43.4 -0.1,-2 -3.1,-2 -3,0 z"
   style="fill:#161616" />
			</g>
		</g>
		<g
   id="XMLID_1601_">
			<g
   id="XMLID_1702_">
				<path
   id="XMLID_1707_"
   d="m 822.4,429.6 c 14.4,4.6 30.5,7.8 45.3,2.9 11.2,-3.7 20.8,-11.6 24.9,-22.9 0.7,-1.8 -2.2,-2.6 -2.9,-0.8 -4.1,11.2 -14.3,18.7 -25.6,21.6 -13.6,3.5 -27.8,0.5 -40.8,-3.7 -1.9,-0.6 -2.7,2.3 -0.9,2.9 z"
   style="fill:#161616" />
			</g>
		</g>
		<g
   id="XMLID_1602_">
			<g
   id="XMLID_1710_">
				<path
   id="XMLID_1715_"
   d="m 822.1,474.8 c 23.1,6.1 50.6,9.7 74,2.8 21.2,-6.3 34.7,-24.4 44.8,-43 0.9,-1.7 -1.7,-3.2 -2.6,-1.5 -10.1,18.5 -23.4,36.4 -44.7,42.1 -22.5,6 -48.5,2.6 -70.7,-3.2 -1.8,-0.6 -2.6,2.3 -0.8,2.8 z"
   style="fill:#161616" />
			</g>
		</g>
		<g
   id="XMLID_1653_">
			<g
   id="XMLID_1718_">
				<path
   id="XMLID_1723_"
   d="m 821.8,429.7 c -6.1,0.1 -12.2,-4.1 -17.7,-6.6 -4.2,-1.9 -8.6,-3.7 -13.1,-4.7 -8,-1.8 -16.6,-1.2 -23.2,4.1 -4.1,3.3 -9.2,10.9 -4.9,15.9 2,2.2 5.2,3.2 8.1,3.3 3.7,0.1 13.5,-5.9 15.3,-1.3 0.7,1.8 3.6,1 2.9,-0.8 -1.8,-4.7 -6.4,-4.7 -10.6,-3.1 -4.1,1.5 -14.6,5.4 -14.1,-3.9 0.2,-4 4.9,-7.9 8.1,-9.7 8.9,-4.8 19.7,-1.7 28.3,2.1 6.5,2.9 13.6,7.9 20.9,7.8 2,-0.1 2,-3.1 0,-3.1 z"
   style="fill:#161616" />
			</g>
		</g>
		<g
   id="XMLID_1665_">
			<g
   id="XMLID_1726_">
				<path
   id="XMLID_1731_"
   d="m 794,474.1 c 9.9,2 19.8,-0.1 27.9,-6.2 1.5,-1.1 0,-3.7 -1.5,-2.6 -7.5,5.6 -16.4,7.7 -25.6,5.9 -1.9,-0.4 -2.7,2.5 -0.8,2.9 z"
   style="fill:#161616" />
			</g>
		</g>
	</g><g
   id="torso_1_">
		<path
   id="XMLID_1612_"
   d="m 974.8,302.2 c -5.2,0 -10.3,0 -15.5,0 0,3.1 0,6.2 0,9.3 -3.8,0.6 -9.1,1.8 -15,4.6 -4.7,2.3 -8.3,5 -10.8,7.2 -3.5,18.8 -7.1,33.9 -9.8,44.4 -4,15.3 -6.2,21.7 -6.7,33.5 -0.4,8.9 0.7,10 1,27.3 0.1,7.5 0.3,16.8 -0.5,27.9 -0.6,8 -1.4,13.9 -4.1,30.4 -4.8,29.2 -5.5,30.9 -6.7,39.2 -1.7,11.8 -3.1,28.8 -1.5,50.1 2.4,1.6 6.3,4.1 11.4,6.7 9.3,4.9 14,6 21.7,9.8 4.2,2.1 10.2,5.5 17,10.8 2.1,-15.5 4.1,-31 6.2,-46.4 2.8,16.5 5.5,33 8.3,49.5 4.6,0.4 11.4,0.6 19.6,0 10.7,-0.8 31,-2.7 49.5,-16 9.6,-6.9 13.9,-13.4 15,-15 4.7,-7.2 6.5,-14.2 7.2,-18.6 -1.6,-9.1 -3.5,-21.8 -5.2,-37.2 -2,-19.2 -2.9,-36.7 -3.1,-65.5 -0.2,-23.7 0,-54.6 1.5,-91.3 3.3,-10.7 6.5,-21.3 9.8,-32 -6.6,-4.3 -14.5,-8.8 -23.7,-12.9 -12,-5.4 -23.2,-8.7 -32.5,-10.8 0.2,-3.8 0.3,-7.6 0.5,-11.4 -3.4,2.5 -11.3,7.5 -22.2,7.7 -4.6,0.3 -8.4,-0.4 -11.4,-1.3 z"
   style="fill:#ffffff" />
		<path
   id="XMLID_1620_"
   d="m 1053.8,379.1 c -2.3,7.4 -5.7,19.3 -9.3,34.1 -13.2,54.7 -11,79.3 -19.6,113.5 -4.9,19.3 -14.6,47.5 -36.6,80 13.5,-1.3 24,-4.6 31,-7.2 12.1,-4.6 24.2,-9.2 33,-21.2 6.2,-8.3 8.4,-16.9 9.3,-22.2 -3,-17.2 -5.5,-35.4 -7.2,-54.7 -4.3,-45.3 -3.6,-86.4 -0.6,-122.3 z"
   style="opacity:0.09;fill:#606060" />
		<path
   id="XMLID_1628_"
   d="m 984.6,306.8 c -1.1,0.4 0.3,4.3 -1.5,10.3 -1.1,3.4 -2.8,6 -4.1,7.7 5.9,2.4 11.7,2.2 13.9,-0.5 4.2,-5.1 -6,-18.3 -8.3,-17.5 z"
   style="opacity:0.12;fill:#606060" />
		<path
   id="XMLID_1636_"
   d="m 958.8,555 c -2,6 -3.9,12.6 -5.7,19.6 -2.1,8.4 -3.6,16.4 -4.6,23.7 2.8,1.5 5.5,3.1 8.3,4.6 0.7,-15.9 1.4,-31.9 2,-47.9 z"
   style="opacity:0.12;fill:#606060" />
		<g
   id="XMLID_1353_">
			<g
   id="XMLID_1381_">
				<path
   id="XMLID_1386_"
   d="m 973.6,301 c -4.9,0 -9.7,0.3 -14.6,0.9 -0.7,0.1 -1.6,0.6 -1.5,1.5 0.5,4.5 1,9 1.5,13.6 0.2,1.9 3.2,1.9 3,0 -0.5,-4.5 -1,-9 -1.5,-13.6 -0.5,0.5 -1,1 -1.5,1.5 4.8,-0.6 9.7,-1 14.6,-0.9 2,0 2,-3 0,-3 z"
   style="fill:#161616" />
			</g>
		</g>
		<g
   id="XMLID_1354_">
			<g
   id="XMLID_1393_">
				<path
   id="XMLID_1397_"
   d="m 959.2,305.1 c 3.8,3.3 6.1,7.6 6.9,12.6 0.3,1.9 3.2,1.1 2.9,-0.8 -0.9,-5.4 -3.6,-10.3 -7.7,-13.9 -1.4,-1.3 -3.5,0.8 -2.1,2.1 z"
   style="fill:#161616" />
			</g>
		</g>
		<g
   id="XMLID_1362_">
			<g
   id="XMLID_1401_">
				<path
   id="XMLID_1405_"
   d="m 934.6,324.5 c 7.6,-5.7 16,-9.9 25.2,-12.4 1.9,-0.5 1.1,-3.4 -0.8,-2.9 -9.4,2.6 -18.1,6.9 -25.9,12.7 -1.6,1.2 -0.1,3.8 1.5,2.6 z"
   style="fill:#161616" />
			</g>
		</g>
		<g
   id="XMLID_1363_">
			<g
   id="XMLID_1409_">
				<path
   id="XMLID_1414_"
   d="m 1013.8,308.3 c 17.8,4.9 34.3,13 49,24.2 1.5,1.2 3,-1.4 1.5,-2.6 -14.9,-11.3 -31.7,-19.5 -49.7,-24.5 -1.9,-0.5 -2.7,2.4 -0.8,2.9 z"
   style="fill:#161616" />
			</g>
		</g>
		<g
   id="XMLID_1372_">
			<g
   id="XMLID_1417_">
				<path
   id="XMLID_1422_"
   d="m 926.7,357.9 c -20,43 -5.4,90.8 -7.7,136.1 -0.1,1.9 2.9,1.9 3,0 2.2,-44.6 -12.4,-92.2 7.3,-134.6 0.8,-1.7 -1.8,-3.2 -2.6,-1.5 z"
   style="fill:#161616" />
			</g>
		</g>
		<g
   id="XMLID_1373_">
			<g
   id="XMLID_1425_">
				<path
   id="XMLID_1430_"
   d="m 916.8,444.3 c 0.9,22.6 -5.6,44.4 -9.4,66.5 -3.6,21.5 -4.4,43.3 -3.6,65.1 0.1,1.9 3.1,1.9 3,0 -0.8,-22.8 0,-45.6 4.1,-68 3.9,-21.1 9.7,-41.9 8.8,-63.5 0,-2 -3,-2 -2.9,-0.1 z"
   style="fill:#161616" />
			</g>
		</g>
		<g
   id="XMLID_1374_">
			<g
   id="XMLID_1433_">
				<path
   id="XMLID_1438_"
   d="m 904.7,577.2 c 7.6,5 15.7,9.3 24.1,12.8 9.6,3.9 17.6,8.2 25.9,14.5 1.5,1.2 3,-1.4 1.5,-2.6 -7.3,-5.6 -14.6,-10 -23.2,-13.4 -9.4,-3.7 -18.4,-8.3 -26.9,-13.8 -1.5,-1.2 -3,1.4 -1.4,2.5 z"
   style="fill:#161616" />
			</g>
		</g>
		<g
   id="XMLID_1377_">
			<g
   id="XMLID_1442_">
				<path
   id="XMLID_1446_"
   d="m 957.8,603.2 c 1.6,-16.7 3.1,-33.4 4.7,-50 0.2,-1.9 -2.8,-1.9 -3,0 -1.6,16.7 -3.1,33.4 -4.7,50 -0.2,1.9 2.8,1.9 3,0 z"
   style="fill:#161616" />
			</g>
		</g>
		<g
   id="XMLID_1379_">
			<g
   id="XMLID_1450_">
				<path
   id="XMLID_1454_"
   d="m 959.8,553.9 c 1.6,17.9 4.4,35.6 8.2,53.2 0.4,1.9 3.3,1.1 2.9,-0.8 -3.8,-17.3 -6.5,-34.8 -8.1,-52.4 -0.2,-1.9 -3.2,-2 -3,0 z"
   style="fill:#161616" />
			</g>
		</g>
		<g
   id="XMLID_1387_">
			<g
   id="XMLID_1458_">
				<path
   id="XMLID_1463_"
   d="m 970.3,608.9 c 17.9,0.7 35.7,-2.4 52.3,-9.1 13.3,-5.4 28.6,-13.1 33.9,-27.4 0.7,-1.8 -2.2,-2.6 -2.9,-0.8 -5.4,14.6 -23.1,22.3 -36.7,27.2 -15,5.4 -30.8,7.7 -46.6,7.2 -1.9,-0.1 -1.9,2.9 0,2.9 z"
   style="fill:#161616" />
			</g>
		</g>
		<g
   id="XMLID_1398_">
			<g
   id="XMLID_1466_">
				<path
   id="XMLID_1471_"
   d="m 1052.6,378 c -3.8,60 -1.7,120.2 6.1,179.7 0.3,1.9 3.3,1.9 3,0 -7.9,-59.6 -10,-119.8 -6.1,-179.7 0.1,-1.9 -2.9,-1.9 -3,0 z"
   style="fill:#161616" />
			</g>
		</g>
		<g
   id="XMLID_1407_">
			<g
   id="XMLID_1474_">
				<path
   id="XMLID_1479_"
   d="m 1059,555.4 c -1.2,8.2 -4,15.8 -8.5,22.8 -1,1.6 1.6,3.1 2.6,1.5 4.6,-7.2 7.6,-15 8.8,-23.5 0.3,-1.9 -2.6,-2.7 -2.9,-0.8 z"
   style="fill:#161616" />
			</g>
		</g>
		<g
   id="XMLID_1415_">
			<g
   id="XMLID_1482_">
				<path
   id="XMLID_1487_"
   d="m 967.1,321.9 c 2.5,3 6.2,4.7 10.1,4.8 1.9,0 1.9,-3 0,-3 -3.2,-0.1 -6,-1.5 -8,-3.9 -1.3,-1.5 -3.4,0.6 -2.1,2.1 z"
   style="fill:#161616" />
			</g>
		</g>
		<g
   id="XMLID_1423_">
			<g
   id="XMLID_1492_">
				<path
   id="XMLID_1496_"
   d="m 976,331.7 c -19.3,65.5 -3.3,134.4 -13.1,201.1 -0.3,1.9 2.6,2.7 2.9,0.8 9.8,-66.7 -6.1,-135.6 13.1,-201.1 0.6,-1.9 -2.3,-2.6 -2.9,-0.8 z"
   style="fill:#161616" />
			</g>
		</g>
		<g
   id="XMLID_1431_">
			<g
   id="XMLID_1500_">
				<path
   id="XMLID_1504_"
   d="m 968.5,340.8 c -0.1,-0.1 -0.1,-0.1 0,0 -0.1,0 -0.1,0 0.1,0.1 -0.1,-0.1 -0.1,-0.1 0,0.1 0,-0.1 0,-0.2 -0.1,-0.2 0.1,0.2 0.2,0.2 0,0 0.1,-0.1 0.1,-0.1 0.1,0.1 0,-0.1 0,-0.1 -0.1,-0.1 0.1,0.1 0.1,0.2 0,0 0.1,-0.2 0.1,-0.1 0,0 0.1,-0.1 0.1,0 0,0.1 0.1,-0.1 0.1,-0.1 -0.1,0 0.1,-0.1 0.1,-0.1 -0.1,0 -0.1,0 -0.2,0 -0.4,0 0.2,0 0.1,0 0,0 0.1,0.1 0.1,0.1 0,0 0.1,0.1 0.1,0.1 0.2,0.2 -0.1,-0.2 -0.1,-0.2 0,0 -0.1,-0.2 -0.1,-0.2 0,0 0,0.2 0,0.1 0,-0.1 0,0.2 0,0.1 0,-0.1 0,-0.1 0.1,-0.2 0.2,-0.3 -0.1,0.1 -0.1,0.1 0,0 0.1,-0.1 0.2,-0.1 0.4,-0.1 -0.2,0 -0.1,0 0.1,0 -0.2,-0.1 -0.1,0 0.1,0 -0.1,0 -0.1,-0.1 -0.2,-0.1 0.2,0.1 0.2,0.1 0.1,0 0.1,0.2 0.1,0.2 0,0.1 -0.1,-0.1 -0.1,-0.1 0,0.1 0,-0.2 0,-0.1 0,0.1 0,0.2 -0.1,0.3 0,0.1 -0.1,0.2 -0.1,0.2 0,0.1 0.5,-0.7 0.1,-1.7 -0.5,-2.1 -0.8,-0.4 -1.6,-0.1 -2.1,0.5 -1.2,1.7 0.4,4 2.3,4.1 0.9,0.1 1.8,-0.4 2.3,-1.2 0.5,-0.9 0.4,-2 -0.1,-2.8 -1,-1.7 -3.6,-1.9 -4.6,-0.1 -0.9,1.6 -0.1,3.9 1.8,4.3 0.8,0.2 1.6,-0.3 1.8,-1 0.1,-0.7 -0.4,-1.6 -1.2,-1.8 z"
   style="fill:#161616" />
			</g>
		</g>
		<g
   id="XMLID_1439_">
			<g
   id="XMLID_1508_">
				<path
   id="XMLID_1513_"
   d="m 964.4,373.4 c 0,-0.6 -0.1,-1.2 -0.1,-1.8 -0.4,0.5 -0.7,1 -1.1,1.4 0.2,0 0.2,-0.1 0.1,0 -0.1,0 -0.1,0 0.1,0 -0.3,-0.1 0.2,0 -0.1,0 0,0 0.1,0 0.1,0.1 -0.1,-0.1 -0.1,-0.1 0,0 0,0 0,0.1 0,0.1 -0.1,-0.1 0,-0.1 0,-0.2 0,0.2 -0.1,0.2 0,0 -0.1,0.1 -0.1,0.1 -0.2,0.2 0.1,0 0.3,0 0,-0.1 0.4,0.1 0.7,0.3 1.1,0.4 0,0 -0.1,-0.2 -0.1,-0.3 0,-0.1 0,-0.2 0,-0.3 0.5,-1.9 -2.4,-2.7 -2.9,-0.8 -0.3,1.2 -0.1,2.7 0.9,3.6 1.1,1.1 3.1,0.1 3.8,-1 1.5,-2.3 -1,-5.3 -3.5,-4.4 -0.6,0.2 -1.2,0.8 -1.1,1.4 0,0.6 0.1,1.2 0.1,1.8 0.1,0.8 0.6,1.5 1.5,1.5 0.6,-0.1 1.4,-0.8 1.4,-1.6 z"
   style="fill:#161616" />
			</g>
		</g>
		<g
   id="XMLID_1447_">
			<g
   id="XMLID_1516_">
				<path
   id="XMLID_1521_"
   d="m 962.4,402.3 c -0.2,-0.3 0,0.1 -0.1,-0.2 0,0.1 0,0.1 0,-0.1 0,0.1 0,0.1 0,0 0,0 0,-0.1 0.1,-0.1 -0.1,0.1 0,0 0.1,-0.1 0,0 -0.1,0.1 -0.1,0.1 -0.4,-0.1 -0.8,-0.1 -1.2,-0.2 -0.3,-0.2 0.1,0.2 -0.1,-0.1 0.1,0.1 0.1,0.1 0,0 0,-0.1 0,-0.1 0,0.1 0,-0.2 0,-0.2 0,-0.1 0,0.1 0,0.1 0,0.2 0,-0.3 0,0.1 0,0.1 -0.1,0.3 0.1,-0.1 -0.1,0.1 -0.2,0.2 0.2,-0.1 -0.1,0.1 0.2,-0.1 0.1,0 0,0 -0.2,0 0.5,-0.1 0.1,0 0.5,0.5 1,1 1.5,1.5 0,-0.6 -0.1,-1.2 -0.1,-1.8 0,-0.8 -0.7,-1.5 -1.5,-1.5 -0.8,0 -1.5,0.7 -1.5,1.5 0,0.6 0.1,1.2 0.1,1.8 0,0.8 0.7,1.5 1.5,1.5 2.4,-0.1 4,-3 2.7,-5.1 -0.4,-0.6 -1,-1.2 -1.7,-1.2 -0.7,0 -1.4,0.5 -1.8,1 -0.9,1 -1.1,2.6 -0.4,3.8 1,1.9 3.6,0.3 2.6,-1.3 z"
   style="fill:#161616" />
			</g>
		</g>
		<g
   id="XMLID_1456_">
			<g
   id="XMLID_1524_">
				<path
   id="XMLID_1529_"
   d="m 961.8,428.6 c 0.1,0.2 0.2,0.3 0.2,0.5 0,-0.2 0,0 0,0.1 0.1,-0.3 -0.1,0.3 0,0 0.1,-0.2 -0.1,0.2 0,0 0,-0.1 0.3,-0.2 0,0 0.2,-0.1 -0.2,0.1 0,0 0.1,0 -0.3,0 -0.4,0 0.3,0 -0.2,-0.2 0,0 -0.2,-0.2 -0.4,-0.4 -0.5,-0.5 0.2,0.4 0.2,0.9 0,1.5 0.3,-0.3 0.7,-0.7 1,-1 -0.2,0.1 -0.2,0.1 0,0 0.2,0 0.2,0 0,0 0,0 0.1,0 0.1,0 0.1,0.1 0.1,0.1 0,0 0.1,0.1 0.1,0.1 0,0.1 -0.1,-0.1 0,-0.1 0,0.1 0,0.2 0,0.2 0,0 0,0.2 0,0.2 0,0 0.3,-0.8 -0.3,-1.6 -1,-1.8 -0.9,-0.2 -1.5,0.3 -1.8,1 -0.6,1.5 0.6,3.2 2.1,3.5 0.4,0.1 0.9,0.1 1.3,-0.1 0.7,-0.2 1,-0.7 1.1,-1.4 0.2,-0.9 0.2,-1.8 -0.1,-2.7 -0.3,-0.9 -0.9,-1.6 -1.9,-1.7 -0.8,-0.1 -1.5,0.2 -2.1,0.7 -1.2,1 -1.3,2.6 -0.3,3.8 0.5,0.6 1.6,0.5 2.1,0 0.8,-0.6 0.8,-1.5 0.2,-2.1 z"
   style="fill:#161616" />
			</g>
		</g>
		<g
   id="XMLID_1464_">
			<g
   id="XMLID_1532_">
				<path
   id="XMLID_1537_"
   d="m 961.9,452.1 c -0.1,-0.1 -0.1,-0.2 0,0 0,0 0,0 -0.1,-0.2 0,0.2 0.1,-0.2 0,0.1 -0.4,0.2 -0.9,0.5 -1.3,0.7 0.4,0 -0.2,0 0.1,0 -0.2,-0.1 -0.2,-0.1 -0.1,0 0.1,0.1 0.1,0 -0.1,-0.1 0.2,0.3 -0.1,-0.3 0.1,0.1 0.1,0.1 0.1,0.4 0,0.1 0,0.1 0.1,0.4 0,0.1 0,0.1 0,0.5 0,0.1 0,0.1 -0.2,0.3 0,0.1 0,-0.1 0.1,-0.1 0.1,-0.2 -0.1,0.1 -0.1,0.1 0,0 0.3,-0.1 0.5,-0.1 0.8,-0.2 -0.3,0 0.2,0.1 0.2,0.1 0,0 0.1,0.1 0.1,0.1 -0.1,-0.1 -0.1,-0.1 -0.1,-0.1 0.1,0.2 0.1,0.3 0,0.5 0.4,-0.7 0.2,-1.6 -0.5,-2.1 -0.7,-0.4 -1.7,-0.2 -2.1,0.5 -0.6,1.2 -0.3,2.6 0.8,3.3 0.6,0.4 1.4,0.6 2.1,0.4 0.6,-0.2 1,-0.8 1.2,-1.3 0.8,-2 -0.5,-4.5 -2.8,-4.5 -0.5,0 -1.1,0.3 -1.3,0.7 -0.6,1.3 -0.5,2.7 0.6,3.7 1.6,1.6 3.7,-0.6 2.3,-1.9 z"
   style="fill:#161616" />
			</g>
		</g>
		<g
   id="XMLID_1472_">
			<g
   id="XMLID_1541_">
				<path
   id="XMLID_1545_"
   d="m 961.3,476 c 0.2,0.1 0.2,0.1 0.3,0.2 0,0 0,-0.1 -0.1,-0.1 0.1,0.1 0.1,0.2 0,0.1 0,-0.1 0,-0.1 0,0 0,0.1 0,0.1 0,-0.1 0,0.2 0,0.3 -0.2,0.4 -0.5,0.1 -1,0.3 -1.5,0.4 0.3,0.1 -0.2,-0.1 0,0 -0.2,-0.1 -0.2,-0.2 -0.1,0 0,0 -0.1,-0.1 -0.1,-0.1 0,0.1 0.1,0.1 0.1,0.2 0,-0.1 0,-0.1 -0.1,-0.2 0,0.1 0,0.1 0.1,0.2 0,-0.2 0,-0.3 0,-0.1 0,0 0,0.4 0,0.2 0,-0.1 0,-0.1 0,0 0,0.1 0,0.1 0,0 0.1,-0.1 0,-0.1 0,0 0.1,-0.2 0.2,-0.2 0.1,-0.1 -0.1,0.1 0,0.1 0.1,-0.1 -0.1,0.1 -0.1,0.1 0.1,0 0.6,0.2 1.1,0.5 1.7,0.7 0,0.2 0,0.1 0,0 0,0.1 0,0.2 0,0.2 0,-0.2 0.1,-0.2 0,0 0,0.1 -0.1,0.1 -0.2,0.2 0.7,-0.5 1,-1.3 0.5,-2.1 -0.4,-0.7 -1.4,-1 -2.1,-0.5 -1.2,0.8 -1.7,2.4 -0.9,3.7 0.3,0.5 1.1,0.9 1.7,0.7 1.2,-0.4 2,-1.6 1.9,-2.9 -0.1,-1.3 -0.8,-2.5 -2.1,-2.8 -0.5,-0.1 -1.1,0 -1.5,0.4 -1.3,1.5 -0.7,3.8 1.2,4.5 0.8,0.3 1.6,-0.3 1.8,-1 0.5,-1 0,-1.7 -0.7,-2 z"
   style="fill:#161616" />
			</g>
		</g>
		<g
   id="XMLID_1480_">
			<g
   id="XMLID_1549_">
				<path
   id="XMLID_1553_"
   d="m 959.6,504.8 c 0,0.2 0,0.3 -0.1,0.5 0,0 -0.1,0.1 -0.1,0.1 0.1,-0.1 0.1,-0.1 0,0 -0.1,0.1 -0.3,0.1 -0.1,0.1 -0.2,0 -0.8,-0.2 -0.5,0 -0.2,-0.3 -0.5,-0.6 -0.7,-0.9 0,0.1 0.1,0.2 0.1,0.3 0,0.1 0,0.2 0,0 0,0.1 0,0.2 0,0.3 0,-0.2 0,0 -0.1,0.1 -0.1,0.2 0.1,-0.2 0,0.1 0,0 -0.2,0.2 -0.1,0.2 -0.1,0.1 -0.2,0.1 -0.3,0.2 0.7,0.2 1.4,0.4 2.1,0.5 -0.1,-0.1 -0.2,-0.3 -0.3,-0.5 -0.1,-0.2 0,-0.2 -0.1,0 -0.1,0.2 -0.1,0.5 -0.3,0.6 -0.5,0.4 -1.2,-0.2 -1.4,-0.7 0.2,0.8 1.1,1.3 1.8,1 0.8,-0.2 1.3,-1.1 1,-1.8 -0.4,-1.4 -2.1,-1.8 -3.3,-1 -1.3,1 -0.9,2.6 -0.1,3.8 0.5,0.7 1.3,1 2.1,0.5 0.9,-0.5 1.5,-1.3 1.8,-2.3 0.3,-1 0.2,-2.4 -0.6,-3 -1.8,-1.5 -4.5,0.6 -3.9,2.7 0.7,1.9 3.6,1.1 3.1,-0.8 z"
   style="fill:#161616" />
			</g>
		</g>
		<g
   id="XMLID_1488_">
			<g
   id="XMLID_1557_">
				<path
   id="XMLID_1562_"
   d="m 957.7,535.7 c 0.2,-0.5 0.4,-1 0.7,-1.5 -0.3,0.2 -0.6,0.5 -0.9,0.7 -0.2,0.1 -0.3,0 -0.5,-0.1 -0.1,-0.1 -0.1,-0.1 0,0 -0.1,-0.2 -0.2,-0.4 -0.1,-0.7 0.1,-0.2 0.2,-0.3 0.4,-0.3 -0.2,0 -0.1,0 0.1,0 0.1,0 0.2,0 0.3,0.1 -0.7,-0.4 -1.6,-0.2 -2.1,0.5 -0.4,0.7 -0.2,1.7 0.5,2.1 1.9,1 4.4,-0.8 3.5,-2.9 -0.4,-0.9 -1.3,-1.6 -2.3,-1.6 -0.7,0 -1.3,0.3 -1.6,1 -0.2,0.4 -0.4,0.8 -0.5,1.3 -0.3,0.7 -0.2,1.6 0.5,2.1 0.6,0.2 1.7,0 2,-0.7 z"
   style="fill:#161616" />
			</g>
		</g>
		<g
   id="XMLID_1497_">
			<g
   id="XMLID_1565_">
				<path
   id="XMLID_1570_"
   d="m 997.7,297.8 c -3.4,1.1 -6.7,2.2 -10.1,3.3 -1.6,0.5 -4.2,0.9 -5.1,2.5 -0.8,1.4 -0.1,2.6 0.2,4 0.9,4 -0.1,7.9 -2.3,11.4 -1.1,1.6 1.5,3.1 2.6,1.5 2.4,-3.6 3.5,-7.8 2.9,-12.2 0,-0.2 -0.8,-2.5 -0.6,-2.8 0.5,-1.1 3.6,-1.7 4.6,-2 2.9,-1 5.7,-1.9 8.6,-2.9 1.8,-0.6 1,-3.5 -0.8,-2.8 z"
   style="fill:#161616" />
			</g>
		</g>
		<g
   id="XMLID_1506_">
			<g
   id="XMLID_1573_">
				<path
   id="XMLID_1578_"
   d="m 983.9,305.9 c 3,3.3 5,7.1 5.8,11.5 0.4,1.9 3.3,1.1 2.9,-0.8 -0.9,-4.9 -3.2,-9.2 -6.6,-12.8 -1.3,-1.5 -3.4,0.7 -2.1,2.1 z"
   style="fill:#161616" />
			</g>
		</g>
		<g
   id="XMLID_1514_">
			<g
   id="XMLID_1581_">
				<path
   id="XMLID_1586_"
   d="m 996,302 c 4.1,-1.9 8.3,-3.2 12.7,-4 -0.6,-0.5 -1.3,-1 -1.9,-1.4 0.4,4 -0.2,7.9 -1.9,11.5 -0.8,1.7 1.8,3.3 2.6,1.5 2,-4.1 2.8,-8.5 2.3,-13 -0.1,-1 -0.9,-1.6 -1.9,-1.4 -4.7,0.8 -9.1,2.3 -13.4,4.3 -1.8,0.7 -0.3,3.3 1.5,2.5 z"
   style="fill:#161616" />
			</g>
		</g>
		<g
   id="XMLID_1522_">
			<g
   id="XMLID_1590_">
				<path
   id="XMLID_1594_"
   d="m 1008.7,307.5 c 2.1,0.5 4.2,0.7 6.3,0.6 1.9,0 1.9,-3 0,-3 -1.9,0 -3.7,-0.1 -5.5,-0.5 -1.9,-0.5 -2.7,2.4 -0.8,2.9 z"
   style="fill:#161616" />
			</g>
		</g>
	</g><g
   id="arm_left_1_">
		<path
   id="XMLID_1644_"
   d="m 1064.1,331.1 c 4.1,0 6.3,8.3 11.4,20.6 10.9,26.7 16.3,40 18.6,48.5 4,15 8.2,36.3 8.3,62.4 -3.1,6.7 -7.8,15.8 -15,25.8 -6.4,8.9 -18.1,24.9 -39.2,37.7 -6.7,4.1 -16.7,9.2 -29.9,12.9 -0.7,-5 -1.4,-10 -2.1,-15 -2.2,1.1 -5.4,2.9 -9.3,5.2 -6.2,3.7 -7.6,5 -10.3,6.2 -3.5,1.5 -8.9,2.8 -17,1 -4.1,-11.9 -7.5,-21.7 -10.3,-29.4 -0.9,-2.6 -2.7,-7.3 -0.5,-11.4 1.2,-2.2 3.2,-3.4 4.6,-4.1 -1.7,-3.2 -2.3,-5.9 -2.6,-7.7 -0.3,-2.3 -0.5,-3.9 0.5,-5.2 1.7,-2.1 5.3,-1.6 5.7,-1.5 -0.7,-4.7 -1.4,-9.6 -2.1,-14.4 -1.8,-13.7 -3.2,-26.9 -4.1,-39.7 4.3,-2.6 8.6,-5.2 12.9,-7.7 21.3,-12.7 42.5,-24.7 63.5,-36.1 0.1,-2.6 0.4,-6.2 1,-10.3 0.8,-5.8 1.9,-10.5 2.6,-12.9 0.4,-2.2 6.5,-24.9 13.3,-24.9 z"
   style="fill:#ffffff" />
		<path
   id="XMLID_1530_"
   d="m 1062.6,330.1 c 3.7,8.8 8.3,21.3 12.4,36.6 6.3,23.9 12.6,46.8 8.8,75.3 -2,14.7 -4.3,32.2 -17.5,49 -16.6,21.1 -39.7,27.5 -48.5,29.4 -3.2,-1.6 -8.6,-3.6 -15.5,-3.6 -14.4,0 -24.1,9.1 -26.3,11.4 1.2,2.8 2.4,5.5 3.6,8.3 6.6,0.8 11.3,-0.3 14.4,-1.5 5.7,-2.2 8.3,-5.6 16.5,-8.8 2.8,-1.1 5.1,-1.7 6.7,-2.1 0.2,4.1 0.3,8.3 0.5,12.4 11,-1.4 19.2,-4.4 24.3,-6.7 22.4,-10.1 35.2,-28.4 48.5,-47.5 5.7,-8.1 9.8,-15.1 12.4,-19.6 -0.1,-8.6 -0.7,-19.9 -2.6,-33 -3.7,-26 -10.3,-44.8 -11.9,-49 -4.9,-13.4 -12.7,-31.3 -25.8,-50.6 z"
   style="opacity:0.07;fill:#606060" />
		<path
   id="XMLID_1580_"
   d="m 1039.3,383.7 c 0.9,7.6 1.4,16.1 1,25.3 -1.4,33.6 -13.7,59.8 -23.2,75.9 5.3,-3.3 11.1,-7.4 17,-12.4 10.7,-9.1 18.6,-18.4 24.3,-26.3 0.7,-10.3 0.2,-19 -0.5,-25.3 -1.2,-11.5 -3.5,-20.6 -5.7,-28.9 -1.5,-6 -3,-10.9 -4.1,-14.4 -2.9,2 -5.8,4.1 -8.8,6.1 z"
   style="opacity:0.1;fill:#606060" />
		<path
   id="XMLID_1598_"
   d="m 1098.7,421.9 c -1.9,0 -1.7,17.2 -9.8,41.3 -2.8,8.2 -6.7,19.6 -14.4,31.5 -5.5,8.4 -16.9,23 -38.2,35.1 7.6,-2.8 16.6,-7 25.8,-13.4 24.7,-17.4 36,-40.7 40.8,-52.6 -1.4,-34.5 -3,-41.9 -4.2,-41.9 z"
   style="opacity:0.1;fill:#606060" />
		<g
   id="XMLID_1538_">
			<g
   id="XMLID_1606_">
				<path
   id="XMLID_1611_"
   d="m 1051.6,387.6 c 3.5,19.6 6.8,39.3 4.6,59.3 -0.2,1.9 2.8,1.9 3,0 2.3,-20.2 -1.1,-40.2 -4.7,-60.1 -0.3,-1.9 -3.2,-1.1 -2.9,0.8 z"
   style="fill:#161616" />
			</g>
		</g>
		<g
   id="XMLID_1546_">
			<g
   id="XMLID_1614_">
				<path
   id="XMLID_1619_"
   d="m 1056.8,445.5 c -6.6,10 -14.5,19 -23.7,26.8 -4.6,3.9 -9.5,7.4 -14.7,10.6 -3.5,2.2 -8.4,3.6 -9.8,7.8 -0.6,1.8 2.3,2.6 2.9,0.8 0.8,-2.7 4.8,-3.9 7,-5.2 2.5,-1.5 5,-3.1 7.4,-4.8 4.3,-3 8.4,-6.2 12.3,-9.7 8.1,-7.3 15.1,-15.6 21.1,-24.7 1.1,-1.7 -1.5,-3.2 -2.5,-1.6 z"
   style="fill:#161616" />
			</g>
		</g>
		<g
   id="XMLID_1555_">
			<g
   id="XMLID_1622_">
				<path
   id="XMLID_1627_"
   d="m 1008.5,491.9 c 4.2,14.7 6.7,29.8 7.6,45 0.1,1.9 3.1,1.9 3,0 -0.9,-15.5 -3.5,-30.9 -7.7,-45.8 -0.5,-1.8 -3.4,-1 -2.9,0.8 z"
   style="fill:#161616" />
			</g>
		</g>
		<g
   id="XMLID_1563_">
			<g
   id="XMLID_1630_">
				<path
   id="XMLID_1635_"
   d="m 1062,330.8 c 25.4,38.9 38.9,84.8 38.5,131.3 0,1.9 3,1.9 3,0 0.4,-47 -13.2,-93.5 -38.9,-132.8 -1.1,-1.6 -3.7,-0.1 -2.6,1.5 z"
   style="fill:#161616" />
			</g>
		</g>
		<g
   id="XMLID_1571_">
			<g
   id="XMLID_1639_">
				<path
   id="XMLID_1643_"
   d="m 1018,539.2 c 41.2,-7.2 67.9,-42.1 86.7,-76.6 0.9,-1.7 -1.7,-3.2 -2.6,-1.5 -18.5,33.9 -44.5,68.2 -84.9,75.2 -1.9,0.3 -1.1,3.2 0.8,2.9 z"
   style="fill:#161616" />
			</g>
		</g>
		<g
   id="XMLID_1579_">
			<g
   id="XMLID_1647_">
				<path
   id="XMLID_1651_"
   d="m 1007.8,491 c -5.8,-3.4 -11.6,-7.1 -17.6,-10.2 -4.5,-2.4 -10.4,-5.3 -15.7,-4.9 -8.8,0.7 -6.1,12.5 -1.7,16.6 1.4,1.3 3.5,-0.8 2.1,-2.1 -2.8,-2.6 -6.1,-10.6 0.2,-11.5 3.7,-0.5 8.8,2.2 12,3.7 6.6,3.2 12.9,7.3 19.2,11 1.7,1 3.2,-1.6 1.5,-2.6 z"
   style="fill:#161616" />
			</g>
		</g>
		<g
   id="XMLID_1587_">
			<g
   id="XMLID_1655_">
				<path
   id="XMLID_1664_"
   d="m 973.5,490.1 c -6.3,2.2 -7.4,8.6 -6.1,14.5 1.1,5.1 3,10.1 4.5,15.2 1.5,4.8 2.5,10.1 4.5,14.7 2.8,6.2 11,3.9 16.3,2.7 3.7,-0.9 7.8,-2 10.8,-4.4 3.7,-3 5.7,-6.1 10.8,-7.3 1.9,-0.4 1.1,-3.3 -0.8,-2.9 -4.8,1.1 -7.4,3.5 -10.8,6.9 -2.5,2.4 -5.7,3.5 -8.9,4.4 -2.6,0.7 -8.1,2.5 -10.7,1.7 -4.7,-1.6 -5.3,-6.7 -6.5,-10.8 -0.9,-2.9 -1.7,-5.7 -2.6,-8.6 -1.8,-5.9 -8.6,-20.1 0.4,-23.1 1.7,-0.7 0.9,-3.6 -0.9,-3 z"
   style="fill:#161616" />
			</g>
		</g>
		<g
   id="XMLID_1595_">
			<g
   id="XMLID_1667_">
				<path
   id="XMLID_1672_"
   d="m 1006.3,491.8 c 3.2,10.9 5.5,21.9 7.1,33.2 0.3,1.9 3.2,1.1 2.9,-0.8 -1.6,-11.2 -4,-22.3 -7.1,-33.2 -0.5,-1.8 -3.4,-1 -2.9,0.8 z"
   style="fill:#161616" />
			</g>
		</g>
		<g
   id="XMLID_1604_">
			<g
   id="XMLID_1675_">
				<path
   id="XMLID_1680_"
   d="m 979,476 c -2.7,-11.8 -4.6,-23.8 -5.6,-35.9 -0.2,-2.9 -0.4,-5.8 -0.6,-8.7 -0.1,-2.4 -1,-6.4 0.5,-8.5 1.5,-2 5.8,-3.9 7.9,-5.2 2.4,-1.5 4.8,-3.1 7.2,-4.6 19.6,-12.2 40,-23.1 60.3,-34 -0.7,-0.3 -1.5,-0.6 -2.2,-0.9 3.9,14 7.1,28.1 9.6,42.5 0.3,1.9 3.2,1.1 2.9,-0.8 -2.5,-14.3 -5.7,-28.5 -9.6,-42.5 -0.3,-1 -1.4,-1.4 -2.2,-0.9 -22.3,11.9 -44.6,23.9 -65.9,37.5 -2.7,1.7 -5.3,3.4 -7.9,5.2 -1.2,0.8 -3.2,1.6 -3.8,3 -0.9,1.9 0.1,6 0.2,8.1 0.1,2.9 0.3,5.8 0.6,8.7 1,12.7 3,25.2 5.8,37.6 0.4,2.1 3.3,1.3 2.8,-0.6 z"
   style="fill:#161616" />
			</g>
		</g>
	</g><path
   id="XMLID_1328_"
   d="m 941.3,173.6 c -8.2,4.9 -13.6,8.3 -17.7,15.1 -5.6,9.2 -5.2,18.8 -4.8,23.3 -3.6,9.8 -7.2,19.6 -10.8,29.4 4,0 8.1,0 12.1,0 0,4 0.4,10.3 3,17.3 1.6,4.3 6.5,16.7 19.9,23.8 11.7,6.1 22.9,4.6 26.8,3.9 1,5.8 2,11.5 3,17.3 4.5,-0.2 11,-1.1 18.2,-4.3 21.3,-9.5 28.9,-31.2 31.1,-37.6 7.8,-22.4 2,-41.7 0,-48 -4.6,-14.7 -12.4,-24 -17.3,-29.8 -9.9,-11.7 -18.3,-21.6 -31.1,-22.9 -9.9,-1 -17.7,3.7 -32.4,12.5 z"
   style="fill:#ffffff" /><path
   id="XMLID_1304_"
   d="m 918.2,212.1 c 4.1,-8.8 7.5,-15.4 7.9,-16.2 5.9,-11 30.9,-28.9 33.3,-30.6 3,-4.6 5.5,-9.9 3.5,-12.9 -3.8,-5.7 -23.5,-2 -36.8,7.9 -1.7,1.2 -23.5,18.1 -18.8,39.1 1.7,7.6 6.3,12.9 9.4,15.9 0.4,-0.8 0.9,-1.9 1.5,-3.2 z"
   style="fill:#091a3e;fill-opacity:1" /><path
   id="XMLID_1312_"
   d="m 947.1,159.7 c -3.3,6.8 -1.4,14 0.6,21.5 0.4,1.4 6.2,22.1 25.9,32.7 5.7,3 13.6,7.3 20.9,4.4 3.8,-1.5 5,-4.1 8.2,-3.8 5.3,0.4 10,7.1 10.9,13.5 0.1,0.7 1.2,10 -4.7,13.8 -3.8,2.5 -8.8,1.5 -9.2,1.4 -2.9,-0.6 -3.4,-1.9 -5.5,-2 -1,-0.1 -3.8,0.5 -9.4,6.5 -9.6,10.2 -12.2,25 -12.9,30.9 1.7,-2.8 3.3,-5.7 5,-8.5 -1.3,4.4 -2.7,11.9 -1.5,20.9 0.5,3.3 2.6,18.9 14.8,29.3 16.7,14.1 44.9,12.5 60.1,-2.2 10.3,-9.9 11.9,-23 12.5,-28.1 2.4,-18.8 -7.3,-20.5 -13.9,-55.8 -1.9,-10.3 -3.9,-20.3 -8.3,-36 -1.1,-4 -2.8,-8.6 -5.6,-14.3 -6.3,-13.1 -12.3,-25.2 -25.3,-32.7 -21.4,-12.4 -54.7,-8 -62.6,8.5 z"
   style="fill:#091a3e;fill-opacity:1" /><path
   id="XMLID_1320_"
   d="m 930.9,274.8 c -1.6,3.7 -3.6,9.7 -3.9,17.3 -0.3,7.2 -0.7,15.6 4.8,22.1 6.3,7.5 19.9,11.5 30.3,4.8 7.4,-4.8 11.3,-14 9.9,-23.3 -0.6,-2.9 -1.2,-5.8 -1.7,-8.6 -4.2,0.5 -10.1,0.6 -16.9,-0.9 -11,-2.6 -18.6,-8.1 -22.5,-11.4 z"
   style="fill:#091a3e;fill-opacity:1" /><path
   id="XMLID_1336_"
   d="m 959.2,202.8 c 4.8,8 8.4,15.2 11.1,21 5.5,12 8.3,18.2 8.1,24.7 -0.2,6.1 -2,7.4 -5.5,21.8 -1.6,6.7 -2.7,12.2 -3.3,15.9 2,-2.1 3.9,-4.2 5.9,-6.3 -0.5,3.9 -0.9,10.3 1.1,17.7 0.4,1.5 6.1,21.1 25.1,29.5 17.2,7.6 38.9,3.2 40.2,-2.9 0.6,-3.2 -4.5,-5.1 -10.7,-11.1 -16.1,-15.3 -25.9,-44.1 -17.7,-64.1 5,-12.1 13,-12.4 14.7,-24 2.1,-13.8 -7.5,-25.8 -11.1,-30.2 -20.7,-26 -58.8,-24.6 -65.3,-24.3 -2,1.8 -3.9,3.7 -5.9,5.5 1.1,3.8 2.7,8 4.8,12.5 2.7,5.7 5.7,10.5 8.5,14.3 z"
   style="opacity:0.06;fill:#606060" /><path
   id="XMLID_1345_"
   d="m 908.8,241 c 5,-1.4 9.1,-1.9 12,-2.2 4.7,-0.4 6.1,0.1 6.5,0.9 0.5,1 -0.3,2.4 -1.9,4.9 -1.1,1.9 -2.2,3.3 -3.1,4.3 -0.5,-2 -1,-3.9 -1.5,-5.9 -4,-0.6 -8,-1.3 -12,-2 z"
   style="opacity:0.13;fill:#606060" /><g
   id="XMLID_1_">
			<g
   id="XMLID_1273_">
				<path
   id="XMLID_1278_"
   d="m 918.6,211 c -3.9,10.4 -7.8,20.7 -11.9,31 -0.3,0.8 0.5,2 1.4,1.9 4.1,-0.5 8.1,-0.7 12.2,-0.8 1.9,0 1.9,-3 0,-3 -4.1,0 -8.2,0.3 -12.2,0.8 0.5,0.6 1,1.3 1.4,1.9 4,-10.3 8,-20.6 11.9,-31 0.8,-1.8 -2.1,-2.6 -2.8,-0.8 z"
   style="fill:#161616" />
			</g>
		</g><g
   id="XMLID_743_">
			<g
   id="XMLID_1282_">
				<path
   id="XMLID_1286_"
   d="m 919.8,242.3 c 0.8,13.1 5.2,28.5 15.5,37.3 9.5,8.1 22.7,9.8 34.7,9 1.9,-0.1 1.9,-3.1 0,-3 -11.2,0.7 -23.7,-0.6 -32.6,-8.1 -9.8,-8.2 -13.9,-22.9 -14.6,-35.2 -0.1,-1.9 -3.1,-1.9 -3,0 z"
   style="fill:#161616" />
			</g>
		</g><g
   id="XMLID_749_">
			<g
   id="XMLID_1290_">
				<path
   id="XMLID_1294_"
   d="m 968.7,288.3 c 2.3,4.6 3.2,9.6 3,14.7 -0.1,1.9 2.9,1.9 3,0 0.3,-5.7 -0.9,-11.1 -3.4,-16.2 -0.8,-1.8 -3.4,-0.2 -2.6,1.5 z"
   style="fill:#161616" />
			</g>
		</g><g
   id="XMLID_755_">
			<g
   id="XMLID_1298_">
				<path
   id="XMLID_1303_"
   d="m 995.6,219.3 c 6.7,-9.5 16.7,4 16.6,11 -0.1,8.7 -9,15 -16.7,9.8 -1.6,-1.1 -3.1,1.5 -1.5,2.6 10.6,7.3 22.7,-3.3 21,-14.9 -1.4,-9.7 -14.3,-20.9 -22,-10 -1.1,1.6 1.5,3.1 2.6,1.5 z"
   style="fill:#161616" />
			</g>
		</g><g
   id="XMLID_761_">
			<g
   id="XMLID_1306_">
				<path
   id="XMLID_1311_"
   d="m 936.8,206.6 c -0.1,1.9 0,3.9 0.3,5.8 0.2,1.6 0.4,3.6 1.2,5 1.1,1.8 3.9,1.1 3.4,-1.1 -0.5,-1.9 -3.3,-1.1 -2.9,0.8 0,0.1 0,0.1 0,0.2 0.1,-0.5 0.3,-1 0.4,-1.5 0.1,-0.1 0.2,-0.1 0.3,-0.2 0.5,0.1 1,0.3 1.5,0.4 -0.5,-0.4 -0.8,-3.2 -0.9,-4.2 -0.2,-1.7 -0.3,-3.5 -0.2,-5.2 -0.1,-1.9 -3.1,-1.9 -3.1,0 z"
   style="fill:#161616" />
			</g>
		</g><g
   id="XMLID_767_">
			<g
   id="XMLID_1314_">
				<path
   id="XMLID_1319_"
   d="m 937.6,207.7 c 1.3,2.9 1.7,6.1 1.5,9.3 -0.1,1.9 2.9,1.9 3,0 0.3,-3.8 -0.4,-7.3 -1.9,-10.8 -0.7,-1.8 -3.3,-0.3 -2.6,1.5 z"
   style="fill:#161616" />
			</g>
		</g><g
   id="XMLID_768_">
			<g
   id="XMLID_1322_">
				<path
   id="XMLID_1327_"
   d="m 933.1,198.2 c 4.4,-7 12.4,-1.8 15,3.7 0.8,1.7 3.4,0.2 2.6,-1.5 -3.6,-7.7 -14.7,-12.5 -20.1,-3.7 -1.1,1.7 1.5,3.2 2.5,1.5 z"
   style="fill:#161616" />
			</g>
		</g><g
   id="XMLID_771_">
			<g
   id="XMLID_1331_">
				<path
   id="XMLID_1335_"
   d="m 924.1,256.8 c 6,2 12.6,-0.6 15.7,-6.1 0.9,-1.7 -1.6,-3.2 -2.6,-1.5 -2.5,4.4 -7.6,6.3 -12.3,4.7 -1.9,-0.6 -2.7,2.3 -0.8,2.9 z"
   style="fill:#161616" />
			</g>
		</g><g
   id="XMLID_1271_">
			<g
   id="XMLID_1339_">
				<path
   id="XMLID_1343_"
   d="m 935.5,250.2 c 1.9,-0.2 3.8,1.3 3.9,3.3 0.1,1.9 3.1,1.9 3,0 -0.2,-3.5 -3.3,-6.6 -6.9,-6.3 -1.9,0.1 -1.9,3.1 0,3 z"
   style="fill:#161616" />
			</g>
		</g><g
   id="XMLID_1279_">
			<g
   id="XMLID_1347_">
				<path
   id="XMLID_1352_"
   d="m 942.7,227.6 c 1.9,0 1.9,-3 0,-3 -2,0 -2,3 0,3 z"
   style="fill:#161616" />
			</g>
		</g><g
   id="XMLID_1287_">
			<g
   id="XMLID_1355_">
				<path
   id="XMLID_1361_"
   d="m 950.6,221.6 c 1.9,0 1.9,-3 0,-3 -1.9,0 -1.9,3 0,3 z"
   style="fill:#161616" />
			</g>
		</g><g
   id="XMLID_1296_">
			<g
   id="XMLID_1364_">
				<path
   id="XMLID_1371_"
   d="m 947.9,226.5 c 0,0.1 0,0.3 0,0.4 0,0.8 0.7,1.5 1.5,1.5 0.8,0 1.5,-0.7 1.5,-1.5 0,-0.1 0,-0.3 0,-0.4 0,-0.8 -0.7,-1.5 -1.5,-1.5 -0.8,0 -1.5,0.6 -1.5,1.5 z"
   style="fill:#161616" />
			</g>
		</g>
<g
   id="leg_right">
		<path
   id="XMLID_2270_"
   d="m 588.4,1010.8 c -0.9,24.9 -1.9,49.8 -2.8,74.7 77.8,13.2 117.8,15.7 120.1,7.6 2,-7.1 -24.5,-22.2 -79.5,-45.4 6.3,-50.5 5.4,-77 -2.8,-79.5 -6.8,-2 -18.4,12.2 -35,42.6 z" />
		<path
   id="XMLID_2272_"
   d="m 667.8,577.6 c 0,8.5 0,21.3 0,36.9 0.1,61.1 0.8,88 0.9,110.7 0.4,83.2 -7.2,151.6 -11.4,188.3 -3.9,34.2 -8.1,62.5 -11.4,82.3 -3.4,3.5 -9.4,8.6 -18,11.9 -4.1,1.6 -7.4,2.2 -9.7,2.7 -3.6,0.7 -17.6,3 -34.7,-2.2 -4.4,-1.3 -10.4,-3.6 -17,-7.6 4.9,-27.7 10.8,-64.1 16.1,-106.9 4.3,-35.1 11.3,-99.3 14.2,-180.7 1.4,-41.2 2,-91 0,-147.6 23.7,4 47.4,8.1 71,12.2 z"
   style="fill:#ffffff" />
		<path
   id="XMLID_2279_"
   d="m 599.7,663.7 c 5,-12.5 11.4,-26.4 15.1,-25.5 5.5,1.3 2.2,34 0,58.7 -5,56 -5.7,112.3 -9.5,168.4 -2.3,34.9 -4.9,84.4 -5.7,144.7 -11,-2.8 -22.1,-5.7 -33.1,-8.5 11.2,-63.7 20.5,-132.9 26.5,-207.2 3.7,-45.4 5.8,-89 6.7,-130.6 z"
   style="opacity:0.09;fill:#606060" />
		<g
   id="XMLID_2252_">
			<g
   id="XMLID_2293_">
				<path
   id="XMLID_2297_"
   d="m 665.5,588.9 c 4.5,105.7 1.3,211.7 -9.5,316.9 -3.1,29.9 -6.8,59.8 -11.1,89.6 -0.3,1.9 2.6,2.7 2.9,0.8 15.1,-104.8 22.8,-210.7 22.6,-316.6 0,-30.2 -0.7,-60.4 -2,-90.6 0,-2 -3,-2.1 -2.9,-0.1 z"
   style="fill:#161616" />
			</g>
		</g>
		<g
   id="XMLID_2254_">
			<g
   id="XMLID_2301_">
				<path
   id="XMLID_2305_"
   d="m 598.7,664.6 c -3.3,87.4 -10.5,174.7 -21.6,261.4 -3.2,25.3 -6.8,50.6 -10.7,75.8 -0.3,1.9 2.6,2.7 2.9,0.8 13.5,-87.2 23.1,-175 28.7,-263.1 1.6,-24.9 2.8,-49.9 3.8,-74.9 0,-1.9 -3,-1.9 -3.1,0 z"
   style="fill:#161616" />
			</g>
		</g>
		<g
   id="XMLID_2262_">
			<g
   id="XMLID_2309_">
				<path
   id="XMLID_2314_"
   d="m 567.7,1004.2 c 13.7,6.2 28.6,9.1 43.6,7.9 12.5,-1 27.2,-4 34.9,-14.8 1.1,-1.6 -1.5,-3.1 -2.6,-1.5 -7.6,10.6 -23.6,13 -35.7,13.5 -13.3,0.5 -26.5,-2.2 -38.7,-7.7 -1.7,-0.8 -3.2,1.8 -1.5,2.6 z"
   style="fill:#161616" />
			</g>
		</g>
	</g><g
   id="leg_left">
		<path
   id="XMLID_2248_"
   d="m 476.8,984.3 c -9.5,30.3 -18.9,60.5 -28.4,90.8 74.8,22 113.6,29.6 116.4,22.7 2.3,-5.7 -20.4,-21.5 -68.1,-47.3 24.4,-32.4 30.8,-61.6 20.8,-70.9 -10.2,-9.4 -35.9,2.4 -40.7,4.7 z" />
		<path
   id="XMLID_2241_"
   d="m 528.8,582.3 c -0.5,2.2 -1.3,9.7 -2.8,24.6 -2.4,23.2 -3.7,40.4 -3.8,41.6 -5,65.8 -14.2,123 -14.2,123 -10.2,63.3 -24.3,112.9 -34.1,146.6 -7.2,25 -13.9,45.8 -18.9,60.5 8.3,10.4 16.8,16.9 22.7,20.8 9,5.9 19.7,13 34.1,12.3 5.7,-0.3 10.2,-1.7 13.2,-2.8 4.3,-12.5 11.7,-34.2 19.9,-61.5 15.1,-50.3 27.6,-107.4 52,-219.5 1.1,-5 15.1,-69.5 16.1,-73.8 8.8,-10.4 17.7,-20.8 26.5,-31.2 14.9,-34.8 14.4,-70.2 -2.8,-85.1 -28.8,-24.9 -99.8,10.4 -107.9,44.5 z"
   style="fill:#ffffff" />
		<path
   id="XMLID_2249_"
   d="m 527.8,602.2 c 1.2,8.7 2.7,21.8 3.8,37.8 4.8,74.1 -7,126.5 -18,185.4 -7.6,40.6 -17.9,100.6 -27.4,176.9 -10.4,-7.9 -20.8,-15.8 -31.2,-23.6 5.3,-15.7 12.9,-38.8 20.8,-67.2 25.6,-91.6 35.6,-166.5 42.6,-220.4 2.8,-22.2 6.4,-52.5 9.4,-88.9 z"
   style="opacity:0.11;fill:#606060" />
		<g
   id="XMLID_2224_">
			<g
   id="XMLID_2256_">
				<path
   id="XMLID_2261_"
   d="m 524.5,589 c -3.4,102.9 -18.6,205.4 -45.3,304.8 -7.5,28.1 -16,55.9 -25.4,83.5 -0.6,1.8 2.3,2.6 2.9,0.8 33.1,-97.8 55,-199.3 65.1,-302 2.8,-29 4.7,-58 5.7,-87.1 0.1,-2 -2.9,-2 -3,0 z"
   style="fill:#161616" />
			</g>
		</g>
		<g
   id="XMLID_2232_">
			<g
   id="XMLID_2265_">
				<path
   id="XMLID_2269_"
   d="m 634.5,625.9 c -7.5,9.4 -15,18.8 -22.5,28.2 -1.2,1.5 0.9,3.6 2.1,2.1 7.5,-9.4 15,-18.8 22.5,-28.2 1.2,-1.5 -0.9,-3.6 -2.1,-2.1 z"
   style="fill:#161616" />
			</g>
		</g>
		<g
   id="XMLID_2233_">
			<g
   id="XMLID_2273_">
				<path
   id="XMLID_2277_"
   d="m 612.3,652.6 c -18.2,93.6 -37.7,187 -64.2,278.7 -7.5,26 -15.6,51.8 -24.3,77.4 -0.6,1.8 2.3,2.6 2.9,0.8 30.7,-90.3 53.1,-183.1 72.5,-276.5 5.5,-26.5 10.8,-53.1 15.9,-79.6 0.4,-1.8 -2.5,-2.7 -2.8,-0.8 z"
   style="fill:#161616" />
			</g>
		</g>
		<g
   id="XMLID_2240_">
			<g
   id="XMLID_2281_">
				<path
   id="XMLID_2286_"
   d="m 454.5,979.3 c 4.1,5.8 9.9,10.1 15.4,14.6 5.2,4.2 10.6,8.2 16.4,11.6 11.5,6.7 26.2,11.4 39.2,6.3 1.8,-0.7 1,-3.6 -0.8,-2.9 -12.8,5.1 -27.1,0 -38.3,-6.8 -5.5,-3.3 -10.7,-7.2 -15.7,-11.3 -4.8,-3.9 -10,-7.8 -13.7,-12.9 -1,-1.6 -3.6,-0.1 -2.5,1.4 z"
   style="fill:#161616" />
			</g>
		</g>
	</g><g
   id="arm_right">
		<path
   id="XMLID_2183_"
   d="m 644.7,270.1 c 5.1,-1.1 11.9,7.5 15.6,12.1 5.7,7.1 8.2,14.2 9.8,19.6 5.3,17.6 6.4,35.1 6.3,48.4 0.9,6 3.1,15.3 8.6,25.4 1.9,3.4 10.8,18.9 30,30 12,6.9 23.4,9.4 31.1,10.4 -1.5,1.5 -3,3 -4.5,4.5 4.3,0.4 7.6,1.3 9.9,2 5.1,1.6 7.8,2.4 8.7,2.8 1.7,0.7 3.1,1.4 4,1.9 -0.6,0.7 -1.9,2.6 -1.9,5.3 0,3 1.6,6 4.1,7.4 2.4,1.4 5.9,0.7 12.7,-0.7 1.3,-0.3 2.4,-0.5 3.2,-0.7 1.6,-0.2 4.2,-0.2 6.8,1 4.1,1.9 5.7,5.8 7.9,10.7 1.6,3.6 3.8,8.5 2.8,14.6 -0.3,1.8 -0.9,5.2 -3.6,7.9 -0.6,0.6 -1,0.9 -5.9,3.6 -5.7,3.1 -6.8,3.5 -7.9,4 -3.6,1.3 -5.4,2 -7.5,1.2 -2,-0.7 -4,-2.7 -4,-4.7 0.1,-2.4 3.1,-2.8 3.2,-4.7 0.1,-2.4 -4.2,-2.9 -9.1,-7.5 -3.4,-3.2 -2.8,-4.2 -6.3,-7.1 -1.3,-1.1 -3.7,-3 -7.1,-4.3 -1.6,-0.7 -2.6,-0.8 -5.1,-2 -3.3,-1.5 -4.1,-2.3 -4.6,-3 -1,-1.5 -0.4,-2.3 -1.3,-3.3 -1.2,-1.2 -3.1,-0.8 -5.4,-0.8 -2,0 -4.7,-0.4 -8,-2 -1.3,9.2 -2.6,18.4 -4,27.7 -5.1,-1.2 -12.5,-3.4 -20.5,-7.9 -10.9,-6.2 -22.4,-16.3 -37.5,-45 -11.2,-21.2 -25.4,-48.3 -28.8,-87.3 -2.3,-24.2 -0.8,-57.5 8.3,-59.5 z"
   style="fill:#ffffff" />
		<path
   id="XMLID_2191_"
   d="m 645.7,271 c 0.2,6.2 0.8,14.2 2,23.6 0.6,4.5 1.8,12.5 4.5,24.6 4.7,20.5 10.4,37.6 14.1,48.2 12.4,35 18.7,52.9 31.4,64.4 9.5,8.6 19.3,13.4 25.9,16 0.1,6.9 0.2,13.8 0.3,20.7 -2.9,0.2 -7.3,0.1 -12.2,-1.5 -7.6,-2.4 -12.3,-7 -15.4,-10.2 -13.2,-13.4 -19.8,-20.1 -26.2,-30.6 -26.3,-42.9 -30,-91.4 -30,-91.4 -1,-14.9 -0.9,-37.2 5.6,-63.8 z"
   style="opacity:0.09;fill:#606060" />
		<path
   id="XMLID_2199_"
   d="m 743.3,421.3 c 0.6,0.5 -1.9,3.3 -3.5,7.6 -2.2,5.8 -1.7,11.4 -0.9,15.4 -3.8,-0.8 -7.6,-1.6 -11.4,-2.3 0.8,-3.4 2.5,-8.7 6.7,-13.7 3.6,-4.3 8.4,-7.7 9.1,-7 z"
   style="opacity:0.08;fill:#606060" />
		<path
   id="XMLID_2207_"
   d="m 776.2,462.9 c 4,-2.5 4.4,-3.1 6.1,-4.1 2.6,-1.5 7.8,-3.7 16.9,-2.6 0.4,2.8 0.8,8.5 -2,13.1 -1,1.7 -2.7,3.6 -2.9,3.8 -0.9,1.1 -2.7,2.9 -5.2,4.7 -1.9,1.3 -4.9,3.3 -9,3.5 -2.7,0.1 -7,-0.4 -7.6,-2.3 -0.5,-1.8 2.7,-3.2 2.3,-5.5 -0.4,-2.8 -5.5,-3.1 -5.5,-5.2 -0.1,-1.5 2,-2.3 6.9,-5.4 z"
   style="opacity:0.09;fill:#606060" />
		<g
   id="XMLID_2050_">
			<g
   id="XMLID_2108_">
				<path
   id="XMLID_2112_"
   d="m 640.9,270.2 c 7,4 14.2,8 19.8,14 6.5,6.9 8.8,15.7 10.2,24.8 3.1,19.8 4.5,39.9 4.8,60 0,1.9 3,1.9 3,0 -0.3,-21.3 -1.6,-43 -5.4,-64 -1.5,-8.3 -4.2,-16 -9.9,-22.3 -5.8,-6.4 -13.5,-10.8 -20.9,-15 -1.8,-1 -3.3,1.6 -1.6,2.5 z"
   style="fill:#161616" />
			</g>
		</g>
		<g
   id="XMLID_2060_">
			<g
   id="XMLID_2116_">
				<path
   id="XMLID_2121_"
   d="m 675.2,332 c -2.6,37.9 21.8,72.6 58.3,83.1 1.9,0.5 2.7,-2.4 0.8,-2.9 C 699,402 675.7,368.6 678.2,332 c 0.2,-1.9 -2.8,-1.9 -3,0 z"
   style="fill:#161616" />
			</g>
		</g>
		<g
   id="XMLID_2068_">
			<g
   id="XMLID_2124_">
				<path
   id="XMLID_2133_"
   d="m 732.6,415 c 4.6,0.4 8.8,1.4 13.1,3.2 -0.1,-0.9 -0.2,-1.8 -0.4,-2.7 -18.6,10.6 -23.9,30.5 -22.1,50.7 0.2,1.9 3.2,1.9 3,0 -1.7,-19.2 2.9,-38 20.6,-48.1 1.2,-0.7 0.8,-2.3 -0.4,-2.7 -4.5,-1.9 -9.1,-3 -13.9,-3.4 -1.8,-0.2 -1.8,2.8 0.1,3 z"
   style="fill:#161616" />
			</g>
		</g>
		<g
   id="XMLID_2077_">
			<g
   id="XMLID_2136_">
				<path
   id="XMLID_2141_"
   d="m 665.5,421.7 c 6.3,11.9 14.6,22.6 24.6,31.6 9.5,8.5 21,17.2 34.4,16.7 1.9,-0.1 1.9,-3.1 0,-3 -13.4,0.5 -25.4,-9.3 -34.6,-18 -8.8,-8.3 -16.1,-18.1 -21.8,-28.8 -0.9,-1.7 -3.5,-0.2 -2.6,1.5 z"
   style="fill:#161616" />
			</g>
		</g>
		<g
   id="XMLID_2087_">
			<g
   id="XMLID_2144_">
				<path
   id="XMLID_2149_"
   d="m 742.6,421 c 7.6,2.1 15.2,4.2 22.7,6.3 1.9,0.5 2.7,-2.4 0.8,-2.9 -7.6,-2.1 -15.2,-4.2 -22.7,-6.3 -1.9,-0.5 -2.7,2.4 -0.8,2.9 z"
   style="fill:#161616" />
			</g>
		</g>
		<g
   id="XMLID_2088_">
			<g
   id="XMLID_2153_">
				<path
   id="XMLID_2157_"
   d="m 783,438.9 c 6.6,0.6 11.2,5.9 13.1,12 0.9,2.9 1.2,6 1.3,9 0,1 -0.1,13.3 -3,11.2 -1.6,-1.1 -3.1,1.5 -1.5,2.6 9,6.3 7.6,-15.4 7.2,-18.6 -1.2,-9.4 -7,-18.4 -17.1,-19.3 -2,-0.1 -1.9,2.9 0,3.1 z"
   style="fill:#161616" />
			</g>
		</g>
		<g
   id="XMLID_2095_">
			<g
   id="XMLID_2161_">
				<path
   id="XMLID_2165_"
   d="m 790.7,458.4 c 1.1,6.3 2.1,13.5 -3.6,17.8 -1.5,1.2 0.6,3.3 2.1,2.1 6.5,-5.1 5.6,-13.5 4.4,-20.8 -0.3,-1.8 -3.2,-1 -2.9,0.9 z"
   style="fill:#161616" />
			</g>
		</g>
		<g
   id="XMLID_2103_">
			<g
   id="XMLID_2169_">
				<path
   id="XMLID_2174_"
   d="m 783.2,463 c 1.1,5.3 2.3,12.2 -3.1,15.6 -1.6,1 -0.1,3.6 1.5,2.6 6.7,-4.2 5.9,-12.3 4.5,-19 -0.4,-1.8 -3.3,-1 -2.9,0.8 z"
   style="fill:#161616" />
			</g>
		</g>
		<g
   id="XMLID_2105_">
			<g
   id="XMLID_2177_">
				<path
   id="XMLID_2182_"
   d="m 776.6,464.3 c 1.7,5.6 1.2,11.2 -1.5,16.3 -0.9,1.7 1.7,3.2 2.6,1.5 3.1,-5.8 3.7,-12.3 1.8,-18.6 -0.5,-1.8 -3.4,-1 -2.9,0.8 z"
   style="fill:#161616" />
			</g>
		</g>
		<g
   id="XMLID_2114_">
			<g
   id="XMLID_2185_">
				<path
   id="XMLID_2190_"
   d="m 727,444 c 4.2,1 8.5,2 12.7,3 1.9,0.4 2.7,-2.5 0.8,-2.9 -4.2,-1 -8.5,-2 -12.7,-3 -1.8,-0.5 -2.6,2.4 -0.8,2.9 z"
   style="fill:#161616" />
			</g>
		</g>
		<g
   id="XMLID_2122_">
			<g
   id="XMLID_2193_">
				<path
   id="XMLID_2198_"
   d="m 725.3,469.8 c 5.6,-7 9.4,-14.8 11.3,-23.5 0.4,-1.9 -2.5,-2.7 -2.9,-0.8 -1.8,8.2 -5.3,15.6 -10.5,22.2 -1.2,1.4 0.9,3.6 2.1,2.1 z"
   style="fill:#161616" />
			</g>
		</g>
		<g
   id="XMLID_2134_">
			<g
   id="XMLID_2202_">
				<path
   id="XMLID_2206_"
   d="m 725.1,444.1 c 0.6,6.2 0.4,12.3 -0.7,18.4 -0.4,1.9 2.3,2.7 2.9,0.8 1.9,-6.2 4,-12.4 6.2,-18.6 0.6,-1.5 -1.5,-2.3 -2.5,-1.5 -0.6,0 -1.2,-0.1 -1.8,-0.1 -0.1,0.9 -0.2,1.8 -0.4,2.7 0.9,-0.2 3,-0.1 3.3,1.1 0.2,0.6 -1.5,2.8 -1.7,3.3 -1,2 -2.1,3.9 -3.1,5.9 -0.9,1.7 1.5,3 2.6,1.5 3,-4 4.3,-8.6 4.1,-13.6 -0.1,-1.5 -2,-2 -2.8,-0.8 -3,4.6 -4.9,9.6 -5.7,15.1 1,0.1 2,0.3 2.9,0.4 0,-4 0.7,-7.8 2.3,-11.5 -1,-0.1 -2,-0.3 -2.9,-0.4 -0.4,3.4 -1.1,6.8 -1.9,10.1 -0.4,1.9 2.4,2.7 2.9,0.8 0.9,-3.6 1.5,-7.3 2,-10.9 0.2,-1.8 -2.4,-1.8 -2.9,-0.4 -1.7,4 -2.4,8 -2.4,12.3 0,1.6 2.7,2.1 2.9,0.4 0.7,-5.2 2.5,-9.9 5.4,-14.3 -0.9,-0.3 -1.9,-0.5 -2.8,-0.8 0.2,4.5 -1.1,8.5 -3.7,12.1 0.9,0.5 1.7,1 2.6,1.5 1.4,-2.6 2.8,-5.2 4.1,-7.9 0.7,-1.4 1.6,-2.6 1.3,-4.2 -0.7,-3.5 -4.6,-3.3 -7.3,-2.6 -1.4,0.4 -1.3,2 -0.4,2.7 1.8,1.4 3.8,1.1 5.5,-0.4 -0.8,-0.5 -1.7,-1 -2.5,-1.5 -2.2,6.1 -4.3,12.3 -6.2,18.6 1,0.3 1.9,0.5 2.9,0.8 1.2,-6.4 1.5,-12.8 0.8,-19.2 -0.2,-1.7 -3.2,-1.7 -3,0.2 z"
   style="fill:#161616" />
			</g>
		</g>
	</g><path
   id="XMLID_1986_"
   d="m 536.5,276.3 c 7.5,30.7 13.8,65.9 17,105.1 6.7,81.5 -2.6,151.3 -14.2,203.4 11.4,5.2 32.7,13.1 60.2,12.5 35.3,-0.8 60.8,-15.2 71.6,-22.2 -2.8,-43.2 -7.4,-89.2 -14.2,-137.5 -9.1,-64.4 -21,-123.9 -34.1,-177.9 -4.3,-2.5 -25.3,-13.8 -51.1,-6.8 -19.9,5.4 -31.4,18.5 -35.2,23.4 z"
   style="fill:#f1aa4b;fill-opacity:1" /><path
   id="XMLID_1970_"
   d="m 563.8,244.4 c -1.5,0.1 -3.7,0.3 -6.3,1.1 -6.8,2.1 -10.8,6.6 -13.1,9.1 -4.4,4.7 -10.7,10.8 -20.5,18.8 -4.8,36.7 -5.4,64.3 -5.1,83 0.1,7.7 0.6,21.1 0.6,42.1 0,13.5 0,28.4 -0.6,41.5 -1.1,25.4 -4.5,44.4 -11.4,81.3 -3.1,16.6 -7.5,38.9 -13.6,65.4 10.8,6.1 20.3,10 27.3,12.5 13.4,4.7 25.6,8.9 40.9,6.8 5.1,-0.7 9.3,-1.9 11.9,-2.8 1.9,-10.2 4.5,-25.5 6.8,-44.3 7.4,-60 5.9,-107.3 4.5,-143.2 -0.7,-18.8 -1.7,-44.4 -5.7,-78.4 -4.1,-37 -10.2,-68.4 -15.7,-92.9 z"
   style="fill:#ffffff" /><path
   id="XMLID_1978_"
   d="m 593.3,250.7 c 3.4,2.2 8.2,5.8 12.5,11.4 9.9,13 10.1,28 10.2,34.1 0.8,31.7 8.7,62.8 11.4,94.3 1.7,19.7 0.8,7 6.3,67.1 4.8,52 5.7,64.1 6.3,71.6 1.4,18.4 2.8,41.4 4,68.2 5,0.4 10.8,0.6 17,0 8.2,-0.7 16.3,-1.4 25,-6.3 5.7,-3.2 9.8,-7.1 12.5,-10.2 -0.7,-11.8 -2.1,-30.3 -4.5,-52.8 -2.7,-24.7 -8,-65.9 -32.4,-180.7 -4.1,-19.2 -9.8,-45.9 -17,-77.9 -11.4,-6.6 -20.1,-12.3 -26.1,-16.5 -6.9,-4.8 -12.9,-9.3 -18.8,-7.4 -3.2,0.9 -5.2,3.2 -6.4,5.1 z"
   style="fill:#ffffff" /><path
   id="XMLID_1994_"
   d="m 518.9,350.1 c 1.1,6.8 2.9,17.7 4.5,31.3 7.7,62.2 4.1,95.4 8,167.6 0.7,12.6 1.9,31.5 4,54.6 -5.3,-1.8 -10.8,-3.9 -16.5,-6.3 -9.5,-4 -18,-8.3 -25.6,-12.5 2.9,-10.7 6.6,-25.3 10.2,-42.6 9.6,-45.9 13,-82.3 14.2,-98.9 2,-26.1 3,-57.5 1.2,-93.2 z"
   style="opacity:0.08;fill:#606060" /><path
   id="XMLID_2002_"
   d="m 595,252.4 c -4.8,2 10.4,39.5 18.2,94.9 1.8,13 3.2,26.7 4.5,58.5 2.9,69.5 2.2,141.6 1.1,189.2 8,-1.9 15.9,-3.8 23.9,-5.7 -0.2,-8.3 -0.5,-20.5 -1.1,-35.2 -3.3,-79.9 -10.9,-142.1 -17,-192.1 -2.8,-22.4 -6.7,-52 -11.9,-86.9 -11.8,-20 -16,-23.4 -17.7,-22.7 z"
   style="opacity:0.1;fill:#606060" /><path
   id="XMLID_2013_"
   d="m 632.5,274.5 c 0.6,4.4 1.4,10.6 2.3,18.2 2.6,23 3.7,40.6 4.5,55.1 1.1,19.9 1.6,35.3 1.7,39.5 0,0.3 0,0.7 0,0.8 1.2,44.7 7.2,209.3 4.8,209.5 -1.2,0.1 -5.3,-43.4 -15.6,-187.3 0.2,-10.4 0.4,-20.8 0.6,-31.3 -0.4,-39.8 -0.3,-67.6 0.9,-76.2 0.3,-2.1 1.1,-7 -1.2,-12.1 -1.8,-4.1 -3.6,-3.9 -5.5,-8.4 -2.1,-5.1 -1.8,-10.3 -1.7,-12.7 0.2,-3.8 0.8,-4.3 0.6,-6.9 -0.4,-4.1 -2.4,-7.2 -4,-9.2 3.8,2.4 7.7,4.8 11.5,7.2 0.4,4.7 0.8,9.3 1.1,13.8 z"
   style="opacity:0.14;fill:#606060" /><g
   id="XMLID_1841_">
			<g
   id="XMLID_1925_">
				<path
   id="XMLID_1930_"
   d="m 566,248 c -2,-8.3 -13.7,-1.6 -17.3,1.3 -9.3,7.5 -18.2,15.7 -26.9,23.8 -1.4,1.3 0.7,3.4 2.1,2.1 5.6,-5.3 11.3,-10.4 17.2,-15.5 2.3,-2 20.3,-18.5 22.1,-10.9 0.4,1.9 3.2,1.1 2.8,-0.8 z"
   style="fill:#161616" />
			</g>
		</g><g
   id="XMLID_1887_">
			<g
   id="XMLID_1933_">
				<path
   id="XMLID_1944_"
   d="m 517,353.2 c 2.1,40.2 1.2,80.5 -2.9,120.6 -0.2,1.9 2.8,1.9 3,0 4,-40.1 5,-80.4 2.9,-120.6 -0.1,-1.9 -3.1,-1.9 -3,0 z"
   style="fill:#161616" />
			</g>
		</g><g
   id="XMLID_1895_">
			<g
   id="XMLID_1947_">
				<path
   id="XMLID_1952_"
   d="m 562,243.2 c -9.2,2.8 -15.2,12.3 -14.1,21.9 0.7,5.9 4.7,9.6 7.6,14.5 4.3,7 0.1,16.3 -0.2,24.1 -0.5,16.3 4.3,32.2 8.7,47.7 4.6,16 9.5,31.8 13.4,48 4.6,18.9 7.7,38.2 7.4,57.7 0,1.9 3,1.9 3,0 0.5,-39.5 -12.7,-77 -23.2,-114.6 -2.8,-9.9 -5.3,-20 -6.1,-30.3 -0.4,-5.5 -0.4,-11 0.5,-16.4 0.6,-3.9 2.2,-7.8 1.5,-11.8 -1.3,-7.5 -8.9,-11.8 -9.8,-19.4 -0.9,-8 4.2,-16 11.9,-18.4 2.1,-0.7 1.3,-3.6 -0.6,-3 z"
   style="fill:#161616" />
			</g>
		</g><g
   id="XMLID_1903_">
			<g
   id="XMLID_1956_">
				<path
   id="XMLID_1960_"
   d="m 562.3,247.1 c 18.3,89.2 26.1,180.6 20.3,271.5 -1.7,26.1 -4.4,52.1 -8.4,78 -0.3,1.9 2.6,2.7 2.9,0.8 13.8,-91 13.3,-183.7 1.1,-274.8 -3.4,-25.6 -7.8,-51.1 -13,-76.4 -0.4,-1.8 -3.3,-1 -2.9,0.9 z"
   style="fill:#161616" />
			</g>
		</g><g
   id="XMLID_1904_">
			<g
   id="XMLID_1964_">
				<path
   id="XMLID_1968_"
   d="m 596.6,247.4 c 4.1,-3.2 12.3,1.2 15.9,3.7 4.7,3.2 8.2,7.7 10.4,13 0.7,1.8 3.6,1 2.9,-0.8 -2.8,-6.7 -7.4,-12.2 -13.6,-15.9 -5,-2.9 -12.6,-6.1 -17.7,-2.1 -1.6,1.2 0.6,3.3 2.1,2.1 z"
   style="fill:#161616" />
			</g>
		</g><g
   id="XMLID_1911_">
			<g
   id="XMLID_1972_">
				<path
   id="XMLID_1977_"
   d="m 593.3,253.7 c 20.4,10.7 20.7,38.6 23.3,58.5 3,22.8 5.8,45.7 8.4,68.6 5.1,45.8 9.4,91.6 12.9,137.6 2,26.2 3.7,52.5 5.1,78.8 0.1,1.9 3.1,1.9 3,0 -5.2,-96.3 -14.1,-192.3 -26.7,-287.9 -2.7,-20.4 -3.6,-47.3 -24.4,-58.1 -1.8,-1 -3.3,1.6 -1.6,2.5 z"
   style="fill:#161616" />
			</g>
		</g><g
   id="XMLID_1912_">
			<g
   id="XMLID_1980_">
				<path
   id="XMLID_1985_"
   d="m 622.7,262.8 c 1.1,5.5 -2,10.9 -0.7,16.4 1.2,5.1 5.7,8.6 7.5,13.5 2.1,5.8 1.6,12.3 1.5,18.3 -0.1,7 -0.2,13.9 -0.3,20.9 -0.5,26.8 -1.5,53.6 -2.9,80.4 -0.1,1.9 2.9,1.9 3,0 1.5,-27.5 2.5,-54.9 3,-82.4 0.1,-6.6 0.2,-13.2 0.3,-19.9 0.1,-5.5 0.3,-11.2 -1.2,-16.6 -1.4,-4.9 -4.9,-8.1 -7.1,-12.6 -2.8,-5.9 1,-12.6 -0.2,-18.8 -0.4,-1.9 -3.3,-1.1 -2.9,0.8 z"
   style="fill:#161616" />
			</g>
		</g><g
   id="XMLID_1920_">
			<g
   id="XMLID_1988_">
				<path
   id="XMLID_1993_"
   d="m 618.7,255.9 c 8.9,4.1 17,9.5 24.2,16.1 1.4,1.3 3.5,-0.8 2.1,-2.1 -7.4,-6.8 -15.7,-12.4 -24.8,-16.6 -1.8,-0.8 -3.3,1.8 -1.5,2.6 z"
   style="fill:#161616" />
			</g>
		</g><g
   id="XMLID_1923_">
			<g
   id="XMLID_1996_">
				<path
   id="XMLID_2001_"
   d="m 665.3,371.1 c 15.3,69.3 25.9,139.5 31.6,210.2 0.2,1.9 3.2,1.9 3,0 -5.7,-71 -16.3,-141.5 -31.7,-211 -0.5,-1.8 -3.4,-1 -2.9,0.8 z"
   style="fill:#161616" />
			</g>
		</g><g
   id="XMLID_1931_">
			<g
   id="XMLID_2008_">
				<path
   id="XMLID_2012_"
   d="m 644.5,598.5 c 10.7,3 21.5,0.9 31.8,-2.6 8.3,-2.8 17.9,-5.4 23.2,-12.9 1.1,-1.6 -1.5,-3.1 -2.6,-1.5 -5,7 -15.3,9.6 -23.1,12.1 -9.3,3 -18.9,4.6 -28.5,2 -1.9,-0.5 -2.7,2.4 -0.8,2.9 z"
   style="fill:#161616" />
			</g>
		</g><g
   id="XMLID_1945_">
			<g
   id="XMLID_2016_">
				<path
   id="XMLID_2020_"
   d="m 514.9,463.1 c -5.7,40.3 -13.2,80.4 -22.5,120 -0.4,1.9 2.5,2.7 2.9,0.8 9.3,-39.6 16.8,-79.7 22.5,-120 0.3,-1.9 -2.6,-2.7 -2.9,-0.8 z"
   style="fill:#161616" />
			</g>
		</g><g
   id="XMLID_1953_">
			<g
   id="XMLID_2024_">
				<path
   id="XMLID_2033_"
   d="m 493.1,586.7 c 8.4,4.5 16.9,8.6 25.7,12.2 8.6,3.5 17.6,7.3 26.8,8.6 7.5,1.1 16.6,1 24.1,-0.7 6.9,-1.5 5.8,-8 9,-13 1,-1.6 -1.6,-3.1 -2.6,-1.5 -1.3,2.1 -1.8,4.3 -2.5,6.7 -1.7,5.3 -5.4,5 -10.1,5.5 -8.3,0.7 -16.3,0.8 -24.4,-1.5 -15.4,-4.4 -30.4,-11.3 -44.4,-18.9 -1.8,-0.9 -3.3,1.7 -1.6,2.6 z"
   style="fill:#161616" />
			</g>
		</g><path
   id="XMLID_1961_"
   d="M 562.6,245"
   style="fill:#ffffff" /><g
   id="arm_left">
		<path
   id="XMLID_2040_"
   d="m 530.2,269 c -6.3,4.2 -14.8,10.5 -24.1,19.1 -5.8,5.3 -10.6,10.4 -18.1,19.1 -17.4,20.1 -26.3,30.4 -36.1,46.2 -11.3,18.1 -16.9,27.2 -19.1,41.1 -2.6,16.8 1,31.4 3,39.6 2.9,11.7 6.7,19.9 10.5,28.1 4.6,9.8 12.3,21.2 27.6,43.7 13.3,19.6 18.6,26.5 28.6,32.6 5.7,3.4 10.9,5.4 14.6,6.5 2.2,-5.7 4.3,-11.4 6.5,-17.1 1.6,1.7 3.7,4 6,7 4,5.2 5,7.6 6.5,7.5 2.4,-0.1 3.9,-5.9 5.5,-12 7.5,-29.2 7.4,-33.6 5,-35.1 -1.7,-1.1 -3,0.5 -7.5,0 -5,-0.5 -8.9,-2.9 -11.5,-5 2.2,-6.6 1.2,-10.6 0,-13 -2.4,-4.7 -6.5,-4.6 -12.5,-10.5 -1.3,-1.3 -1.9,-2.1 -8,-11.5 -6.5,-10 -9.7,-15 -10.5,-16.6 -2.3,-4.4 -5.3,-11.1 -7.5,-20.1 2,-7 4.9,-14.9 9,-23.1 11.8,-23.5 28.1,-38.7 39.6,-47.7 2.1,-9.3 4.1,-23.3 2.5,-40.1 -1.6,-16.7 -6.2,-30 -10,-38.7 z"
   style="fill:#ffffff" />
		<path
   id="XMLID_2042_"
   d="m 526.2,272.5 c -3.4,3.8 -8.3,9.5 -14,16.6 -20.5,25.3 -35.4,43.6 -44.7,67.2 -1.9,4.9 -10,26.3 -9.5,55.2 0.7,47.7 24,81.1 33.1,93.8 10.9,15.2 22.2,25.9 30.1,32.6 -1.3,2.3 -2.7,4.7 -4,7 -4.2,-2.2 -10.5,-5.8 -17.6,-11 -24.2,-18.1 -35.8,-40.4 -46.7,-61.7 -11.9,-23.3 -17.8,-35 -19.6,-50.7 -2.4,-21.6 1.6,-47.7 14.6,-63.7 1,-1.3 1.9,-2.2 5,-6 12.4,-15.1 20.4,-26.7 22.1,-29.1 6.3,-8.9 19.7,-23.8 51.2,-50.2 z"
   style="opacity:0.08;fill:#606060" />
		<g
   id="XMLID_2015_">
			<g
   id="XMLID_2044_">
				<path
   id="XMLID_2049_"
   d="m 524.2,270 c -17.5,15.7 -33.9,32.6 -48.9,50.7 -14,16.9 -28.5,34.8 -37.4,55 -9.1,20.6 -8.6,41.4 -1.4,62.5 7,20.6 17.3,40.3 29.4,58.4 6.7,10.1 14.2,19.7 22.2,28.7 7.5,8.4 15.5,16.5 26.3,20.4 1.8,0.6 2.6,-2.3 0.8,-2.9 -10.3,-3.7 -17.9,-11.6 -25,-19.6 -7.1,-8 -13.7,-16.5 -19.8,-25.3 -11.8,-17.1 -21.7,-35.7 -29.1,-55.2 -4,-10.6 -7.2,-21.8 -7.6,-33.2 -0.3,-11.2 2.3,-22.1 6.8,-32.3 8.4,-19.2 22,-36.2 35.2,-52.3 15.5,-18.9 32.5,-36.5 50.7,-52.8 1.4,-1.3 -0.8,-3.4 -2.2,-2.1 z"
   style="fill:#161616" />
			</g>
		</g>
		<g
   id="XMLID_2022_">
			<g
   id="XMLID_2052_">
				<path
   id="XMLID_2059_"
   d="m 533.6,351 c -22.7,16.7 -39,40.8 -45.8,68.2 -0.5,1.9 2.4,2.7 2.9,0.8 6.6,-26.6 22.3,-50.2 44.4,-66.4 1.6,-1.2 0.1,-3.8 -1.5,-2.6 z"
   style="fill:#161616" />
			</g>
		</g>
		<g
   id="XMLID_2023_">
			<g
   id="XMLID_2063_">
				<path
   id="XMLID_2067_"
   d="m 485,412.2 c 6.3,26.3 21.1,50 41.9,67.3 1.5,1.2 3.6,-0.9 2.1,-2.1 -20.5,-17 -34.9,-40.1 -41.2,-66 -0.4,-1.9 -3.3,-1.1 -2.8,0.8 z"
   style="fill:#161616" />
			</g>
		</g>
		<g
   id="XMLID_2034_">
			<g
   id="XMLID_2071_">
				<path
   id="XMLID_2075_"
   d="m 526.7,477.5 c 0.5,11.4 -0.1,22.8 -1.8,34 -0.8,5.2 -1.8,10.4 -3.1,15.6 -0.6,2.4 -1.2,4.8 -1.9,7.2 -0.4,1.4 -1.9,8.9 -3.6,9.2 0.6,0.2 1.1,0.5 1.7,0.7 -0.1,-0.2 -0.2,-0.3 -0.3,-0.5 -1,-1.6 -3.6,-0.1 -2.6,1.5 0.1,0.2 0.2,0.3 0.3,0.5 0.4,0.6 1,0.8 1.7,0.7 3.7,-0.6 4.3,-6.6 5.2,-9.5 2,-6.6 3.5,-13.2 4.7,-20 2.3,-13 3.1,-26.2 2.6,-39.4 0,-1.9 -3,-2 -2.9,0 z"
   style="fill:#161616" />
			</g>
		</g>
		<g
   id="XMLID_2035_">
			<g
   id="XMLID_2079_">
				<path
   id="XMLID_2086_"
   d="m 527.6,490.8 c 4.7,3.8 10.2,5.8 16.3,5.9 1.9,0 1.9,-3 0,-3 -5.2,-0.1 -10.1,-1.7 -14.2,-5 -1.5,-1.2 -3.6,0.9 -2.1,2.1 z"
   style="fill:#161616" />
			</g>
		</g>
		<g
   id="XMLID_2036_">
			<g
   id="XMLID_2089_">
				<path
   id="XMLID_2094_"
   d="m 523.4,531.2 c 3.2,0.4 4.9,4.2 6.6,6.6 1.6,2.4 3.5,4.6 6.3,5.5 1.8,0.6 2.6,-2.3 0.8,-2.9 -3.3,-1.1 -4.9,-4.8 -6.8,-7.5 -1.8,-2.5 -3.8,-4.3 -6.9,-4.7 -1.9,-0.2 -1.9,2.8 0,3 z"
   style="fill:#161616" />
			</g>
		</g>
		<g
   id="XMLID_2037_">
			<g
   id="XMLID_2097_">
				<path
   id="XMLID_2102_"
   d="m 542,483.3 c 4.9,11.4 3.1,23.8 0.8,35.5 -2.2,11.4 -4.8,22 -11.7,31.6 -1.1,1.6 1.5,3.1 2.6,1.5 7.6,-10.7 10.3,-23 12.6,-35.8 2.1,-11.6 3,-23.3 -1.8,-34.4 -0.6,-1.7 -3.2,-0.2 -2.5,1.6 z"
   style="fill:#161616" />
			</g>
		</g>
	</g><path
   id="XMLID_1833_"
   d="m 555,165.1 c -1.6,-0.4 -5.5,-1.2 -9.8,0.4 -1,0.4 -8.3,3.1 -9.3,10.2 -0.9,5.8 3,11 7.2,13.2 1.8,0.9 3.5,1.2 4.7,1.3 0.7,2.3 1.5,5.9 2.1,10.2 1,7.4 -0.1,7.7 0.8,11.9 2.3,9.8 10.3,15.9 10.6,16.1 3.4,2.5 4.6,2.1 5.9,4.2 2.2,3.4 1.3,7.8 0,14.4 -0.7,3.5 -1.5,6.3 -2.1,8.1 1.2,1.5 4.8,5.5 11,7.2 6.2,1.7 11.4,0.2 13.2,-0.4 1.7,-6.9 3.4,-13.9 5.1,-20.8 3.7,-0.7 9.1,-2.3 14.9,-5.5 2,-1.1 6,-3.4 9.8,-7.2 2.5,-2.5 6,-6.9 9.8,-18.3 1.8,-5.5 5.6,-17.1 5.9,-33.1 0.2,-7.9 -0.7,-11.8 0.5,-20.9 0.7,-5.9 1.9,-10.7 2.7,-14 1.2,-2.8 1,-4.7 0.6,-6.1 -2,-6.5 -13.4,-8.3 -20.1,-9.4 -4.8,-0.8 -8.6,-0.8 -13.3,-0.8 -7.4,0 -11.1,0 -14.7,1 -8.1,2.3 -13.5,7.5 -16.8,10.7 -4,3.9 -3.2,4.4 -8,9 -4.5,4.2 -6.9,5.4 -8.8,9 -1.9,3.7 -2,7.2 -1.9,9.6 z"
   style="fill:#ffffff" /><path
   id="XMLID_1834_"
   d="m 553.2,190.4 c 0.1,3.3 0,6.9 -0.4,10.9 -0.5,5.2 -1.5,9.9 -2.5,13.8 -1.4,1.7 -4.2,4.5 -8.5,6.2 -9,3.4 -17.2,-1 -18.5,-1.8 -0.4,-4.2 -1.1,-10.4 -2.6,-17.8 -3.3,-16.5 -7.6,-25.6 -9.1,-31.3 -2.9,-10.8 -0.9,-27.8 21.8,-54.8 -6.5,-0.2 -8,-1.2 -8.3,-2.2 -0.8,-3.1 11.5,-9.2 21.3,-12.6 13.1,-4.6 23.6,-5 23.5,-6.5 -0.1,-1.6 -11.7,-1.6 -11.8,-3 -0.1,-1.6 13.1,-5.4 27.4,-4.4 3.4,0.3 20.3,1.8 36.6,14.4 5.3,4.1 14.6,11.5 18.7,23.9 1.3,3.9 4.4,13.3 -0.4,19.2 -1.3,1.6 -2.8,2.5 -3.9,3 0.2,-2 0.2,-5.6 -1.7,-9.1 -2.6,-4.5 -7,-6.3 -11.3,-7.8 -2.1,-0.8 -8.7,-3 -18.7,-2.6 -5.7,0.2 -15.9,0.6 -25.7,7 -0.6,0.4 0.1,-0.1 -11.3,10.4 -7.8,7.2 -11.3,10.3 -11.3,14.8 0,2.4 1.1,4.2 0,5.2 -1.5,1.5 -4.6,-1.2 -8.7,-0.9 -5.1,0.4 -11.3,5.3 -11.8,11.8 -0.5,7.2 6.7,11.7 7.4,12.2 4,2.4 8.2,2.2 9.8,2 z"
   style="fill:#091a3e;fill-opacity:1" /><path
   id="XMLID_1838_"
   d="m 586.4,130.7 c -2.4,4 -5.5,9.9 -8.4,17.2 -4,10 -10.4,25.8 -9.6,45.9 0.9,20.6 9,36.4 14.5,45.2 -2.3,7.9 -4.6,15.8 -6.9,23.7 -5.9,-1.2 -8.2,-3.4 -9.2,-5.4 -1.6,-3.1 -0.1,-6.1 0.4,-12.6 0.4,-5 0,-9.1 -0.4,-11.9 -4.2,-3.6 -8.7,-8.3 -13,-14.2 -1.4,-2 -2.7,-3.9 -3.8,-5.7 -0.4,1.3 -1.3,3.2 -3.1,5 -3.1,3.2 -7,3.8 -9.6,4.2 -6.2,1 -11.4,-0.7 -14.2,-1.9 -0.4,-4.6 -1,-9.6 -1.9,-14.9 -1.5,-8.5 -3.6,-16.1 -5.7,-22.6 1.3,4.7 5.2,8.1 10,8.8 4.9,0.7 9.8,-1.7 12.3,-6.1 -3.8,-5.9 -2.6,-13.5 2.3,-17.6 4,-3.4 10,-3.8 14.9,-1.1 0.1,-3.1 0.5,-5.7 1.1,-8 5.2,-18.6 26,-26.5 30.3,-28 z"
   style="opacity:0.12;fill:#606060" /><g
   id="XMLID_1777_">
			<g
   id="XMLID_1802_">
				<path
   id="XMLID_1807_"
   d="m 634,146.5 c 0.2,14.7 -0.1,29.5 -1.9,44.1 -1.7,13.4 -5.6,27.1 -15.1,37.1 -9.6,10.1 -23.8,13.6 -37.2,9.7 -12.5,-3.6 -22.1,-13.3 -27.7,-24.8 -0.8,-1.7 -3.4,-0.2 -2.6,1.5 11.6,23.8 42.4,37.7 65.2,19.7 11,-8.7 16.6,-22.1 19.2,-35.6 3.2,-16.9 3.4,-34.5 3.1,-51.6 0,-2.1 -3,-2.1 -3,-0.1 z"
   style="fill:#161616" />
			</g>
		</g><g
   id="XMLID_1778_">
			<g
   id="XMLID_1810_">
				<path
   id="XMLID_1815_"
   d="m 610.2,151.2 c 0.9,7.4 2.1,14.7 3.6,22 0.8,3.5 2.8,8.3 2.3,11.9 -0.5,4.4 -5.6,7.1 -9.6,8.5 -1.8,0.7 -1,3.6 0.8,2.9 5,-1.8 12.7,-6 12.1,-12.3 -0.5,-4.9 -2.4,-9.9 -3.3,-14.7 -1.2,-6.1 -2.2,-12.2 -2.9,-18.4 -0.2,-1.8 -3.2,-1.8 -3,0.1 z"
   style="fill:#161616" />
			</g>
		</g><g
   id="XMLID_1785_">
			<g
   id="XMLID_1819_">
				<path
   id="XMLID_1823_"
   d="m 596.7,159 c -0.3,3.3 -1.1,6.5 -2.3,9.6 -0.7,1.8 2.2,2.6 2.9,0.8 1.3,-3.4 2,-6.8 2.4,-10.4 0.2,-1.9 -2.8,-1.9 -3,0 z"
   style="fill:#161616" />
			</g>
		</g><g
   id="XMLID_1786_">
			<g
   id="XMLID_1827_">
				<path
   id="XMLID_1831_"
   d="m 596,158.1 c -1.4,3.7 -2,7.6 -2,11.5 0,1.9 3,1.9 3,0 0,-3.7 0.6,-7.2 1.9,-10.7 0.7,-1.9 -2.2,-2.6 -2.9,-0.8 z"
   style="fill:#161616" />
			</g>
		</g><g
   id="XMLID_1795_">
			<g
   id="XMLID_1851_">
				<path
   id="XMLID_1856_"
   d="m 587.2,149.8 c 4.3,-4 10.9,-4.1 15.2,-0.1 1.4,1.3 3.5,-0.8 2.1,-2.1 -5.5,-5.1 -14,-5.1 -19.5,0.1 -1.3,1.3 0.8,3.4 2.2,2.1 z"
   style="fill:#161616" />
			</g>
		</g><g
   id="XMLID_1798_">
			<g
   id="XMLID_1859_">
				<path
   id="XMLID_1864_"
   d="m 619.6,149.4 c 3.4,-2.6 8.5,-1.1 10.4,2.6 0.9,1.7 3.5,0.2 2.6,-1.5 -2.8,-5.6 -10.3,-6.9 -15.1,-3.2 -1.6,1.1 0.6,3.2 2.1,2.1 z"
   style="fill:#161616" />
			</g>
		</g><g
   id="XMLID_1800_">
			<g
   id="XMLID_1873_">
				<path
   id="XMLID_1877_"
   d="m 612.9,206.5 c -7.1,4.2 -15.9,1.5 -19.1,-6.3 -0.7,-1.8 -3.6,-1 -2.9,0.8 3.9,9.5 14.5,13.3 23.5,8 1.7,-0.9 0.1,-3.5 -1.5,-2.5 z"
   style="fill:#161616" />
			</g>
		</g><g
   id="XMLID_1808_">
			<g
   id="XMLID_1881_">
				<path
   id="XMLID_1885_"
   d="m 556.4,166 c -7,-9.1 -20.4,0.2 -22.2,9 -2.3,11.2 9.1,20.3 19.4,14.9 1.7,-0.9 0.2,-3.5 -1.5,-2.6 -8.6,4.5 -17.2,-4 -14.6,-12.9 1.8,-6.3 11.6,-13 16.8,-6.3 1.2,1.5 3.3,-0.6 2.1,-2.1 z"
   style="fill:#161616" />
			</g>
		</g><g
   id="XMLID_1794_">
			<g
   id="XMLID_1857_">
				<path
   id="XMLID_1880_"
   d="m 626.1,161.5 c -0.3,3.3 -1.1,6.5 -2.3,9.6 -0.7,1.8 2.2,2.6 2.9,0.8 1.3,-3.4 2,-6.8 2.4,-10.4 0.2,-1.9 -2.8,-1.9 -3,0 z"
   style="fill:#161616" />
			</g>
		</g><g
   id="XMLID_1793_">
			<g
   id="XMLID_1843_">
				<path
   id="XMLID_1848_"
   d="m 625.4,160.5 c -1.4,3.7 -2,7.6 -2,11.5 0,1.9 3,1.9 3,0 0,-3.7 0.6,-7.2 1.9,-10.7 0.6,-1.8 -2.3,-2.6 -2.9,-0.8 z"
   style="fill:#161616" />
			</g>
		</g><g
   id="XMLID_1816_">
			<g
   id="XMLID_1889_">
				<path
   id="XMLID_1894_"
   d="m 595.8,239.3 c -2.5,5.3 -4.3,10.9 -5.3,16.7 -0.3,1.9 2.6,2.7 2.9,0.8 0.9,-5.6 2.6,-10.9 5,-16 0.8,-1.7 -1.8,-3.2 -2.6,-1.5 z"
   style="fill:#161616" />
			</g>
		</g><g
   id="XMLID_1817_">
			<g
   id="XMLID_1897_">
				<path
   id="XMLID_1902_"
   d="m 567,234.9 c 0,4.1 -0.3,8.2 -1.2,12.2 -0.5,2.3 -1.9,4.9 -1.4,7.3 0.8,3.9 5.5,7.1 8.9,8.5 6.3,2.7 19.2,2.4 20.1,-6.5 0.2,-1.9 -2.8,-1.9 -3,0 -0.4,4 -6.7,5.1 -9.8,5 -3.8,-0.1 -7.7,-1.5 -10.5,-4.1 -3.9,-3.6 -1.6,-7.8 -0.8,-12.2 0.6,-3.4 0.8,-6.8 0.8,-10.3 -0.2,-1.9 -3.2,-1.9 -3.1,0.1 z"
   style="fill:#161616" />
			</g>
		</g><g
   id="XMLID_1824_">
			<g
   id="XMLID_1905_">
				<path
   id="XMLID_1910_"
   d="m 574.7,238.5 c 5.9,3.6 12.3,6.2 18.9,8 1.9,0.5 2.7,-2.4 0.8,-2.9 -6.5,-1.7 -12.5,-4.3 -18.2,-7.7 -1.6,-1 -3.1,1.6 -1.5,2.6 z"
   style="fill:#161616" />
			</g>
		</g><g
   id="XMLID_1826_">
			<g
   id="XMLID_1913_">
				<path
   id="XMLID_1918_"
   d="m 587.6,242.8 c 2.3,0.8 4.6,1.3 7,1.6 1.9,0.3 2.7,-2.6 0.8,-2.9 -2.4,-0.3 -4.7,-0.9 -7,-1.6 -1.9,-0.6 -2.7,2.3 -0.8,2.9 z"
   style="fill:#161616" />
			</g>
		</g><g
   id="girl_hand">
		<path
   id="XMLID_2216_"
   d="m 738.6,449.2 c -2.2,1 -2.2,4.4 -2.3,8.7 -0.1,3.9 -0.2,7.8 2.3,9.3 1.7,1 3.9,0.4 5,0 0.1,0.5 0.4,3.2 2.9,5 3.2,2.2 6.8,0.7 7,0.6 0.6,1.1 2.1,3.2 4.7,4.7 0.7,0.4 5,2.9 9.6,1.2 3,-1.1 6.3,-4 5.8,-6.1 -0.6,-2.4 -5.5,-1.1 -8.4,-4.7 -2.9,-3.5 -0.7,-7.8 -3.5,-9.9 -1.8,-1.3 -4.3,-0.9 -6.4,-0.3 0,-3.4 -2.2,-6.1 -4.7,-6.4 -2.1,-0.3 -3.7,1.1 -4.1,1.5 -2.6,-3 -5.8,-4.5 -7.9,-3.6 z"
   style="fill:#ffffff" />
		<g
   id="XMLID_2142_">
			<g
   id="XMLID_2210_">
				<path
   id="XMLID_2214_"
   d="m 740.5,465.4 c -3.7,1.2 -3.4,-12.4 -2,-14 1.7,-0.1 3.3,-0.2 5,-0.3 0.5,0.9 0.7,1.8 0.7,2.8 0.1,1.1 0.1,2.3 0,3.4 -0.1,1.5 -0.1,3 -0.2,4.5 0,0.5 -0.1,1 -0.1,1.5 0.1,1.3 -0.5,2.3 -2,2.9 -0.5,-1.9 -3.4,-1.1 -2.9,0.8 0.5,1.8 2.1,2.9 4,2.6 2.2,-0.3 3.3,-2.2 3.7,-4.3 0.8,-3.6 0.8,-8.1 0.5,-11.8 -0.2,-2.7 -1.4,-5.5 -3.9,-6.8 -6.2,-3.1 -7.9,4.1 -8.4,8.6 -0.5,3.8 -0.2,15 6.4,12.8 1.8,-0.4 1,-3.3 -0.8,-2.7 z"
   style="fill:#161616" />
			</g>
		</g>
		<g
   id="XMLID_2150_">
			<g
   id="XMLID_2218_">
				<path
   id="XMLID_2223_"
   d="m 748.1,471.7 c -1.2,-3.9 -1.9,-7.9 -1.9,-12 0,-1.3 -0.3,-3.6 0.5,-4.8 3.4,-2.3 5.5,-1.7 6.1,1.7 0.3,1.2 0.4,2.4 0.5,3.6 0.2,1.9 3.2,1.9 3,0 -0.3,-3.3 -0.8,-6.9 -3.6,-9.1 -2,-1.5 -4.9,-1.9 -6.9,-0.2 -5.4,4.4 -2.3,16.2 -0.7,21.6 0.7,1.9 3.6,1.1 3,-0.8 z"
   style="fill:#161616" />
			</g>
		</g>
		<g
   id="XMLID_2158_">
			<g
   id="XMLID_2226_">
				<path
   id="XMLID_2231_"
   d="m 744.7,472.7 c 2.8,2.4 6,3.2 9.6,2.2 0.8,-0.2 1.3,-1.1 1,-1.8 -0.6,-2.1 -0.9,-4.3 -0.8,-6.5 0.1,-1.5 0.5,-5.9 1.8,-7 3.4,-2.8 7,7.2 8,9.1 0.9,1.7 3.5,0.2 2.6,-1.5 -1.7,-3.3 -5.4,-14 -11.2,-11.1 -5.4,2.7 -4.6,13.1 -3.4,17.8 0.3,-0.6 0.7,-1.2 1,-1.8 -2.5,0.7 -4.7,0.3 -6.7,-1.4 -1.3,-1.4 -3.4,0.7 -1.9,2 z"
   style="fill:#161616" />
			</g>
		</g>
		<g
   id="XMLID_2167_">
			<g
   id="XMLID_2234_">
				<path
   id="XMLID_2239_"
   d="m 763.8,478.5 c -1.5,-0.5 -3.2,-0.9 -4.4,-2 -2.5,-2.2 -0.6,-5.2 2.2,-6.1 3.7,-1.2 7.8,0 10.6,2.6 1.4,1.3 3.5,-0.8 2.1,-2.1 -4.5,-4.2 -12.8,-5.9 -17.5,-1 -5.2,5.4 1.3,10.1 6.2,11.6 1.8,0.4 2.6,-2.5 0.8,-3 z"
   style="fill:#161616" />
			</g>
		</g>
		<g
   id="XMLID_2175_">
			<g
   id="XMLID_2242_">
				<path
   id="XMLID_2247_"
   d="m 760.6,479.3 c 4.4,4 10.6,1.5 13.8,-2.8 4.4,-6 -4.7,-9.8 -9.1,-11.6 -1.8,-0.7 -3.3,1.8 -1.5,2.6 2,0.9 9.8,3.7 8.5,6.9 -1.3,3.3 -6.8,5.3 -9.5,2.9 -1.5,-1.5 -3.6,0.6 -2.2,2 z"
   style="fill:#161616" />
			</g>
		</g>
	</g>
</svg>
