<?xml version="1.0" encoding="UTF-8" standalone="no"?>
<svg
   version="1.1"
   x="0px"
   y="0px"
   viewBox="0 0 1600 1200"
   xml:space="preserve"
   width="1600"
   height="1200"
   id="svg319"
   xmlns="http://www.w3.org/2000/svg"
   xmlns:svg="http://www.w3.org/2000/svg"><defs
   id="defs319" />

<path
   d="m 928.9,129.8 c -24.5,14.5 -31.5,39.5 -34.4,49.8 -0.7,2.5 -8.9,33.2 5.3,65.2 4.2,9.5 8.7,19.3 18.9,24 5.9,2.8 11.2,2.6 32,0.8 9.7,-0.8 20.2,-1.8 31.4,-3 7.9,-10.1 21.5,-30.3 25.5,-58.7 0.7,-5.3 8.9,-68.5 -25.5,-85.3 -22.5,-11.1 -49.6,5 -53.2,7.2 z"
   style="fill:#f1aa4b;fill-opacity:1"
   id="path1" /><ellipse
   cx="480.5"
   cy="253.89999"
   rx="22.6"
   ry="25"
   style="fill:#ec615b"
   id="ellipse1" /><ellipse
   cx="993"
   cy="663.29999"
   rx="16.799999"
   ry="16.200001"
   style="fill:#ec615b"
   id="ellipse2" /><circle
   cx="480.70001"
   cy="569.20001"
   style="fill:#ec615b"
   id="ellipse3"
   r="12.5" /><ellipse
   cx="457.39999"
   cy="249.7"
   rx="19.9"
   ry="20.9"
   style="fill:#f1aa4b;fill-opacity:1"
   id="ellipse4" /><ellipse
   cx="988.40002"
   cy="641.09998"
   rx="12.3"
   ry="12.8"
   style="fill:#5222d0"
   id="ellipse5" /><ellipse
   cx="1152.8"
   cy="286.5"
   rx="13.5"
   ry="14.4"
   style="fill:#5222d0"
   id="ellipse6" /><g
   id="g7">
		<g
   id="g6">
			<path
   d="m 859.6,389.9 c -2.2,-3.5 -5.8,-0.2 -7.3,2.2 -3.1,5 -5.1,11.2 -2.8,16.9 1.7,4.3 5.9,7.9 10.8,7.2 4.5,-0.6 7.9,-4.3 7.8,-8.8 0,-1.2 -1.7,-2.1 -2.6,-1.1 -5.3,6.7 -11.8,16.2 -6.5,24.8 3.7,5.9 12.8,6.7 16.4,0.3 -0.9,-0.1 -1.8,-0.2 -2.7,-0.4 0.5,2.8 1,5.6 1.4,8.4 0.3,1.9 3.2,1.1 2.9,-0.8 -0.5,-2.8 -1,-5.6 -1.4,-8.4 -0.2,-1.3 -2.2,-1.4 -2.7,-0.4 -1.6,2.8 -5.2,3.8 -8.1,2.4 -3.2,-1.6 -4.6,-5.2 -4.6,-8.7 0,-5.8 4.1,-10.9 7.5,-15.2 -0.9,-0.4 -1.7,-0.7 -2.6,-1.1 0.1,3.8 -3.6,6.6 -7.3,5.8 -2.8,-0.6 -4.6,-3 -5.6,-5.6 -1,-2.7 -0.9,-5.4 -0.1,-8.1 0.1,-0.2 4.2,-9.1 4.8,-8.1 1.1,1.8 3.7,0.3 2.7,-1.3 z"
   style="fill:#ec615b"
   id="path6" />
		</g>
	</g><g
   id="g9">
		<g
   id="g8">
			<path
   d="m 451.3,398.9 c 2.2,-6 9.5,-3.4 11.8,0.8 0.8,1.4 1.2,3 1.4,4.6 0.4,3 0.1,4.2 -2.5,6 -2.8,2.8 -3.5,1.7 -2,-3.3 0.7,-0.3 1.5,-0.6 2.2,-0.9 1.9,-0.5 4.1,-0.4 6,0.2 4.8,1.6 7.2,6.7 6.5,11.4 -0.2,1.2 1,2.4 2.2,1.7 6.5,-3.7 15.1,0.4 16.6,7.7 0.4,1.9 3.3,1.1 2.9,-0.8 -1.9,-9.2 -12.8,-14 -21,-9.4 0.7,0.6 1.5,1.1 2.2,1.7 1.3,-8.8 -5.4,-17 -14.7,-15.6 -3.2,0.5 -8,2.5 -8.4,6.3 -0.3,3.1 2.6,5.4 5.5,5.7 8.6,0.8 8.4,-11.7 5.6,-16.7 -3.8,-6.8 -14.3,-8.5 -17.3,-0.1 -0.6,1.7 2.3,2.5 3,0.7 z"
   style="fill:#ec615b"
   id="path7" />
		</g>
	</g><g
   id="g11">
		<g
   id="g10">
			<path
   d="m 977.8,775.3 c 7.7,5.1 14.2,11.6 19.4,19.2 1.1,1.6 3.7,0.1 2.6,-1.5 -5.5,-8 -12.3,-14.8 -20.4,-20.2 -1.7,-1.2 -3.2,1.4 -1.6,2.5 z"
   style="fill:#5222d0"
   id="path9" />
		</g>
	</g><g
   id="g13">
		<g
   id="g12">
			<path
   d="m 997.3,780.8 c 1.6,1.9 3.1,3.9 4.7,5.8 1.2,1.5 3.3,-0.6 2.1,-2.1 -1.6,-1.9 -3.1,-3.9 -4.7,-5.8 -1.2,-1.5 -3.3,0.7 -2.1,2.1 z"
   style="fill:#5222d0"
   id="path11" />
		</g>
	</g><g
   id="g15">
		<g
   id="g14">
			<path
   d="m 988.1,752.8 c 6.9,6.4 12.6,13.7 17,22 0.9,1.7 3.5,0.2 2.6,-1.5 -4.5,-8.5 -10.4,-16.1 -17.5,-22.6 -1.4,-1.4 -3.5,0.8 -2.1,2.1 z"
   style="fill:#5222d0"
   id="path13" />
		</g>
	</g>
<g
   id="g17">
		<g
   id="g16">
			<path
   d="m 296.7,865.4 c 2.2,21.7 6,43.1 11.3,64.3 0.5,1.9 3.4,1.1 2.9,-0.8 -5.2,-20.9 -9,-42.1 -11.2,-63.5 -0.2,-1.9 -3.2,-1.9 -3,0 z"
   style="fill:#e8e8e8"
   id="path15" />
		</g>
	</g><g
   id="g19">
		<g
   id="g18">
			<path
   d="m 308.6,930.7 c 19.7,5.1 40.2,5.1 59.9,0 1.9,-0.5 1.1,-3.4 -0.8,-2.9 -19.2,5 -39.1,5 -58.3,0 -1.8,-0.5 -2.6,2.4 -0.8,2.9 z"
   style="fill:#e8e8e8"
   id="path17" />
		</g>
	</g><g
   id="g21">
		<g
   id="g20">
			<path
   d="m 370.8,927.7 c 1.3,-21.3 3,-42.6 5,-63.9 0.2,-1.9 -2.8,-1.9 -3,0 -2,21.3 -3.7,42.6 -5,63.9 -0.1,1.9 2.9,1.9 3,0 z"
   style="fill:#e8e8e8"
   id="path19" />
		</g>
	</g><g
   id="g23">
		<g
   id="g22">
			<path
   d="m 298.4,867 c 24.9,5.1 50.5,4.9 75.4,-0.7 1.9,-0.4 1.1,-3.3 -0.8,-2.9 -24.3,5.4 -49.4,5.7 -73.8,0.7 -1.9,-0.4 -2.7,2.5 -0.8,2.9 z"
   style="fill:#e8e8e8"
   id="path21" />
		</g>
	</g><g
   id="g25">
		<g
   id="g24">
			<path
   d="m 298.1,874.2 c 0.8,4.1 6,3.9 9.2,4.2 8.1,0.7 16.3,0.9 24.4,0.7 7.8,-0.2 15.6,-0.8 23.4,-1.7 6.2,-0.8 12.2,-1.6 17.7,-4.7 1.7,-0.9 0.2,-3.5 -1.5,-2.6 -9.9,5.5 -23.6,5.3 -34.7,5.8 -5.5,0.2 -11.1,0.3 -16.6,0.2 -2.9,-0.1 -18.4,0.6 -19,-2.7 -0.4,-1.9 -3.2,-1.1 -2.9,0.8 z"
   style="fill:#e8e8e8"
   id="path23" />
		</g>
	</g><g
   id="g27">
		<g
   id="g26">
			<path
   d="m 303.8,908.9 c 4.8,8.5 10.9,16 18.2,22.5 1.4,1.3 3.6,-0.8 2.1,-2.1 -7.2,-6.3 -13.1,-13.6 -17.7,-21.9 -0.9,-1.7 -3.5,-0.2 -2.6,1.5 z"
   style="fill:#e8e8e8"
   id="path25" />
		</g>
	</g><g
   id="g29">
		<g
   id="g28">
			<path
   d="m 299.9,885.8 c 10.2,17.2 22.6,33 36.8,47.2 1.4,1.4 3.5,-0.8 2.1,-2.1 -14,-14 -26.2,-29.6 -36.3,-46.6 -1,-1.6 -3.6,-0.1 -2.6,1.5 z"
   style="fill:#e8e8e8"
   id="path27" />
		</g>
	</g><g
   id="g31">
		<g
   id="g30">
			<path
   d="m 316.6,878.6 c 10.6,18.9 22.9,36.8 36.8,53.5 1.2,1.5 3.3,-0.6 2.1,-2.1 -13.7,-16.5 -25.9,-34.2 -36.3,-52.9 -0.9,-1.7 -3.5,-0.2 -2.6,1.5 z"
   style="fill:#e8e8e8"
   id="path29" />
		</g>
	</g><g
   id="g33">
		<g
   id="g32">
			<path
   d="m 335.7,879.3 c 10.3,15.4 20.7,30.7 31.2,46 1.1,1.6 3.7,0.1 2.6,-1.5 -10.5,-15.3 -20.9,-30.6 -31.2,-46 -1.1,-1.6 -3.7,-0.1 -2.6,1.5 z"
   style="fill:#e8e8e8"
   id="path31" />
		</g>
	</g><g
   id="g35">
		<g
   id="g34">
			<path
   d="m 351.7,878.4 c 5.2,8.4 10.8,16.6 16.6,24.6 1.1,1.5 3.7,0 2.6,-1.5 -5.8,-8 -11.4,-16.2 -16.6,-24.6 -1,-1.6 -3.6,-0.1 -2.6,1.5 z"
   style="fill:#e8e8e8"
   id="path33" />
		</g>
	</g><g
   id="g37">
		<g
   id="g36">
			<path
   d="m 265.2,777.4 c 1.2,6.9 2.4,13.9 3.7,20.8 0.4,1.9 0.7,3.9 2.3,5.1 1.1,0.9 4.7,0.8 5.4,1.8 0.1,-0.6 0.2,-1.2 0.2,-1.8 -1.5,1.5 -3,3 -4.6,4.4 -0.4,0.4 -0.5,1 -0.4,1.5 0.9,2.7 1.5,6.7 3.3,9 0.9,1.2 2.5,1 3.2,1.7 0.6,0.6 0.4,0.2 0.1,2 -0.2,1.5 -0.2,3.1 0,4.7 0.3,2.4 1,4.7 1.9,6.9 5.2,12.6 15.3,22.8 25,32.2 1.4,1.3 3.5,-0.8 2.1,-2.1 -6.2,-6 -12.4,-12.2 -17.5,-19.2 -5,-6.9 -10.9,-16.2 -7.8,-25 0.2,-0.5 0,-1.2 -0.4,-1.5 -1.9,-1.5 -3.8,-0.9 -5.1,-3.3 -2.5,-4.5 -1.1,-6 2.1,-9.1 0.5,-0.4 0.6,-1.3 0.2,-1.8 -0.8,-1.2 -1.4,-1.6 -2.7,-2 -0.8,-0.3 -2,0 -2.8,-0.4 -1.7,-0.9 -1.7,-3.1 -2,-4.7 -1.2,-6.6 -2.4,-13.3 -3.5,-19.9 -0.2,-2 -3.1,-1.2 -2.7,0.7 z"
   style="fill:#e8e8e8"
   id="path35" />
		</g>
	</g><g
   id="g39">
		<g
   id="g38">
			<path
   d="m 267.4,777 c 39,13 65.7,49.4 66.5,90.6 0,1.9 3,1.9 3,0 -0.8,-42.5 -28.4,-80 -68.7,-93.5 -1.8,-0.6 -2.6,2.3 -0.8,2.9 z"
   style="fill:#e8e8e8"
   id="path37" />
		</g>
	</g><g
   id="g41">
		<g
   id="g40">
			<path
   d="m 327.3,826.6 c 9.7,-26.9 24,-52.9 46.9,-70.6 1.5,-1.2 0,-3.8 -1.5,-2.6 -23.6,18.3 -38.3,44.7 -48.3,72.4 -0.6,1.8 2.3,2.6 2.9,0.8 z"
   style="fill:#e8e8e8"
   id="path39" />
		</g>
	</g><g
   id="g43">
		<g
   id="g42">
			<path
   d="m 371.6,755.4 c 0.7,9.2 1.5,18.4 2.2,27.7 0.2,1.9 3.2,1.9 3,0 -0.7,-9.2 -1.5,-18.4 -2.2,-27.7 -0.1,-1.9 -3.1,-1.9 -3,0 z"
   style="fill:#e8e8e8"
   id="path41" />
		</g>
	</g><g
   id="g45">
		<g
   id="g44">
			<path
   d="m 375.1,782.1 c -1.3,0.3 -2.6,0.6 -3.8,1 -1.9,0.5 -1.1,3.4 0.8,2.9 1.3,-0.3 2.6,-0.6 3.8,-1 1.9,-0.5 1.1,-3.3 -0.8,-2.9 z"
   style="fill:#e8e8e8"
   id="path43" />
		</g>
	</g><g
   id="g47">
		<g
   id="g46">
			<path
   d="m 369.8,785.8 c 0.4,1.9 2,3.1 3.8,3.3 0.8,0.1 1.5,-0.7 1.5,-1.5 0,-0.9 -0.7,-1.4 -1.5,-1.5 0.3,0 0,0 -0.1,0 -0.1,0 -0.3,-0.1 -0.1,0 -0.1,-0.1 -0.2,-0.1 -0.3,-0.2 -0.2,-0.1 0.2,0.2 -0.1,-0.1 -0.1,-0.1 -0.1,-0.1 -0.2,-0.2 0.2,0.2 0,0 0,-0.1 -0.1,-0.1 -0.1,-0.3 -0.1,-0.1 0,-0.1 -0.1,-0.3 -0.1,-0.4 -0.2,-0.8 -1.1,-1.3 -1.8,-1 -0.8,0.2 -1.2,1 -1,1.8 z"
   style="fill:#e8e8e8"
   id="path45" />
		</g>
	</g><g
   id="g49">
		<g
   id="g48">
			<path
   d="m 372.1,788 c 0.1,5.7 -0.1,11.3 -0.7,16.9 -0.2,1.8 0.1,6 -1.1,7.4 -0.1,0.1 -1.9,0.4 -2.3,0.7 -1.5,1.2 0.6,3.3 2.1,2.1 0.5,-0.4 1.7,0 2.5,-0.9 1.2,-1.2 1,-4 1.2,-5.4 0.9,-6.9 1.3,-13.9 1.2,-20.9 0.1,-1.8 -2.9,-1.8 -2.9,0.1 z"
   style="fill:#e8e8e8"
   id="path47" />
		</g>
	</g><g
   id="g51">
		<g
   id="g50">
			<path
   d="m 366.8,815.6 c 3.2,3.8 2.3,10.1 2,14.7 -0.4,5.3 -1.3,10.2 -3.9,14.8 -3.7,6.8 -8.9,12.5 -11.6,19.9 -0.7,1.8 2.2,2.6 2.9,0.8 3.6,-9.7 11.9,-16.9 14.4,-27.1 1.8,-7.3 3.5,-19 -1.7,-25.2 -1.2,-1.4 -3.3,0.7 -2.1,2.1 z"
   style="fill:#e8e8e8"
   id="path49" />
		</g>
	</g><g
   id="g53">
		<g
   id="g52">
			<path
   d="m 343.2,866.4 c 2.8,-28.4 10.3,-56.1 22.3,-81.9 0.8,-1.7 -1.8,-3.3 -2.6,-1.5 -12.2,26.4 -19.9,54.5 -22.7,83.5 -0.2,1.9 2.8,1.8 3,-0.1 z"
   style="fill:#e8e8e8"
   id="path51" />
		</g>
	</g><g
   id="g55">
		<g
   id="g54">
			<path
   d="m 284.2,793.7 c 17.5,22 30.3,47.3 37.8,74.3 0.5,1.9 3.4,1.1 2.9,-0.8 -7.7,-27.6 -20.8,-53.2 -38.6,-75.6 -1.2,-1.5 -3.3,0.6 -2.1,2.1 z"
   style="fill:#e8e8e8"
   id="path53" />
		</g>
	</g><g
   id="g57">
		<g
   id="g56">
			<path
   d="m 286.1,830.6 c 8.4,-0.5 16.2,1.5 23.3,5.9 1.6,1 3.2,-1.6 1.5,-2.6 -7.5,-4.6 -16,-6.8 -24.8,-6.3 -2,0.1 -2,3.1 0,3 z"
   style="fill:#e8e8e8"
   id="path55" />
		</g>
	</g><g
   id="g59">
		<g
   id="g58">
			<path
   d="m 304.4,817.2 c -0.6,-5.5 0.1,-10.8 2.2,-16 0.7,-1.8 -2.2,-2.6 -2.9,-0.8 -2.2,5.4 -2.9,11 -2.3,16.8 0.2,1.9 3.2,1.9 3,0 z"
   style="fill:#e8e8e8"
   id="path57" />
		</g>
	</g><g
   id="g61">
		<g
   id="g60">
			<path
   d="m 336.8,800.6 c 3.3,8.1 8.1,16.7 9.3,25.3 0.3,1.9 3.2,1.1 2.9,-0.8 -1.3,-8.7 -6.1,-17.3 -9.3,-25.3 -0.7,-1.8 -3.6,-1 -2.9,0.8 z"
   style="fill:#e8e8e8"
   id="path59" />
		</g>
	</g><g
   id="g63">
		<g
   id="g62">
			<path
   d="m 355.2,810.1 c 2.9,-3.3 5.7,-7.2 9.4,-9.7 3.1,-2.1 6.5,-3.5 8.9,-6.4 1.2,-1.5 -0.9,-3.6 -2.1,-2.1 -2.6,3.1 -6.4,4.4 -9.5,6.8 -3.4,2.6 -6,6.1 -8.8,9.3 -1.3,1.5 0.8,3.6 2.1,2.1 z"
   style="fill:#e8e8e8"
   id="path61" />
		</g>
	</g><g
   id="g65">
		<g
   id="g64">
			<path
   d="m 356.2,865.4 c 4.8,-1.3 9.7,-1.8 14.7,-1.5 1.9,0.1 1.9,-2.9 0,-3 -5.3,-0.3 -10.4,0.2 -15.5,1.6 -1.8,0.5 -1.1,3.4 0.8,2.9 z"
   style="fill:#e8e8e8"
   id="path63" />
		</g>
	</g><g
   id="g67">
		<g
   id="g66">
			<path
   d="m 355.8,866.6 c 5.6,0.5 11,-0.2 16.4,-1.9 1.8,-0.6 1,-3.5 -0.8,-2.9 -5.1,1.6 -10.3,2.2 -15.6,1.8 -1.9,-0.1 -1.9,2.9 0,3 z"
   style="fill:#e8e8e8"
   id="path65" />
		</g>
	</g><g
   id="g69">
		<g
   id="g68">
			<path
   d="m 299.7,866.1 c 1.3,0 2.5,0 3.8,0 1.9,0 1.9,-3 0,-3 -1.3,0 -2.5,0 -3.8,0 -1.9,0 -1.9,3 0,3 z"
   style="fill:#e8e8e8"
   id="path67" />
		</g>
	</g><g
   id="g71">
		<g
   id="g70">
			<path
   d="m 373,890.3 c 31.7,0 63.5,0 95.2,0 1.9,0 1.9,-3 0,-3 -31.7,0 -63.5,0 -95.2,0 -1.9,0 -1.9,3 0,3 z"
   style="fill:#e8e8e8"
   id="path69" />
		</g>
	</g><g
   id="g73">
		<g
   id="g72">
			<path
   d="m 909.6,870.5 c 18.9,0 37.7,0 56.6,0 1.9,0 1.9,-3 0,-3 -18.9,0 -37.7,0 -56.6,0 -1.9,0 -1.9,3 0,3 z"
   style="fill:#e8e8e8"
   id="path71" />
		</g>
	</g><g
   id="g75">
		<g
   id="g74">
			<path
   d="m 1081.2,872.3 c 81.5,0 163,0 244.5,0 23.2,0 46.4,0 69.6,0 1.9,0 1.9,-3 0,-3 -81.5,0 -163,0 -244.5,0 -23.2,0 -46.4,0 -69.6,0 -1.9,0 -1.9,3 0,3 z"
   style="fill:#e8e8e8"
   id="path73" />
		</g>
	</g><g
   id="g77">
		<g
   id="g76">
			<path
   d="m 960.5,544 c -7.6,15.7 -15.8,31.1 -24.5,46.2 -0.4,0.8 -0.1,2.1 0.9,2.2 42.9,6.5 81.3,27.8 118.3,49.3 1.7,1 3.2,-1.6 1.5,-2.6 -37.3,-21.6 -75.9,-43 -119.1,-49.6 0.3,0.7 0.6,1.5 0.9,2.2 8.8,-15.1 16.9,-30.5 24.5,-46.2 0.9,-1.7 -1.6,-3.3 -2.5,-1.5 z"
   style="fill:#e8e8e8"
   id="path75" />
		</g>
	</g><g
   id="g79">
		<g
   id="g78">
			<path
   d="m 967.1,598.5 c 3,-8.6 6,-17.3 9,-25.9 1.3,-3.6 2.2,-7.6 3.9,-11.1 0.4,-2.1 1.7,-3.7 3.7,-4.9 1.2,0.3 2.4,0.6 3.6,0.9 1.8,0.5 3.6,0.9 5.3,1.4 4.1,1 10.7,1 10,6.5 -0.5,3.9 -2.8,8.1 -4.1,11.9 -3,8.5 -5.9,17 -8.9,25.5 -0.6,1.8 2.3,2.6 2.9,0.8 3.9,-11.2 7.8,-22.5 11.7,-33.7 0.9,-2.6 3.4,-7 1.4,-9.8 -2.2,-3 -8.8,-3.2 -12.2,-4.1 -3.3,-0.8 -9.1,-3.8 -12.5,-2.2 -2.9,1.3 -3.5,6.3 -4.4,8.8 -4.1,11.7 -8.2,23.5 -12.3,35.2 -0.6,1.7 2.3,2.5 2.9,0.7 z"
   style="fill:#e8e8e8"
   id="path77" />
		</g>
	</g><g
   id="g81">
		<g
   id="g80">
			<path
   d="m 1005.7,609.2 c 6.4,-13.5 12.9,-27.1 19.3,-40.6 3.2,-6.8 6.4,-13.5 9.7,-20.3 1.5,-3.1 2.7,-6.8 4.6,-9.7 1.6,-2.5 2,-3.1 4.8,-2 1.5,0.6 3.3,2.1 4.6,3 1.7,1.2 4.4,2.5 5.6,4.1 1.5,1.9 0.9,3.9 0,6.3 -1.2,3.2 -3,6.3 -4.5,9.4 -3.3,6.8 -6.6,13.6 -10.1,20.4 -6.6,12.9 -13.5,25.7 -20.6,38.4 -1,1.7 1.6,3.2 2.6,1.5 8.7,-15.4 17,-31 24.8,-46.8 3.9,-7.8 8.2,-15.8 11.5,-23.9 2.3,-5.9 -2.7,-8.3 -7.1,-11.4 -3.5,-2.4 -9,-7.9 -12.8,-3.4 -2.4,2.8 -3.7,7.5 -5.3,10.9 -2,4.1 -3.9,8.2 -5.9,12.4 -8,16.8 -16,33.6 -23.9,50.4 -0.7,1.5 1.9,3.1 2.7,1.3 z"
   style="fill:#e8e8e8"
   id="path79" />
		</g>
	</g><g
   id="g83">
		<g
   id="g82">
			<path
   d="m 1038.9,630 c 8.6,-13.5 18.3,-26.3 29,-38.1 -0.6,0.1 -1.2,0.2 -1.8,0.2 3.8,2.6 7.5,5.1 11.3,7.7 -0.2,-0.7 -0.4,-1.4 -0.5,-2.1 -8.5,13.3 -17,26.5 -25.5,39.8 -1,1.6 1.5,3.1 2.6,1.5 8.5,-13.3 17,-26.5 25.5,-39.8 0.5,-0.7 0.1,-1.6 -0.5,-2.1 -3.8,-2.6 -7.5,-5.1 -11.3,-7.7 -0.5,-0.4 -1.4,-0.2 -1.8,0.2 -10.9,12.1 -20.8,25 -29.5,38.7 -1.1,1.9 1.5,3.4 2.5,1.7 z"
   style="fill:#e8e8e8"
   id="path81" />
		</g>
	</g><g
   id="g85">
		<g
   id="g84">
			<path
   d="m 1158.2,534.9 c -10,-3.8 -16.3,-13.8 -14.5,-24.5 1.8,-10.9 12.5,-20.6 23.5,-14.1 7.6,4.5 11.5,14.7 8.6,23 -3,8.9 -12.8,14.2 -21.9,12.8 -1.9,-0.3 -2.7,2.6 -0.8,2.9 10.7,1.6 22,-4.3 25.6,-14.9 3.6,-10.6 -2.2,-23.4 -12.6,-27.7 -12.2,-5 -23.3,5.5 -25.4,17.2 -2.2,12.4 5.1,23.8 16.6,28.2 1.9,0.7 2.7,-2.2 0.9,-2.9 z"
   style="fill:#e8e8e8"
   id="path83" />
		</g>
	</g><g
   id="g87">
		<g
   id="g86">
			<path
   d="m 1178.7,533 c -19.9,-0.6 -12.4,-32.5 5.2,-31.3 17.6,1.3 10.4,37.2 -8.9,30.6 -1.8,-0.6 -2.6,2.3 -0.8,2.9 22.3,7.6 32.3,-33 11,-36.4 -10.4,-1.7 -19.8,8.1 -21.4,17.8 -1.6,9.6 4.9,19 14.9,19.3 1.9,0.2 1.9,-2.8 0,-2.9 z"
   style="fill:#e8e8e8"
   id="path85" />
		</g>
	</g><g
   id="g89">
		<g
   id="g88">
			<path
   d="m 1163.8,442.5 c -1.7,-1.8 -2.5,-4.7 -1.2,-6.9 1.3,-2.1 4.5,-3.1 6.5,-1.5 1.8,1.4 2.2,4.4 0.5,5.9 -2,1.8 -5.2,0.9 -7.1,-0.6 -1.5,-1.2 -3.6,0.9 -2.1,2.1 3.1,2.4 7.9,3.6 11.2,0.7 3,-2.7 2.7,-7.7 -0.3,-10.3 -3.1,-2.7 -8,-1.9 -10.6,1.1 -2.9,3.4 -2.1,8.5 0.9,11.6 1.4,1.4 3.5,-0.7 2.2,-2.1 z"
   style="fill:#e8e8e8"
   id="path87" />
		</g>
	</g><g
   id="g91">
		<g
   id="g90">
			<path
   d="m 873.6,517.8 c -2.8,-17 7.1,-37.5 26.3,-37.3 9.8,0.1 19.3,4.1 29.2,2.7 7,-1 13,-5 17.2,-10.5 4.2,-5.5 6.6,-12.4 7,-19.3 0.5,-10.2 -3.4,-20.6 -0.6,-30.7 1.4,-5.1 4.4,-9.8 9.5,-11.7 4.9,-1.7 10.2,-0.7 15.3,-0.9 7.4,-0.3 13.2,-3.5 16.9,-10 5.2,-9.1 4,-20 7.6,-29.6 4.3,-11.6 16.4,-21.5 29.2,-15.8 1.7,0.8 3.3,-1.8 1.5,-2.6 -17.4,-7.8 -31.9,7.9 -35.3,23.7 -2.2,10.3 -1.8,26.3 -14.1,30.4 -8.6,2.9 -18.3,-1.6 -26.2,4.3 -6.5,4.8 -8.4,13.6 -8.3,21.3 0.3,11.3 3.8,22.3 -1.2,33.1 -4.6,10.2 -13.7,16.3 -25,15.6 -10,-0.6 -19.9,-4.7 -30,-2.1 -17.1,4.3 -24.4,24.5 -21.7,40.3 0.2,1.7 3.1,0.9 2.7,-0.9 z"
   style="fill:#e8e8e8"
   id="path89" />
		</g>
	</g><g
   id="g93">
		<g
   id="g92">
			<path
   d="m 1000,446.5 c -3.7,-8.4 1.4,-16.4 9.5,-19.1 5.9,-2 12.4,-2.1 17.5,-6.1 4,-3.1 5.3,-7 4.8,-12 -0.5,-4.7 -0.5,-8.4 3.2,-11.6 3.1,-2.7 7.2,-3.7 11.2,-3.9 11,-0.4 26.1,5.2 34.1,-5.5 3.7,-5 2.6,-11.2 4.3,-16.8 2.3,-7.8 9.8,-12.6 17.8,-12.2 1.9,0.1 1.9,-2.9 0,-3 -6.1,-0.3 -12,2 -16.2,6.4 -5.2,5.5 -4.5,11.7 -6.1,18.6 -4.3,18.9 -30.6,5.6 -43,11.5 -4.6,2.2 -8.3,6.1 -8.7,11.3 -0.5,6.1 2.3,11.1 -3.9,15.3 -3.3,2.2 -7.1,2.9 -10.9,3.8 -6.3,1.5 -12.5,3.4 -15.7,9.5 -2.6,4.8 -2.6,10.3 -0.4,15.2 0.7,1.9 3.2,0.3 2.5,-1.4 z"
   style="fill:#e8e8e8"
   id="path91" />
		</g>
	</g><g
   id="g95">
		<g
   id="g94">
			<path
   d="m 1178.2,313.3 c -0.4,-0.9 -0.8,-1.9 -1.1,-2.9 1.3,-1.5 2.5,-3 3.8,-4.5 0.4,-0.1 2.2,1.1 2.8,1.1 1.5,0.2 2.8,-0.2 4,-1.1 3.7,-2.9 2.4,-7.5 3.5,-11.4 1.8,-6.7 9.7,-2.1 13.3,-7.1 3.6,-4.9 2.3,-15.3 11.9,-12.5 1.9,0.5 2.7,-2.4 0.8,-2.9 -5.5,-1.6 -10.5,1 -12.5,6.3 -0.6,1.5 -0.8,3.2 -1.4,4.7 -1.3,3.5 -2.7,4 -6.5,4.2 -2.8,0.2 -5,0 -6.9,2.4 -1.6,2.1 -1.6,4.8 -1.9,7.3 -0.3,3.7 0,6.8 -5.5,6.4 -1.1,-0.1 -2,-1.1 -3.2,-1.1 -6.6,-0.1 -5.5,8 -3.9,11.9 0.6,1.8 3.6,1 2.8,-0.8 z"
   style="fill:#e8e8e8"
   id="path93" />
		</g>
	</g><g
   id="g97">
		<g
   id="g96">
			<path
   d="m 1197,321.6 c -1.6,-2.1 -4.3,-8.2 0.4,-9.8 1.7,-0.6 3.9,0.1 5.7,0.1 1.6,0 3,0 4.3,-1.1 4,-3.2 1.1,-8.9 3.2,-12.9 3.4,-6.5 10.2,-1.4 15,-4.8 3.4,-2.4 4.3,-7 4.9,-10.8 0.3,-1.9 -2.6,-2.7 -2.9,-0.8 -0.7,4.5 -1.5,9.5 -7.1,10 -2.9,0.3 -5.1,-0.7 -7.8,0.6 -4.4,2.1 -5.8,6 -5.9,10.5 -0.1,3.8 0.8,5.7 -5.6,6 -0.8,0 -1.6,-0.2 -2.4,-0.2 -2.3,0.2 -4.3,1.4 -5.6,3.3 -2.8,4 -1.2,8.6 1.6,12.1 1.3,1.5 3.4,-0.7 2.2,-2.2 z"
   style="fill:#e8e8e8"
   id="path95" />
		</g>
	</g><g
   id="g99">
		<g
   id="g98">
			<path
   d="m 346.8,375.8 c 8.3,-10 20.1,-18.2 33.7,-16.8 14.8,1.5 22.1,13.3 23.5,27.1 2.4,22.9 -3.2,50.3 12.3,69.8 6.1,7.7 15.2,11.8 25,9.4 11.8,-2.8 21,-12.1 31.5,-17.6 12.4,-6.5 29.5,-10 40.7,0.9 8.2,8 10,20.2 12.7,30.8 2.5,9.6 6.8,20.2 15.4,25.9 5.2,3.4 10.9,3.7 16.9,3.3 6.7,-0.5 20.4,-0.9 19,9.6 -0.2,1.9 2.8,1.9 3,0 0.5,-4.1 -1.4,-7.4 -4.7,-9.8 -5.2,-3.8 -11.2,-3.2 -17.3,-2.8 -6.9,0.5 -12.8,-0.1 -18.1,-5 -4.8,-4.4 -7.7,-10.6 -9.8,-16.7 -3.5,-10.5 -4.5,-22 -10.5,-31.6 -5.9,-9.5 -16.1,-14.1 -27.1,-13.7 -13.9,0.5 -25.6,8.5 -36.7,15.9 -5.3,3.5 -11,7.2 -17.5,8.3 -7.8,1.3 -14.7,-2.1 -19.7,-7.9 -9.4,-11 -10.9,-26.7 -11.4,-40.5 -0.5,-12.9 1.2,-26.9 -3.1,-39.4 -3.9,-11.4 -13.8,-18.5 -25.7,-19.1 -13.8,-0.7 -25.9,7.6 -34.4,17.8 -1.1,1.5 1,3.6 2.3,2.1 z"
   style="fill:#e8e8e8"
   id="path97" />
		</g>
	</g><g
   id="g101">
		<g
   id="g100">
			<path
   d="m 296.3,530.1 c 15.6,26 29.5,52.9 41.8,80.6 0.8,1.8 3.4,0.2 2.6,-1.5 -12.3,-27.7 -26.3,-54.6 -41.8,-80.6 -1,-1.7 -3.6,-0.2 -2.6,1.5 z"
   style="fill:#e8e8e8"
   id="path99" />
		</g>
	</g><g
   id="g103">
		<g
   id="g102">
			<path
   d="m 298.2,528.9 c 24.3,-15.1 49.3,-29.2 75,-42 1.7,-0.9 0.2,-3.5 -1.5,-2.6 -25.6,12.8 -50.6,26.9 -75,42 -1.7,1.1 -0.2,3.7 1.5,2.6 z"
   style="fill:#e8e8e8"
   id="path101" />
		</g>
	</g><g
   id="g105">
		<g
   id="g104">
			<path
   d="m 371.4,485.6 c 12.7,26.7 26.1,53 40.3,78.9 0.9,1.7 3.5,0.2 2.6,-1.5 -14.2,-25.9 -27.7,-52.2 -40.3,-78.9 -0.9,-1.8 -3.4,-0.3 -2.6,1.5 z"
   style="fill:#e8e8e8"
   id="path103" />
		</g>
	</g><g
   id="g107">
		<g
   id="g106">
			<path
   d="m 341.5,611.3 c 23.9,-14.4 47.5,-29.2 70.9,-44.4 1.6,-1 0.1,-3.6 -1.5,-2.6 -23.4,15.2 -47,30 -70.9,44.4 -1.6,1 -0.1,3.6 1.5,2.6 z"
   style="fill:#e8e8e8"
   id="path105" />
		</g>
	</g><g
   id="g109"
   style="fill:#091a3e;fill-opacity:1">
		<g
   id="g108"
   style="fill:#091a3e;fill-opacity:1">
			<path
   d="m 339.6,520.1 c -0.6,19.2 0.5,38.3 3.3,57.3 0.3,1.9 3.2,1.1 2.9,-0.8 -2.8,-18.7 -3.8,-37.6 -3.2,-56.5 0.1,-1.9 -2.9,-1.9 -3,0 z"
   style="fill:#091a3e;fill-opacity:1"
   id="path107" />
		</g>
	</g><g
   id="g111"
   style="fill:#091a3e;fill-opacity:1">
		<g
   id="g110"
   style="fill:#091a3e;fill-opacity:1">
			<path
   d="m 339.7,519.1 c 13.9,10.9 27.8,21.6 41.9,32.2 1.5,1.2 3,-1.4 1.5,-2.6 -13.9,-10.4 -27.7,-21 -41.3,-31.7 -1.5,-1.2 -3.6,0.9 -2.1,2.1 z"
   style="fill:#091a3e;fill-opacity:1"
   id="path109" />
		</g>
	</g><g
   id="g113"
   style="fill:#091a3e;fill-opacity:1">
		<g
   id="g112"
   style="fill:#091a3e;fill-opacity:1">
			<path
   d="m 346,578 c 11.5,-10.3 26.5,-15.8 37.4,-26.9 1.4,-1.4 -0.8,-3.5 -2.1,-2.1 -10.9,11 -25.8,16.6 -37.4,26.9 -1.5,1.2 0.7,3.3 2.1,2.1 z"
   style="fill:#091a3e;fill-opacity:1"
   id="path111" />
		</g>
	</g><g
   id="g115">
		<g
   id="g114">
			<path
   d="m 300.3,545.8 c 3.2,-1.6 6.4,-3.1 9.6,-4.7 1.7,-0.8 0.2,-3.4 -1.5,-2.6 -3.2,1.6 -6.4,3.1 -9.6,4.7 -1.7,0.9 -0.2,3.4 1.5,2.6 z"
   style="fill:#e8e8e8"
   id="path113" />
		</g>
	</g><g
   id="g117">
		<g
   id="g116">
			<path
   d="m 310.6,562.8 c 2.7,-1.8 5.6,-3.3 8.6,-4.6 1.8,-0.7 1,-3.6 -0.8,-2.9 -3.3,1.4 -6.4,3 -9.4,4.9 -1.5,1.1 0,3.7 1.6,2.6 z"
   style="fill:#e8e8e8"
   id="path115" />
		</g>
	</g><g
   id="g119">
		<g
   id="g118">
			<path
   d="m 321.9,582.4 c 2.8,-1.4 5.6,-2.8 8.4,-4.1 1.7,-0.9 0.2,-3.4 -1.5,-2.6 -2.8,1.4 -5.6,2.8 -8.4,4.1 -1.7,0.8 -0.2,3.4 1.5,2.6 z"
   style="fill:#e8e8e8"
   id="path117" />
		</g>
	</g><g
   id="g121">
		<g
   id="g120">
			<path
   d="m 327.7,602 c 3.1,-2.7 6.3,-5 9.9,-7 1.7,-1 0.2,-3.5 -1.5,-2.6 -3.7,2.1 -7.2,4.6 -10.5,7.5 -1.5,1.3 0.6,3.4 2.1,2.1 z"
   style="fill:#e8e8e8"
   id="path119" />
		</g>
	</g><g
   id="g123">
		<g
   id="g122">
			<path
   d="m 377.1,505.3 c 2.3,-1.6 4.7,-2.7 7.4,-3.4 1.9,-0.5 1.1,-3.3 -0.8,-2.9 -2.9,0.7 -5.7,1.9 -8.2,3.7 -1.5,1.1 0,3.7 1.6,2.6 z"
   style="fill:#e8e8e8"
   id="path121" />
		</g>
	</g><g
   id="g125">
		<g
   id="g124">
			<path
   d="m 386,522.4 c 3.2,-2 6.4,-4 9.5,-6.1 1.6,-1 0.1,-3.6 -1.5,-2.6 -3.2,2 -6.4,4 -9.5,6.1 -1.7,1.1 -0.2,3.7 1.5,2.6 z"
   style="fill:#e8e8e8"
   id="path123" />
		</g>
	</g><g
   id="g127">
		<g
   id="g126">
			<path
   d="m 396.2,542.9 c 3.4,-1.5 6.9,-3 10.3,-4.5 1.8,-0.8 0.2,-3.4 -1.5,-2.6 -3.4,1.5 -6.9,3 -10.3,4.5 -1.8,0.8 -0.2,3.4 1.5,2.6 z"
   style="fill:#e8e8e8"
   id="path125" />
		</g>
	</g><g
   id="g129">
		<g
   id="g128">
			<path
   d="m 403.5,556.3 c 2.7,-2.6 5.7,-4.8 9,-6.7 1.7,-0.9 0.2,-3.5 -1.5,-2.6 -3.5,2 -6.7,4.3 -9.6,7.1 -1.4,1.4 0.7,3.5 2.1,2.2 z"
   style="fill:#e8e8e8"
   id="path127" />
		</g>
	</g><g
   id="g131">
		<g
   id="g130">
			<path
   d="m 350,598.1 c 2.5,3.7 4.6,7.6 6.2,11.7 0.7,1.8 3.6,1 2.9,-0.8 -1.7,-4.4 -3.8,-8.6 -6.5,-12.5 -1.1,-1.5 -3.7,0 -2.6,1.6 z"
   style="fill:#e8e8e8"
   id="path129" />
		</g>
	</g><g
   id="g133">
		<g
   id="g132">
			<path
   d="m 365.3,589.8 c 1.9,3.4 3.7,6.7 5.6,10.1 0.9,1.7 3.5,0.2 2.6,-1.5 -1.9,-3.4 -3.7,-6.7 -5.6,-10.1 -0.9,-1.7 -3.5,-0.2 -2.6,1.5 z"
   style="fill:#e8e8e8"
   id="path131" />
		</g>
	</g><g
   id="g135">
		<g
   id="g134">
			<path
   d="m 383,577.1 c 2,3.6 4,7.2 6,10.8 0.9,1.7 3.5,0.2 2.6,-1.5 -2,-3.6 -4,-7.2 -6,-10.8 -0.9,-1.7 -3.5,-0.2 -2.6,1.5 z"
   style="fill:#e8e8e8"
   id="path133" />
		</g>
	</g><g
   id="g137">
		<g
   id="g136">
			<path
   d="m 398.9,567.6 c 1.6,3.8 3.2,7.6 4.9,11.3 0.8,1.8 3.3,0.2 2.6,-1.5 -1.6,-3.8 -3.2,-7.6 -4.9,-11.3 -0.8,-1.7 -3.4,-0.2 -2.6,1.5 z"
   style="fill:#e8e8e8"
   id="path135" />
		</g>
	</g><g
   id="g139">
		<g
   id="g138">
			<path
   d="m 308.2,513.5 c 1.9,3.1 3.7,6.2 5.6,9.2 1,1.7 3.6,0.1 2.6,-1.5 -1.9,-3.1 -3.7,-6.2 -5.6,-9.2 -1,-1.6 -3.6,-0.1 -2.6,1.5 z"
   style="fill:#e8e8e8"
   id="path137" />
		</g>
	</g><g
   id="g141">
		<g
   id="g140">
			<path
   d="m 325.4,503.5 c 1.8,4 3.6,8 5.4,12 0.8,1.8 3.4,0.2 2.6,-1.5 -1.8,-4 -3.6,-8 -5.4,-12 -0.9,-1.8 -3.4,-0.3 -2.6,1.5 z"
   style="fill:#e8e8e8"
   id="path139" />
		</g>
	</g><g
   id="g143">
		<g
   id="g142">
			<path
   d="m 340.9,493.9 c 2.7,3.6 4.8,7.5 6.2,11.7 0.6,1.8 3.5,1 2.9,-0.8 -1.5,-4.5 -3.6,-8.7 -6.5,-12.4 -1.1,-1.5 -3.7,-0.1 -2.6,1.5 z"
   style="fill:#e8e8e8"
   id="path141" />
		</g>
	</g><g
   id="g145">
		<g
   id="g144">
			<path
   d="m 357.6,486.2 c 2.1,3.2 4.1,6.3 6.2,9.5 1,1.6 3.6,0.1 2.6,-1.5 -2.1,-3.2 -4.1,-6.3 -6.2,-9.5 -1.1,-1.6 -3.7,-0.1 -2.6,1.5 z"
   style="fill:#e8e8e8"
   id="path143" />
		</g>
	</g><g
   id="g147">
		<g
   id="g146">
			<path
   d="m 513.1,287.9 c -9.7,-3 -10.2,-13.3 -5.6,-21 4.5,-7.5 13.2,-9.5 20,-3.3 5.6,5.2 6.1,14.1 0.9,19.8 -5.2,5.8 -13.7,5.7 -19.7,1.3 -1.5,-1.2 -3,1.4 -1.5,2.6 7.6,5.6 18.7,4.7 24.4,-3.2 5.9,-8 3.8,-19.2 -4.5,-24.6 -20,-12.9 -37.2,24.3 -14.8,31.3 1.9,0.6 2.7,-2.3 0.8,-2.9 z"
   style="fill:#e8e8e8"
   id="path145" />
		</g>
	</g><g
   id="g149">
		<g
   id="g148">
			<path
   d="m 529.2,290.5 c -7.5,2.3 -9.3,-6.7 -6,-11.5 2.7,-3.9 8,-6.2 12.8,-4.9 4.6,1.2 7.9,5.9 6.7,10.6 -1.5,5.9 -7.7,8 -13.2,7.1 -1.9,-0.3 -2.7,2.6 -0.8,2.9 7.4,1.3 15.4,-1.9 17,-9.9 1.4,-6.9 -4,-13.2 -10.7,-14 -7.4,-0.9 -15.5,4.5 -16.5,12.1 -0.9,6.6 5.1,12.5 11.7,10.4 1.7,-0.5 0.9,-3.4 -1,-2.8 z"
   style="fill:#e8e8e8"
   id="path147" />
		</g>
	</g><g
   id="g151">
		<g
   id="g150">
			<path
   d="m 465.4,355.6 c -2.4,4.9 1,9.8 6,11.1 3.8,1 7.8,0.1 11.7,0.3 4.2,0.2 8.4,1.2 12.2,2.9 8.4,3.8 13.8,10.7 14.1,20 0.3,7.8 -2,15.9 1.4,23.3 7.2,15.6 27,3.7 37.2,13.8 8.5,8.5 5,24 16.4,30.5 1.7,1 3.2,-1.6 1.5,-2.6 -10.2,-5.8 -7.8,-20.9 -15,-29.3 -3.8,-4.4 -9.3,-5.6 -14.9,-6 -6.8,-0.4 -15.6,1 -20.6,-4.8 -5.8,-6.8 -2.7,-17 -3,-25 -0.2,-6.3 -2.3,-12 -6.7,-16.5 -3.9,-3.9 -9,-6.6 -14.3,-8 -2.7,-0.7 -5.5,-1.2 -8.3,-1.3 -3.6,-0.2 -19.2,1.6 -15,-6.9 0.8,-1.7 -1.8,-3.2 -2.7,-1.5 z"
   style="fill:#e8e8e8"
   id="path149" />
		</g>
	</g><g
   id="g153">
		<g
   id="g152">
			<path
   d="m 231.6,895.4 c 18.1,0 36.1,0 54.2,0 1.9,0 1.9,-3 0,-3 -18.1,0 -36.1,0 -54.2,0 -2,0 -2,3 0,3 z"
   style="fill:#e8e8e8"
   id="path151" />
		</g>
	</g><g
   id="g155">
		<g
   id="g154">
			<path
   d="m 260.8,963.2 c 34.8,0 69.5,0 104.3,0 1.9,0 1.9,-3 0,-3 -34.8,0 -69.5,0 -104.3,0 -2,0 -2,3 0,3 z"
   style="fill:#e8e8e8"
   id="path153" />
		</g>
	</g><g
   id="g157">
		<g
   id="g156">
			<path
   d="m 360.9,944.4 c 32.3,0 64.7,0 97,0 1.9,0 1.9,-3 0,-3 -32.3,0 -64.7,0 -97,0 -2,0 -2,3 0,3 z"
   style="fill:#e8e8e8"
   id="path155" />
		</g>
	</g><g
   id="g159">
		<g
   id="g158">
			<path
   d="m 898.8,939.2 c 16.3,-4 32.7,-4.4 49.3,-1.8 7,1.1 14.1,2.2 21.2,1.6 6.9,-0.6 13.6,-2.7 20.3,-4.5 7.6,-2.1 15.2,-3.7 23.2,-3.1 8.2,0.6 16.1,2.9 24.1,4.7 6.9,1.6 13.9,2.7 21,2.6 7.5,-0.2 14.9,-1.5 22.2,-2.6 20,-3.2 38.8,-1.2 58.6,2.1 1.9,0.3 2.7,-2.6 0.8,-2.9 -16,-2.6 -32.1,-5.3 -48.4,-3.7 -17,1.7 -32.8,5.9 -50,2.4 -14.4,-2.9 -28.1,-7.4 -42.9,-4.6 -7.9,1.5 -15.4,4.3 -23.3,5.8 -8.8,1.7 -17.3,0.7 -26.1,-0.7 -17.1,-2.6 -34,-2.4 -50.9,1.8 -1.7,0.5 -0.9,3.4 0.9,2.9 z"
   style="fill:#e8e8e8"
   id="path157" />
		</g>
	</g><g
   id="g161">
		<g
   id="g160">
			<path
   d="m 1052.4,908.8 c 31.4,-1.7 62.8,-3.4 94.2,-5 15.5,-0.8 30.5,-0.5 45.9,1.6 6.9,0.9 13.5,1.1 20.4,0.3 7.7,-0.9 15.7,-2.1 22.9,1.6 1.7,0.9 3.2,-1.7 1.5,-2.6 -12.2,-6.2 -26.3,-0.4 -39.4,-1.6 -7.8,-0.7 -15.4,-2.2 -23.2,-2.6 -8.1,-0.4 -16.2,-0.2 -24.3,0.2 -32.7,1.5 -65.4,3.5 -98.1,5.2 -1.8,0 -1.8,3 0.1,2.9 z"
   style="fill:#e8e8e8"
   id="path159" />
		</g>
	</g><g
   id="g163">
		<g
   id="g162">
			<path
   d="m 437.5,994.7 c 14.8,1.4 29.7,2.8 44.5,1.1 6.9,-0.8 13.5,-2.3 20.2,-4.3 8.7,-2.6 16.5,-3.3 25.5,-1.7 6.9,1.2 13.7,2.9 20.6,3.5 7.3,0.6 14.6,0.2 21.9,-0.5 15.3,-1.5 30.6,-4.1 45.8,-0.7 1.9,0.4 2.7,-2.5 0.8,-2.9 -14.6,-3.2 -29.2,-1.1 -43.9,0.4 -7.3,0.7 -14.6,1.4 -21.9,1 -8.3,-0.4 -16.3,-2.6 -24.4,-3.9 -6.8,-1.1 -13.3,-1.1 -20,0.5 -7.2,1.8 -14,4.2 -21.4,5.3 -15.8,2.3 -31.9,0.7 -47.7,-0.7 -2,-0.3 -1.9,2.7 0,2.9 z"
   style="fill:#e8e8e8"
   id="path161" />
		</g>
	</g><g
   id="g165">
		<g
   id="g164">
			<path
   d="m 595.7,187.8 c -3.9,-2.7 -9.2,-7 -7.6,-12.4 1.7,-5.6 5.9,-2.9 9.8,-4.2 5.2,-1.7 4.9,-8 3.4,-12.1 -1.5,-4 -4.7,-13.7 3.6,-10.4 1.9,0.8 3.3,2.1 5.5,1.4 2,-0.6 3,-2.4 3.5,-4.3 0.4,-1.7 0.1,-3.5 0,-5.3 -0.2,-1.2 -0.3,-2.5 -0.3,-3.7 -0.4,-2.9 1.4,-4.1 5.2,-3.6 0.1,1.9 3.1,1.9 3,0 -0.2,-2.8 -2.3,-4.8 -5.3,-4.7 -3.5,0.1 -5.4,3.5 -5.8,6.7 -0.3,2.2 1.5,7.3 0.5,9.1 -1.2,0.8 -2.4,1.7 -3.7,2.5 -0.5,-0.3 -1,-0.6 -1.5,-0.9 -0.9,-0.3 -1.6,-0.9 -2.5,-1.1 -3.1,-0.7 -5.6,1.2 -6.7,4 -1.9,4.8 1.5,8.8 2.5,13.3 1.3,6.2 -3.4,5.5 -7.5,6.2 -1.8,0.3 -3.3,1.2 -4.5,2.5 -6.3,7.3 1,15.4 7,19.6 1.5,1.1 3,-1.5 1.4,-2.6 z"
   style="fill:#e8e8e8"
   id="path163" />
		</g>
	</g><g
   id="g167">
		<g
   id="g166">
			<path
   d="m 615.4,185 c -3.3,-3.8 -5.8,-9 0.6,-11 1.6,-0.5 3.4,-0.3 4.9,-1.3 3.3,-2.3 1.9,-5.4 1.3,-8.6 -0.3,-1.8 -1,-4.2 0.1,-6 0.8,-1.3 3.7,-1.8 5.2,-2.1 2.1,-0.5 4.3,-0.8 6.1,-2 2.7,-1.9 3.7,-5.3 1.9,-8.2 -1,-1.6 -3.6,-0.1 -2.6,1.5 3,4.8 -11,6.1 -13.4,9.6 -2.8,4.1 3.1,11.3 -1.8,13.9 -1.9,1 -4.3,0.3 -6.1,1.6 -1.3,0.9 -2.2,2.3 -2.6,3.8 -1.1,4.3 1.8,8 4.4,11 1.2,1.4 3.3,-0.7 2,-2.2 z"
   style="fill:#e8e8e8"
   id="path165" />
		</g>
	</g><g
   id="g169"
   style="fill:#091a3e;fill-opacity:1">
		<g
   id="g168"
   style="fill:#091a3e;fill-opacity:1">
			<path
   d="m 497.3,161.3 c -2.6,-1.8 -2.9,-5 -2.1,-7.8 0.5,-1.9 2.9,-7.1 5.2,-7.3 3.8,-0.4 5.7,4.4 6.7,7.2 0.9,2.7 1.2,5.4 1.3,8.2 0,1.9 3,1.9 3,0 -0.1,-5.6 -3.8,-22.8 -13,-17.8 -3.5,1.9 -6.1,7.4 -6.5,11.2 -0.4,3.6 1,6.8 3.9,8.9 1.5,1.1 3,-1.5 1.5,-2.6 z"
   style="fill:#091a3e;fill-opacity:1"
   id="path167" />
		</g>
	</g><g
   id="g171"
   style="fill:#091a3e;fill-opacity:1">
		<g
   id="g170"
   style="fill:#091a3e;fill-opacity:1">
			<path
   d="m 496.1,162.9 c -3.6,0.9 -7.2,1.8 -10.9,2.7 -2.1,0.5 -5.7,0.7 -7.4,2.3 -2.9,2.7 -2.1,11 -2.1,14.5 0,1 1,1.7 1.9,1.4 0.5,-0.1 1,-0.3 1.6,-0.4 2.6,-1.4 3.9,-0.5 4,2.5 2,2 2,3.2 0,3.4 -1.2,0.5 -2.4,0.7 -3.7,0.7 -0.8,0.1 -1.5,0.6 -1.5,1.5 0.2,6.4 0.7,12.7 1.4,19.1 0.2,1.9 3.2,1.9 3,0 -0.7,-6.4 -1.2,-12.7 -1.4,-19.1 -0.5,0.5 -1,1 -1.5,1.5 4.2,-0.5 10.9,-2.2 10,-7.9 -1,-6.1 -8.4,-5.4 -12.6,-4.2 0.6,0.5 1.3,1 1.9,1.4 0,-2.3 0,-4.5 0.2,-6.8 0.3,-3.6 0.1,-4.9 3.4,-6.2 4.5,-1.8 9.8,-2.4 14.5,-3.6 1.9,-0.3 1.1,-3.2 -0.8,-2.8 z"
   style="fill:#091a3e;fill-opacity:1"
   id="path169" />
		</g>
	</g><g
   id="g173"
   style="fill:#091a3e;fill-opacity:1">
		<g
   id="g172"
   style="fill:#091a3e;fill-opacity:1">
			<path
   d="m 510.5,163.8 c 4.2,-0.2 8.5,-0.2 12.7,0.3 4,0.5 3.8,1.1 4.4,4.6 0.4,2.2 0.5,4.5 0.7,6.7 0.8,8.6 1.4,17.2 1.9,25.8 0.1,1.9 3.1,1.9 3,0 -0.6,-11.7 -1,-23.7 -2.9,-35.3 -0.5,-2.9 -1,-3.8 -4,-4.3 -5.2,-1 -10.6,-1 -15.8,-0.7 -1.9,0 -1.9,3 0,2.9 z"
   style="fill:#091a3e;fill-opacity:1"
   id="path171" />
		</g>
	</g><g
   id="g175"
   style="fill:#091a3e;fill-opacity:1">
		<g
   id="g174"
   style="fill:#091a3e;fill-opacity:1">
			<path
   d="m 481.6,212.7 c 5.9,-1 11.8,-2 17.6,-3 6.7,-1.1 13.1,-0.6 19.8,-1.1 3.1,-0.3 17.8,-1.8 12.4,-7.9 -1.3,-1.4 -3.4,0.7 -2.1,2.1 0.8,0.9 -12.8,2.9 -13.1,2.9 -4.2,0.1 -8.4,-0.1 -12.6,0.4 -7.6,0.9 -15.2,2.5 -22.8,3.8 -1.9,0.2 -1.1,3.1 0.8,2.8 z"
   style="fill:#091a3e;fill-opacity:1"
   id="path173" />
		</g>
	</g>
<g
   id="robot">
	<path
   d="m 1012.8,788.6 c -0.3,10.5 -0.6,21 -0.9,31.6 13.3,0.9 26.5,1.7 39.8,2.6 0,-10.8 0,-21.6 0,-32.4 -13,-0.6 -25.9,-1.2 -38.9,-1.8 z"
   style="fill:#ffffff;stroke:#161616;stroke-width:2;stroke-miterlimit:10"
   id="path175" />
	<path
   d="m 1030.1,905.3 c 1.8,11.6 2.6,21.2 3,28.1 1.3,22.9 0.3,28.2 -1.7,32.4 -4.9,10.3 -13.8,14.6 -13,16 0.6,0.9 5,-0.1 24.6,-10.4 -1.2,-22.8 -2.3,-45.5 -3.5,-68.3 -3.1,0.8 -6.2,1.5 -9.4,2.2 z"
   style="fill:#ffffff;stroke:#161616;stroke-width:2;stroke-miterlimit:10"
   id="path176" />
	<path
   d="m 1004.2,831.8 c 17,0.1 34,0.3 51,0.4 -1.9,22.8 -3.7,45.5 -5.6,68.3 -14.8,-1.2 -29.7,-2.3 -44.5,-3.5 -0.4,-21.7 -0.7,-43.4 -0.9,-65.2 z"
   style="fill:#ffffff;stroke:#161616;stroke-width:2;stroke-miterlimit:10"
   id="path177" />
	<path
   d="m 1011.1,904.5 c 5.4,13.1 7.2,24.4 7.8,32 0.9,11.2 1.5,19.8 -3.9,25.5 -2,2.2 -5.3,4.3 -11.7,8.6 -5.7,3.8 -8.4,5.2 -8.2,5.6 0.3,0.6 5.8,-0.6 29.8,-9.1 1.6,-8.1 2.9,-18.5 2.6,-30.7 -0.4,-13 -2.5,-24.1 -4.8,-32.4 -3.8,0.2 -7.7,0.3 -11.6,0.5 z"
   style="fill:#ffffff;stroke:#161616;stroke-width:2;stroke-miterlimit:10"
   id="path178" />
	<g
   id="g180">
		<g
   id="g179">
			<path
   d="m 1019.8,982.7 c 3,-2.5 5.8,-5.2 8.5,-8.1 3.1,-3.4 7.7,-8.6 12.5,-4.1 0.1,-0.8 0.2,-1.6 0.3,-2.4 -7.1,3.5 -14.1,7 -21.2,10.4 -1.4,0.7 -0.7,2.8 0.8,2.8 6.7,0.1 10.9,-11.6 17.8,-9.4 1.8,0.6 2.6,-2.3 0.8,-2.9 -3,-0.9 -5.3,-0.1 -7.8,1.7 -2.9,2.1 -7,7.6 -10.7,7.6 0.3,0.9 0.5,1.9 0.8,2.8 7.1,-3.5 14.1,-7 21.2,-10.4 0.9,-0.4 1,-1.7 0.3,-2.4 -2.7,-2.5 -7.5,-3.4 -10.9,-1.8 -2.5,1.1 -4.1,4 -5.9,5.9 -2.7,2.9 -5.5,5.5 -8.5,8.1 -1.6,1.3 0.5,3.5 2,2.2 z"
   style="fill:#161616"
   id="path179" />
		</g>
	</g>
	<g
   id="g182">
		<g
   id="g181">
			<path
   d="m 1032.1,967.1 c 3,0.1 5.9,0.7 8.7,1.9 1.7,0.8 3.3,-1.8 1.5,-2.6 -3.3,-1.5 -6.6,-2.3 -10.2,-2.4 -1.9,0.1 -1.9,3.1 0,3.1 z"
   style="fill:#161616"
   id="path180" />
		</g>
	</g>
	<g
   id="g184">
		<g
   id="g183">
			<path
   d="m 1015.7,963.6 c 2.3,0.6 4.3,1.8 5.9,3.6 1.3,1.4 3.4,-0.7 2.1,-2.1 -2,-2.1 -4.5,-3.6 -7.3,-4.3 -1.7,-0.6 -2.5,2.3 -0.7,2.8 z"
   style="fill:#161616"
   id="path182" />
		</g>
	</g>
	<g
   id="g186">
		<g
   id="g185">
			<path
   d="m 999.5,975.7 c 3.1,-2.3 6.3,-4.4 9.6,-6.4 1.5,-0.9 3.1,-2.1 4.7,-2.6 2.5,-0.9 4,-0.3 6.3,0.7 0,-0.9 0,-1.7 0,-2.6 -3.2,1.4 -6.8,1.3 -10.1,2.7 -3.2,1.3 -6.2,4.5 -9.5,5.1 0.4,0.9 0.8,1.8 1.2,2.7 5.9,-2.9 12.5,-3.4 18.4,-6.3 1.7,-0.9 0.2,-3.4 -1.5,-2.6 -5.9,2.9 -12.5,3.4 -18.4,6.3 -1.6,0.8 -0.4,3 1.2,2.7 3.6,-0.6 6.5,-3.9 9.9,-5.2 3.4,-1.3 7.1,-1.4 10.4,-2.8 1,-0.4 1,-2.2 0,-2.6 -3.8,-1.7 -5.5,-2.7 -9.3,-0.7 -5,2.6 -9.7,5.7 -14.2,9 -1.8,1.1 -0.3,3.7 1.3,2.6 z"
   style="fill:#161616"
   id="path184" />
		</g>
	</g>
	<g
   id="g188">
		<g
   id="g187">
			<path
   d="m 1016.6,919.8 c 2.5,-0.9 5,-0.8 7.3,0.4 1.7,0.9 3.2,-1.7 1.5,-2.6 -3,-1.6 -6.4,-1.9 -9.6,-0.7 -1.8,0.7 -1,3.6 0.8,2.9 z"
   style="fill:#161616"
   id="path186" />
		</g>
	</g>
	<g
   id="g190">
		<g
   id="g189">
			<path
   d="m 1019.1,929.8 c 2.1,-0.2 4.1,0.3 5.7,1.7 1.5,1.2 3.6,-0.9 2.1,-2.1 -2.2,-1.8 -4.9,-2.8 -7.8,-2.6 -1.9,0.1 -1.9,3.1 0,3 z"
   style="fill:#161616"
   id="path188" />
		</g>
	</g>
	<g
   id="g192">
		<g
   id="g191">
			<path
   d="m 1020.2,942.3 c 1.9,-0.2 3.7,0.5 4.8,2.1 1,1.6 3.6,0.1 2.6,-1.5 -1.5,-2.5 -4.4,-4 -7.3,-3.6 -0.8,0.1 -1.5,0.6 -1.5,1.5 -0.1,0.7 0.6,1.6 1.4,1.5 z"
   style="fill:#161616"
   id="path190" />
		</g>
	</g>
	<g
   id="g194">
		<g
   id="g193">
			<path
   d="m 1033.1,919.1 c 1.8,-1 4.1,-0.9 5.8,0.5 1.5,1.2 3.6,-0.9 2.1,-2.1 -2.7,-2.2 -6.3,-2.7 -9.4,-1 -1.7,1 -0.2,3.6 1.5,2.6 z"
   style="fill:#161616"
   id="path192" />
		</g>
	</g>
	<g
   id="g196">
		<g
   id="g195">
			<path
   d="m 1034.8,938 c 1.6,-0.7 3.4,-0.4 4.7,0.8 1.4,1.3 3.6,-0.8 2.1,-2.1 -2.3,-2.1 -5.5,-2.6 -8.4,-1.2 -1.7,0.7 -0.1,3.3 1.6,2.5 z"
   style="fill:#161616"
   id="path194" />
		</g>
	</g>
	<g
   id="g198">
		<g
   id="g197">
			<path
   d="m 1035.2,954 c 1.6,-1 3.6,-1 5.1,0.2 1.5,1.2 3.6,-0.9 2.1,-2.1 -2.5,-2.1 -6,-2.4 -8.7,-0.6 -1.6,1 -0.1,3.6 1.5,2.5 z"
   style="fill:#161616"
   id="path196" />
		</g>
	</g>
	<path
   d="m 1057.6,832.1 c -2,23 -4,46 -6,69"
   style="fill:none;stroke:#161616;stroke-width:6;stroke-miterlimit:10"
   id="path198" />
	<path
   d="m 1004.8,897.9 c 16.7,1.2 33.4,2.3 50.1,3.5"
   style="fill:none;stroke:#161616;stroke-width:6;stroke-miterlimit:10"
   id="path199" />
	<path
   d="m 1055,789.5 c -0.4,11.4 -0.9,22.7 -1.3,34.1"
   style="fill:none;stroke:#161616;stroke-width:6;stroke-miterlimit:10"
   id="path200" />
	<g
   id="g202">
		<g
   id="g201">
			<path
   d="m 1057.1,845.6 c 9.3,-1.7 19.2,5.6 19.9,15.2 1,12 -12.7,14.1 -21.7,12.8 -1.9,-0.3 -2.7,2.6 -0.8,2.9 11,1.6 26.5,-1.5 25.5,-15.7 -0.8,-11.7 -12.5,-20.2 -23.7,-18.1 -1.9,0.3 -1.1,3.2 0.8,2.9 z"
   style="fill:#161616"
   id="path201" />
		</g>
	</g>
	<g
   id="g204">
		<g
   id="g203">
			<path
   d="m 1054.9,878.9 c 3.9,0.8 7,3.6 8.1,7.4 0.5,1.9 3.4,1.1 2.9,-0.8 -1.3,-4.8 -5.2,-8.6 -10.1,-9.5 -2,-0.3 -2.8,2.5 -0.9,2.9 z"
   style="fill:#161616"
   id="path202" />
		</g>
	</g>
	<g
   id="g206">
		<g
   id="g205">
			<path
   d="m 1053.4,877.9 c 2.4,3.5 3.5,7.4 3.1,11.7 -0.1,1.9 2.9,1.9 3,0 0.3,-4.7 -0.9,-9.3 -3.6,-13.2 -1,-1.6 -3.6,-0.1 -2.5,1.5 z"
   style="fill:#161616"
   id="path204" />
		</g>
	</g>
	<g
   id="g208">
		<g
   id="g207">
			<path
   d="m 1004.1,844.2 c -6.6,-4.2 -18.7,7.9 -20.2,13.8 -3,12 12.4,10.6 18.8,14.6 1.6,1 3.1,-1.6 1.5,-2.6 -4.6,-2.9 -11.4,-1.8 -15.4,-5.4 -4.9,-4.4 -0.4,-9.7 3,-12.8 1.8,-1.6 7.9,-6.9 10.8,-5.1 1.6,1.2 3.2,-1.4 1.5,-2.5 z"
   style="fill:#161616"
   id="path206" />
		</g>
	</g>
	<g
   id="g210">
		<g
   id="g209">
			<path
   d="m 1002.5,871.2 c -2.6,1 -5,2.5 -7,4.6 -1.5,1.6 -3.4,4.1 -1.9,6.3 1.1,1.6 3.7,0.1 2.6,-1.5 -0.7,-1 1.9,-3.2 2.6,-3.8 1.3,-1.2 2.8,-2.1 4.5,-2.7 1.8,-0.7 1.1,-3.6 -0.8,-2.9 z"
   style="fill:#161616"
   id="path208" />
		</g>
	</g>
	<g
   id="g212">
		<g
   id="g211">
			<path
   d="m 1001.3,873.3 c -1.9,3 -2.5,6.4 -1.8,9.8 0.4,1.9 3.3,1.1 2.9,-0.8 -0.6,-2.7 0,-5.2 1.5,-7.5 1.1,-1.6 -1.5,-3.1 -2.6,-1.5 z"
   style="fill:#161616"
   id="path210" />
		</g>
	</g>
	<g
   id="g214">
		<g
   id="g213">
			<path
   d="m 1010.8,842.3 c -0.5,7.3 -0.4,14.7 0.1,22 0.2,1.9 3.2,1.9 3,0 -0.6,-7.3 -0.6,-14.7 -0.1,-22 0.2,-1.9 -2.8,-1.9 -3,0 z"
   style="fill:#161616"
   id="path212" />
		</g>
	</g>
	<g
   id="g216">
		<g
   id="g215">
			<path
   d="m 1013,843.1 c 10.6,0.6 21.1,1 31.7,1.2 -0.5,-0.5 -1,-1 -1.5,-1.5 -0.3,7.5 -0.6,15.1 -1,22.6 -0.1,1.9 2.9,1.9 3,0 0.3,-7.5 0.6,-15.1 1,-22.6 0,-0.8 -0.7,-1.5 -1.5,-1.5 -10.6,-0.2 -21.1,-0.6 -31.7,-1.2 -1.9,-0.1 -1.9,2.9 0,3 z"
   style="fill:#161616"
   id="path214" />
		</g>
	</g>
	<g
   id="g218">
		<g
   id="g217">
			<path
   d="m 1011.8,865.6 c 4.4,1.2 9.3,0.9 13.7,1.2 5.4,0.3 10.9,0.7 16.3,1 1.9,0.1 1.9,-2.9 0,-3 -4.8,-0.3 -9.6,-0.6 -14.4,-0.9 -4.8,-0.3 -10.2,0 -14.9,-1.2 -1.7,-0.5 -2.5,2.4 -0.7,2.9 z"
   style="fill:#161616"
   id="path216" />
		</g>
	</g>
	<g
   id="g220">
		<g
   id="g219">
			<path
   d="m 1015.2,881.1 c 1.8,3.9 5.7,0.5 8.7,1.9 1.4,0.6 1.1,1.5 3,1.6 2.2,0.1 7.6,-4.3 8.7,-0.2 0.3,1.1 1.7,1.4 2.5,0.7 1,-0.3 2.1,-0.6 3.1,-0.8 1.2,1.5 3.4,-0.7 2.1,-2.1 -2.3,-2.7 -5.2,-1.2 -7.4,0.8 0.8,0.2 1.7,0.4 2.5,0.7 -0.9,-3.5 -4.6,-5.8 -8.1,-4.2 -1.7,0.8 -1.9,2.3 -4.5,1.3 -0.5,-0.2 -0.7,-1 -1.2,-1.2 -1.1,-0.4 -6.9,0.2 -6.9,0.1 -0.7,-1.9 -3.3,-0.4 -2.5,1.4 z"
   style="fill:#161616"
   id="path218" />
		</g>
	</g>
	<g
   id="g222">
		<g
   id="g221">
			<path
   d="m 1020.5,802.4 c 0.2,-1.1 1.5,-1.4 2.4,-1 1.3,0.5 2,2 2.6,3.1 0.8,1.7 3.4,0.2 2.6,-1.5 -1.1,-2.2 -2.8,-4.5 -5.5,-4.8 -2.2,-0.2 -4.5,1.1 -4.9,3.3 -0.5,2 2.4,2.8 2.8,0.9 z"
   style="fill:#161616"
   id="path220" />
		</g>
	</g>
	<g
   id="g224">
		<g
   id="g223">
			<path
   d="m 1038.9,803.8 c 0.2,-1 1.1,-1.6 2.1,-1.2 1.2,0.4 1.7,1.9 1.9,3 0.3,1.9 3.2,1.1 2.9,-0.8 -0.4,-2.4 -2,-4.9 -4.6,-5.3 -2.3,-0.3 -4.8,1.1 -5.2,3.5 -0.3,1.9 2.6,2.7 2.9,0.8 z"
   style="fill:#161616"
   id="path222" />
		</g>
	</g>
	<g
   id="g226">
		<g
   id="g225">
			<path
   d="m 1022,808.7 c 3.4,6 11.5,6.9 15.9,1.5 1.2,-1.5 -0.9,-3.6 -2.1,-2.1 -3.2,3.9 -8.7,3.6 -11.2,-0.9 -0.9,-1.7 -3.5,-0.2 -2.6,1.5 z"
   style="fill:#161616"
   id="path224" />
		</g>
	</g>
</g>
<g
   id="g228"
   style="fill:#091a3e;fill-opacity:1">
		<g
   id="g227"
   style="fill:#091a3e;fill-opacity:1">
			<path
   d="m 917.1,265.3 c -12.6,-5.1 -20.2,-17.3 -24.8,-29.5 -4.9,-12.7 -7,-26.5 -6.3,-40.1 1.2,-25.1 11.9,-50.5 31.7,-66.5 18.7,-15.2 46.4,-19.5 67.2,-5.7 21.7,14.4 25.6,44.1 25.8,68 0.2,26.6 -6,54.5 -25.7,73.6 -1.4,1.3 0.7,3.5 2.1,2.1 18.7,-18.2 25.8,-44.2 26.5,-69.6 0.7,-24.9 -2.3,-56.4 -22.8,-73.5 -19.2,-16 -47.7,-15.2 -68.2,-2.2 -22.7,14.4 -36.1,40.5 -39,66.8 -1.8,16.3 0.2,33.2 6.2,48.6 5.1,13 13.2,25.4 26.6,30.8 1.7,0.8 2.4,-2.1 0.7,-2.8 z"
   style="fill:#091a3e;fill-opacity:1"
   id="path226" />
		</g>
	</g><g
   id="g230">
		<g
   id="g229">
			<path
   d="m 915.7,267.2 c -3.4,4.8 -2.7,11.9 2.3,15.5 3.8,2.7 9.4,3.1 13.9,3.7 5.4,0.8 10.9,1.1 16.4,1.1 9.8,-0.1 21,-0.8 30.1,-4.6 6.6,-2.8 11.6,-9.4 8.1,-16.5 -0.8,-1.7 -3.4,-0.2 -2.6,1.5 7.5,15.3 -28,16.6 -35.7,16.6 -7.1,0 -14.2,-0.6 -21.1,-1.9 -3.3,-0.6 -7,-1.2 -9.1,-4.1 -2.1,-3 -1.7,-6.9 0.3,-9.7 1.1,-1.7 -1.5,-3.2 -2.6,-1.6 z"
   style="fill:#161616"
   id="path228" />
		</g>
	</g><g
   id="g232">
		<g
   id="g231">
			<path
   d="m 918.9,283.4 c 0,5 0.1,10.1 0.7,15.1 0.3,2.3 0.8,4.3 2.7,5.7 2.7,2 7.2,1.9 10.4,2.2 5.4,0.4 10.9,0.4 16.3,0.2 5.1,-0.2 10.2,-0.6 15.3,-1.1 3,-0.3 6.4,-0.2 8.7,-2.5 5.1,-5 5.2,-14.5 3.9,-20.8 -0.4,-1.9 -3.3,-1.1 -2.9,0.8 0.7,3.4 0.9,6.8 0.2,10.3 -1,4.9 -2.4,8.1 -7.9,9.1 -6.4,1.2 -13.6,1.2 -20.1,1.3 -6.4,0.1 -13.6,0.4 -19.9,-1.1 -5.8,-1.4 -4.3,-14.4 -4.3,-19.2 -0.1,-1.9 -3.1,-1.9 -3.1,0 z"
   style="fill:#161616"
   id="path230" />
		</g>
	</g><g
   id="g234">
		<g
   id="g233">
			<path
   d="m 919.9,175.7 c 12,7.5 21.1,18.5 26.2,31.7 0.7,1.8 3.6,1 2.9,-0.8 -5.4,-14 -14.9,-25.6 -27.5,-33.5 -1.7,-1.1 -3.2,1.5 -1.6,2.6 z"
   style="fill:#161616"
   id="path232" />
		</g>
	</g><g
   id="g236">
		<g
   id="g235">
			<path
   d="m 948.5,207.4 c 5.9,-12.4 14.5,-23 25.5,-31.2 1.5,-1.1 0,-3.8 -1.5,-2.6 -11.4,8.5 -20.4,19.5 -26.6,32.3 -0.8,1.7 1.8,3.2 2.6,1.5 z"
   style="fill:#161616"
   id="path234" />
		</g>
	</g><g
   id="g238">
		<g
   id="g237">
			<path
   d="m 946.1,203.9 c 1.5,20.6 2.2,41.2 1.9,61.8 0,1.9 3,1.9 3,0 0.3,-20.6 -0.4,-41.3 -1.9,-61.8 -0.2,-2 -3.2,-2 -3,0 z"
   style="fill:#161616"
   id="path236" />
		</g>
	</g><g
   id="g240"
   style="fill:#091a3e;fill-opacity:1">
		<g
   id="g239"
   style="fill:#091a3e;fill-opacity:1">
			<path
   d="m 829,254.3 c 13.3,-4.5 26.5,-9 39.8,-13.5 1.8,-0.6 1,-3.5 -0.8,-2.9 -13.3,4.5 -26.5,9 -39.8,13.5 -1.9,0.6 -1.1,3.5 0.8,2.9 z"
   style="fill:#091a3e;fill-opacity:1"
   id="path238" />
		</g>
	</g><g
   id="g242"
   style="fill:#091a3e;fill-opacity:1">
		<g
   id="g241"
   style="fill:#091a3e;fill-opacity:1">
			<path
   d="m 844.2,234.3 c 4.6,-1.3 9.2,-2.7 13.8,-4 1.8,-0.5 1.1,-3.4 -0.8,-2.9 -4.6,1.3 -9.2,2.7 -13.8,4 -1.8,0.6 -1.1,3.5 0.8,2.9 z"
   style="fill:#091a3e;fill-opacity:1"
   id="path240" />
		</g>
	</g><g
   id="g244"
   style="fill:#091a3e;fill-opacity:1">
		<g
   id="g243"
   style="fill:#091a3e;fill-opacity:1">
			<path
   d="m 810.9,201 c 17.6,-0.2 35.1,0.3 52.6,1.4 1.9,0.1 1.9,-2.9 0,-3 -17.5,-1.1 -35.1,-1.5 -52.6,-1.4 -1.9,0 -1.9,3 0,3 z"
   style="fill:#091a3e;fill-opacity:1"
   id="path242" />
		</g>
	</g><g
   id="g246"
   style="fill:#091a3e;fill-opacity:1">
		<g
   id="g245"
   style="fill:#091a3e;fill-opacity:1">
			<path
   d="m 848.1,187.4 c 4.2,1.1 8.5,1.6 12.8,1.7 1.9,0 1.9,-3 0,-3 -4.1,-0.1 -8.1,-0.6 -12,-1.6 -1.9,-0.5 -2.7,2.4 -0.8,2.9 z"
   style="fill:#091a3e;fill-opacity:1"
   id="path244" />
		</g>
	</g><g
   id="g248"
   style="fill:#091a3e;fill-opacity:1">
		<g
   id="g247"
   style="fill:#091a3e;fill-opacity:1">
			<path
   d="m 841.6,94.3 c 15.7,13.5 30,28.3 42.9,44.5 1.2,1.5 3.3,-0.6 2.1,-2.1 -12.9,-16.2 -27.2,-31.1 -42.9,-44.5 -1.4,-1.3 -3.6,0.8 -2.1,2.1 z"
   style="fill:#091a3e;fill-opacity:1"
   id="path246" />
		</g>
	</g><g
   id="g250">
		<g
   id="g249">
			<path
   d="m 885.5,122.7 c 2.7,2.8 5.3,5.6 8,8.5 1.3,1.4 3.4,-0.7 2.1,-2.1 -2.7,-2.8 -5.3,-5.6 -8,-8.5 -1.3,-1.4 -3.4,0.7 -2.1,2.1 z"
   style="fill:#161616"
   id="path248" />
		</g>
	</g><g
   id="g252"
   style="fill:#091a3e;fill-opacity:1">
		<g
   id="g251"
   style="fill:#091a3e;fill-opacity:1">
			<path
   d="m 824.6,128.3 c 4.9,2.9 9.9,5.6 15,8.1 1.7,0.9 3.2,-1.7 1.5,-2.6 -5.1,-2.6 -10.1,-5.3 -15,-8.1 -1.7,-1 -3.2,1.6 -1.5,2.6 z"
   style="fill:#091a3e;fill-opacity:1"
   id="path250" />
		</g>
	</g><g
   id="g254"
   style="fill:#091a3e;fill-opacity:1">
		<g
   id="g253"
   style="fill:#091a3e;fill-opacity:1">
			<path
   d="m 998.6,105.5 c 14.8,-14.8 29.6,-29.6 44.4,-44.4 1.4,-1.4 -0.8,-3.5 -2.1,-2.1 -14.8,14.8 -29.6,29.6 -44.4,44.4 -1.4,1.4 0.7,3.5 2.1,2.1 z"
   style="fill:#091a3e;fill-opacity:1"
   id="path252" />
		</g>
	</g><g
   id="g256"
   style="fill:#091a3e;fill-opacity:1">
		<g
   id="g255"
   style="fill:#091a3e;fill-opacity:1">
			<path
   d="m 1013.5,112.4 c 3.8,-2.8 7.6,-5.5 11.4,-8.3 1.5,-1.1 0.1,-3.7 -1.5,-2.6 -3.8,2.8 -7.6,5.5 -11.4,8.3 -1.6,1.1 -0.1,3.7 1.5,2.6 z"
   style="fill:#091a3e;fill-opacity:1"
   id="path254" />
		</g>
	</g><g
   id="g258"
   style="fill:#091a3e;fill-opacity:1">
		<g
   id="g257"
   style="fill:#091a3e;fill-opacity:1">
			<path
   d="m 952.4,85.9 c 3,-14.5 5.3,-29.1 6.7,-43.8 0.2,-1.9 -2.8,-1.9 -3,0 -1.4,14.4 -3.6,28.8 -6.6,43 -0.4,1.9 2.5,2.7 2.9,0.8 z"
   style="fill:#091a3e;fill-opacity:1"
   id="path256" />
		</g>
	</g><g
   id="g260"
   style="fill:#091a3e;fill-opacity:1">
		<g
   id="g259"
   style="fill:#091a3e;fill-opacity:1">
			<path
   d="m 1036.5,177.9 c 27.2,-2.5 54.3,-5 81.5,-7.5 1.9,-0.2 1.9,-3.2 0,-3 -27.2,2.5 -54.3,5 -81.5,7.5 -1.9,0.1 -2,3.1 0,3 z"
   style="fill:#091a3e;fill-opacity:1"
   id="path258" />
		</g>
	</g><g
   id="g262">
		<g
   id="g261">
			<path
   d="m 922.2,270.8 c 16.9,3.7 34.1,3.6 50.9,-0.2 1.9,-0.4 1.1,-3.3 -0.8,-2.9 -16.3,3.7 -33,3.8 -49.3,0.2 -1.9,-0.4 -2.7,2.5 -0.8,2.9 z"
   style="fill:#161616"
   id="path260" />
		</g>
	</g><g
   id="g264">
		<g
   id="g263">
			<path
   d="m 924.7,296.2 c 12.9,1.7 25.8,2.1 38.8,1.2 1.9,-0.1 1.9,-3.1 0,-3 -13,0.9 -25.9,0.5 -38.8,-1.2 -1.9,-0.2 -1.9,2.8 0,3 z"
   style="fill:#161616"
   id="path262" />
		</g>
	</g><g
   id="g266">
		<g
   id="g265">
			<path
   d="m 1017.6,260.7 c 20.3,14.3 41,28.1 62,41.4 1.6,1 3.1,-1.6 1.5,-2.6 -21,-13.3 -41.7,-27.1 -62,-41.4 -1.6,-1.1 -3.1,1.5 -1.5,2.6 z"
   style="fill:#161616"
   id="path264" />
		</g>
	</g>
<path
   d="m 762.1,964.1 c -19,23.3 -37.9,46.5 -56.9,69.8 22.3,78.4 34.9,99 42.4,97.9 5.4,-0.8 8,-12.5 10.9,-25.6 7.2,-32.7 2.9,-60.8 -1.5,-78.3 12,-13.4 23.9,-26.9 35.9,-40.3 -10.3,-7.8 -20.5,-15.6 -30.8,-23.5 z"
   style="fill:#161616;stroke:#161616;stroke-width:2;stroke-miterlimit:10"
   id="path266" /><path
   d="m 692,844.1 c 11.9,9.2 23.3,5.9 46.9,9.9 20.1,3.4 42.7,10.9 66.7,25.9 -25.6,30 -51.2,61.7 -76.6,95.1 -6.1,8.1 -12.2,16.2 -18.1,24.3 9.8,2.3 21.6,5.9 34.4,11.7 12.5,5.6 22.7,11.9 30.8,17.6 38.1,-33.2 72.1,-65.3 102.4,-95.6 14,-14 33.8,-35.4 36.9,-65.7 0.2,-1.7 0.2,-3.2 0.2,-4.7 -0.7,-50.3 -64,-86.7 -102.5,-100.1 C 771,747.9 698.6,740 678.4,774.9 c -11.9,20.6 -4.9,54.9 13.6,69.2 z"
   style="fill:#f1aa4b;fill-opacity:1"
   id="path267" /><path
   d="m 765.9,793.8 c -0.7,9.5 -2.4,20.8 -5.9,33.3 -2.5,8.9 -5.5,16.8 -8.5,23.5 -3.3,1.3 -6.5,2.6 -9.8,3.9 21.5,8.5 43.1,17 64.6,25.5 -16,18.3 -32.1,37.5 -48.3,57.5 -16.7,20.6 -32.6,40.8 -47.7,60.7 10.7,3.5 21.3,7 32,10.4 38.3,-42.2 76.6,-84.5 114.9,-126.7 4,-11.5 3.8,-20.5 2.6,-26.8 -5.5,-30.8 -43.2,-55.9 -93.9,-61.3 z"
   style="opacity:0.26;fill:#6d6c6c"
   id="path268" /><path
   d="m 806.1,879.8 c 3.5,5.3 6.9,10.7 10.4,16 -29.8,35.9 -59.6,71.7 -89.4,107.6 -5.3,-1.4 -10.7,-2.9 -16,-4.3 19.1,-26.2 39.7,-53.1 62,-80.2 11.1,-13.5 22.1,-26.5 33,-39.1 z"
   style="opacity:0.23;fill:#6d6c6c"
   id="path269" />
<path
   d="m 706.6,926.1 c 29.5,5.4 59.1,10.7 88.6,16.1 34.1,74.4 37.9,98.4 31.5,102.5 -4.6,2.9 -14.2,-4.3 -24.9,-12.4 C 775,1012 760.1,987.8 752,971.5 c -17.8,-2.4 -35.6,-4.9 -53.4,-7.3 2.6,-12.7 5.3,-25.4 8,-38.1 z"
   style="fill:#161616;stroke:#161616;stroke-width:2;stroke-miterlimit:10"
   id="path270" /><path
   d="m 645.8,760.4 c -53.8,15.8 -86.6,48.6 -107.7,70.2 -28.5,29.3 -63.5,65.2 -53.4,91.7 5.2,13.5 21,21.8 94.6,34.6 55.6,9.7 103.8,14.9 141.4,17.8 4.7,-17.2 9.4,-34.3 14,-51.5 -37.8,-12.2 -75.5,-24.3 -113.3,-36.5 23.2,-4.9 47.6,-10.7 73,-17.8 19.3,-5.4 37.7,-11 55.2,-16.9 16.2,-32.7 19.7,-68 2.8,-88 -23.6,-28 -76.5,-12.5 -106.6,-3.6 z"
   style="fill:#f1aa4b;fill-opacity:1"
   id="path271" /><path
   d="m 765.5,795 c -0.5,9.9 -2.2,22.6 -6.8,36.6 -2.8,8.5 -6,15.9 -9.2,22 -2.7,0.2 -5.4,0.5 -8.1,0.7 -22.8,7.5 -47.1,14.6 -72.8,21.2 -16.6,4.3 -32.8,8 -48.5,11.4 37.9,11.9 75.8,23.7 113.7,35.6 -0.8,4.1 -1.8,8.4 -3,12.9 -1.4,5.2 -3,10 -4.5,14.4 C 674,936.9 621.7,924 569.4,911.1 567,908.2 559.1,897.7 560.3,883.8 561.6,868.7 576,858 594.4,848.2 647.6,820 736.8,800.9 765.5,795 Z"
   style="opacity:0.29;fill:#6d6c6c"
   id="path272" /><path
   d="M 530.7,993.8"
   style="fill:#6d6c6c"
   id="path273" /><path
   d="m 593.2,889 c 9.5,-0.7 19.1,-1.4 28.6,-2.2 37.3,12.4 74.6,24.9 111.9,37.3 -1.6,5.9 -3.2,11.9 -4.8,17.8 C 683.7,924.2 638.4,906.6 593.2,889 Z"
   style="opacity:0.24;fill:#6d6c6c"
   id="path274" />
<g
   id="torso">
	<path
   d="m 631.7,533.8 c 14.8,-8.7 40.5,-21.1 74.7,-24.7 52.4,-5.5 92.6,13.3 108.5,21.8 -2.9,39.3 -7.4,70.7 -11,92.3 -4.3,25.8 -7.8,40.1 -9.4,63.8 -2,29.7 0.5,54.1 2.8,70.1 -17.4,5.4 -43.7,11.3 -76.1,10.6 -31.2,-0.7 -56.4,-7.5 -73.3,-13.4 4.5,-35.8 3,-64.2 0.8,-83.5 -2.5,-21.5 -5.9,-32 -10,-58 -5.3,-33.6 -6.7,-61.1 -7,-79 z"
   style="fill:#ffffff;stroke:#161616;stroke-width:2;stroke-miterlimit:10"
   id="path275" />
	<path
   d="m 739.9,521 c 2.1,7.6 4.5,18.1 6.1,30.7 1.1,8.5 5.6,47 -8.4,97.8 -8.6,31.3 -17.7,64.4 -47.5,91.6 -9.6,8.8 -18.9,14.7 -25.7,18.4 15.1,3.9 34.8,7.6 58.1,7.8 30.5,0.3 55.7,-5.2 73.2,-10.6 -1,-7.5 -2.3,-18.8 -2.8,-32.4 -0.4,-11.9 -0.4,-30.9 7.8,-84.4 6.5,-42.1 11.1,-60.2 13.4,-98.3 0.3,-4.4 0.4,-8.1 0.6,-10.6 -7.3,-4.3 -16.8,-9 -28.5,-12.8 -10.8,-3.5 -20.5,-5.3 -28.5,-6.1 -5.8,2.9 -11.8,5.9 -17.8,8.9 z"
   style="opacity:0.14;fill:#6d6c6c"
   id="path276" />
	<path
   d="m 811.8,547.3 c -5.6,31.7 -13,57.3 -18.8,75.1 -17,52 -28.9,87 -61,112.6 -19.9,15.9 -40.6,22.6 -53.9,25.8 13.5,3.8 32.6,7.5 55.7,7 26.6,-0.6 48.1,-6.6 62.2,-11.7 -1.9,-12.2 -4.1,-30.5 -3.5,-52.8 0.7,-28.9 5.4,-46.3 10.6,-78 2.9,-18.6 6.6,-45.2 8.7,-78 z"
   style="opacity:0.17;fill:#6d6c6c"
   id="path277" />
</g>
<g
   id="hand_r">
	<path
   d="m 631.1,533.3 c -13,9 -29.7,23.2 -44.3,44.3 -32.9,47.8 -32,98.5 -30.7,117.2 6,16.1 16.3,37.2 34.3,57.9 10.5,12.1 25.9,29.5 52.2,40.7 8.8,3.8 16.5,5.9 22.1,7.1 4.8,-4.3 9.5,-8.6 14.3,-12.9 -15.4,-18 -30.9,-36.9 -46.4,-56.4 -11.9,-14.9 -23.3,-29.7 -34.3,-44.3 0.4,-12.3 3,-34.6 16.4,-57.9 7.6,-13.2 16.5,-22.8 23.6,-29.3 -2.4,-22.1 -4.8,-44.2 -7.2,-66.4 z"
   style="fill:#ffffff;stroke:#161616;stroke-width:2;stroke-miterlimit:10"
   id="path278" />
	<path
   d="m 633,555.6 c -28.8,32.5 -42.5,63.3 -49.3,82.7 -11.9,33.6 -9.4,51.2 -7.6,59.6 1.5,6.6 4.8,17.9 16.9,35.1 10.5,14.9 32.6,41.6 74.7,63.6 3.7,-3.6 7.4,-7.1 11.1,-10.7 -11.9,-13.4 -23.9,-27.5 -36,-42.2 -15.9,-19.3 -30.7,-38.3 -44.4,-56.9 0.4,-10.1 2.1,-24.2 8,-40 8.9,-23.7 22.9,-39.3 31.6,-47.6 -1.8,-14.5 -3.4,-29 -5,-43.6 z"
   style="opacity:0.13;fill:#6d6c6c"
   id="path279" />
	<path
   d="m 598.3,688.1 c 1.8,11.7 5.5,26.6 13.3,42.7 17.2,35 44.1,54.3 57.8,62.7 2.7,-2.4 5.3,-4.7 8,-7.1 -26.4,-32.8 -52.7,-65.6 -79.1,-98.3 z"
   style="opacity:0.16;fill:#6d6c6c"
   id="path280" />
</g>
<g
   id="hand_l">
	<path
   d="m 816.4,531.5 c 14.6,8.9 33.4,22.8 49.7,43.5 37,46.9 35.9,96.7 34.5,115.1 -6.8,15.8 -18.3,36.5 -38.5,56.9 -11.8,11.8 -29.1,28.9 -58.6,40 -9.9,3.7 -18.6,5.8 -24.9,7 -5.3,-4.2 -10.7,-8.4 -16,-12.6 17.2,-17.7 34.7,-36.2 52.1,-55.4 13.3,-14.7 26.1,-29.2 38.5,-43.5 -0.5,-12 -3.3,-33.9 -18.4,-56.9 -8.6,-13 -18.5,-22.4 -26.5,-28.8 2.8,-21.8 5.5,-43.5 8.1,-65.3 z"
   style="fill:#ffffff;stroke:#161616;stroke-width:2;stroke-miterlimit:10"
   id="path281" />
	<path
   d="m 815.7,555.8 c 12.7,13.3 30,34.6 43.5,64.3 6.4,14.1 16.8,37 17,58.6 0.7,65.7 -92.3,110.9 -97.7,113.5 -5.3,-3.4 -10.5,-6.7 -15.8,-10.1 30.1,-33 60.1,-66 90.2,-99 -0.6,-10.8 -3.1,-30.9 -15.1,-52.3 -9.9,-17.6 -22.2,-29 -30.3,-35.3 2.8,-13.2 5.5,-26.4 8.2,-39.7 z"
   style="opacity:0.16;fill:#6d6c6c"
   id="path282" />
	<path
   d="m 853.9,683.4 c -1.5,8.7 -4,18.2 -7.9,28 -17.6,44.4 -53.2,68.7 -71.2,79.1 -4.3,-2.8 -8.5,-5.6 -12.8,-8.4 30.6,-32.9 61.2,-65.8 91.9,-98.7 z"
   style="opacity:0.12;fill:#6d6c6c"
   id="path283" />
</g>
<g
   id="laptop">
	<rect
   x="593.5"
   y="690.79999"
   width="245.89999"
   height="155.7"
   style="fill:#ffffff;stroke:#161616;stroke-width:2;stroke-miterlimit:10"
   id="rect283" />
	<g
   id="g285">
		<g
   id="g284">
			<path
   d="m 712.9,783.5 c -13,1.6 -19.3,-14.2 -15.9,-24.7 3.3,-10.4 15.6,-15.3 25.6,-11.7 9.9,3.6 14.7,15.7 11.2,25.4 -3.9,10.8 -17.5,15.2 -27.5,10.4 -1.7,-0.8 -3.3,1.8 -1.5,2.6 8.9,4.3 19.8,2.7 26.9,-4.3 6.9,-6.9 7.9,-17.8 3.6,-26.3 -9.8,-19.4 -40.1,-13.2 -42.2,8.1 -1.1,11.4 7.1,25.1 19.8,23.6 1.9,-0.3 1.9,-3.3 0,-3.1 z"
   style="fill:#161616"
   id="path284" />
		</g>
	</g>
	<path
   d="m 685.8,690.4 c 33.3,11.6 56,41.3 56.7,73.2 0.9,40 -32.7,77.6 -78.5,81.4 58.3,0.5 116.6,1 175,1.5 -0.2,-52.2 -0.3,-104.4 -0.5,-156.5 -50.9,0 -101.8,0.2 -152.7,0.4 z"
   style="opacity:0.14;fill:#6d6c6c"
   id="path285" />
	<path
   d="m 839,689.9 c -0.9,31.8 -7.2,56.6 -12.5,72.9 -7.8,23.7 -13.4,41 -29.5,56.3 -21.9,21 -49.2,24.9 -61.2,25.9 34.1,0.3 68.2,0.6 102.3,1 0.1,-29.7 0.3,-59.4 0.5,-89.2 0,-22.3 0.2,-44.6 0.4,-66.9 z"
   style="opacity:0.26;fill:#6d6c6c"
   id="path286" />
</g>
<path
   d="m 709.2,453.1 c -5.5,6.7 -0.2,14.9 -1.2,36.8 -0.5,10.9 -2.3,19.7 -3.7,25.6 4.7,2.2 13,5.3 23.7,5.6 13.2,0.3 23.2,-3.8 28.1,-6.2 -2.2,-4.4 -5.1,-11.2 -6.9,-20 -4.5,-22.4 3.5,-32.9 -3.1,-41.2 -7.7,-9.6 -29.5,-9.7 -36.9,-0.6 z"
   style="fill:#ffffff;stroke:#161616;stroke-width:2;stroke-miterlimit:10"
   id="path287" /><path
   d="m 674.3,356.9 c -6.3,16.2 -3.9,30.8 -2.5,37.1 -0.6,0.1 -12.3,2.6 -15.5,11.6 -3.2,9.1 3.4,22 17.2,26.2 5,12.2 17.1,35.8 42.6,48.7 4.3,2.1 8.4,3.8 12.5,5 3.7,-1.4 8.7,-3.6 14.4,-6.9 17.8,-10.3 27.7,-23.1 30,-26.2 4.2,-5.6 9.9,-14.6 13.9,-27 2.2,0.4 6.1,0.6 9.9,-1.3 8.6,-4.4 12.9,-18.1 6.9,-27 -5,-7.4 -14.7,-7.7 -15.9,-7.7 1.3,-5.2 5.3,-23.9 -4.8,-42.4 -11.6,-21.3 -36.5,-32.5 -59.9,-29.3 -34.6,4.5 -48.2,37.6 -48.8,39.2 z"
   style="fill:#ffffff;stroke:#161616;stroke-width:2;stroke-miterlimit:10"
   id="path288" /><g
   id="g290">
		<g
   id="g289">
			<path
   d="m 707.9,479.6 c 6.1,3.6 12.8,9.2 20.3,8.6 6.2,-0.5 13.1,-4.1 17.8,-7.9 1.5,-1.2 -0.6,-3.3 -2.1,-2.1 -4.4,3.5 -11.5,7.2 -17.3,7.1 -6.1,-0.1 -12.3,-5.2 -17.3,-8.3 -1.5,-1 -3,1.6 -1.4,2.6 z"
   style="fill:#161616"
   id="path289" />
		</g>
	</g><g
   id="g292">
		<g
   id="g291">
			<path
   d="m 707.5,480.9 c 5.7,4.9 12.2,10.4 20.2,10 7.8,-0.4 15.1,-5.6 20.2,-11.2 1.3,-1.4 -0.8,-3.5 -2.1,-2.1 -4.4,4.8 -10.6,9.5 -17.4,10.2 -7.5,0.7 -13.5,-4.4 -18.8,-9 -1.4,-1.3 -3.5,0.8 -2.1,2.1 z"
   style="fill:#161616"
   id="path290" />
		</g>
	</g><g
   id="g294">
		<g
   id="g293">
			<path
   d="m 711.3,481.5 c 0,-0.1 0,-0.1 0,0 -0.6,-0.9 -1.7,-1.1 -2.4,-0.4 0,0 0,0 -0.1,0.1 -0.6,0.5 -0.6,1.6 0,2.1 11,10.5 31.2,13.9 39.1,-2.2 0.8,-1.7 -1.7,-3.3 -2.6,-1.5 -7,14.4 -24.7,10.9 -34.3,1.6 0,0.7 0,1.4 0,2.1 0,0 0,0 0.1,-0.1 -0.8,-0.1 -1.6,-0.2 -2.4,-0.3 0,0 0,0.1 0,0.1 1,1.6 3.6,0.1 2.6,-1.5 z"
   style="fill:#161616"
   id="path292" />
		</g>
	</g><g
   id="g296">
		<g
   id="g295">
			<path
   d="m 723.3,389 c -1.3,16.2 -0.6,32.3 2,48.3 0.1,0.8 1.1,1.3 1.8,1 3.9,-1.3 6.7,-3.6 8.8,-7.1 1,-1.7 -1.6,-3.2 -2.6,-1.5 -1.7,2.9 -3.8,4.6 -7,5.7 0.6,0.3 1.2,0.7 1.8,1 -2.6,-15.7 -3.2,-31.6 -1.9,-47.5 0.3,-1.9 -2.7,-1.9 -2.9,0.1 z"
   style="fill:#161616"
   id="path294" />
		</g>
	</g><path
   d="m 705.5,404.9 c 0.2,0.9 1.7,6.5 0,7.4 -1.7,0.9 -6.5,-2.7 -8,-7.4 -1.2,-4 -0.2,-9 1.7,-9.4 2,-0.5 5.1,5 6.3,9.4 z"
   style="fill:#161616;stroke:#161616;stroke-miterlimit:10"
   id="path296" /><path
   d="m 757.1,404.9 c 0.2,0.9 1.7,6.5 0,7.4 -1.7,0.9 -6.5,-2.7 -8,-7.4 -1.2,-4 -0.2,-9 1.7,-9.4 2,-0.5 5.1,5 6.3,9.4 z"
   style="fill:#161616;stroke:#161616;stroke-miterlimit:10"
   id="path297" /><g
   id="g299">
		<g
   id="g298">
			<path
   d="m 719.7,450.5 c 12.2,5.2 23.3,-2.1 32.3,-10 1.5,-1.3 -0.7,-3.4 -2.1,-2.1 -7.8,6.8 -17.8,14.1 -28.6,9.5 -1.9,-0.7 -3.4,1.9 -1.6,2.6 z"
   style="fill:#161616"
   id="path298" />
		</g>
	</g><g
   id="g301">
		<g
   id="g300">
			<path
   d="m 754.9,420.8 c 1.9,0 1.9,-3 0,-3 -1.9,0 -1.9,3 0,3 z"
   style="fill:#161616"
   id="path299" />
		</g>
	</g><g
   id="g303">
		<g
   id="g302">
			<path
   d="m 766,415.2 c 0.1,-0.1 0.2,-0.2 0.3,-0.3 0.6,-0.6 0.6,-1.5 0,-2.1 -0.6,-0.6 -1.5,-0.6 -2.1,0 -0.1,0.1 -0.2,0.2 -0.3,0.3 -0.6,0.6 -0.6,1.5 0,2.1 0.6,0.6 1.5,0.6 2.1,0 z"
   style="fill:#161616"
   id="path301" />
		</g>
	</g><g
   id="g305">
		<g
   id="g304">
			<path
   d="m 762.7,422.5 c 0.1,0 0.2,0 0.3,0 0.8,0 1.5,-0.7 1.5,-1.5 0,-0.8 -0.7,-1.5 -1.5,-1.5 -0.1,0 -0.2,0 -0.3,0 -0.8,0 -1.5,0.7 -1.5,1.5 0,0.8 0.6,1.5 1.5,1.5 z"
   style="fill:#161616"
   id="path303" />
		</g>
	</g><g
   id="g307">
		<g
   id="g306">
			<path
   d="m 693.7,387 c 3.8,-3.2 9.4,-3.3 13.2,-0.2 1.5,1.2 3.6,-0.9 2.1,-2.1 -5.2,-4.2 -12.4,-4.2 -17.5,0.2 -1.4,1.2 0.8,3.3 2.2,2.1 z"
   style="fill:#161616"
   id="path305" />
		</g>
	</g><g
   id="g309">
		<g
   id="g308">
			<path
   d="m 742.5,385.9 c 4.3,-3.8 10.4,-4.5 15.5,-1.8 1.7,0.9 3.2,-1.7 1.5,-2.6 -6.3,-3.4 -13.8,-2.5 -19.1,2.3 -1.5,1.3 0.6,3.4 2.1,2.1 z"
   style="fill:#161616"
   id="path307" />
		</g>
	</g><g
   id="g311">
		<g
   id="g310">
			<path
   d="m 694.5,420.5 c 1.9,0 1.9,-3 0,-3 -1.9,0 -1.9,3 0,3 z"
   style="fill:#161616"
   id="path309" />
		</g>
	</g><g
   id="g313">
		<g
   id="g312">
			<path
   d="m 705.1,419.1 c 1.9,0 1.9,-3 0,-3 -1.9,0 -1.9,3 0,3 z"
   style="fill:#161616"
   id="path311" />
		</g>
	</g><g
   id="g315">
		<g
   id="g314">
			<path
   d="m 699.8,421.4 c -0.1,0.1 -0.2,0.2 -0.3,0.3 -0.6,0.6 -0.6,1.5 0,2.1 0.6,0.6 1.5,0.6 2.1,0 0.1,-0.1 0.2,-0.2 0.3,-0.3 0.6,-0.6 0.6,-1.5 0,-2.1 -0.6,-0.6 -1.5,-0.6 -2.1,0 z"
   style="fill:#161616"
   id="path313" />
		</g>
	</g><path
   d="m 692.6,324.4 c -6,3.7 -19.1,11.8 -28,28.4 -8.9,16.5 -8.8,32.1 -8.4,38.8 -14.6,26.3 -21.2,49.5 -24.4,65.3 -5.2,25.1 -2.4,34.3 1.2,40.4 8.8,15 26.5,18.7 30.8,19.6 22.1,4.7 39.7,-6.6 43.7,-9.2 1.1,-3.3 2.2,-7.4 2.8,-12 1.1,-7.9 0.5,-14.7 -0.4,-19.6 -5,-4.1 -10.8,-9.6 -16.4,-16.8 -8.5,-11 -13.3,-21.8 -16,-29.6 -8.8,-0.9 -15.4,-6.9 -16,-13.6 -0.6,-6.3 3.8,-14.4 9.6,-14.4 4.3,0 7.4,4.4 8,5.2 3.3,-1.9 7.9,-5.2 12,-10.4 5.9,-7.5 6.9,-14.2 9.6,-21.2 2.6,-6.8 7.6,-16.2 18.4,-26 10.4,3.7 18.7,7.3 24.4,10 18.3,8.5 28.7,13.5 36.8,24.4 4.5,6 6.8,11.9 8,15.6 9.3,-7.1 13.1,-5.2 13.9,-4.8 5.9,3.3 5.7,21.4 -3.5,26.4 -3.5,1.9 -7.5,1.4 -10,0.8 -2.9,10.1 -9.3,26.6 -24,41.2 -4.9,4.9 -9.9,8.7 -14.4,11.6 -0.4,3.7 -0.6,8.8 0.4,14.8 0.9,5.5 2.5,10 4,13.2 24.3,16 54.5,13.1 70.9,-4.1 14.6,-15.4 14.6,-38.7 9.1,-54.6 -5,-14.5 -14.7,-23.2 -19.5,-27 1.3,-5.6 8.5,-38.8 -12.4,-69.3 -5.4,-7.9 -20.5,-27 -47.7,-33.6 -28.8,-7 -52.5,4.4 -62.5,10.5 z"
   style="fill:#091a3e;fill-opacity:1"
   id="path315" /><path
   d="m 754,365.5 c 11.3,14.2 14.3,27.3 15.3,34.1 4.1,28.6 -12.5,51.8 -20.9,63.7 -6.9,9.7 -14,16.6 -19.1,21.1 4.4,11.8 8.7,23.5 13.1,35.3 4.5,-1.5 9,-3 13.5,-4.5 -2.1,-3.7 -4.3,-8.3 -6,-13.9 -3.1,-10 -3.3,-18.8 -3,-24.8 5.5,-3.9 11.9,-9.2 18.1,-16.2 12.4,-14 18.6,-28.4 21.8,-38.1 2,0.4 6.3,0.9 10.4,-1.4 8.6,-4.9 7.2,-17.1 7.1,-17.9 -0.3,-2.6 -0.9,-6.8 -3.9,-8.5 -3.5,-1.9 -9.3,-0.1 -13.9,5.3 -1.4,-4.9 -5.4,-16.2 -16.2,-25.2 -6,-5 -12.1,-7.6 -16.3,-9 z"
   style="opacity:0.17;fill:#6d6c6c"
   id="path316" /><path
   d="m 724.7,389.9 c -0.6,-0.1 -2.6,8.6 -8.7,47 3.5,0 7,0 10.5,0 -0.7,-5.1 -1.5,-12.5 -1.9,-21.5 -0.5,-15.4 0.7,-25.4 0.1,-25.5 z"
   style="opacity:0.19;fill:#6d6c6c"
   id="path317" /><path
   d="m 812.6,417.8 c -1.7,1 4.7,9.6 3.8,22.4 -0.3,4 -0.9,13.1 -8.1,19.2 -0.5,0.4 -11.2,9.2 -21.8,3.6 -6.3,-3.3 -10.1,-10.3 -9.9,-17.9 -3,5.6 -7.9,13 -15.6,20.2 -4.8,4.5 -9.5,7.8 -13.6,10.3 -0.3,4.4 -0.3,10.4 1.3,17.2 0.9,3.7 2,6.9 3.1,9.5 3.1,2 7.7,4.7 13.7,6.8 3.8,1.3 24.7,8.6 45.1,-1.5 3.6,-1.8 11.6,-5.9 17.4,-14.7 0.7,-1.1 3.3,-5 5.2,-11.6 6.8,-22.6 -3.2,-43 -4.1,-44.7 -5.5,-11.1 -14.4,-20 -16.5,-18.8 z"
   style="opacity:0.54;fill:#091a3e;fill-opacity:1"
   id="path318" /><path
   d="m 675.4,430.1 c -0.9,0.1 1.1,8.3 -1.1,16.4 -1.6,6 -6.7,15.8 -15.4,17.8 -9.1,2 -20.4,-4.7 -25.6,-17.2 -2.4,5.5 -5.6,14.3 -6.1,25.5 -0.3,7.3 -0.7,15.1 2.9,22.8 8.1,17.2 31.9,23.9 49.6,22.3 11.8,-1.1 20.7,-5.7 25.5,-8.8 1.2,-3.4 2.4,-7.5 3.2,-12.2 1.3,-8.1 1,-15.2 0.3,-20.4 -7.9,-5.7 -13.3,-11.6 -16.7,-15.9 -4.8,-6.1 -11.3,-14.3 -14.6,-25.7 -0.5,-1.3 -1.4,-4.7 -2,-4.6 z"
   style="opacity:0.35;fill:#091a3e;fill-opacity:1"
   id="path319" />
</svg>
