<?xml version="1.0" encoding="UTF-8" standalone="no"?>
<svg
   version="1.1"
   x="0px"
   y="0px"
   viewBox="0 0 1600 1200"
   xml:space="preserve"
   width="1600"
   height="1200"
   id="svg449"
   xmlns="http://www.w3.org/2000/svg"
   xmlns:svg="http://www.w3.org/2000/svg"><defs
   id="defs449" />

<g
   id="ground">
	<g
   id="g2">
		<g
   id="g1">
			<path
   d="m 346.7,1006.3 c 35.5,0 71,0 106.5,0 1.9,0 1.9,-3 0,-3 -35.5,0 -71,0 -106.5,0 -1.9,0 -1.9,3 0,3 z"
   style="fill:#161616"
   id="path1" />
		</g>
	</g>
	<g
   id="g4">
		<g
   id="g3">
			<path
   d="m 459.6,1035.3 c 75.3,0 150.5,0 225.8,0 1.9,0 1.9,-3 0,-3 -75.3,0 -150.5,0 -225.8,0 -1.9,0 -1.9,3 0,3 z"
   style="fill:#161616"
   id="path2" />
		</g>
	</g>
	<g
   id="g6">
		<g
   id="g5">
			<path
   d="m 746.7,1007.9 c 73.5,0 146.9,0 220.4,0 73.1,0 146.3,0 219.4,0 41.6,0 83.1,0 124.7,0 1.9,0 1.9,-3 0,-3 -73.5,0 -146.9,0 -220.4,0 -73.1,0 -146.3,0 -219.4,0 -41.6,0 -83.1,0 -124.7,0 -1.9,0 -1.9,3 0,3 z"
   style="fill:#161616"
   id="path4" />
		</g>
	</g>
	<g
   id="g8">
		<g
   id="g7">
			<path
   d="m 1072.5,986.9 c 85.4,0 170.8,0 256.2,0 24.3,0 48.5,0 72.8,0 1.9,0 1.9,-3 0,-3 -85.4,0 -170.8,0 -256.2,0 -24.3,0 -48.5,0 -72.8,0 -1.9,0 -1.9,3 0,3 z"
   style="fill:#161616"
   id="path6" />
		</g>
	</g>
	<g
   id="g10">
		<g
   id="g9">
			<path
   d="m 1241.9,1040.1 c 75.6,0 151.3,0 226.9,0 21.7,0 43.3,0 65,0 1.9,0 1.9,-3 0,-3 -75.6,0 -151.3,0 -226.9,0 -21.7,0 -43.3,0 -65,0 -2,0 -2,3 0,3 z"
   style="fill:#161616"
   id="path8" />
		</g>
	</g>
</g>
<g
   id="background">
	<g
   id="g12">
		<g
   id="g11">
			<path
   d="m 1259,78.1 c 20.3,9.9 26.7,33.3 29,54 3.1,27.8 2.4,56.5 2.2,84.4 -0.4,61 -4,122 -7.3,182.9 -6.5,121.7 -13.1,243.4 -19.6,365.1 -3.7,68.5 -7.4,137 -11,205.5 -0.1,1.9 2.9,1.9 3,0 6.7,-124.4 13.4,-248.8 20,-373.1 3.3,-61.9 6.6,-123.7 10,-185.6 3.3,-61.6 7.1,-123.2 7.9,-184.9 0.2,-17.2 0.2,-34.4 -0.2,-51.7 -0.3,-14.7 -0.4,-29.5 -2.1,-44.1 -2.6,-21.3 -9.5,-45.1 -30.3,-55.2 -1.8,-0.7 -3.3,1.9 -1.6,2.7 z"
   style="fill:#e8e8e8"
   id="path10" />
		</g>
	</g>
	<g
   id="g14">
		<g
   id="g13">
			<path
   d="m 1206.5,58.3 c 22.8,3.8 44.2,12.6 63.1,25.8 1.6,1.1 3.1,-1.5 1.5,-2.6 -19.1,-13.3 -40.9,-22.2 -63.8,-26.1 -1.9,-0.4 -2.7,2.5 -0.8,2.9 z"
   style="fill:#e8e8e8"
   id="path12" />
		</g>
	</g>
	<g
   id="g16">
		<g
   id="g15">
			<path
   d="m 1118,29.1 c 31.1,3.2 64.6,7.3 88.5,29.6 1.4,1.3 3.5,-0.8 2.1,-2.1 -24.5,-22.9 -58.6,-27.2 -90.6,-30.5 -2,-0.2 -1.9,2.8 0,3 z"
   style="fill:#e8e8e8"
   id="path14" />
		</g>
	</g>
	<g
   id="g18">
		<g
   id="g17">
			<path
   d="m 1205.8,58.8 c -4.3,32 -22,61.5 -48.3,80.2 -1.6,1.1 -0.1,3.7 1.5,2.6 27.3,-19.5 45.4,-49.6 49.8,-82.8 0.3,-1.9 -2.7,-1.9 -3,0 z"
   style="fill:#e8e8e8"
   id="path16" />
		</g>
	</g>
	<g
   id="g20">
		<g
   id="g19">
			<path
   d="m 1116.1,27.4 c 26.2,31.8 40.3,72.5 39.5,113.7 0,1.9 3,1.9 3,0 0.7,-42 -13.7,-83.4 -40.4,-115.8 -1.2,-1.5 -3.3,0.6 -2.1,2.1 z"
   style="fill:#e8e8e8"
   id="path18" />
		</g>
	</g>
	<g
   id="g22">
		<g
   id="g21">
			<path
   d="m 1131.8,62.3 c -12,-0.8 -23.1,14.3 -17.3,25.5 4.3,8.3 20.6,12.7 26.3,3.7 1,-1.6 -1.6,-3.1 -2.6,-1.5 -4.5,7.2 -18.5,2.3 -21.2,-4.2 -4,-9.4 5.2,-21.2 14.9,-20.5 1.8,0.1 1.8,-2.9 -0.1,-3 z"
   style="fill:#e8e8e8"
   id="path20" />
		</g>
	</g>
	<g
   id="g24">
		<g
   id="g23">
			<path
   d="m 1115.3,26.8 c 1.1,14 3.3,27.9 6.7,41.5 0.5,1.9 3.4,1.1 2.9,-0.8 -3.3,-13.4 -5.5,-27 -6.6,-40.7 -0.2,-1.9 -3.2,-1.9 -3,0 z"
   style="fill:#e8e8e8"
   id="path22" />
		</g>
	</g>
	<g
   id="g26">
		<g
   id="g25">
			<path
   d="m 1134,96.9 c 6.6,15 13.2,30 19.7,45 0.8,1.8 3.4,0.2 2.6,-1.5 -6.6,-15 -13.2,-30 -19.7,-45 -0.7,-1.7 -3.3,-0.2 -2.6,1.5 z"
   style="fill:#e8e8e8"
   id="path24" />
		</g>
	</g>
	<g
   id="g28">
		<g
   id="g27">
			<path
   d="m 1134.8,95.6 c 3.9,11.2 7.9,22.4 14,32.7 1,1.7 3.5,0.2 2.6,-1.5 -5.4,-10.1 -9.3,-20.7 -11.8,-31.8 -0.8,0.5 -1.7,1 -2.5,1.5 0.1,0.1 0.1,0.1 0.2,0.2 -0.1,-0.6 -0.2,-1.2 -0.2,-1.8 -0.1,0.1 -0.1,0.2 -0.2,0.3 0.8,-0.1 1.6,-0.2 2.4,-0.3 -0.1,-0.2 8.8,-8.3 9.4,-8.8 -0.8,-0.2 -1.7,-0.4 -2.5,-0.7 2.1,9.1 3.5,18.3 4.4,27.6 1,-0.1 2,-0.3 2.9,-0.4 -1.7,-6.5 -3.9,-12.9 -6.5,-19.1 -0.7,-1.7 -3.3,-1.1 -2.9,0.8 1.7,8.1 3.3,16.2 5,24.4 1,-0.3 1.9,-0.5 2.9,-0.8 -2.2,-6.8 -4.6,-13.4 -7.3,-20 -0.7,-1.8 -3.4,-1.1 -2.9,0.8 2,7.5 4,15.1 6,22.6 0.9,-0.4 1.8,-0.8 2.7,-1.2 -2.8,-6.5 -5.5,-13 -8.3,-19.6 -0.7,-1.5 -3.3,-0.4 -2.7,1.2 4,10.8 8,21.6 11.8,32.5 0.6,1.8 3.4,1.1 2.9,-0.8 -1.5,-5.3 -2.6,-10.7 -3.1,-16.2 -1,0.1 -2,0.3 -2.9,0.4 1.8,6.2 3.6,12.4 5.4,18.6 0.5,1.9 3.3,1.1 2.9,-0.8 -1.6,-7 -2.7,-14.1 -3.4,-21.3 -1,0.1 -2,0.3 -2.9,0.4 1.3,7.3 2.5,14.6 4.3,21.8 0.4,1.6 3.1,1.3 2.9,-0.4 -0.8,-9 -2.3,-17.9 -4.5,-26.7 -0.5,-1.9 -3.3,-1.1 -2.9,0.8 0.7,3.1 0.7,6.1 0.3,9.3 0.9,-0.3 1.9,-0.5 2.8,-0.8 -2.5,-4.3 -4.1,-8.7 -4.7,-13.6 -0.2,-1.5 -1.9,-2.1 -2.8,-0.8 -0.7,1 -1.3,2 -2,3 0.9,0 1.7,0 2.6,0 -1.3,-3 -1.8,-5.8 -1.7,-9.1 -1,0 -2,0 -3,0 -0.2,0.7 -0.4,1.4 -0.6,2.1 0.8,0.2 1.7,0.4 2.5,0.7 -0.5,-2.6 -0.5,-4.6 -0.3,-7.1 -1,0.1 -2,0.3 -2.9,0.4 -0.2,1.1 -0.3,2.2 -0.5,3.3 0.9,0 1.7,0 2.6,0 0.4,-1.4 0.9,-2.8 1.3,-4.2 -0.7,-0.3 -1.5,-0.6 -2.2,-0.9 -0.5,1.6 -1,3.2 -1.5,4.8 0.8,0.5 1.7,1 2.5,1.5 0.7,-3.2 2.1,-5.5 4.5,-7.8 -0.8,-0.2 -1.7,-0.4 -2.5,-0.7 0.4,2.7 0.1,4.9 -0.8,7.5 1,0.1 2,0.3 2.9,0.4 0,-2.2 0.3,-4.1 1.1,-6.2 -1,-0.1 -2,-0.3 -2.9,-0.4 0,1.8 0.1,3.6 0.1,5.4 0,1.6 2.7,2.1 2.9,0.4 0.3,-1.8 0.6,-3.6 0.9,-5.4 -1,0 -1.9,0 -2.9,0 0,1 -0.1,2 -0.1,3.1 -0.8,1.8 1.8,3.3 2.6,1.5 0.9,-2 1.1,-3.2 0.4,-5.4 -0.4,-1.3 -2.6,-1.5 -2.9,0 -0.3,1.8 -0.6,3.6 -0.9,5.4 1,0.1 2,0.3 2.9,0.4 0,-1.8 -0.1,-3.6 -0.1,-5.4 0,-1.7 -2.4,-2 -2.9,-0.4 -0.9,2.4 -1.2,4.5 -1.2,7 0,1.7 2.4,2 2.9,0.4 1.1,-3.1 1.3,-5.8 0.8,-9.1 -0.2,-1.2 -1.8,-1.3 -2.5,-0.7 -2.7,2.5 -4.4,5.5 -5.3,9.1 -0.3,1.4 1.4,2.6 2.5,1.5 2.1,-2.3 2.8,-4.6 2.2,-7.7 -0.2,-0.9 -1.5,-1.4 -2.2,-0.9 -3,2 -3.8,5 -2.4,8.3 0.5,1.1 2,0.8 2.6,0 1.3,-1.9 1.5,-3.5 0.8,-5.6 -0.6,-1.7 -2.8,-1.3 -2.9,0.4 -0.3,2.7 -0.1,5.2 0.4,7.9 0.2,1.1 1.8,1.4 2.5,0.7 1.2,-1.3 1.7,-2.3 1.5,-4.2 -0.2,-1.9 -3,-2 -3,0 -0.1,3.8 0.6,7.1 2.1,10.6 0.5,1.1 2,0.8 2.6,0 0.7,-1 1.3,-2 2,-3 -0.9,-0.3 -1.9,-0.5 -2.8,-0.8 0.7,5.5 2.3,10.4 5.1,15.1 0.8,1.4 2.6,0.6 2.8,-0.8 0.5,-3.5 0.3,-6.6 -0.4,-10.1 -1,0.3 -1.9,0.5 -2.9,0.8 2.2,8.5 3.6,17.2 4.4,25.9 1,-0.1 2,-0.3 2.9,-0.4 -1.7,-7.2 -3,-14.5 -4.3,-21.8 -0.3,-1.7 -3.1,-1.3 -2.9,0.4 0.7,7.5 1.8,14.8 3.5,22.1 1,-0.3 1.9,-0.5 2.9,-0.8 -1.8,-6.2 -3.6,-12.4 -5.4,-18.6 -0.5,-1.6 -3.1,-1.3 -2.9,0.4 0.6,5.8 1.6,11.4 3.2,17 1,-0.3 1.9,-0.5 2.9,-0.8 -3.9,-10.9 -7.8,-21.7 -11.8,-32.5 -0.9,0.4 -1.8,0.8 -2.7,1.2 2.8,6.5 5.5,13 8.3,19.6 0.7,1.6 3.2,0.4 2.7,-1.2 -2,-7.5 -4,-15.1 -6,-22.6 -1,0.3 -1.9,0.5 -2.9,0.8 2.6,6.6 5,13.3 7.3,20 0.6,1.8 3.3,1.1 2.9,-0.8 -1.7,-8.1 -3.3,-16.2 -5,-24.4 -1,0.3 -1.9,0.5 -2.9,0.8 2.6,6.2 4.8,12.6 6.5,19.1 0.4,1.6 3.1,1.3 2.9,-0.4 -0.9,-9.6 -2.4,-19 -4.5,-28.4 -0.3,-1.1 -1.7,-1.4 -2.5,-0.7 -2.8,2.6 -7.7,5.7 -9.6,9.1 -0.9,1.7 -0.9,2.6 0.2,3.9 0.7,0.8 1.8,0.4 2.4,-0.3 0.1,-0.1 0.1,-0.2 0.2,-0.3 0.4,-0.5 0.2,-1.4 -0.2,-1.8 -0.1,-0.1 -0.1,-0.1 -0.2,-0.2 -1.1,-1.1 -2.8,0 -2.5,1.5 2.5,11.4 6.5,22.3 12.1,32.5 0.9,-0.5 1.7,-1 2.6,-1.5 -5.9,-10.1 -9.9,-21 -13.7,-32 -0.8,-1.7 -3.7,-0.9 -3,0.9 z"
   style="fill:#e8e8e8"
   id="path26" />
		</g>
	</g>
	<g
   id="g30">
		<g
   id="g29">
			<path
   d="m 1116.9,31.1 c 2.9,10.7 5,21.5 6.4,32.4 0.1,1.1 1.2,1.9 2.3,1.3 3.3,-1.8 6.6,-3.1 10.3,-4 0.9,-0.2 1.4,-1.4 0.9,-2.2 -4.6,-6.9 -8.9,-14 -12.9,-21.2 -0.9,-1.7 -3.4,-0.2 -2.6,1.5 2.7,5.9 4.8,12 6.5,18.2 0.9,-0.4 1.8,-0.8 2.7,-1.2 -2.3,-4.4 -3.9,-8.9 -4.9,-13.8 -0.9,0.4 -1.8,0.8 -2.7,1.2 3.7,5.4 5.7,11.3 6,17.8 0.9,-0.4 1.7,-0.7 2.6,-1.1 -2.3,-2.1 -3.6,-4.4 -4.3,-7.5 -0.7,0.6 -1.5,1.1 -2.2,1.7 2.1,1.6 2.8,3.4 2.3,5.5 0.9,-0.3 1.9,-0.5 2.8,-0.8 -2.5,-3.3 -4.5,-6.8 -6.3,-10.5 -0.7,0.7 -1.4,1.4 -2.1,2.1 2.8,1.8 6.5,19.7 13.6,11.6 2.6,-3 1.1,-6.8 -0.6,-9.9 -2.8,-5.2 -6.3,-10 -9.9,-14.6 -1.1,-1.4 -3.2,0.4 -2.4,1.8 3.9,6.7 6.8,13.7 8.7,21.2 0.9,-0.4 1.8,-0.8 2.7,-1.2 -0.4,-0.9 -0.8,-1.7 -1.2,-2.6 -0.7,0.7 -1.4,1.4 -2.1,2.1 0,-0.1 0,-0.1 0,-0.2 -0.6,0.5 -1.3,1 -1.9,1.4 1.3,0.5 2.7,1 4,1.5 1.8,0.7 2.6,-2.2 0.8,-2.9 -1.3,-0.5 -2.7,-1 -4,-1.5 -0.9,-0.4 -1.9,0.6 -1.9,1.4 -0.1,7.9 11.1,1.6 4.5,-2.4 -1.4,-0.8 -2.7,0.8 -2.1,2.1 0.4,0.9 0.8,1.7 1.2,2.6 0.7,1.6 3.1,0.4 2.7,-1.2 -2,-7.8 -4.9,-15 -9,-21.9 -0.8,0.6 -1.6,1.2 -2.4,1.8 2.2,2.9 4.3,5.8 6.3,8.8 0.8,1.2 1.6,2.4 2.3,3.7 0.6,0.9 1.1,1.9 1.5,2.9 1.6,2.1 0.4,3.3 -3.7,3.5 -1.4,-1.1 -1.6,-4.8 -2.2,-6.4 -0.8,-2 -1.8,-3.3 -3.6,-4.4 -1.4,-0.8 -2.6,0.8 -2.1,2.1 1.8,3.8 3.8,7.2 6.3,10.5 0.9,1.2 2.6,0.8 2.8,-0.8 0.4,-3.5 -0.9,-6.1 -3.8,-8.1 -1.1,-0.8 -2.5,0.5 -2.2,1.7 0.8,3.5 2.5,6.4 5.1,8.8 0.9,0.8 2.6,0.3 2.6,-1.1 -0.3,-7.1 -2.5,-13.5 -6.4,-19.3 -1,-1.4 -3.1,-0.5 -2.7,1.2 1.1,5.1 2.8,9.9 5.2,14.5 0.8,1.5 3.2,0.5 2.7,-1.2 -1.7,-6.5 -4,-12.8 -6.8,-18.9 -0.9,0.5 -1.7,1 -2.6,1.5 4,7.3 8.3,14.3 12.9,21.2 0.3,-0.7 0.6,-1.5 0.9,-2.2 -3.9,0.9 -7.5,2.3 -11,4.3 0.8,0.4 1.5,0.9 2.3,1.3 -1.4,-11.2 -3.5,-22.3 -6.5,-33.2 -0.4,-1.6 -3.3,-0.8 -2.8,1.1 z"
   style="fill:#e8e8e8"
   id="path28" />
		</g>
	</g>
	<g
   id="g32">
		<g
   id="g31">
			<path
   d="m 1117,82.1 c -2.3,-5.7 3.2,-11 7.6,-13.6 4.3,-2.6 9.1,-3.5 14.1,-3.2 1.4,0.1 1.8,-1.6 1.1,-2.6 -0.9,-1.1 -1.7,-2.2 -2.6,-3.3 -0.8,-1 -2.7,-0.2 -2.6,1.1 -0.3,-2 -3.1,-0.8 -4.4,-0.8 -4.8,-0.1 -2.9,-1 -3.1,-3.7 -0.4,-3.3 -2.3,-6.7 -3.1,-9.9 -1.2,-4.7 -1.8,-9.4 -2.2,-14.2 -0.1,-1.9 -3.1,-1.9 -3,0 0.4,5.7 1.2,11.3 2.7,16.8 0.7,2.4 2.4,5.4 2.1,7.9 -0.1,1.1 -0.9,1.9 -0.9,3 0.1,2.3 2.4,3.7 4.5,3.7 2.3,0 4.6,-0.5 7,-0.4 1.3,0.1 1.5,0.4 2.7,-0.4 0.4,-0.3 0.8,-0.8 0.7,-1.3 0,-0.2 -0.1,-0.5 -0.1,-0.7 -0.9,0.4 -1.7,0.7 -2.6,1.1 0.9,1.1 1.7,2.2 2.6,3.3 0.4,-0.9 0.7,-1.7 1.1,-2.6 -9.8,-0.6 -29.9,7.5 -24.6,20.6 0.8,1.8 3.7,1 3,-0.8 z"
   style="fill:#e8e8e8"
   id="path30" />
		</g>
	</g>
	<g
   id="g34">
		<g
   id="g33">
			<path
   d="m 1122.7,65.3 c -4.4,3.6 -7.8,8.7 -8.5,14.5 -0.6,5.1 2.5,9.6 6.3,12.8 10.2,8.7 21.1,-1 27.5,-9.2 1.2,-1.5 -0.9,-3.6 -2.1,-2.1 -5.2,6.7 -14.3,16.5 -23.2,9.2 -3.9,-3.2 -6.3,-7.6 -5,-12.7 1.1,-4.2 3.8,-7.7 7.2,-10.4 1.5,-1.2 -0.7,-3.3 -2.2,-2.1 z"
   style="fill:#e8e8e8"
   id="path32" />
		</g>
	</g>
	<g
   id="g36">
		<g
   id="g35">
			<path
   d="m 1152.6,102.3 c 0,-0.1 0,-0.2 -0.1,-0.3 -0.2,0.6 -0.5,1.1 -0.7,1.7 0.1,-0.1 0.2,-0.1 0.3,-0.2 -0.7,-0.2 -1.4,-0.4 -2.1,-0.5 1.4,2.2 1.4,6.2 1.8,8.7 0.5,3.3 1,6.7 1.4,10 0.6,5.7 0.9,11.4 1.1,17.2 0,1.9 3,1.9 3,0 -0.2,-7 -0.6,-14 -1.5,-21 -0.3,-2.7 -0.7,-5.3 -1.2,-8 -0.4,-2.7 -0.5,-6.2 -2,-8.5 -0.4,-0.7 -1.3,-0.9 -2.1,-0.5 -0.1,0.1 -0.2,0.1 -0.3,0.2 -0.6,0.3 -0.9,1.1 -0.7,1.7 0,0.1 0,0.2 0.1,0.3 0.6,1.9 3.5,1.1 3,-0.8 z"
   style="fill:#e8e8e8"
   id="path34" />
		</g>
	</g>
	<g
   id="g38">
		<g
   id="g37">
			<path
   d="m 1117.9,31.7 c 3.5,4.4 6.1,9.3 7.8,14.7 0.6,1.8 3.5,1 2.9,-0.8 -1.9,-5.9 -4.7,-11.2 -8.6,-16 -1.1,-1.6 -3.3,0.6 -2.1,2.1 z"
   style="fill:#e8e8e8"
   id="path36" />
		</g>
	</g>
	<g
   id="g40">
		<g
   id="g39">
			<path
   d="m 1037.2,47.1 c 13.7,3.9 27.5,7.3 41.5,10.1 1.9,0.4 2.7,-2.5 0.8,-2.9 -14,-2.8 -27.8,-6.2 -41.5,-10.1 -1.8,-0.6 -2.6,2.3 -0.8,2.9 z"
   style="fill:#e8e8e8"
   id="path38" />
		</g>
	</g>
	<g
   id="g42">
		<g
   id="g41">
			<path
   d="m 1002.2,93.8 c 26.2,-2.1 52.1,-7 77.4,-14.6 1.8,-0.6 1.1,-3.5 -0.8,-2.9 -25,7.5 -50.6,12.4 -76.6,14.4 -1.9,0.2 -1.9,3.2 0,3.1 z"
   style="fill:#e8e8e8"
   id="path40" />
		</g>
	</g>
	<g
   id="g44">
		<g
   id="g43">
			<path
   d="m 1097.4,95.3 c -6,3.7 -11.6,7.9 -16.9,12.5 -1.5,1.3 0.7,3.4 2.1,2.1 5.1,-4.4 10.6,-8.4 16.3,-12 1.7,-1 0.2,-3.6 -1.5,-2.6 z"
   style="fill:#e8e8e8"
   id="path42" />
		</g>
	</g>
	<g
   id="g46">
		<g
   id="g45">
			<path
   d="m 1099.3,127.4 c -21.4,18.5 -42.9,37 -64.3,55.5 -1.5,1.3 0.7,3.4 2.1,2.1 21.4,-18.5 42.9,-37 64.3,-55.5 1.5,-1.2 -0.6,-3.4 -2.1,-2.1 z"
   style="fill:#e8e8e8"
   id="path44" />
		</g>
	</g>
	<g
   id="g48">
		<g
   id="g47">
			<path
   d="m 1107.4,150.2 c -6.5,12.4 -13.1,24.9 -19.6,37.3 -0.9,1.7 1.7,3.2 2.6,1.5 6.5,-12.4 13.1,-24.9 19.6,-37.3 0.9,-1.7 -1.7,-3.2 -2.6,-1.5 z"
   style="fill:#e8e8e8"
   id="path46" />
		</g>
	</g>
	<g
   id="g50">
		<g
   id="g49">
			<path
   d="m 1125,157.2 c -3.3,19.5 -5.3,39.2 -6.1,59 -0.1,1.9 2.9,1.9 3,0 0.8,-19.5 2.8,-39 6,-58.2 0.3,-1.9 -2.6,-2.7 -2.9,-0.8 z"
   style="fill:#e8e8e8"
   id="path48" />
		</g>
	</g>
	<g
   id="g52">
		<g
   id="g51">
			<path
   d="m 1214.6,61.3 c 25.6,-3.4 48.7,13.3 61.3,34.5 14.9,25 15.4,55.9 14.7,84.2 -1.5,64.1 -4.2,128.1 -6.8,192.1 -5.2,128.9 -11.7,257.8 -19.3,386.7 -4.3,72.4 -9,144.7 -14.1,217.1 -0.3,3.9 5.7,3.8 6,0 9.3,-132.1 17.3,-264.2 24,-396.4 6.7,-131.9 12.6,-263.9 16.2,-395.9 0.8,-30.9 0.6,-64.8 -16.2,-92 -13.7,-22.2 -38.6,-39.8 -65.7,-36.2 -3.9,0.4 -3.9,6.4 -0.1,5.9 z"
   style="fill:#e8e8e8"
   id="path50" />
		</g>
	</g>
	<g
   id="g54">
		<g
   id="g53">
			<path
   d="m 1209.2,60 c 7.2,0.2 14.4,0.3 21.4,1.9 7.3,1.7 12.9,5.8 19.4,9.1 1.7,0.9 3.2,-1.7 1.5,-2.6 -6.8,-3.4 -12.6,-7.6 -20.1,-9.4 -7.3,-1.7 -14.8,-1.9 -22.2,-2.1 -1.9,0 -1.9,3 0,3.1 z"
   style="fill:#e8e8e8"
   id="path52" />
		</g>
	</g>
	<g
   id="g56">
		<g
   id="g55">
			<path
   d="m 1209.2,62 c 21.4,2.1 41.7,9.9 59.1,22.6 1.6,1.1 3.1,-1.5 1.5,-2.6 -17.9,-12.9 -38.7,-20.8 -60.6,-23 -1.9,-0.2 -1.9,2.8 0,3 z"
   style="fill:#e8e8e8"
   id="path54" />
		</g>
	</g>
	<g
   id="g58">
		<g
   id="g57">
			<path
   d="m 1204.9,55 c 9.4,1.8 18.6,4.2 27.6,7 1.8,0.6 2.6,-2.3 0.8,-2.9 -9.1,-2.9 -18.3,-5.2 -27.6,-7 -1.9,-0.4 -2.7,2.5 -0.8,2.9 z"
   style="fill:#e8e8e8"
   id="path56" />
		</g>
	</g>
	<g
   id="g60">
		<g
   id="g59">
			<path
   d="m 1207.1,54.7 c 11.7,1.3 23.1,3.8 34.2,7.4 1.8,0.6 2.6,-2.3 0.8,-2.9 -11.4,-3.7 -23.1,-6.2 -35,-7.5 -1.9,-0.2 -1.9,2.8 0,3 z"
   style="fill:#e8e8e8"
   id="path58" />
		</g>
	</g>
	<g
   id="g62">
		<g
   id="g61">
			<path
   d="m 1170.3,37.4 c 15.4,5.4 30.1,12.2 44.1,20.4 1.7,1 3.2,-1.6 1.5,-2.6 -14.3,-8.4 -29.3,-15.3 -44.9,-20.7 -1.7,-0.6 -2.5,2.3 -0.7,2.9 z"
   style="fill:#e8e8e8"
   id="path60" />
		</g>
	</g>
	<g
   id="g64">
		<g
   id="g63">
			<path
   d="m 1166.1,36.4 c 15.7,5.8 30.8,12.8 45.3,21.1 1.7,1 3.2,-1.6 1.5,-2.6 -14.8,-8.4 -30.1,-15.5 -46.1,-21.4 -1.7,-0.6 -2.5,2.3 -0.7,2.9 z"
   style="fill:#e8e8e8"
   id="path62" />
		</g>
	</g>
	<g
   id="g66">
		<g
   id="g65">
			<path
   d="m 1189.3,110.9 c 9.1,-16 17,-32.6 23.7,-49.8 0.7,-1.8 -2.2,-2.6 -2.9,-0.8 -6.6,16.9 -14.4,33.3 -23.4,49.1 -0.9,1.6 1.7,3.1 2.6,1.5 z"
   style="fill:#e8e8e8"
   id="path64" />
		</g>
	</g>
	<g
   id="g68">
		<g
   id="g67">
			<path
   d="m 1208.9,59.9 c -1.8,3 -3.1,6.1 -4,9.5 -0.5,1.9 2.4,2.7 2.9,0.8 0.8,-3.1 2,-6 3.7,-8.8 1,-1.7 -1.6,-3.2 -2.6,-1.5 z"
   style="fill:#e8e8e8"
   id="path66" />
		</g>
	</g>
	<g
   id="g70">
		<g
   id="g69">
			<path
   d="m 432.5,574.3 c 0,4.8 0,9.6 0,14.4 0,1.9 3,1.9 3,0 0,-4.8 0,-9.6 0,-14.4 0,-1.9 -3,-1.9 -3,0 z"
   style="fill:#e8e8e8"
   id="path68" />
		</g>
	</g>
	<g
   id="g72">
		<g
   id="g71">
			<path
   d="m 434,590.8 c 70.1,0 140.2,0 210.3,0 1.9,0 1.9,-3 0,-3 -70.1,0 -140.2,0 -210.3,0 -1.9,0 -1.9,3 0,3 z"
   style="fill:#e8e8e8"
   id="path70" />
		</g>
	</g>
	<g
   id="g74">
		<g
   id="g73">
			<path
   d="m 435.6,575.3 c 69.2,0 138.5,0 207.7,0 1.9,0 1.9,-3 0,-3 -69.2,0 -138.5,0 -207.7,0 -1.9,0 -1.9,3 0,3 z"
   style="fill:#e8e8e8"
   id="path72" />
		</g>
	</g>
	<g
   id="g76">
		<g
   id="g75">
			<path
   d="m 641.7,574.9 c 0.2,4.8 0.1,9.6 -0.5,14.4 -0.2,1.9 2.8,1.9 3,0 0.6,-4.8 0.8,-9.6 0.5,-14.4 -0.1,-2 -3.1,-2 -3,0 z"
   style="fill:#e8e8e8"
   id="path74" />
		</g>
	</g>
	<g
   id="g78">
		<g
   id="g77">
			<path
   d="m 553.1,507.5 c -5.7,21.6 -2.5,43.9 2.7,65.2 0.5,1.9 3.3,1.1 2.9,-0.8 -5.1,-20.9 -8.3,-42.5 -2.7,-63.6 0.5,-1.9 -2.4,-2.7 -2.9,-0.8 z"
   style="fill:#e8e8e8"
   id="path76" />
		</g>
	</g>
	<g
   id="g80">
		<g
   id="g79">
			<path
   d="m 600.8,511.5 c 0.7,4.5 1.4,8.9 2.1,13.4 0.3,1.9 3.2,1.1 2.9,-0.8 -0.7,-4.5 -1.4,-8.9 -2.1,-13.4 -0.3,-1.9 -3.2,-1.1 -2.9,0.8 z"
   style="fill:#e8e8e8"
   id="path78" />
		</g>
	</g>
	<g
   id="g82">
		<g
   id="g81">
			<path
   d="m 604.6,525.4 c 8.1,-6.1 12.7,5.8 12.8,12 0.1,7.8 -3.6,14.8 -12.1,15.4 -1.9,0.1 -1.9,3.1 0,3 11.6,-0.7 16,-10.9 14.9,-21.3 -0.8,-8 -8.5,-18.1 -17.1,-11.6 -1.6,1.1 -0.1,3.7 1.5,2.5 z"
   style="fill:#e8e8e8"
   id="path80" />
		</g>
	</g>
	<g
   id="g84">
		<g
   id="g83">
			<path
   d="m 604,553.8 c -0.6,6 -1.7,11.8 -3.1,17.7 -0.5,1.9 2.4,2.7 2.9,0.8 1.5,-6.1 2.6,-12.2 3.3,-18.5 0.1,-2 -2.9,-1.9 -3.1,0 z"
   style="fill:#e8e8e8"
   id="path82" />
		</g>
	</g>
	<g
   id="g86">
		<g
   id="g85">
			<path
   d="m 606.7,530.1 c 3.2,-2.6 4.5,5.6 4.6,6.7 0.1,1.3 -0.1,2.7 -0.4,4 -0.8,3.1 -2.5,5.6 -4.9,7.6 -1.5,1.2 0.6,3.3 2.1,2.1 4.6,-3.8 7,-9.9 6,-15.8 -0.7,-4.4 -4.6,-10.8 -9.5,-6.7 -1.5,1.2 0.6,3.3 2.1,2.1 z"
   style="fill:#e8e8e8"
   id="path84" />
		</g>
	</g>
	<g
   id="g88">
		<g
   id="g87">
			<path
   d="m 604.2,527.6 c -0.4,7 -0.3,14 0.2,21.1 0.1,1.9 3.1,1.9 3,0 -0.5,-7 -0.6,-14 -0.2,-21.1 0.1,-2 -2.9,-2 -3,0 z"
   style="fill:#e8e8e8"
   id="path86" />
		</g>
	</g>
	<g
   id="g90">
		<g
   id="g89">
			<path
   d="m 558.1,510.9 c 12.1,3.9 24.7,4.9 37.3,3 1.9,-0.3 1.1,-3.2 -0.8,-2.9 -12.1,1.8 -24.1,0.8 -35.7,-3 -1.8,-0.6 -2.6,2.3 -0.8,2.9 z"
   style="fill:#e8e8e8"
   id="path88" />
		</g>
	</g>
	<g
   id="g92">
		<g
   id="g91">
			<path
   d="m 565,503.3 c -5.9,-3.7 1,-11.8 2,-16.5 1,-4.7 -1.7,-7 -3.5,-11 -2.6,-5.8 3.4,-10.1 4.3,-15.7 0.8,-4.9 -3.2,-9 2.2,-13 1.5,-1.1 0.1,-3.7 -1.5,-2.6 -3.3,2.4 -5.3,6.1 -4.6,10.3 0.5,3.1 1.3,4.7 -0.2,7.9 -0.7,1.6 -1.7,3 -2.5,4.6 -1,2.2 -1.9,4.5 -1.6,7 0.2,2.5 1.5,3.6 2.7,5.6 3.5,5.9 0.3,8.9 -1.7,14.5 -1.5,4.2 -1.1,8.8 2.9,11.3 1.6,1.2 3.1,-1.4 1.5,-2.4 z"
   style="fill:#e8e8e8"
   id="path90" />
		</g>
	</g>
	<g
   id="g94">
		<g
   id="g93">
			<path
   d="m 582.8,431.6 c -1.5,3.9 -3.4,8.3 -3.7,12.5 -0.3,3.8 2.5,5.9 3.4,9.3 1.1,4.1 -2.8,7.5 -3.2,11.5 -0.5,5.2 4.1,8.6 -0.4,13.6 -1.3,1.4 0.8,3.6 2.1,2.1 2.3,-2.5 3.5,-5.5 3.1,-8.9 -0.3,-2.5 -2.1,-4.6 -1.7,-7.3 0.3,-2.1 1.9,-4 2.6,-6 1.2,-3.2 0.7,-5.7 -0.9,-8.6 -3.2,-6 -0.6,-11.5 1.6,-17.4 0.7,-1.8 -2.2,-2.6 -2.9,-0.8 z"
   style="fill:#e8e8e8"
   id="path92" />
		</g>
	</g>
	<g
   id="g96">
		<g
   id="g95">
			<path
   d="m 597.6,461.4 c -4.7,4.9 -6.9,11.6 -5.6,18.4 0.4,2.2 1.5,4.4 1.6,6.7 0.2,2.9 -1.6,4.3 -2.4,6.8 -1.1,3.2 2.8,7.8 0.4,10.3 -1.3,1.4 0.8,3.5 2.1,2.1 1.5,-1.6 1.9,-3.4 1.5,-5.6 -0.4,-2.4 -1.8,-4.1 -0.8,-6.6 0.6,-1.5 1.8,-2.3 2.2,-4 0.8,-3.8 -1.2,-7.4 -1.8,-11.1 -0.9,-5.5 1.1,-10.9 4.9,-14.9 1.4,-1.4 -0.8,-3.5 -2.1,-2.1 z"
   style="fill:#e8e8e8"
   id="path94" />
		</g>
	</g>
	<g
   id="g98">
		<g
   id="g97">
			<path
   d="m 450.6,572.3 c -0.3,-3.9 -0.4,-7.7 -0.3,-11.6 -0.5,0.5 -1,1 -1.5,1.5 16.1,-1.6 32.3,-2.4 48.5,-2.6 7.8,-0.1 15.6,0 23.3,0.3 1.9,0.1 3.9,0.1 5.8,0.2 1.3,0.1 4.6,-0.4 5.8,0.3 2.9,1.7 1.7,10.9 1.8,13.8 0.1,1.9 3.1,1.9 3,0 -0.1,-4.1 0.6,-9.5 -0.5,-13.4 -0.5,-1.7 -1.1,-2.6 -2.9,-3.3 -3.6,-1.3 -9.3,-0.6 -13.1,-0.7 -4.5,-0.2 -9.1,-0.3 -13.6,-0.3 -19.4,-0.2 -38.9,0.7 -58.2,2.6 -0.8,0.1 -1.5,0.6 -1.5,1.5 -0.2,3.9 -0.1,7.7 0.3,11.6 0.2,2 3.2,2 3.1,0.1 z"
   style="fill:#e8e8e8"
   id="path96" />
		</g>
	</g>
	<g
   id="g100">
		<g
   id="g99">
			<path
   d="m 475.6,557.9 c 0,-1.8 -0.7,-5.6 0.1,-7.2 1.3,-2.9 6.7,-2.1 9.3,-2.2 5.7,-0.2 11.3,-0.5 17,-0.7 5.3,-0.2 10.6,-0.4 16,-0.6 3.4,-0.1 7.2,-1.1 8.6,2.7 0.8,2.2 0.5,5.6 0.7,7.9 0.2,1.9 3.2,1.9 3,0 -0.4,-4 0.8,-12.4 -4.4,-13.8 -2.9,-0.8 -6.9,0.1 -10,0.2 -4.7,0.2 -9.3,0.4 -14,0.6 -8.2,0.3 -17.2,-0.4 -25.2,1.1 -5.7,1 -4.1,7.7 -4.2,12 0.1,1.9 3.1,1.9 3.1,0 z"
   style="fill:#e8e8e8"
   id="path98" />
		</g>
	</g>
	<g
   id="g102">
		<g
   id="g101">
			<path
   d="m 508.2,559.8 c 1.7,4.6 2.3,9.2 1.7,14 -0.2,1.9 2.8,1.9 3,0 0.7,-5.1 0.1,-10 -1.8,-14.8 -0.7,-1.8 -3.6,-1 -2.9,0.8 z"
   style="fill:#e8e8e8"
   id="path100" />
		</g>
	</g>
	<g
   id="g104">
		<g
   id="g103">
			<path
   d="m 508.4,546.8 c 1.8,4.1 2.2,8.4 1.4,12.8 -0.4,1.9 2.5,2.7 2.9,0.8 1,-5.2 0.4,-10.2 -1.7,-15.1 -0.8,-1.8 -3.3,-0.3 -2.6,1.5 z"
   style="fill:#e8e8e8"
   id="path102" />
		</g>
	</g>
	<g
   id="g106">
		<g
   id="g105">
			<path
   d="m 519.7,545.9 c 0.7,3.6 1.4,7.3 1.8,10.9 0.2,1.9 3.2,1.9 3,0 -0.5,-3.9 -1.1,-7.9 -1.9,-11.7 -0.4,-1.9 -3.3,-1.1 -2.9,0.8 z"
   style="fill:#e8e8e8"
   id="path104" />
		</g>
	</g>
	<g
   id="g108">
		<g
   id="g107">
			<path
   d="m 524.8,560.3 c 1.5,4 1.8,8 0.9,12.1 -0.4,1.9 2.4,2.7 2.9,0.8 1.1,-4.6 0.8,-9.3 -0.9,-13.7 -0.7,-1.8 -3.6,-1 -2.9,0.8 z"
   style="fill:#e8e8e8"
   id="path106" />
		</g>
	</g>
	<g
   id="g110">
		<g
   id="g109">
			<path
   d="m 416.4,302.6 c 0,4.1 0.2,8.2 0.5,12.2 0.2,1.9 3.2,1.9 3,0 -0.4,-4.1 -0.6,-8.1 -0.5,-12.2 0,-1.9 -3,-1.9 -3,0 z"
   style="fill:#e8e8e8"
   id="path108" />
		</g>
	</g>
	<g
   id="g112">
		<g
   id="g111">
			<path
   d="m 419.2,318.1 c 72.1,0 144.1,0 216.2,0 1.9,0 1.9,-3 0,-3 -72.1,0 -144.1,0 -216.2,0 -1.9,0 -1.9,3 0,3 z"
   style="fill:#e8e8e8"
   id="path110" />
		</g>
	</g>
	<g
   id="g114">
		<g
   id="g113">
			<path
   d="m 418.8,303.7 c 72.1,0 144.1,0 216.2,0 1.9,0 1.9,-3 0,-3 -72.1,0 -144.1,0 -216.2,0 -2,0 -2,3 0,3 z"
   style="fill:#e8e8e8"
   id="path112" />
		</g>
	</g>
	<g
   id="g116">
		<g
   id="g115">
			<path
   d="m 634.4,302.6 c 0,4.7 0,9.3 0,14 0,1.9 3,1.9 3,0 0,-4.7 0,-9.3 0,-14 0,-1.9 -3,-1.9 -3,0 z"
   style="fill:#e8e8e8"
   id="path114" />
		</g>
	</g>
	<g
   id="g118">
		<g
   id="g117">
			<path
   d="m 427.4,259.4 c 3.3,14 6.6,28 10.1,41.9 0.5,1.9 3.4,1.1 2.9,-0.8 -3.5,-13.9 -6.8,-27.9 -10.1,-41.9 -0.4,-1.9 -3.3,-1.1 -2.9,0.8 z"
   style="fill:#e8e8e8"
   id="path116" />
		</g>
	</g>
	<g
   id="g120">
		<g
   id="g119">
			<path
   d="m 428.8,259.2 c 7.4,-0.2 14.7,-0.5 22,-1 3.5,-0.2 7,-0.5 10.5,-0.8 4,-0.4 8.4,-1.3 12.2,0.5 1.7,0.8 3.3,-1.8 1.5,-2.6 -6.2,-3 -13.9,-0.9 -20.5,-0.4 -8.6,0.6 -17.2,1.1 -25.9,1.3 -1.8,0 -1.8,3 0.2,3 z"
   style="fill:#e8e8e8"
   id="path118" />
		</g>
	</g>
	<g
   id="g122">
		<g
   id="g121">
			<path
   d="m 472.5,256.8 c -1.2,14.8 -3.8,29.4 -7.6,43.8 -0.5,1.9 2.4,2.7 2.9,0.8 3.9,-14.6 6.5,-29.5 7.7,-44.6 0.1,-1.9 -2.9,-1.9 -3,0 z"
   style="fill:#e8e8e8"
   id="path120" />
		</g>
	</g>
	<g
   id="g124">
		<g
   id="g123">
			<path
   d="m 437.9,255.6 c -5.8,-6.9 -10.4,-14 -13.3,-22.6 -2.5,-7.3 -3.9,-14.9 -5.3,-22.5 -0.6,0.6 -1.2,1.2 -1.8,1.8 18.4,6.3 27.6,24.2 31.2,42.2 0.4,1.9 3.3,1.1 2.9,-0.8 -3.8,-19.1 -13.9,-37.6 -33.3,-44.2 -1.2,-0.4 -2,0.8 -1.8,1.8 1.6,8.7 3.2,17.4 6.4,25.6 3,7.7 7.6,14.4 12.9,20.7 1.2,1.6 3.3,-0.5 2.1,-2 z"
   style="fill:#e8e8e8"
   id="path122" />
		</g>
	</g>
	<g
   id="g126">
		<g
   id="g125">
			<path
   d="m 446.8,236.6 c -2.6,-9.3 6.1,-16.1 11.1,-22.7 4.8,-6.3 8.7,-13.2 11.9,-20.5 -0.9,-0.1 -1.8,-0.2 -2.7,-0.4 4.9,20.1 9.6,44.2 -6,61 -1.3,1.4 0.8,3.5 2.1,2.1 16.3,-17.7 11.9,-42.7 6.7,-63.9 -0.3,-1.2 -2.2,-1.6 -2.7,-0.4 -4,9.4 -9.4,17.8 -16,25.6 -4.9,5.7 -9.4,12.1 -7.2,20 0.4,1.8 3.3,1.1 2.8,-0.8 z"
   style="fill:#e8e8e8"
   id="path124" />
		</g>
	</g>
	<g
   id="g128">
		<g
   id="g127">
			<path
   d="m 517.2,301.3 c 0,-5.7 0,-11.4 0,-17 0,-1.9 -3,-1.9 -3,0 0,5.7 0,11.4 0,17 0,2 3,2 3,0 z"
   style="fill:#e8e8e8"
   id="path126" />
		</g>
	</g>
	<g
   id="g130">
		<g
   id="g129">
			<path
   d="m 515.7,285.4 c 36.3,0 72.5,0 108.8,0 1.9,0 1.9,-3 0,-3 -36.3,0 -72.5,0 -108.8,0 -1.9,0 -1.9,3 0,3 z"
   style="fill:#e8e8e8"
   id="path128" />
		</g>
	</g>
	<g
   id="g132">
		<g
   id="g131">
			<path
   d="m 623.4,285.2 c 0,5.5 0,11.1 0,16.6 0,1.9 3,1.9 3,0 0,-5.5 0,-11.1 0,-16.6 0,-2 -3,-2 -3,0 z"
   style="fill:#e8e8e8"
   id="path130" />
		</g>
	</g>
	<g
   id="g134">
		<g
   id="g133">
			<path
   d="m 537.3,283.4 c 0,-3.3 0,-6.7 0,-10 0,-1.9 -3,-1.9 -3,0 0,3.3 0,6.7 0,10 0,2 3,2 3,0 z"
   style="fill:#e8e8e8"
   id="path132" />
		</g>
	</g>
	<g
   id="g136">
		<g
   id="g135">
			<path
   d="m 535.8,273.6 c 28.5,0 57.1,0 85.6,0 1.9,0 1.9,-3 0,-3 -28.5,0 -57.1,0 -85.6,0 -1.9,0 -1.9,3 0,3 z"
   style="fill:#e8e8e8"
   id="path134" />
		</g>
	</g>
	<g
   id="g138">
		<g
   id="g137">
			<path
   d="m 620.4,272.1 c 0,3.8 0,7.6 0,11.4 0,1.9 3,1.9 3,0 0,-3.8 0,-7.6 0,-11.4 0,-2 -3,-2 -3,0 z"
   style="fill:#e8e8e8"
   id="path136" />
		</g>
	</g>
	<g
   id="g140">
		<g
   id="g139">
			<path
   d="m 560.5,270.8 c 0,-5.2 0,-10.5 0,-15.7 0,-1.9 -3,-1.9 -3,0 0,5.2 0,10.5 0,15.7 0,1.9 3,1.9 3,0 z"
   style="fill:#e8e8e8"
   id="path138" />
		</g>
	</g>
	<g
   id="g142">
		<g
   id="g141">
			<path
   d="m 560.3,255.7 c 19.1,0 38.1,0 57.2,0 1.9,0 1.9,-3 0,-3 -19.1,0 -38.1,0 -57.2,0 -1.9,0 -1.9,3 0,3 z"
   style="fill:#e8e8e8"
   id="path140" />
		</g>
	</g>
	<g
   id="g144">
		<g
   id="g143">
			<path
   d="m 616.9,253.7 c 0,5.7 0,11.4 0,17 0,1.9 3,1.9 3,0 0,-5.7 0,-11.4 0,-17 0,-1.9 -3,-1.9 -3,0 z"
   style="fill:#e8e8e8"
   id="path142" />
		</g>
	</g>
	<g
   id="g146">
		<g
   id="g145">
			<path
   d="m 596.9,255 c 1.4,5.4 1.7,10.7 1.2,16.2 -0.2,1.9 2.8,1.9 3,0 0.6,-5.8 0.2,-11.4 -1.3,-17 -0.5,-1.9 -3.4,-1.1 -2.9,0.8 z"
   style="fill:#e8e8e8"
   id="path144" />
		</g>
	</g>
	<g
   id="g148">
		<g
   id="g147">
			<path
   d="m 605.9,255.9 c 0.5,4.4 0.7,8.7 0.5,13.1 -0.1,1.9 2.9,1.9 3,0 0.2,-4.4 0.1,-8.7 -0.5,-13.1 -0.2,-1.9 -3.2,-1.9 -3,0 z"
   style="fill:#e8e8e8"
   id="path146" />
		</g>
	</g>
	<g
   id="g150">
		<g
   id="g149">
			<path
   d="m 593.7,272.9 c 0.5,3.3 0.4,6.7 0,10.1 -0.2,1.9 2.8,1.9 3,0 0.5,-3.6 0.4,-7.2 -0.1,-10.9 -0.3,-1.9 -3.2,-1.1 -2.9,0.8 z"
   style="fill:#e8e8e8"
   id="path148" />
		</g>
	</g>
	<g
   id="g152">
		<g
   id="g151">
			<path
   d="m 601.3,272.4 c 0.6,2.7 0.4,5.3 -0.5,8 -0.6,1.8 2.3,2.6 2.9,0.8 1.1,-3.1 1.2,-6.3 0.5,-9.6 -0.4,-1.8 -3.3,-1 -2.9,0.8 z"
   style="fill:#e8e8e8"
   id="path150" />
		</g>
	</g>
	<g
   id="g154">
		<g
   id="g153">
			<path
   d="m 578.7,283.9 c 0.6,6 0.7,11.9 0.3,17.9 -0.1,1.9 2.9,1.9 3,0 0.4,-6 0.3,-11.9 -0.3,-17.9 -0.2,-1.9 -3.2,-1.9 -3,0 z"
   style="fill:#e8e8e8"
   id="path152" />
		</g>
	</g>
	<g
   id="g156">
		<g
   id="g155">
			<path
   d="m 609.5,284.3 c 0.7,5.6 0.7,11.1 -0.2,16.7 -0.3,1.9 2.6,2.7 2.9,0.8 0.9,-5.8 1.1,-11.6 0.3,-17.5 -0.2,-1.9 -3.2,-1.9 -3,0 z"
   style="fill:#e8e8e8"
   id="path154" />
		</g>
	</g>
	<g
   id="g158">
		<g
   id="g157">
			<path
   d="m 717.8,119.4 c 0,17.4 0,34.8 0,52.2 0,1.9 3,1.9 3,0 0,-17.4 0,-34.8 0,-52.2 0,-2 -3,-2 -3,0 z"
   style="fill:#e8e8e8"
   id="path156" />
		</g>
	</g>
	<g
   id="g160">
		<g
   id="g159">
			<path
   d="m 675.8,173.8 c 27.5,0 55.1,0 82.6,0 1.9,0 1.9,-3 0,-3 -27.5,0 -55.1,0 -82.6,0 -1.9,0 -1.9,3 0,3 z"
   style="fill:#e8e8e8"
   id="path158" />
		</g>
	</g>
	<g
   id="g162">
		<g
   id="g161">
			<path
   d="m 743.9,174.4 c 0,17.1 0,34.3 0,51.4 0,1.9 3,1.9 3,0 0,-17.1 0,-34.3 0,-51.4 0,-1.9 -3,-1.9 -3,0 z"
   style="fill:#e8e8e8"
   id="path160" />
		</g>
	</g>
</g>
<g
   id="cat">
	<g
   id="paw_front_right">
		<path
   d="m 1188,960.6 c -2.6,4.3 1.1,9.3 9.6,28.1 13,28.7 12.4,35.3 10.3,39.7 -3.5,7.2 -11,8.1 -10.3,11.6 1,5.1 17.5,9 23.3,2.7 2.6,-2.8 2.2,-6.7 1.4,-14.4 -3.6,-31.9 -4.3,-34.2 -5.5,-43.9 -2.1,-17.2 -1,-21.6 -5.5,-25.4 -6.7,-5.3 -19.7,-4.2 -23.3,1.6 z"
   style="fill:#161616;stroke:#161616;stroke-width:3;stroke-miterlimit:10"
   id="path162" />
	</g>
	<g
   id="leg_back_right">
		<path
   d="m 1343.6,956.2 c 7.5,-5.3 20.6,0.3 27.4,6.9 5.7,5.4 4.4,9 11,13.7 1.5,1.1 8.4,6 17.1,5.5 6.7,-0.4 8,-3.7 13,-2.7 3.5,0.6 5,2.6 11.7,8.9 10.5,10 14.4,12.3 13.7,13.7 -0.7,1.3 -4,0.6 -18.5,-1.4 -10.6,-1.5 -16.1,-2.2 -19.9,-2.4 -8.7,-0.4 -9.1,0.7 -21.9,1 -13.2,0.4 -19.9,0.4 -24.7,-2.1 -10.7,-5.6 -13.5,-18 -13.7,-19.2 -0.3,-1.6 -3.2,-16.3 4.8,-21.9 z"
   style="fill:#161616;stroke:#161616;stroke-width:3;stroke-miterlimit:10"
   id="path163" />
	</g>
	<g
   id="body">
		<path
   d="m 1198.3,918.1 c 6.5,0.2 9.3,7.8 15.1,14.4 15.1,17.4 41.4,18 63,18.5 40.8,0.9 51.8,-14.6 71.3,-4.1 10.7,5.8 20.8,17.7 20.6,30.8 -0.3,17.1 -18.2,29.2 -30.8,33.6 -11.2,3.9 -17.3,1.5 -48,-4.1 -49.4,-9.1 -59.2,-7.7 -78.1,-18.5 -10.8,-6.2 -20.5,-14.1 -26.7,-26 -2.6,-5 -6.7,-13.3 -4.8,-23.3 1.9,-10.5 10.3,-21.6 18.4,-21.3 z"
   style="fill:#161616;stroke:#161616;stroke-width:3;stroke-miterlimit:10"
   id="path164" />
	</g>
	<g
   id="tail">
		<path
   d="m 1342.2,947.6 c 2.1,-2.9 10.4,4.4 19.2,0.7 7.5,-3.2 10.9,-12.5 13,-18.5 3.9,-10.7 1.3,-14.5 5.5,-18.5 4,-3.9 7.5,-1.4 19.2,-4.8 7.9,-2.3 14.3,-4.1 17.8,-9.6 2.8,-4.4 0.8,-6.6 2.7,-17.8 0.6,-3.4 2.9,-17 6.2,-17.1 2.4,-0.1 5.3,7.1 5.5,13.7 0.1,2.7 -0.3,4.6 -4.1,17.1 -2.4,7.8 -3.6,11.7 -4.1,12.3 -4.9,6.1 -11.4,3.1 -24,8.9 -6.1,2.8 -12,5.5 -15.1,11.6 -2.8,5.6 -0.4,8.1 -3.4,16.4 -2.8,7.6 -7.3,12.1 -8.2,13 -3.3,3.3 -10,9.8 -17.8,8.2 -8.8,-1.6 -14.5,-12.7 -12.4,-15.6 z"
   style="fill:#161616;stroke:#161616;stroke-width:3;stroke-miterlimit:10"
   id="path165" />
	</g>
	<g
   id="_x3B_eg_back_left">
		<path
   d="m 1318.9,994.9 c -1.2,2.4 -4.6,9.3 -3.4,17.8 1.2,8.7 6.6,16.2 10.3,21.2 5.1,7.1 8.1,8.6 7.5,11.6 -1.1,6.6 -15.9,7.1 -15.8,10.3 0.2,3.2 15.2,4.8 26.7,4.1 8.6,-0.5 10.6,-2 11.7,-3.4 2.4,-3.4 -0.3,-7.4 -1.4,-16.4 -0.8,-6.4 -0.2,-10.9 0.7,-18.5 1.5,-12.5 3.9,-13.3 4.8,-22.6 0.7,-7.4 1.9,-19.7 -4.1,-24 -8.2,-5.8 -29.1,4.3 -37,19.9 z"
   style="fill:#161616;stroke:#161616;stroke-width:3;stroke-miterlimit:10"
   id="path166" />
	</g>
	<g
   id="paw_front_left">
		<path
   d="m 1115.4,931.8 c 1.6,8.1 10.4,13.2 23.3,18.5 13.7,5.7 52.5,21.7 59.6,11 1.8,-2.7 1.2,-6.5 0,-8.9 -3,-5.7 -11.2,-5.1 -25.4,-7.5 -12.4,-2.1 -23.9,-4 -35.6,-10.3 -10.8,-5.7 -17.2,-12.6 -20.6,-10.3 -2.4,1.7 -1.4,7 -1.3,7.5 z"
   style="fill:#161616;stroke:#161616;stroke-width:3;stroke-miterlimit:10"
   id="path167" />
		<g
   id="g169">
			<g
   id="g168">
				<path
   d="m 1099.8,896.5 c 3.1,5.2 6.9,9.9 11.4,14.1 1.4,1.3 3.5,-0.8 2.1,-2.1 -4.3,-4 -7.9,-8.5 -10.9,-13.5 -1,-1.7 -3.6,-0.2 -2.6,1.5 z"
   style="fill:#161616"
   id="path168" />
			</g>
		</g>
		<g
   id="g171">
			<g
   id="g170">
				<path
   d="m 1086.9,904 c 3.1,3.8 7.1,6.5 11.6,8.1 1.8,0.7 2.6,-2.2 0.8,-2.9 -4.1,-1.5 -7.6,-4 -10.3,-7.3 -1.2,-1.5 -3.3,0.6 -2.1,2.1 z"
   style="fill:#161616"
   id="path169" />
			</g>
		</g>
		<g
   id="g173">
			<g
   id="g172">
				<path
   d="m 1087.4,923.7 c 2.8,0.3 5.6,0.5 8.5,0.8 1.9,0.2 1.9,-2.8 0,-3 -2.8,-0.3 -5.6,-0.5 -8.5,-0.8 -1.9,-0.2 -1.9,2.8 0,3 z"
   style="fill:#161616"
   id="path171" />
			</g>
		</g>
	</g>
	<g
   id="head_1_">
		<path
   d="m 1169.5,903.7 c -3.5,1.4 -9,4 -14.4,8.9 -4.6,4.2 -9,8.2 -9.6,13.7 -1.1,10 11.1,19.5 20.6,23.3 1.7,0.7 21.8,8.3 32.9,-3.4 7.5,-8 5.8,-19.4 5.5,-21.2 -2.3,-14.9 -15.7,-21.9 -17.1,-22.6 -3.4,-4.6 -6.9,-9.1 -10.3,-13.7 -2.5,5 -5,10 -7.6,15 z"
   style="fill:#161616;stroke:#161616;stroke-width:3;stroke-miterlimit:10"
   id="path173" />
		<g
   id="g175">
			<g
   id="g174">
				<path
   d="m 1160.2,917.2 c 1.5,4.3 5.5,7.2 10.1,7.1 1.9,-0.1 1.9,-3.1 0,-3 -3.2,0.1 -6.2,-1.9 -7.2,-4.9 -0.7,-1.8 -3.6,-1 -2.9,0.8 z"
   style="fill:#ffffff"
   id="path174" />
			</g>
		</g>
		<g
   id="g177">
			<g
   id="g176">
				<path
   d="m 1145.6,924.3 c 0.9,0 1.3,0.3 1.4,1 -0.3,0.3 -0.5,0.7 -0.8,1 -0.6,0.2 -0.7,-0.1 -0.9,-0.3 -0.1,-0.1 0,-0.2 -0.1,-0.1 -0.1,0.1 -0.1,0.4 -0.2,0.6 0.6,-0.3 1.2,-0.7 1.8,-1 0.1,0.1 0.1,0.1 0,0 0.1,0 0.1,0.1 0.1,0.1 0.1,0.1 0,0.1 0,-0.1 0.1,0.1 0.1,0.1 0,0 -0.1,-0.8 -1.1,-1.2 -1.8,-1 -0.8,0.2 -1.2,1 -1,1.8 0.2,1 1,1.8 2,2.1 0.8,0.3 1.5,-0.3 1.8,-1 0.4,-0.9 0.5,-1.9 0,-2.7 -0.5,-0.9 -1.6,-1.4 -2.6,-1.1 -1,0.3 -1.5,1.4 -1.3,2.4 0.3,1 1.3,1.7 2.3,1.4 0.8,-0.2 1.3,-1 1,-1.8 -0.1,-1 -0.9,-1.5 -1.7,-1.3 z"
   style="fill:#ffffff"
   id="path175" />
			</g>
		</g>
		<g
   id="g179">
			<g
   id="g178">
				<path
   d="m 1145,926.9 c 1.5,5.1 7.5,7.6 12.1,5.2 1.7,-0.9 0.2,-3.5 -1.5,-2.6 -3,1.5 -6.8,-0.3 -7.7,-3.4 -0.5,-1.9 -3.4,-1.1 -2.9,0.8 z"
   style="fill:#ffffff"
   id="path177" />
			</g>
		</g>
	</g>
</g>
<path
   d="m 470.9,842.5 c 2.2,0.4 5.4,1 9.4,1.5 19.1,2.8 32.7,2.7 49.5,2.9 10.1,0.1 25,0.4 43.7,1.1 19.9,-1.4 39.9,-2.8 59.8,-4.3 -27.5,-2.8 -55,-5.7 -82.5,-8.5 -26.7,2.4 -53.3,4.8 -79.9,7.3 z"
   style="fill:#5222d0"
   id="path179" /><path
   d="m 529.7,904.6 c 5.7,1.2 11.4,2.4 17.1,3.6 19.8,-1.2 41.5,-4.2 64.4,-10.2 4.4,-1.1 8.7,-2.3 12.8,-3.6 -31.4,3.4 -62.8,6.8 -94.3,10.2 z"
   style="fill:#5222d0"
   id="path180" /><path
   d="m 472.2,983.5 c 0.1,8.4 0.2,16.9 0.3,25.3 46.2,5.9 92.5,11.8 138.7,17.7 0,-8.4 0,-16.9 0,-25.3 28.3,-12.6 56.5,-25.2 84.8,-37.8 -7.9,-1.2 -15.8,-2.4 -23.7,-3.6 -0.9,1.4 -1.8,2.8 -2.6,4.3 -34.3,10.6 -68.6,21.3 -102.9,31.9 -31.5,-4.2 -63.1,-8.4 -94.6,-12.5 z"
   style="fill:#5222d0"
   id="path181" /><path
   d="m 420.8,869.2 c 34.6,4.2 69.3,8.4 103.9,12.6 38.6,-2.7 77.2,-5.5 115.8,-8.2 -8.4,-2.7 -16.8,-5.3 -25.2,-8 -17.4,1.3 -34.9,2.6 -52.3,3.9 -32.9,-2.3 -65.7,-4.7 -98.6,-7 -14.5,2.2 -29.1,4.4 -43.6,6.7 z"
   style="fill:#ec615b"
   id="path182" /><path
   d="m 550.7,930.5 c 10.7,1.6 21.5,3.2 32.2,4.8 29.6,-7.7 59.1,-15.3 88.7,-23 -9.8,-1.5 -19.5,-2.9 -29.3,-4.4 -30.6,7.6 -61.1,15.1 -91.6,22.6 z"
   style="fill:#ec615b"
   id="path183" /><path
   d="m 427.6,955.9 c 45.6,6.5 91.1,13.1 136.7,19.6 14.1,-3 28.8,-6.5 44.1,-10.7 21,-5.7 40.5,-12 58.6,-18.4 -6.8,-1.2 -13.6,-2.4 -20.4,-3.6 -21.3,5.9 -42.6,11.8 -64,17.7 -37.8,-5.2 -75.6,-10.3 -113.4,-15.5 -13.8,3.7 -27.7,7.3 -41.6,10.9 z"
   style="fill:#ec615b"
   id="path184" /><g
   id="g186">
		<g
   id="g185">
			<path
   d="m 464.6,845.4 c 0,6 0,12.1 0,18.1 0,1.9 3,1.9 3,0 0,-6 0,-12.1 0,-18.1 0,-1.9 -3,-1.9 -3,0 z"
   style="fill:#161616"
   id="path185" />
		</g>
	</g><g
   id="g188">
		<g
   id="g187">
			<path
   d="m 466.6,846 c 35.4,1.2 70.9,2.3 106.3,3.5 1.9,0.1 1.9,-2.9 0,-3 -35.4,-1.2 -70.9,-2.3 -106.3,-3.5 -2,-0.1 -2,2.9 0,3 z"
   style="fill:#161616"
   id="path186" />
		</g>
	</g><g
   id="g190">
		<g
   id="g189">
			<path
   d="m 466.6,865.8 c 32.2,0.6 64.4,2.1 96.5,4.5 1.9,0.1 1.9,-2.9 0,-3 -32.1,-2.3 -64.3,-3.8 -96.5,-4.5 -2,0 -2,3 0,3 z"
   style="fill:#161616"
   id="path188" />
		</g>
	</g><g
   id="g192">
		<g
   id="g191">
			<path
   d="m 573.9,849.9 c 20.5,-1.8 41.1,-3 61.6,-3.7 1.9,-0.1 1.9,-3.1 0,-3 -20.6,0.6 -41.1,1.9 -61.6,3.7 -1.9,0.1 -2,3.1 0,3 z"
   style="fill:#161616"
   id="path190" />
		</g>
	</g><g
   id="g194">
		<g
   id="g193">
			<path
   d="m 563.6,870.4 c 24.1,-2.4 48.3,-4.7 72.4,-7.1 1.9,-0.2 1.9,-3.2 0,-3 -24.1,2.4 -48.3,4.7 -72.4,7.1 -1.9,0.2 -1.9,3.2 0,3 z"
   style="fill:#161616"
   id="path192" />
		</g>
	</g><g
   id="g196">
		<g
   id="g195">
			<path
   d="m 572.4,849.5 c -0.7,1.1 -1.2,2.2 -1.4,3.5 -0.3,2.2 0.6,3.9 -0.5,6.1 -1.3,2.8 -2.1,5 -1.6,8.1 0.3,1.9 3.2,1.1 2.9,-0.8 -0.5,-3.3 1.2,-4.8 2.2,-7.5 0.9,-2.8 -0.8,-5.2 1,-7.9 1,-1.6 -1.6,-3.2 -2.6,-1.5 z"
   style="fill:#161616"
   id="path194" />
		</g>
	</g><g
   id="g198">
		<g
   id="g197">
			<path
   d="m 467,845.1 c 27,-3.7 54.1,-6.3 81.4,-8 1.9,-0.1 1.9,-3.1 0,-3 -27.5,1.7 -54.9,4.4 -82.1,8.1 -2,0.3 -1.2,3.1 0.7,2.9 z"
   style="fill:#161616"
   id="path196" />
		</g>
	</g><g
   id="g200">
		<g
   id="g199">
			<path
   d="m 546.4,837.2 c 29.1,0.2 58.1,2.8 86.7,7.8 1.9,0.3 2.7,-2.6 0.8,-2.9 -28.9,-5.1 -58.2,-7.8 -87.5,-8 -1.9,0.1 -1.9,3.1 0,3.1 z"
   style="fill:#161616"
   id="path198" />
		</g>
	</g><g
   id="g202">
		<g
   id="g201">
			<path
   d="m 472.5,855.3 c 8.6,2 17.6,-0.1 26.4,0 9.8,0.1 19.6,1.2 29.4,2.4 1.9,0.2 1.9,-2.8 0,-3 -9.1,-1 -18.3,-2.1 -27.5,-2.3 -8.9,-0.2 -18.7,2.1 -27.5,0.1 -1.9,-0.6 -2.7,2.3 -0.8,2.8 z"
   style="fill:#161616"
   id="path200" />
		</g>
	</g><g
   id="g204">
		<g
   id="g203">
			<path
   d="m 512.1,861.8 c 15.3,0.5 30.7,1.2 46,2.1 1.9,0.1 1.9,-2.9 0,-3 -15.3,-0.9 -30.7,-1.6 -46,-2.1 -1.9,-0.1 -1.9,2.9 0,3 z"
   style="fill:#161616"
   id="path202" />
		</g>
	</g><g
   id="g206">
		<g
   id="g205">
			<path
   d="m 537.1,856.5 c 8.8,0.7 17.7,1.6 26.5,2.7 1.9,0.2 1.9,-2.8 0,-3 -8.8,-1.1 -17.6,-2 -26.5,-2.7 -2,-0.2 -1.9,2.8 0,3 z"
   style="fill:#161616"
   id="path204" />
		</g>
	</g><g
   id="g208">
		<g
   id="g207">
			<path
   d="m 579.8,858 c 7,1 13.8,-0.7 20.7,-1.7 8.2,-1.3 16.5,-2.3 24.8,-2.8 1.9,-0.1 1.9,-3.1 0,-3 -6.7,0.4 -13.4,1.2 -20,2.1 -8,1.1 -16.5,3.7 -24.6,2.6 -2,-0.4 -2.8,2.5 -0.9,2.8 z"
   style="fill:#161616"
   id="path206" />
		</g>
	</g><g
   id="g210">
		<g
   id="g209">
			<path
   d="m 592.4,863.2 c 6.2,0.7 11.9,-1.5 17.9,-2.7 7,-1.5 14.2,-2.1 21.3,-2.2 1.9,0 1.9,-3 0,-3 -6.2,0.1 -12.3,0.6 -18.4,1.6 -6.8,1.2 -13.8,4.2 -20.8,3.4 -1.9,-0.3 -1.9,2.7 0,2.9 z"
   style="fill:#161616"
   id="path208" />
		</g>
	</g><g
   id="g212">
		<g
   id="g211">
			<path
   d="m 632.9,847.4 c 0.1,5.1 0.2,10.1 0.4,15.2 0,1.9 3,1.9 3,0 -0.1,-5.1 -0.2,-10.1 -0.4,-15.2 0,-2 -3,-2 -3,0 z"
   style="fill:#161616"
   id="path210" />
		</g>
	</g><g
   id="g214">
		<g
   id="g213">
			<path
   d="m 418.6,869.9 c 0.1,6.7 -0.1,13.4 -0.6,20.1 -0.1,1.9 2.9,1.9 3,0 0.5,-6.7 0.7,-13.4 0.6,-20.1 -0.1,-2 -3.1,-2 -3,0 z"
   style="fill:#161616"
   id="path212" />
		</g>
	</g><g
   id="g216">
		<g
   id="g215">
			<path
   d="m 420.1,892.9 c 35,4.4 70.1,8.2 105.3,11.6 1.9,0.2 1.9,-2.8 0,-3 -35.2,-3.4 -70.3,-7.2 -105.3,-11.6 -2,-0.2 -1.9,2.8 0,3 z"
   style="fill:#161616"
   id="path214" />
		</g>
	</g><g
   id="g218">
		<g
   id="g217">
			<path
   d="m 524.8,883.1 c -0.3,6.4 -0.7,12.7 -1,19.1 -0.1,1.9 2.9,1.9 3,0 0.3,-6.4 0.7,-12.7 1,-19.1 0.1,-1.9 -2.9,-1.9 -3,0 z"
   style="fill:#161616"
   id="path216" />
		</g>
	</g><g
   id="g220">
		<g
   id="g219">
			<path
   d="m 526.3,883.7 c 38.6,-1.5 77.2,-4.4 115.6,-8.5 1.9,-0.2 1.9,-3.2 0,-3 -38.4,4.1 -77,6.9 -115.6,8.5 -1.9,0.1 -1.9,3.1 0,3 z"
   style="fill:#161616"
   id="path218" />
		</g>
	</g><g
   id="g222">
		<g
   id="g221">
			<path
   d="m 526.8,905.3 c 38.1,-4.5 76.3,-8.4 114.6,-11.9 1.9,-0.2 1.9,-3.2 0,-3 -38.2,3.5 -76.4,7.5 -114.6,11.9 -1.9,0.2 -1.9,3.2 0,3 z"
   style="fill:#161616"
   id="path220" />
		</g>
	</g><g
   id="g224">
		<g
   id="g223">
			<path
   d="m 640.6,874.8 c 0,5.4 0.1,10.8 0.1,16.2 0,1.9 3,1.9 3,0 0,-5.4 -0.1,-10.8 -0.1,-16.2 0,-2 -3,-2 -3,0 z"
   style="fill:#161616"
   id="path222" />
		</g>
	</g><g
   id="g226">
		<g
   id="g225">
			<path
   d="m 420.5,869.7 c 15,-2 30,-3.8 45.1,-5.2 1.9,-0.2 1.9,-3.2 0,-3 -15.3,1.4 -30.6,3.2 -45.9,5.3 -1.9,0.2 -1.1,3.1 0.8,2.9 z"
   style="fill:#161616"
   id="path224" />
		</g>
	</g><g
   id="g228">
		<g
   id="g227">
			<path
   d="m 422,871.7 c 34.6,2.5 69.1,6.1 103.5,10.8 1.9,0.3 2.7,-2.6 0.8,-2.9 -34.6,-4.7 -69.4,-8.4 -104.3,-10.9 -1.9,-0.1 -1.9,2.9 0,3 z"
   style="fill:#161616"
   id="path226" />
		</g>
	</g><g
   id="g230">
		<g
   id="g229">
			<path
   d="m 614.7,866.6 c 9,1.7 17.9,4 26.6,7 1.8,0.6 2.6,-2.3 0.8,-2.9 -8.7,-2.9 -17.5,-5.3 -26.6,-7 -1.9,-0.4 -2.7,2.5 -0.8,2.9 z"
   style="fill:#161616"
   id="path228" />
		</g>
	</g><g
   id="g232">
		<g
   id="g231">
			<path
   d="m 436.8,885.5 c 18,-0.9 35.2,5.4 53.1,5.7 1.9,0 1.9,-3 0,-3 -17.9,-0.3 -35.2,-6.6 -53.1,-5.7 -1.9,0.1 -1.9,3.1 0,3 z"
   style="fill:#161616"
   id="path230" />
		</g>
	</g><g
   id="g234">
		<g
   id="g233">
			<path
   d="m 471.2,881.6 c 13.2,4.9 27.5,1.9 41.1,4.9 1.9,0.4 2.7,-2.5 0.8,-2.9 -13.6,-3 -27.9,0 -41.1,-4.9 -1.8,-0.7 -2.6,2.2 -0.8,2.9 z"
   style="fill:#161616"
   id="path232" />
		</g>
	</g><g
   id="g236">
		<g
   id="g235">
			<path
   d="m 532.7,894.7 c 33.2,-7.5 67.7,-8.3 101.5,-10.3 1.9,-0.1 1.9,-3.1 0,-3 -34.2,2.1 -68.8,2.8 -102.3,10.4 -1.9,0.4 -1.1,3.3 0.8,2.9 z"
   style="fill:#161616"
   id="path234" />
		</g>
	</g><g
   id="g238">
		<g
   id="g237">
			<path
   d="m 588.2,892.2 c 11.8,0.3 23.6,-0.8 35.1,-3.3 1.9,-0.4 1.1,-3.3 -0.8,-2.9 -11.3,2.4 -22.8,3.5 -34.3,3.2 -1.9,-0.1 -1.9,2.9 0,3 z"
   style="fill:#161616"
   id="path236" />
		</g>
	</g><g
   id="g240">
		<g
   id="g239">
			<path
   d="m 439.8,894.5 c 0,7.5 0,14.9 0,22.4 0,1.9 3,1.9 3,0 0,-7.5 0,-14.9 0,-22.4 0,-1.9 -3,-1.9 -3,0 z"
   style="fill:#161616"
   id="path238" />
		</g>
	</g><g
   id="g242">
		<g
   id="g241">
			<path
   d="m 440.9,918.8 c 16.2,4.8 34.1,4.9 50.9,6.5 17.8,1.7 35.7,3.5 53.5,5.2 1.9,0.2 1.9,-2.8 0,-3 -17.2,-1.7 -34.4,-3.3 -51.6,-5 -17.1,-1.7 -35.5,-1.7 -52,-6.6 -1.8,-0.5 -2.6,2.4 -0.8,2.9 z"
   style="fill:#161616"
   id="path240" />
		</g>
	</g><g
   id="g244">
		<g
   id="g243">
			<path
   d="m 545.2,907.3 c 0.1,6.9 0.1,13.7 -0.1,20.6 0,1.9 3,1.9 3,0 0.2,-6.9 0.2,-13.7 0.1,-20.6 0,-2 -3,-2 -3,0 z"
   style="fill:#161616"
   id="path242" />
		</g>
	</g><g
   id="g246">
		<g
   id="g245">
			<path
   d="m 529.2,906.8 c 5.5,0.5 11,1.4 16.4,2.7 1.9,0.5 2.7,-2.4 0.8,-2.9 -5.7,-1.4 -11.4,-2.3 -17.2,-2.8 -2,-0.1 -2,2.9 0,3 z"
   style="fill:#161616"
   id="path244" />
		</g>
	</g><g
   id="g248">
		<g
   id="g247">
			<path
   d="m 547.1,908.9 c 28,-2.3 55.8,-6.5 83.3,-12.8 1.9,-0.4 1.1,-3.3 -0.8,-2.9 -27.2,6.2 -54.7,10.4 -82.5,12.7 -1.9,0.1 -1.9,3.1 0,3 z"
   style="fill:#161616"
   id="path246" />
		</g>
	</g><g
   id="g250">
		<g
   id="g249">
			<path
   d="m 547.1,930.9 c 31.8,-6.1 63.4,-13.6 94.5,-22.5 1.9,-0.5 1.1,-3.4 -0.8,-2.9 -31.2,8.9 -62.7,16.5 -94.5,22.5 -1.8,0.4 -1,3.3 0.8,2.9 z"
   style="fill:#161616"
   id="path248" />
		</g>
	</g><g
   id="g252">
		<g
   id="g251">
			<path
   d="m 640.1,892.3 c 0.1,5 0,10 -0.4,14.9 -0.2,1.9 2.8,1.9 3,0 0.4,-5 0.5,-10 0.4,-14.9 0,-1.9 -3,-1.9 -3,0 z"
   style="fill:#161616"
   id="path250" />
		</g>
	</g><g
   id="g254">
		<g
   id="g253">
			<path
   d="m 630.4,896.1 c 3.4,0 6.8,-0.5 10.1,-1.3 1.9,-0.5 1.1,-3.4 -0.8,-2.9 -3.1,0.8 -6.1,1.2 -9.3,1.2 -1.9,0 -1.9,3 0,3 z"
   style="fill:#161616"
   id="path252" />
		</g>
	</g><g
   id="g256">
		<g
   id="g255">
			<path
   d="m 457.7,912 c 24.2,2.9 48.3,5.7 72.5,8.2 1.9,0.2 1.9,-2.8 0,-3 -24.2,-2.5 -48.4,-5.2 -72.5,-8.2 -1.9,-0.2 -1.9,2.8 0,3 z"
   style="fill:#161616"
   id="path254" />
		</g>
	</g><g
   id="g258">
		<g
   id="g257">
			<path
   d="m 448.4,903.7 c 10.2,1 20.4,1.8 30.6,2.3 1.9,0.1 1.9,-2.9 0,-3 -10.2,-0.5 -20.4,-1.3 -30.6,-2.3 -1.9,-0.1 -1.9,2.9 0,3 z"
   style="fill:#161616"
   id="path256" />
		</g>
	</g><g
   id="g260">
		<g
   id="g259">
			<path
   d="m 491.8,909.2 c 12.9,0 25.7,0.9 38.5,2.9 1.9,0.3 2.7,-2.6 0.8,-2.9 -13,-2 -26.1,-3 -39.3,-3 -1.9,0 -2,3 0,3 z"
   style="fill:#161616"
   id="path258" />
		</g>
	</g><g
   id="g262">
		<g
   id="g261">
			<path
   d="m 552,918.9 c 14.4,-2.3 28.7,-4.9 43,-7.8 1.9,-0.4 1.1,-3.3 -0.8,-2.9 -14.3,2.9 -28.6,5.5 -43,7.8 -1.9,0.3 -1.1,3.2 0.8,2.9 z"
   style="fill:#161616"
   id="path260" />
		</g>
	</g><g
   id="g264">
		<g
   id="g263">
			<path
   d="m 579.2,920.1 c 17.3,-5.8 35.1,-10.1 53.1,-12.7 1.9,-0.3 1.1,-3.2 -0.8,-2.9 -18.1,2.6 -35.8,6.8 -53.1,12.7 -1.8,0.7 -1,3.6 0.8,2.9 z"
   style="fill:#161616"
   id="path262" />
		</g>
	</g><g
   id="g266">
		<g
   id="g265">
			<path
   d="m 623,904.7 c 4.9,-1.5 9.8,-2.4 14.9,-2.8 1.9,-0.1 1.9,-3.1 0,-3 -5.3,0.4 -10.6,1.3 -15.7,2.9 -1.8,0.6 -1,3.5 0.8,2.9 z"
   style="fill:#161616"
   id="path264" />
		</g>
	</g><g
   id="g268">
		<g
   id="g267">
			<path
   d="m 462.6,922.7 c -0.1,7.1 -0.3,14.2 -0.4,21.3 0,1.9 3,1.9 3,0 0.1,-7.1 0.3,-14.2 0.4,-21.3 0.1,-1.9 -2.9,-1.9 -3,0 z"
   style="fill:#161616"
   id="path266" />
		</g>
	</g><g
   id="g270">
		<g
   id="g269">
			<path
   d="m 464,946 c 38.8,5.2 77.7,10.4 116.5,15.5 1.9,0.3 1.9,-2.7 0,-3 -38.8,-5.2 -77.7,-10.4 -116.5,-15.5 -1.9,-0.3 -1.9,2.7 0,3 z"
   style="fill:#161616"
   id="path268" />
		</g>
	</g><g
   id="g272">
		<g
   id="g271">
			<path
   d="m 549.5,931.5 c 11.6,1.8 23.2,3.3 34.9,4.4 1.9,0.2 1.9,-2.8 0,-3 -11.4,-1.1 -22.8,-2.5 -34.1,-4.3 -1.9,-0.3 -2.7,2.6 -0.8,2.9 z"
   style="fill:#161616"
   id="path270" />
		</g>
	</g><g
   id="g274">
		<g
   id="g273">
			<path
   d="m 584.8,935.6 c 29.8,-2.8 57.1,-16.4 86.4,-21.4 1.9,-0.3 1.1,-3.2 -0.8,-2.9 -29.1,4.9 -56.1,18.4 -85.6,21.2 -1.9,0.3 -1.9,3.3 0,3.1 z"
   style="fill:#161616"
   id="path272" />
		</g>
	</g><g
   id="g276">
		<g
   id="g275">
			<path
   d="m 641.4,908.9 c 10.1,1.5 20.3,2.6 30.5,3.2 1.9,0.1 1.9,-2.9 0,-3 -10,-0.6 -19.9,-1.6 -29.7,-3.1 -1.9,-0.3 -2.7,2.6 -0.8,2.9 z"
   style="fill:#161616"
   id="path274" />
		</g>
	</g><g
   id="g278">
		<g
   id="g277">
			<path
   d="m 581.3,935.3 c -0.3,7.8 -0.5,15.7 -0.8,23.5 -0.1,1.9 2.9,1.9 3,0 0.3,-7.8 0.5,-15.7 0.8,-23.5 0.1,-2 -2.9,-2 -3,0 z"
   style="fill:#161616"
   id="path276" />
		</g>
	</g><g
   id="g280">
		<g
   id="g279">
			<path
   d="m 582.1,961.6 c 29.9,-7.2 59.4,-15.7 88.6,-25.4 1.8,-0.6 1,-3.5 -0.8,-2.9 -29.2,9.7 -58.7,18.1 -88.6,25.4 -1.9,0.4 -1.1,3.3 0.8,2.9 z"
   style="fill:#161616"
   id="path278" />
		</g>
	</g><g
   id="g282">
		<g
   id="g281">
			<path
   d="m 669.9,912.8 c 0.8,7.3 1,14.6 0.6,21.9 -0.1,1.9 2.9,1.9 3,0 0.3,-7.3 0.1,-14.6 -0.6,-21.9 -0.2,-1.9 -3.2,-1.9 -3,0 z"
   style="fill:#161616"
   id="path280" />
		</g>
	</g><g
   id="g284">
		<g
   id="g283">
			<path
   d="m 471.7,937.6 c -0.7,0.1 -1.3,0.2 -2,0.2 -1.9,0.2 -1.9,2.8 0,3 25.4,2.7 50.6,6.8 75.9,10.8 1.9,0.3 2.7,-2.6 0.8,-2.9 -25.5,-4.1 -51,-8.2 -76.7,-10.9 0,1 0,2 0,3 0.7,-0.1 1.3,-0.2 2,-0.2 1.9,-0.2 1.9,-3.2 0,-3 z"
   style="fill:#161616"
   id="path282" />
		</g>
	</g><g
   id="g286">
		<g
   id="g285">
			<path
   d="m 479.5,933.2 c 7.6,1.9 15.2,3.7 22.9,5.2 1.9,0.4 2.7,-2.5 0.8,-2.9 -7.7,-1.5 -15.3,-3.2 -22.9,-5.2 -1.8,-0.4 -2.6,2.5 -0.8,2.9 z"
   style="fill:#161616"
   id="path284" />
		</g>
	</g><g
   id="g288">
		<g
   id="g287">
			<path
   d="m 511.2,937.1 c 20.1,3.1 40.1,6.2 60.2,9.3 1.9,0.3 2.7,-2.6 0.8,-2.9 -20.1,-3.1 -40.1,-6.2 -60.2,-9.3 -1.9,-0.2 -2.7,2.7 -0.8,2.9 z"
   style="fill:#161616"
   id="path286" />
		</g>
	</g><g
   id="g290">
		<g
   id="g289">
			<path
   d="m 597.9,941.6 c 16.7,-0.4 31.8,-8.5 48.2,-11 1.9,-0.3 1.1,-3.2 -0.8,-2.9 -16.1,2.5 -30.9,10.5 -47.4,10.9 -1.9,0.1 -1.9,3.1 0,3 z"
   style="fill:#161616"
   id="path288" />
		</g>
	</g><g
   id="g292">
		<g
   id="g291">
			<path
   d="m 592.5,951.7 c 7.3,-1.8 14.6,-3.6 21.9,-5.5 1.9,-0.5 1.1,-3.4 -0.8,-2.9 -7.3,1.8 -14.6,3.6 -21.9,5.5 -1.9,0.4 -1.1,3.3 0.8,2.9 z"
   style="fill:#161616"
   id="path290" />
		</g>
	</g><g
   id="g294">
		<g
   id="g293">
			<path
   d="m 642.2,938.3 c 8.6,-2.3 17.2,-4.6 25.8,-7 1.9,-0.5 1.1,-3.4 -0.8,-2.9 -8.6,2.3 -17.2,4.6 -25.8,7 -1.9,0.5 -1.1,3.4 0.8,2.9 z"
   style="fill:#161616"
   id="path292" />
		</g>
	</g><g
   id="g296">
		<g
   id="g295">
			<path
   d="m 424.1,956.9 c 15.9,-1.7 31.6,-5 46.8,-10 1.8,-0.6 1,-3.5 -0.8,-2.9 -15,4.9 -30.3,8.2 -46,9.9 -1.9,0.2 -1.9,3.2 0,3 z"
   style="fill:#161616"
   id="path294" />
		</g>
	</g><g
   id="g298">
		<g
   id="g297">
			<path
   d="m 422.9,956.6 c 0.3,6.8 0.7,13.5 1,20.3 0.1,1.9 3.1,1.9 3,0 -0.3,-6.8 -0.7,-13.5 -1,-20.3 -0.1,-1.9 -3.1,-1.9 -3,0 z"
   style="fill:#161616"
   id="path296" />
		</g>
	</g><g
   id="g300">
		<g
   id="g299">
			<path
   d="m 425.6,978.9 c 46.2,6.1 92.3,12.2 138.5,18.2 1.9,0.3 1.9,-2.8 0,-3 -46.2,-6.1 -92.3,-12.2 -138.5,-18.2 -1.9,-0.3 -1.8,2.7 0,3 z"
   style="fill:#161616"
   id="path298" />
		</g>
	</g><g
   id="g302">
		<g
   id="g301">
			<path
   d="m 424.7,958.2 c 44.6,6.3 89.2,12 133.9,17.2 1.9,0.2 1.9,-2.8 0,-3 -44.4,-5.1 -88.8,-10.8 -133.1,-17.1 -1.8,-0.2 -2.7,2.7 -0.8,2.9 z"
   style="fill:#161616"
   id="path300" />
		</g>
	</g><g
   id="g304">
		<g
   id="g303">
			<path
   d="m 564.2,997.7 c 35.7,-10.3 71.2,-21.3 106.4,-33.1 1.8,-0.6 1,-3.5 -0.8,-2.9 -35.3,11.7 -70.7,22.8 -106.4,33.1 -1.9,0.5 -1.1,3.4 0.8,2.9 z"
   style="fill:#161616"
   id="path302" />
		</g>
	</g><g
   id="g306">
		<g
   id="g305">
			<path
   d="m 576.1,974.2 c 31.7,-7.1 62.9,-16.1 93.5,-27.1 1.8,-0.6 1,-3.5 -0.8,-2.9 -30.6,11 -61.8,20 -93.5,27.1 -1.9,0.4 -1.1,3.3 0.8,2.9 z"
   style="fill:#161616"
   id="path304" />
		</g>
	</g><g
   id="g308">
		<g
   id="g307">
			<path
   d="m 667.8,946.2 c 0.1,5.7 0.2,11.3 0.3,17 0,1.9 3,1.9 3,0 -0.1,-5.7 -0.2,-11.3 -0.3,-17 -0.1,-1.9 -3.1,-1.9 -3,0 z"
   style="fill:#161616"
   id="path306" />
		</g>
	</g><g
   id="g310">
		<g
   id="g309">
			<path
   d="m 645.1,944.5 c 7.7,0.8 15.3,1.6 23,2.3 1.9,0.2 1.9,-2.8 0,-3 -7.7,-0.8 -15.3,-1.6 -23,-2.3 -1.9,-0.2 -1.9,2.8 0,3 z"
   style="fill:#161616"
   id="path308" />
		</g>
	</g><g
   id="g312">
		<g
   id="g311">
			<path
   d="m 435.6,973.2 c 22.1,1.3 44,4 65.8,7.9 1.9,0.3 2.7,-2.6 0.8,-2.9 -22,-4 -44.2,-6.6 -66.6,-8 -2,-0.1 -1.9,2.9 0,3 z"
   style="fill:#161616"
   id="path310" />
		</g>
	</g><g
   id="g314">
		<g
   id="g313">
			<path
   d="m 493.7,972.9 c 17.7,2.6 35.4,5.6 53,8.9 1.9,0.4 2.7,-2.5 0.8,-2.9 -17.6,-3.3 -35.3,-6.3 -53,-8.9 -1.9,-0.3 -2.7,2.6 -0.8,2.9 z"
   style="fill:#161616"
   id="path312" />
		</g>
	</g><g
   id="g316">
		<g
   id="g315">
			<path
   d="m 562.7,980.1 c 0.2,4.4 0.5,8.8 0.7,13.1 0.1,1.9 3.1,1.9 3,0 -0.2,-4.4 -0.5,-8.8 -0.7,-13.1 -0.1,-1.9 -3.1,-1.9 -3,0 z"
   style="fill:#161616"
   id="path314" />
		</g>
	</g><g
   id="g318">
		<g
   id="g317">
			<path
   d="m 579.4,981 c 14.8,-3.3 29.5,-7 44.2,-11 1.9,-0.5 1.1,-3.4 -0.8,-2.9 -14.6,4 -29.4,7.7 -44.2,11 -1.9,0.4 -1.1,3.3 0.8,2.9 z"
   style="fill:#161616"
   id="path316" />
		</g>
	</g><g
   id="g320">
		<g
   id="g319">
			<path
   d="m 578.9,986.5 c 3.9,-0.4 7.7,-1 11.4,-2.1 1.9,-0.5 1.1,-3.4 -0.8,-2.9 -3.5,1 -7,1.6 -10.6,2 -1.9,0.2 -1.9,3.2 0,3 z"
   style="fill:#161616"
   id="path318" />
		</g>
	</g><g
   id="g322">
		<g
   id="g321">
			<path
   d="m 632.9,970.6 c 9.3,-3 18.6,-6 27.8,-8.9 1.8,-0.6 1,-3.5 -0.8,-2.9 -9.3,3 -18.6,6 -27.8,8.9 -1.8,0.6 -1,3.5 0.8,2.9 z"
   style="fill:#161616"
   id="path320" />
		</g>
	</g><g
   id="g324">
		<g
   id="g323">
			<path
   d="m 650.9,960.1 c 4,-1.2 8.1,-2.3 12.1,-3.5 1.9,-0.5 1.1,-3.4 -0.8,-2.9 -4,1.2 -8.1,2.3 -12.1,3.5 -1.8,0.5 -1.1,3.4 0.8,2.9 z"
   style="fill:#161616"
   id="path322" />
		</g>
	</g><g
   id="g326">
		<g
   id="g325">
			<path
   d="m 470.1,984.5 c 1,7.8 1.4,15.6 1.1,23.5 -0.1,1.9 2.9,1.9 3,0 0.3,-7.9 -0.1,-15.7 -1.1,-23.5 -0.2,-1.9 -3.2,-1.9 -3,0 z"
   style="fill:#161616"
   id="path324" />
		</g>
	</g><g
   id="g328">
		<g
   id="g327">
			<path
   d="m 473.8,1010.1 c 46.2,6 92.3,11.9 138.5,17.9 1.9,0.2 1.9,-2.8 0,-3 -46.2,-6 -92.3,-11.9 -138.5,-17.9 -1.9,-0.3 -1.9,2.7 0,3 z"
   style="fill:#161616"
   id="path326" />
		</g>
	</g><g
   id="g330">
		<g
   id="g329">
			<path
   d="m 610,1002.6 c 0.5,7.8 0.9,15.7 1.4,23.5 0.1,1.9 3.1,1.9 3,0 -0.5,-7.8 -0.9,-15.7 -1.4,-23.5 -0.1,-1.9 -3.1,-2 -3,0 z"
   style="fill:#161616"
   id="path328" />
		</g>
	</g><g
   id="g332">
		<g
   id="g331">
			<path
   d="m 611.9,1027.8 c 28.9,-14 57.9,-27.9 86.8,-41.9 1.7,-0.8 0.2,-3.4 -1.5,-2.6 -28.9,14 -57.9,27.9 -86.8,41.9 -1.8,0.9 -0.2,3.5 1.5,2.6 z"
   style="fill:#161616"
   id="path330" />
		</g>
	</g><g
   id="g334">
		<g
   id="g333">
			<path
   d="m 611.5,1002.2 c 29.6,-10.6 58.4,-23.2 86.3,-37.8 1.7,-0.9 0.2,-3.5 -1.5,-2.6 -27.6,14.4 -56.2,26.9 -85.6,37.5 -1.8,0.7 -1,3.6 0.8,2.9 z"
   style="fill:#161616"
   id="path332" />
		</g>
	</g><g
   id="g336">
		<g
   id="g335">
			<path
   d="m 695.1,963.2 c 0.2,7.5 0.4,15 0.6,22.4 0.1,1.9 3.1,1.9 3,0 -0.2,-7.5 -0.4,-15 -0.6,-22.4 0,-2 -3,-2 -3,0 z"
   style="fill:#161616"
   id="path334" />
		</g>
	</g><g
   id="g338">
		<g
   id="g337">
			<path
   d="m 670.8,961.6 c 8.3,0.1 16.6,0.7 24.8,1.9 1.9,0.3 2.7,-2.6 0.8,-2.9 -8.5,-1.2 -17,-1.9 -25.6,-2 -1.9,0 -1.9,3 0,3 z"
   style="fill:#161616"
   id="path336" />
		</g>
	</g><g
   id="g340">
		<g
   id="g339">
			<path
   d="m 565.8,998 c 10.1,1.8 20.3,2.9 30.6,3.3 1.9,0.1 1.9,-2.9 0,-3 -10,-0.4 -19.9,-1.4 -29.8,-3.2 -1.9,-0.4 -2.7,2.5 -0.8,2.9 z"
   style="fill:#161616"
   id="path338" />
		</g>
	</g><g
   id="g342">
		<g
   id="g341">
			<path
   d="m 620.3,1006.7 c 11,-2.7 21.5,-6.5 31.7,-11.4 1.7,-0.8 0.2,-3.4 -1.5,-2.6 -9.9,4.8 -20.2,8.4 -30.9,11.1 -2,0.4 -1.2,3.3 0.7,2.9 z"
   style="fill:#161616"
   id="path340" />
		</g>
	</g><g
   id="g344">
		<g
   id="g343">
			<path
   d="m 621.5,1014.5 c 8.8,-3.3 17.3,-7.2 25.5,-11.7 1.7,-0.9 0.2,-3.5 -1.5,-2.6 -8,4.4 -16.2,8.2 -24.8,11.4 -1.8,0.7 -1.1,3.6 0.8,2.9 z"
   style="fill:#161616"
   id="path342" />
		</g>
	</g><g
   id="g346">
		<g
   id="g345">
			<path
   d="m 657.4,989.5 c 11.1,-3.9 22.1,-8.4 32.9,-13.3 1.8,-0.8 0.2,-3.4 -1.5,-2.6 -10.5,4.8 -21.2,9.1 -32.2,12.9 -1.8,0.7 -1,3.6 0.8,3 z"
   style="fill:#161616"
   id="path344" />
		</g>
	</g><g
   id="g348">
		<g
   id="g347">
			<path
   d="m 661.7,996.1 c 10.9,-4.7 21.3,-10.3 31.3,-16.8 1.6,-1.1 0.1,-3.6 -1.5,-2.6 -9.9,6.5 -20.4,12.1 -31.3,16.8 -1.8,0.8 -0.3,3.3 1.5,2.6 z"
   style="fill:#161616"
   id="path346" />
		</g>
	</g>
<g
   id="chair">
	<g
   id="g350">
		<g
   id="g349">
			<path
   d="m 1030.8,719.9 c 20.5,75.6 41,151.2 61.4,226.8 5.8,21.6 11.7,43.1 17.5,64.7 1,3.7 6.8,2.1 5.8,-1.6 -20.5,-75.6 -41,-151.2 -61.4,-226.8 -5.8,-21.6 -11.7,-43.1 -17.5,-64.7 -1,-3.7 -6.8,-2.1 -5.8,1.6 z"
   style="fill:#161616"
   id="path348" />
		</g>
	</g>
	<g
   id="g352">
		<g
   id="g351">
			<path
   d="m 971.7,723.1 c 0.9,83.2 1.8,166.5 2.6,249.7 0.2,23.5 0.5,47.1 0.7,70.6 0,3.9 6,3.9 6,0 -0.9,-83.2 -1.8,-166.5 -2.6,-249.7 -0.2,-23.5 -0.5,-47.1 -0.7,-70.6 0,-3.8 -6,-3.8 -6,0 z"
   style="fill:#161616"
   id="path350" />
		</g>
	</g>
	<g
   id="g354">
		<g
   id="g353">
			<path
   d="m 888,712.4 c -17.8,81.3 -35,162.7 -51.6,244.3 -4.7,23.1 -9.3,46.2 -13.9,69.2 -0.8,3.8 5,5.4 5.8,1.6 16.3,-81.6 33.1,-163.1 50.6,-244.5 4.9,-23 9.9,-46 15,-69 0.7,-3.8 -5.1,-5.4 -5.9,-1.6 z"
   style="fill:#161616"
   id="path352" />
		</g>
	</g>
	<g
   id="g356">
		<g
   id="g355">
			<path
   d="m 846.4,926.6 c 43.3,0.4 86.5,1.4 129.7,3.1 3.9,0.2 3.9,-5.8 0,-6 -43.2,-1.7 -86.5,-2.7 -129.7,-3.1 -3.8,0 -3.8,6 0,6 z"
   style="fill:#161616"
   id="path354" />
		</g>
	</g>
	<g
   id="g358">
		<g
   id="g357">
			<path
   d="m 978.3,928.4 c 4,0.6 7.1,-1 10.8,-2.5 4.5,-1.8 9,-3.7 13.5,-5.6 8,-3.4 16,-6.8 24,-10.3 17.3,-7.6 34.4,-15.5 51.3,-23.6 3.5,-1.7 0.4,-6.8 -3,-5.2 -15.5,7.5 -31.1,14.7 -46.9,21.7 -7.9,3.5 -15.8,6.9 -23.8,10.3 -4.1,1.7 -8.1,3.4 -12.2,5.1 -3.2,1.3 -8.7,4.8 -12.2,4.3 -3.7,-0.5 -5.4,5.3 -1.5,5.8 z"
   style="fill:#161616"
   id="path356" />
		</g>
	</g>
	<g
   id="g360">
		<g
   id="g359">
			<path
   d="m 949.6,724.8 c -8,71 -16,142 -24,213.1 -2.3,20.1 -4.5,40.3 -6.8,60.4 -0.4,3.8 5.6,3.8 6,0 8,-71 16,-142 24,-213.1 2.3,-20.1 4.5,-40.3 6.8,-60.4 0.5,-3.8 -5.5,-3.8 -6,0 z"
   style="fill:#161616"
   id="path358" />
		</g>
	</g>
	<g
   id="g362">
		<g
   id="g361">
			<path
   d="m 933.1,894.1 c 47.5,-1.1 94.8,-4.1 142.2,-7.2 3.8,-0.2 3.9,-6.3 0,-6 -47.4,3.1 -94.7,6 -142.2,7.2 -3.9,0.1 -3.9,6.1 0,6 z"
   style="fill:#161616"
   id="path360" />
		</g>
	</g>
	<g
   id="g364">
		<g
   id="g363">
			<path
   d="m 847.5,926.3 c 29.9,-8.7 58.7,-20.5 87.6,-32.1 3.5,-1.4 2,-7.2 -1.6,-5.8 -28.9,11.6 -57.7,23.4 -87.6,32.1 -3.7,1 -2.1,6.8 1.6,5.8 z"
   style="fill:#161616"
   id="path362" />
		</g>
	</g>
	<path
   d="m 995.9,643.5 c 25.7,3.4 47,10.5 63.3,17.5 0.3,18.1 0.5,36.1 0.8,54.2 -18.8,8.4 -47.6,18.5 -83.9,21.4 -46.5,3.7 -83.8,-6.2 -105.3,-13.7 -0.9,-20.3 -1.7,-40.6 -2.6,-60.9 23.6,-10.2 70.1,-26.1 127.7,-18.5 z"
   style="fill:#ffffff;stroke:#161616;stroke-width:3;stroke-miterlimit:10"
   id="path364" />
	<g
   id="g366">
		<g
   id="g365">
			<path
   d="m 876.4,666.7 c 7.8,8.7 19,11.8 30.3,13.2 14.6,1.9 29.6,2.5 44.4,3 30.4,1 61.2,-0.7 90.1,-11.1 1.8,-0.6 1,-3.5 -0.8,-2.9 -27.5,9.9 -56.7,11.9 -85.6,11.1 -13.8,-0.4 -27.6,-1.2 -41.4,-2.4 -12.5,-1.1 -26,-3.2 -34.8,-13 -1.4,-1.5 -3.5,0.7 -2.2,2.1 z"
   style="fill:#161616"
   id="path365" />
		</g>
	</g>
</g>
<g
   id="hand_right">
		<path
   d="m 861.6,320.9 c -6.8,0.7 -11,5.9 -19.3,16.7 -22.4,29 -38.6,54.5 -40,56.7 -2.9,4.5 -12.8,18.1 -32.7,45.3 -36.7,50.3 -45.2,59.6 -42,72.7 3.7,15.3 20.4,28.9 32.7,26.7 7.2,-1.3 11.5,-7.8 18,-18.7 8.4,-14.2 19.2,-33.4 30.7,-57.3 30,-20.4 49.7,-41.8 62,-57.3 25,-31.5 24.2,-45.1 23.3,-50.7 -2.8,-17.8 -19,-35.4 -32.7,-34.1 z"
   style="fill:#ffffff;stroke:#161616;stroke-width:3;stroke-miterlimit:10"
   id="path366" />
		<path
   d="m 882.6,333.5 c -4.9,0.6 -6,14.8 -7.9,23.6 -6.6,30.4 -30.5,33.5 -70.1,78.6 -16.6,19 -28.4,36.6 -39.3,53.1 -10.6,16 -18.9,30 -24.9,40.6 1,1.9 3.6,5.9 8.5,7.9 6.6,2.6 13,-0.3 15.1,-1.3 7.9,-3.7 9.3,-9.4 22.3,-31.4 8.3,-14.1 8.2,-12.6 11.8,-19.7 6.6,-13.1 6.1,-17 11.8,-23.6 5,-5.9 8.6,-5.6 18.3,-13.1 5,-3.8 13.8,-10.6 23.6,-20.3 2.9,-2.8 14.6,-14.6 26.9,-32.8 9.7,-14.3 12,-21.1 13.1,-24.9 4,-13.8 1.5,-21.9 0.7,-24.2 -1.8,-5.1 -6.1,-13 -9.9,-12.5 z"
   style="opacity:0.09;fill:#3d3d3d"
   id="path367" />
		<path
   d="m 809.9,459.9 c -1.3,-0.8 -6.5,7.5 -18.3,21 -29.5,33.5 -51.7,43.9 -48.5,52.4 1.9,4.9 11.1,6.6 17.7,5.2 9.4,-2 14.4,-11.2 24.2,-29.5 24,-44.9 25.7,-48.6 24.9,-49.1 z"
   style="opacity:0.18;fill:#3d3d3d"
   id="path368" />
	</g><g
   id="leg_right">
		<path
   d="m 723.4,902.6 c 2.8,31.2 5.5,62.4 8.3,93.6 -43.5,21.8 -64.3,35.6 -62.2,41.5 2.5,7.2 39.7,2.3 111.4,-14.8 -1.4,-43.4 -2.8,-86.9 -4.1,-130.3 -17.8,3.3 -35.6,6.6 -53.4,10 z"
   style="fill:#161616;stroke:#161616;stroke-width:3;stroke-miterlimit:10"
   id="path369" />
		<path
   d="m 866.1,545.6 c -15.3,11.3 -36.8,27.2 -62.4,46.6 -80.6,61.1 -90.7,70.4 -99.6,87.5 -8.8,16.8 -11.8,45.1 -17.9,101.8 -4.2,38.9 -4.5,68.9 -4.3,86 0.2,19.1 1.2,35.4 2.2,48 4.7,4.2 22.5,18.9 49.5,19.4 31.9,0.5 52.3,-19.3 55.9,-22.9 -3.1,-18.4 -5.6,-38.3 -7.2,-59.5 -2.9,-38.8 -2,-74 0.7,-104.7 21.4,-16.9 51.4,-41.3 86,-72.4 73.9,-66.4 78.8,-82.1 76,-93.2 -6.4,-24.8 -53.8,-33.5 -78.9,-36.6 z"
   style="fill:#ffffff;stroke:#161616;stroke-width:3;stroke-miterlimit:10"
   id="path370" />
		<path
   d="m 899.4,553.2 c -10.7,3.6 -5,27.8 -12.2,50.3 -8.2,25.7 -27.1,32.6 -73.9,68.2 -15.2,11.5 -36.9,29.2 -61.7,53.6 0.4,44.9 -1,92.6 -4.9,142.9 -1.8,22.8 -4,45.1 -6.5,66.6 6.6,-0.9 15,-2.8 24.4,-6.5 10.5,-4.2 18.7,-9.5 24.4,-13.8 -3.2,-19 -5.7,-39.6 -7.3,-61.7 -2.8,-38.8 -1.8,-74 0.8,-104.8 17.8,-15 32.3,-26.8 42.2,-34.9 13.4,-10.9 20.2,-16.2 31.7,-26 6.6,-5.6 13.3,-11.5 30,-26.8 43,-39.2 54.8,-51.6 57.7,-69 1.4,-8.9 -0.4,-13.7 -1.6,-16.2 -3.7,-7.3 -11.4,-10.6 -26.8,-17.1 -9.2,-3.7 -13.8,-5.7 -16.3,-4.8 z"
   style="opacity:0.12;fill:#3d3d3d"
   id="path371" />
		<path
   d="m 781.6,747.3 c -4.6,19.9 -8.7,41 -12.2,63.3 -6.7,42.8 -9.7,82.6 -10.6,118.6 10.3,-5.1 20.6,-10.3 30.9,-15.4 -3.7,-24.6 -6.6,-51.8 -8.1,-81.2 -1.5,-30.9 -1.3,-59.4 0,-85.3 z"
   style="opacity:0.15;fill:#3d3d3d"
   id="path372" />
		<path
   d="m 935.9,569.4 c -7.1,-0.6 -13.5,15.7 -17.9,25.2 -9.5,20.8 -35.3,48 -86.9,102.3 -12.4,13.1 -29.1,30.1 -49.5,49.5 5.4,-3.9 12.7,-9.1 21.1,-15.4 19,-14.3 30.3,-23.9 66.6,-55.2 0,0 13.1,-11.3 66.6,-67.4 2.8,-2.9 9.6,-10.3 9.7,-20.3 0.2,-8.4 -4.4,-18.2 -9.7,-18.7 z"
   style="opacity:0.09;fill:#3d3d3d"
   id="path373" />
	</g><g
   id="torso"
   style="fill:#f1aa4b;fill-opacity:1">
		<path
   d="m 897.8,310.6 c -0.4,0 -2,0.1 -4.2,0.3 -4.5,0.4 -11.6,1.2 -20,3.4 -6.8,1.7 -12.2,3.7 -15.4,5 -5.7,11.7 -12.9,29.8 -15.6,52.7 -3.9,32.6 3.9,53.6 9.2,86.1 3.6,22.3 6.6,54.6 2.5,95.5 8.6,8 31,26.7 65.2,31.5 48.3,6.9 83.8,-19.1 91.1,-24.7 2.2,-13.8 4.3,-27.8 6.4,-42 0,0 3.1,-21.4 6.1,-44.9 7.1,-54.7 14.4,-128.4 15.3,-137.6 -25.7,-26 -47,-32 -61.8,-32.5 -19.2,-0.7 -63.2,6.4 -78.8,7.2 z"
   style="fill:#f1aa4b;fill-opacity:1"
   id="path374" />
		<path
   d="m 935.6,332.3 c 5.3,5.5 12.4,13.9 18.8,25.3 30.8,54.6 11.7,118.3 3.2,146.6 -5.9,19.8 -17.1,48.9 -39.3,80.2 8.5,1.5 19.1,2.3 31.2,1.1 28.9,-2.9 49.8,-16.3 60.3,-24.2 7.2,-47.7 13.9,-96.6 19.9,-146.6 3.1,-25.8 5.9,-51.2 8.6,-76.5 -4.5,-5.6 -11.9,-13.7 -23,-20.6 -8.8,-5.5 -21.5,-13.5 -37.3,-12.7 -24.8,1.4 -40.1,24 -42.4,27.4 z"
   style="opacity:0.17;fill:#f1aa4b;fill-opacity:1"
   id="path375" />
	</g><g
   id="book">
		<path
   d="m 708.7,388.7 c 1,0 2.1,0 3.1,0 0.3,-1.1 0.6,-2.3 0.9,-3.4 1.2,2.5 3.2,6.6 5.7,11.7 11,22.3 13.2,26 15.2,32.7 1.6,5.5 3.5,13.4 4.1,23.5 1.9,-1.3 4.7,-3.1 8.3,-5.1 19.4,-10.6 35.6,-10.7 50.2,-13.3 10.9,-2 26.2,-6.4 44.1,-17.1 -1.1,1.5 -2.2,3.1 -3.3,4.6 1.7,0.6 3.5,1.3 5.2,1.9 1,1.3 2.3,3.4 3.4,6.1 5.8,14.3 -2.8,30 -11.1,44.4 -33.9,59.6 -37.4,62.7 -43.5,65.7 -2.5,1.3 -27.7,13.6 -45.6,2.2 -3.7,-2.3 -10.4,-7.8 -19,-46.7 -5.9,-26.5 -6.6,-41.3 -12.2,-76.1 -2.2,-13.2 -4.2,-24 -5.5,-31.1 z"
   style="fill:#ffffff;stroke:#191919;stroke-width:2;stroke-miterlimit:10"
   id="path376" />
		<g
   id="g378">
			<g
   id="g377">
				<path
   d="m 714.4,394.2 c 8.5,18.2 16.9,36.7 19.5,56.7 0.1,0.5 0.8,0.5 0.8,0 -2.6,-20.2 -11,-38.8 -19.6,-57.1 -0.3,-0.4 -0.9,-0.1 -0.7,0.4 z"
   style="fill:#191919"
   id="path377" />
			</g>
		</g>
		<g
   id="g380">
			<g
   id="g379">
				<path
   d="m 711.1,391 c 5,10.6 9.1,21.5 12.5,32.7 0.1,0.5 0.9,0.3 0.7,-0.2 -3.4,-11.3 -7.6,-22.2 -12.6,-32.9 -0.1,-0.4 -0.8,-0.1 -0.6,0.4 z"
   style="fill:#191919"
   id="path378" />
			</g>
		</g>
		<g
   id="g382">
			<g
   id="g381">
				<path
   d="m 724.8,423.1 c 3.3,9 5.5,18.3 6.8,27.8 0.1,0.5 0.8,0.5 0.8,0 -1.3,-9.6 -3.5,-18.9 -6.8,-28 -0.2,-0.5 -0.9,-0.3 -0.8,0.2 z"
   style="fill:#191919"
   id="path380" />
			</g>
		</g>
		<g
   id="g384">
			<g
   id="g383">
				<path
   d="m 716.2,408.8 c 4.6,11.3 8.6,22.9 11.9,34.7 0.1,0.5 0.9,0.3 0.7,-0.2 -3.3,-11.8 -7.3,-23.4 -11.9,-34.7 -0.2,-0.4 -0.9,-0.2 -0.7,0.2 z"
   style="fill:#191919"
   id="path382" />
			</g>
		</g>
		<g
   id="g386">
			<g
   id="g385">
				<path
   d="m 739.4,455.7 c 12.5,-8.3 26.5,-13.7 41.4,-15.8 0.5,-0.1 0.3,-0.8 -0.2,-0.7 -15,2.1 -29,7.5 -41.6,15.8 -0.3,0.3 0,1 0.4,0.7 z"
   style="fill:#191919"
   id="path384" />
			</g>
		</g>
		<g
   id="g388">
			<g
   id="g387">
				<path
   d="m 745.7,454.4 c 13,-7.9 27.7,-10.9 42.3,-14.2 15.5,-3.5 30.6,-8.2 45.3,-14.2 0.4,-0.2 0.2,-0.9 -0.2,-0.7 -15.2,6.3 -30.9,11 -47,14.6 -14.1,3.2 -28.3,6.3 -40.8,13.9 -0.4,0.2 0,0.9 0.4,0.6 z"
   style="fill:#191919"
   id="path386" />
			</g>
		</g>
		<g
   id="g390">
			<g
   id="g389">
				<path
   d="m 743.3,458 c 15.4,-7.3 31.1,-11.8 47.6,-15.8 16.2,-4 31.9,-10.2 47.7,-15.6 0.5,-0.2 0.3,-0.9 -0.2,-0.7 -16.3,5.6 -32.6,12.1 -49.4,16 -15.9,3.8 -31.2,8.5 -46.1,15.5 -0.5,0.1 -0.1,0.8 0.4,0.6 z"
   style="fill:#191919"
   id="path388" />
			</g>
		</g>
		<path
   d="m 708.1,388.5 c 7.3,23.1 14.7,46.1 22,69.2 3.6,1.2 7.2,2.4 10.8,3.6 34.2,-11.3 68.3,-22.5 102.5,-33.8 1.2,1 2.4,2 3.6,3.1 3.9,47.5 7.9,94.9 11.8,142.4 -1.4,0.9 -2.7,1.7 -4.1,2.6 -34.7,5.3 -69.3,10.6 -104,15.9 -5,-1.2 -9.9,-2.4 -14.9,-3.6 -4.4,-19.5 -8.9,-38.9 -13.3,-58.4 -6.5,-46.1 -13,-92.2 -19.5,-138.3 1.7,-1 3.4,-1.9 5.1,-2.7 z"
   style="fill:#ffffff;stroke:#191919;stroke-width:2;stroke-miterlimit:10"
   id="path390" />
		<g
   id="g392">
			<g
   id="g391">
				<path
   d="m 728.5,458.3 c 1.6,43.3 4.7,86.7 7.1,130 0.1,1.4 2.3,1.4 2.3,0 -2.4,-43.3 -5.5,-86.6 -7.1,-130 -0.1,-1.5 -2.4,-1.5 -2.3,0 z"
   style="fill:#191919"
   id="path391" />
			</g>
		</g>
		<g
   id="g394">
			<g
   id="g393">
				<path
   d="m 738.9,461 c 1.4,12.3 2,24.6 2,37 0,1.4 2.2,1.4 2.3,0 0,-12.4 -0.6,-24.7 -2,-37 -0.3,-1.4 -2.5,-1.4 -2.3,0 z"
   style="fill:#191919"
   id="path392" />
			</g>
		</g>
		<path
   d="m 801.1,442.5 c 0.4,10 0.1,32.4 -12.7,56.5 -13.6,25.6 -33.5,38.8 -42.1,43.8 -0.4,-8.2 -0.9,-16.4 -1.3,-24.5 -3.4,5.7 -6.7,11.4 -10.1,17.1 0.7,17.8 1.5,35.6 2.2,53.5 4.8,1 9.6,2 14.5,3.1 33.7,-5.4 67.5,-10.8 101.2,-16.2 1.8,-0.7 3.5,-1.5 5.3,-2.2 -3.8,-48.1 -7.6,-96.1 -11.4,-144.2 -15.2,4.3 -30.4,8.7 -45.6,13.1 z"
   style="opacity:0.16;fill:#6c6d6d"
   id="path394" />
		<path
   d="m 739.4,462 c -0.7,0 -1.5,18.5 -1,38.6 0.6,28.6 3.3,41.1 2.5,68.4 -0.3,8.9 -0.8,16.2 -1.2,20.9 3.7,0.5 7.5,1 11.2,1.5 -0.7,-4.9 -1.7,-12 -2.7,-20.5 C 740.3,507.3 740.5,462 739.4,462 Z"
   style="opacity:0.1;fill:#6c6d6d"
   id="path395" />
		<g
   id="g397">
			<g
   id="g396">
				<path
   d="m 766.3,467.6 c 23.8,-5.6 47.2,-12.6 70.2,-21 1.8,-0.7 1,-3.6 -0.8,-2.9 -23,8.3 -46.4,15.3 -70.2,21 -1.8,0.5 -1,3.4 0.8,2.9 z"
   style="fill:#191919"
   id="path396" />
			</g>
		</g>
	</g><g
   id="fingers_right">
		<path
   d="m 712.3,470.6 c -1.1,0.4 -1,2.4 -1.9,11.7 -0.6,6.3 -0.8,6.4 -0.6,7.9 0.5,4.2 2,5 2.5,9.8 0.3,3.1 -0.3,3.5 0.2,6.1 0.6,3.2 2,5.6 3.1,7.1 0,1 0.2,2.7 1,4.4 1.6,3.1 5.3,5.8 7.3,4.8 1.1,-0.5 1.4,-2.6 1.9,-6.7 0.5,-3.8 0.2,-4 0.6,-8.4 0.4,-3.6 0.7,-4.3 0.4,-6.1 -0.3,-2.2 -1.1,-2.9 -1.9,-5.2 -1.1,-3.2 -0.6,-4.4 -1.3,-7.7 -1,-5.5 -3.6,-9.4 -5,-11.5 -1.4,-2.2 -4.4,-6.8 -6.3,-6.2 z"
   style="fill:#ffffff"
   id="path397" />
		<g
   id="g399">
			<g
   id="g398">
				<path
   d="m 711.6,469.7 c -5.4,11.7 0,24.8 12.2,29.1 1.4,0.5 2,-1.7 0.6,-2.2 -10.8,-3.8 -15.6,-15.4 -10.8,-25.8 0.5,-1.3 -1.4,-2.4 -2,-1.1 z"
   style="fill:#191919"
   id="path398" />
			</g>
		</g>
		<g
   id="g401">
			<g
   id="g400">
				<path
   d="m 712,471.5 c 7.2,6.7 11.4,15.5 12,25.3 0.1,1.4 2.3,1.4 2.3,0 -0.6,-10.4 -5,-19.8 -12.7,-26.9 -1.1,-1 -2.7,0.6 -1.6,1.6 z"
   style="fill:#191919"
   id="path399" />
			</g>
		</g>
		<g
   id="g403">
			<g
   id="g402">
				<path
   d="m 709,483.7 c -2.6,11.7 4.3,22.8 16.2,25.3 1.4,0.3 2,-1.9 0.6,-2.2 -10.6,-2.2 -17,-11.9 -14.6,-22.6 0.3,-1.4 -1.9,-2 -2.2,-0.5 z"
   style="fill:#191919"
   id="path401" />
			</g>
		</g>
		<g
   id="g405">
			<g
   id="g404">
				<path
   d="m 711.2,498.4 c -2.1,8.9 3.3,17.4 12.3,19.1 1.4,0.3 2,-1.9 0.6,-2.2 -7.8,-1.4 -12.6,-8.5 -10.8,-16.3 0.4,-1.4 -1.7,-2 -2.1,-0.6 z"
   style="fill:#191919"
   id="path403" />
			</g>
		</g>
		<g
   id="g407">
			<g
   id="g406">
				<path
   d="m 714.1,512.7 c -0.4,4.3 2.1,8.6 6.1,10.2 1.7,0.7 3.9,0.8 5.2,-0.7 1.4,-1.6 0.8,-4 0,-5.7 -0.5,-1.3 -2.7,-0.7 -2.2,0.6 0.5,1.1 1.5,3.3 -0.1,4 -1.2,0.5 -3.1,-0.7 -4,-1.4 -2.1,-1.7 -3.1,-4.3 -2.8,-7 0.2,-1.5 -2.1,-1.4 -2.2,0 z"
   style="fill:#191919"
   id="path405" />
			</g>
		</g>
		<g
   id="g409">
			<g
   id="g408">
				<path
   d="m 724.4,517.4 c 2.2,0 3.1,-2.2 3.4,-4.1 0.4,-2.3 0,-4.7 -1.2,-6.7 -0.7,-1.3 -2.7,-0.1 -1.9,1.1 0.7,1.2 1.1,2.5 1.1,3.8 0,0.7 -0.2,3.6 -1.4,3.6 -1.4,0 -1.4,2.3 0,2.3 z"
   style="fill:#191919"
   id="path407" />
			</g>
		</g>
		<g
   id="g411">
			<g
   id="g410">
				<path
   d="m 727.2,508.2 c 1.4,-1.3 1.4,-3.8 1.1,-5.6 -0.3,-2.3 -1.3,-4.3 -2.9,-6 -1,-1.1 -2.6,0.5 -1.6,1.6 1,1.1 1.8,2.4 2.1,4 0.2,1.1 0.5,3.5 -0.4,4.4 -1,1 0.6,2.6 1.7,1.6 z"
   style="fill:#191919"
   id="path409" />
			</g>
		</g>
	</g><g
   id="leg_left">
		<path
   d="m 831.3,830.3 c 3.7,22.4 7.3,44.9 11,67.3 -41.1,29.2 -60.2,46.4 -57.3,51.8 3.4,6.3 37,-3.8 100.8,-30.3 -2.3,-36.6 -4.6,-73.1 -7,-109.7 -15.8,7 -31.7,13.9 -47.5,20.9 z"
   style="fill:#161616;stroke:#161616;stroke-width:3;stroke-miterlimit:10"
   id="path411" />
		<path
   d="m 1011.1,559.7 c 1.6,13.3 2.2,34.6 -5.7,58.6 -3.4,10.2 -9.1,26.9 -24.1,42.6 -9.6,10 -26.4,27.6 -50.9,26.9 -19.8,-0.6 -33.8,-12.7 -38.9,-17.6 -1.5,18.8 -2.3,39.2 -1.9,61.1 0.6,33.7 3.9,64.2 8.3,90.8 -12,22.2 -35,35.9 -59.3,35.2 -31.2,-0.9 -48.9,-25 -50.9,-27.8 -7.2,-67.7 -7.8,-124 -6.5,-165.8 1.1,-34.1 3.5,-62.3 24.1,-85.2 20.1,-22.4 46.7,-27.5 53.7,-28.7 51.2,-9.1 89.9,27 94.5,31.5 7.4,0.5 21.9,0.3 37.5,-7.2 9.2,-4.5 15.8,-10.1 20.1,-14.4 z"
   style="fill:#ffffff;stroke:#161616;stroke-width:3;stroke-miterlimit:10"
   id="path412" />
		<g
   id="g414">
			<g
   id="g413">
				<path
   d="m 893.1,641.1 c -2.8,12.5 -4.3,25.2 -4.6,38 0,1.9 3,1.9 3,0 0.3,-12.6 1.7,-25 4.4,-37.2 0.5,-1.9 -2.4,-2.7 -2.8,-0.8 z"
   style="fill:#161616"
   id="path413" />
			</g>
		</g>
		<g
   id="g416">
			<g
   id="g415">
				<path
   d="m 893.8,657.1 c 1.4,-3.1 2.7,-6.2 4.1,-9.4 0.8,-1.8 -1.8,-3.3 -2.6,-1.5 -1.4,3.1 -2.7,6.2 -4.1,9.4 -0.8,1.7 1.8,3.2 2.6,1.5 z"
   style="fill:#161616"
   id="path414" />
			</g>
		</g>
		<g
   id="g418">
			<g
   id="g417">
				<path
   d="m 949.8,579.8 c 6.7,6.4 11.3,15.6 16.3,23.4 1,1.6 3.6,0.1 2.6,-1.5 -5.2,-8 -9.9,-17.3 -16.8,-24 -1.4,-1.4 -3.5,0.7 -2.1,2.1 z"
   style="fill:#161616"
   id="path416" />
			</g>
		</g>
		<path
   d="m 979.2,577.7 c 0.2,4.8 0.2,11.4 -0.6,19.3 -1.9,18.5 -3.5,34.2 -13.7,41 -11.9,8 -30,0.4 -36.7,-2.5 -23.2,-9.8 -25.9,-26.2 -39.2,-27.4 -15.7,-1.4 -32,19.6 -39.8,36.1 -19.3,40.5 2.6,72.2 5,144.9 0.9,29.2 -1.7,52.8 -3.7,67.2 5.2,-0.6 12,-2.1 19.3,-5.6 16.9,-8.1 25.4,-22 28.6,-28 -0.7,-5.5 -1.7,-14 -3.1,-24.3 -3.4,-25.1 -4.5,-27.8 -5.6,-38.6 -0.5,-4.9 -0.9,-10.4 0,-46 0.3,-10.5 0.6,-25 1.2,-42.3 2.7,1.9 6.4,4.3 11.2,6.8 3.3,1.7 14.9,7.8 25.5,9.3 16.9,2.4 31.3,-7.1 38.6,-11.8 19.9,-13.1 28.5,-31.5 34.2,-44.2 12.7,-28.1 13.1,-54.5 11.8,-70.9 -3.5,3.8 -10,9.9 -19.9,13.7 -5,2 -9.5,2.9 -13.1,3.3 z"
   style="opacity:0.09;fill:#3d3d3d"
   id="path418" />
		<path
   d="m 1008.4,581.4 c -2.3,-0.8 -9.2,12.7 -10,14.3 -6.5,12.9 -6.3,21.2 -8.7,29.2 -4.7,16 -19.9,32.1 -35.4,36.1 -26.1,6.7 -48,-22.2 -59.7,-13.1 -5.5,4.3 -5.2,14.1 -3.1,19.9 6,16.7 33.2,17.9 36.7,18 23.7,0.8 41.1,-13.9 46.6,-18.7 35.2,-30.4 37.8,-84.2 33.6,-85.7 z"
   style="opacity:0.11;fill:#3d3d3d"
   id="path419" />
		<path
   d="m 893.3,646.7 c -1.7,-0.3 -7,16.5 -10.6,33 -7.3,33.6 -6.4,59.5 -6.2,72.1 0.3,23.4 -1.7,56.9 -11.8,99.5 4.1,-1 10.4,-3.2 16.8,-8.1 9.8,-7.5 14,-16.9 15.5,-21.1 -2,-21.9 -3.4,-40.5 -4.4,-54.7 -2.4,-34.3 -3.6,-51.8 -3.1,-67.8 1.1,-31.9 5.7,-52.5 3.8,-52.9 z"
   style="opacity:0.11;fill:#3d3d3d"
   id="path420" />
	</g><g
   id="hand_left">
		<path
   d="m 848.3,483.1 c 0.9,-2.6 6.9,-2.6 8.5,-2.6 7,0 12.6,4.6 14.4,8.5 0.5,1.1 0.6,2 0.6,2.5 0.2,2.7 -1.4,5.4 -2.8,6.3 -5.2,3.3 -22.5,-9.6 -20.7,-14.7 z"
   style="fill:#ffffff;stroke:#161616;stroke-width:3;stroke-miterlimit:10"
   id="path421" />
		<path
   d="m 1030.7,329.1 c 15.9,9.8 14,37.5 11.6,72.2 -2.7,38.3 -11.9,65.2 -15.4,75 -6.2,16.9 -13.1,30.6 -18.8,40.4 -20.6,8.8 -53.4,19.2 -94,17.4 -14.7,-0.7 -27.8,-2.8 -39.1,-5.5 -13.5,9.3 -24.4,9.2 -29.1,8.7 -7.3,-0.7 -16.9,-4 -16.8,-7.2 0,-2.2 4.7,-4 6.8,-4.8 5.1,-2 9.6,-1.8 9.6,-2 0,-0.2 -3.7,0 -7.6,-0.4 -2.6,-0.3 -7.7,-0.7 -12.1,-3 -1.6,-0.8 -9.5,-4.7 -11,-12.3 -1.4,-6.9 2.8,-14.7 10.5,-19.3 7.1,-1.9 19.6,-4.2 34.7,-1.5 11.2,2 19.8,6 25.5,9.1 26.9,-6.6 53.8,-13.3 80.6,-19.9 0.5,-5.6 1.4,-13.8 2.5,-23.9 3.5,-31.9 5.2,-47.9 7.9,-61.4 6.6,-33.2 10.9,-54.9 27.7,-62.5 7.5,-3.3 18.4,-4.1 26.5,0.9 z"
   style="fill:#ffffff;stroke:#161616;stroke-width:3;stroke-miterlimit:10"
   id="path422" />
		<path
   d="m 1015,326.8 c 3.3,20.5 6.3,50.8 3.6,87.2 -3,40.1 -4.7,60.1 -18.9,76.7 -21.3,24.9 -67.2,37.4 -102.9,27.3 -13.8,-3.9 -33.7,-12.8 -58.1,-7.8 -7,1.4 -17.7,4.7 -17.5,7.3 0.2,2 7.4,4 12.5,4.6 3.9,0.4 6.4,0.1 6.6,0.9 0.6,1.9 -10.7,5.1 -10.4,8.4 0.2,2.8 9.1,5 16.4,5.2 5.6,0.2 15.5,-0.5 27.5,-7.4 10.6,2.5 22.7,4.6 36,5.4 42.5,2.6 77.3,-8.5 99,-17.9 4.4,-7.9 10,-19 15.4,-32.8 16.7,-42.4 18.6,-77.7 18.9,-87.3 0.6,-14.4 0.1,-34.6 -4.6,-58.5 -0.7,-1.5 -3.7,-7.2 -10.6,-10.2 -5.8,-2.5 -11.1,-1.5 -12.9,-1.1 z"
   style="opacity:0.18;fill:#3d3d3d"
   id="path423" />
		<path
   d="m 988.3,517.2 c -15.5,2.4 -24.5,4.9 -31.5,6.3 -28.4,6 -51.4,3.3 -59.5,2.3 -8.3,-0.9 -15.1,-2.3 -19.8,-3.3 -5.7,2.3 -14.2,5.2 -24.8,6.4 -13.6,1.5 -23.3,-0.5 -23.6,1.2 -0.3,1.6 8,5.8 16.8,6.8 13.4,1.5 24.3,-5 29.2,-8.4 6.2,1.7 15.1,3.9 26,5.2 57.9,7.1 108.8,-16.9 108.2,-19.1 -0.1,-0.7 -7.1,0.4 -21,2.6 z"
   style="opacity:0.21;fill:#3d3d3d"
   id="path424" />
		<g
   id="g426">
			<g
   id="g425">
				<path
   d="m 820.8,517.4 c 9.4,-4 19.6,-4.8 29.5,-2.5 1.9,0.4 2.7,-2.5 0.8,-2.9 -10.8,-2.5 -21.6,-1.6 -31.8,2.8 -1.8,0.8 -0.2,3.4 1.5,2.6 z"
   style="fill:#161616"
   id="path425" />
			</g>
		</g>
		<g
   id="g428">
			<g
   id="g427">
				<path
   d="m 815.5,507.8 c 11.1,-4 22.7,-5.3 34.4,-3.8 1.9,0.2 1.9,-2.8 0,-3 -11.9,-1.5 -23.9,-0.2 -35.2,3.9 -1.8,0.7 -1,3.6 0.8,2.9 z"
   style="fill:#161616"
   id="path426" />
			</g>
		</g>
		<g
   id="g430">
			<g
   id="g429">
				<path
   d="m 818.3,497.6 c 11,-3.2 22.2,-4.4 33.6,-3.6 1.9,0.1 1.9,-2.9 0,-3 -11.6,-0.8 -23.2,0.5 -34.4,3.7 -1.9,0.5 -1.1,3.4 0.8,2.9 z"
   style="fill:#161616"
   id="path428" />
			</g>
		</g>
	</g><path
   d="m 871.2,169.2 c -27.9,22.6 -26.8,68.6 -15.8,98.3 6.9,18.8 18.1,31.7 25.3,38.8 1.8,7.6 3.5,15.3 5.3,22.9 8.8,1.9 20.4,3.4 33.9,2.2 30.4,-2.8 51.8,-17.6 61.3,-25.3 -6.7,-16.6 -13.4,-33.2 -20.1,-49.9 -0.9,-6.1 -2.2,-15.5 -3.8,-26.9 -4.1,-29.9 -3.9,-31.5 -5.7,-36.3 -0.8,-2 -12.1,-30.6 -38.6,-35.7 -21.5,-4.1 -39.2,9.7 -41.8,11.9 z"
   style="fill:#ffffff;stroke:#161616;stroke-width:3;stroke-miterlimit:10"
   id="path430" /><path
   d="m 848.2,245.7 c -1.6,6.3 -3.3,16.1 -2.1,28 0.8,7.9 2.1,21.6 12,34.8 10.7,14.3 25.2,19.7 31.3,21.7 -0.5,-1.6 -1,-3.6 -1.3,-5.9 -0.3,-2.5 -0.2,-4.7 0,-6.4 6.6,3.5 13.2,7.1 19.7,10.6 16.6,-15.2 22.1,-29 24,-39.1 1.5,-7.9 2.4,-22.4 6,-48.8 0.6,-4.7 1.9,-13.2 7.3,-15.3 2.5,-1 5.9,-0.6 8.2,1.3 6.6,5.5 -0.1,21.2 1.3,21.7 1.4,0.4 12.9,-15.4 9,-33.6 -2,-9.4 -7.5,-15.9 -10.7,-19.1 -7.2,11.3 -15.2,22.9 -24,34.8 -5.6,7.6 -11.2,14.8 -16.7,21.7 -2.1,1.1 -5.2,2.4 -8.8,2.1 -2.8,-0.2 -3.8,-1.2 -5.9,-1.8 -7.8,-2.2 -12,6.9 -19.6,5.7 -6.3,-1 -6.9,-7.7 -13.8,-7.9 -3.3,-0.1 -4.7,1.4 -8.1,0.7 -3.6,-0.8 -6.1,-3.2 -7.8,-5.2 z"
   style="fill:#161616;stroke:#161616;stroke-width:3;stroke-miterlimit:10"
   id="path431" /><g
   id="g433">
			<g
   id="g432">
				<path
   d="m 880.4,219 c -2.4,10.9 -3.9,21.9 -4.5,33 -0.1,1.2 1.3,1.8 2.3,1.3 3.9,-2 7.8,-4 11.8,-6 1.7,-0.9 0.2,-3.5 -1.5,-2.6 -3.9,2 -7.8,4 -11.8,6 0.8,0.4 1.5,0.9 2.3,1.3 0.7,-10.9 2.1,-21.6 4.4,-32.2 0.3,-1.9 -2.6,-2.7 -3,-0.8 z"
   style="fill:#161616"
   id="path432" />
			</g>
		</g><path
   d="m 864.7,225.1 c 1.1,1.7 1.3,4.3 0.4,4.8 -1.1,0.6 -4.2,-1.7 -4.6,-4.3 -0.1,-0.8 0,-2.2 0.7,-2.6 1,-0.5 2.7,0.8 3.5,2.1 z"
   style="fill:#161616;stroke:#161616;stroke-width:3;stroke-miterlimit:10"
   id="path433" /><g
   id="g435">
			<g
   id="g434">
				<path
   d="m 859.5,214.8 c 3.5,-1.8 7.7,-1.5 10.9,1 1.5,1.2 3.6,-0.9 2.1,-2.1 -4.2,-3.4 -9.7,-4 -14.5,-1.5 -1.7,0.9 -0.2,3.5 1.5,2.6 z"
   style="fill:#161616"
   id="path434" />
			</g>
		</g><g
   id="g437">
			<g
   id="g436">
				<path
   d="m 894.4,216.3 c 5,-3.3 11.8,-2.2 15.2,2.8 1.1,1.6 3.7,0.1 2.6,-1.5 -4.3,-6.2 -12.9,-8.1 -19.3,-3.9 -1.6,1.1 -0.1,3.7 1.5,2.6 z"
   style="fill:#161616"
   id="path435" />
			</g>
		</g><g
   id="g439">
			<g
   id="g438">
				<path
   d="m 826.2,197.2 c 39.9,2.3 79.8,5.7 119.5,10 5.8,0.6 5.7,-8.4 0,-9 -39.7,-4.3 -79.6,-7.7 -119.5,-10 -5.8,-0.3 -5.8,8.7 0,9 z"
   style="fill:#161616"
   id="path437" />
			</g>
		</g><path
   d="m 852.1,191.1 c 0.6,-6.1 3.1,-21.8 15.3,-34.5 15.9,-16.6 45.2,-23.6 68,-9.5 17.9,11.1 27.4,32.5 24.2,54.3 -35.9,-3.4 -71.7,-6.9 -107.5,-10.3 z"
   style="fill:#091a3e;fill-opacity:1"
   id="path439" /><path
   d="m 902.5,142.7 c -4.7,3.9 -4.7,12 -3,20.7 1.8,9.5 6.4,21.1 13.4,32.9 15.5,1.8 31.1,3.6 46.6,5.4 0.7,-3.3 1.3,-8.2 0.7,-14.1 0,0 -1,-10.7 -6.7,-20.4 -11.4,-19.2 -41.2,-32.7 -51,-24.5 z"
   style="opacity:0.69;fill:#091a3e;fill-opacity:1"
   id="path440" /><path
   d="m 951.2,253 c -3.5,1.9 -7,1.4 -8.2,1.2 1.5,2.9 4.6,9.1 6.8,17.8 2,8.2 4.9,19.4 1.1,32.3 -3.4,11.5 -10.6,19.1 -15.5,23.3 6,-1.1 13.9,-3.2 22.6,-7.5 10.1,-5 17.3,-11 22,-15.6 -7.4,-20.9 -14.7,-41.8 -22.1,-62.7 0,0.4 -0.4,7.9 -6.7,11.2 z"
   style="opacity:0.24;fill:#3d3d3d"
   id="path441" /><path
   d="m 916.2,203.8 c 1.1,4.8 2.1,12 0.9,20.5 -2,14.3 -8.9,24.2 -12.6,28.7 2.2,-0.7 4.4,-1.4 6.6,-2.1 4.4,-5.3 8.8,-10.9 13.2,-16.7 7.2,-9.5 13.9,-18.8 19.9,-27.9 -9.3,-0.7 -18.7,-1.6 -28,-2.5 z"
   style="opacity:0.19;fill:#3d3d3d"
   id="path442" /><path
   d="m 902.6,226 c 1.1,1.7 1.3,4.3 0.4,4.8 -1.1,0.6 -4.2,-1.7 -4.6,-4.3 -0.1,-0.8 0,-2.2 0.7,-2.6 1,-0.5 2.6,0.8 3.5,2.1 z"
   style="fill:#161616;stroke:#161616;stroke-width:3;stroke-miterlimit:10"
   id="path443" /><circle
   cx="858.79999"
   cy="232.89999"
   style="fill:none;stroke:#161616;stroke-width:2;stroke-miterlimit:10"
   id="ellipse443"
   r="18.1" /><circle
   cx="900.90002"
   cy="232.89999"
   style="fill:none;stroke:#161616;stroke-width:2;stroke-miterlimit:10"
   id="ellipse444"
   r="18.1" /><g
   id="g445">
			<g
   id="g444">
				<path
   d="m 879,233.5 c 0.4,-0.5 1.2,-0.7 1.7,-0.3 0.6,0.5 1.5,0.6 2.1,0 0.5,-0.5 0.6,-1.6 0,-2.1 -1.7,-1.5 -4.4,-1.5 -5.9,0.3 -0.5,0.6 -0.6,1.5 0,2.1 0.5,0.6 1.6,0.6 2.1,0 z"
   style="fill:#161616"
   id="path444" />
			</g>
		</g><g
   id="g447">
			<g
   id="g446">
				<path
   d="m 842.2,234.1 c 1.9,-1 3.8,-2.1 5.6,-3.3 1.6,-1 0.1,-3.6 -1.5,-2.6 -1.8,1.2 -3.7,2.3 -5.6,3.3 -1.8,0.9 -0.2,3.5 1.5,2.6 z"
   style="fill:#161616"
   id="path445" />
			</g>
		</g><g
   id="g449">
			<g
   id="g448">
				<path
   d="m 920.1,233.8 c 8.3,-2.1 16.7,-4.1 25,-6.2 1.9,-0.5 1.1,-3.4 -0.8,-2.9 -8.3,2.1 -16.7,4.1 -25,6.2 -1.9,0.5 -1.1,3.4 0.8,2.9 z"
   style="fill:#161616"
   id="path447" />
			</g>
		</g>
</svg>
