<?xml version="1.0" encoding="UTF-8" standalone="no"?>
<!-- Created with Inkscape (http://www.inkscape.org/) -->

<svg
   width="1600"
   height="1200"
   viewBox="0 0 423.33332 317.5"
   version="1.1"
   id="svg1"
   xml:space="preserve"
   xmlns:xlink="http://www.w3.org/1999/xlink"
   xmlns="http://www.w3.org/2000/svg"
   xmlns:svg="http://www.w3.org/2000/svg"><defs
     id="defs1"><linearGradient
       id="linearGradient152"><stop
         style="stop-color:#c6cebe;stop-opacity:1;"
         offset="0"
         id="stop152" /><stop
         style="stop-color:#c6cebe;stop-opacity:0;"
         offset="1"
         id="stop153" /></linearGradient><linearGradient
       xlink:href="#linearGradient152"
       id="linearGradient153"
       x1="73.66378"
       y1="410.11414"
       x2="426.22534"
       y2="410.11414"
       gradientUnits="userSpaceOnUse" /><linearGradient
       id="SVGID_00000156569127905742558190000005161559305713244833_"
       gradientUnits="userSpaceOnUse"
       x1="214.8987"
       y1="247.95151"
       x2="254.1906"
       y2="102.3091"
       gradientTransform="matrix(0.26458333,0,0,0.26458333,34.558138,1.0428402)">
		<stop
   offset="0.2807"
   style="stop-color:#f1aa4b;stop-opacity:1;"
   id="stop72" />
		<stop
   offset="1"
   style="stop-color:#9CEC92"
   id="stop73" />
	</linearGradient><clipPath
       clipPathUnits="userSpaceOnUse"
       id="clipPath2797-9"><path
         d="M 0,589.265 H 589.265 V 0 H 0 Z"
         id="path2795-8" /></clipPath></defs><g
     id="layer1"><g
       id="layer1-53"
       transform="matrix(3.8829539,0,0,2.6476484,-182.22579,-17.708242)"><g
         id="BACKGROUND-0"
         transform="matrix(0.18994919,0,0,0.18994919,209.65931,147.72312)">
</g><g
         id="g162"><g
           id="g3"
           transform="matrix(0.26458333,0,0,0.26458333,34.558138,1.0428402)"
           style="fill:#091a3e;fill-opacity:1">
	<g
   id="g2"
   style="fill:#091a3e;fill-opacity:1">
		<g
   id="Layer0_0_FILL"
   style="fill:#091a3e;fill-opacity:1">
			<linearGradient
   id="SVGID_1_"
   gradientUnits="userSpaceOnUse"
   x1="249.76691"
   y1="465.99661"
   x2="249.76691"
   y2="62.702702">
				<stop
   offset="0.2326"
   style="stop-color:#B8F6EE"
   id="stop1" />
				<stop
   offset="1"
   style="stop-color:#EAFFFF"
   id="stop2" />
			</linearGradient>
			<path
   style="fill:#091a3e;fill-opacity:1"
   d="m 380.33,178.585 c 13.776,-24.654 19.976,-47.627 18.602,-68.918 C 397.557,88.374 387.595,70.54 369.045,56.164 347.059,39.114 314.081,30.589 270.109,30.589 c -26.486,0 -51.46,4.922 -74.923,14.765 -20.371,8.508 -38.681,20.287 -54.93,35.335 -14.188,13.18 -25.455,27.444 -33.803,42.792 -7.695,14.147 -11.542,26.476 -11.542,36.987 0,11.345 1.615,21.672 4.844,30.981 2.267,6.607 5.806,13.647 10.615,21.121 6.561,10.177 10.1,15.766 10.615,16.767 3.229,6.106 4.844,12.112 4.844,18.018 0,12.479 -4.019,24.891 -12.058,37.237 -4.912,7.541 -13.775,17.985 -26.589,31.331 -12.951,13.513 -21.814,23.857 -26.589,31.031 -8.039,12.145 -12.058,24.274 -12.058,36.386 0,19.987 3.573,37.187 10.718,51.601 4.775,9.71 11.697,17.985 20.766,24.825 l 354.623,-0.05 c 11.646,-17.35 17.073,-37.487 16.283,-60.41 -0.996,-27.561 -6.321,-49.766 -15.974,-66.616 -6.802,-11.845 -17.434,-23.357 -31.896,-34.534 -7.729,-5.772 -13.398,-10.043 -17.005,-12.813 -6.321,-4.838 -11.285,-9.176 -14.892,-13.013 -9.654,-10.378 -13.983,-22.423 -12.985,-36.136 1.03,-13.719 8.416,-32.921 22.157,-57.609 z"
   id="path2" />
		</g>
	</g>
</g><g
           transform="matrix(0.21698449,-0.05813598,0.05813598,0.21698449,13.73543,24.074819)"
           id="g5"
           style="fill:#f1aa4b;fill-opacity:1">
		<g
   id="g4"
   style="fill:#f1aa4b;fill-opacity:1">
			<g
   id="Layer0_1_FILL"
   style="fill:#f1aa4b;fill-opacity:1">
				
					<linearGradient
   id="SVGID_00000176020460631069376770000018195048437692818878_"
   gradientUnits="userSpaceOnUse"
   x1="99.8181"
   y1="475.32199"
   x2="47.5625"
   y2="415.3656">
					<stop
   offset="0"
   style="stop-color:#23BE70"
   id="stop3" />
					<stop
   offset="1"
   style="stop-color:#66ECF1"
   id="stop4" />
				</linearGradient>
				<path
   style="fill:#f1aa4b;fill-opacity:1"
   d="m 65.269,428.954 c 8.526,20.599 19.123,38.724 31.793,54.374 1.61,-1.938 3.577,-4.233 5.902,-6.886 -1.282,-18.691 -7.08,-36.95 -17.394,-54.777 -10.314,-17.827 -21.3,-31.897 -32.956,-42.212 0.567,13.981 4.785,30.481 12.655,49.501 z"
   id="path4" />
			</g>
		</g>
	</g><g
           transform="matrix(0.26458333,0,0,0.26458333,36.145638,-0.87538894)"
           id="g7"
           style="fill:#f1aa4b;fill-opacity:1">
		<g
   id="g6"
   style="fill:#f1aa4b;fill-opacity:1">
			<g
   id="Layer0_2_FILL"
   style="fill:#f1aa4b;fill-opacity:1">
				
					<linearGradient
   id="SVGID_00000132784616755376262380000017288318297468287932_"
   gradientUnits="userSpaceOnUse"
   x1="105.9"
   y1="432.77591"
   x2="68.496002"
   y2="359.61801">
					<stop
   offset="0"
   style="stop-color:#7CDDAC"
   id="stop5" />
					<stop
   offset="1"
   style="stop-color:#7CDDEF"
   id="stop6" />
				</linearGradient>
				<path
   style="fill:#f1aa4b;fill-opacity:1"
   d="m 65.341,351.614 c 0.603,13.977 4.837,30.478 12.699,49.5 8.517,20.602 19.114,38.727 31.793,54.374 1.601,-1.932 3.554,-4.227 5.858,-6.886 -1.251,-18.697 -7.035,-36.956 -17.35,-54.777 -10.312,-17.813 -21.312,-31.884 -33,-42.211 z"
   id="path6" />
			</g>
		</g>
	</g><g
           id="g8"
           transform="matrix(0.26458333,0,0,0.26458333,34.558138,2.9081527)"
           style="fill:#f1aa4b;fill-opacity:1">
			<g
   id="Layer0_3_FILL"
   style="fill:#f1aa4b;fill-opacity:1">
				
					<linearGradient
   id="SVGID_00000152221849993225567810000007002559832792951711_"
   gradientUnits="userSpaceOnUse"
   x1="134.41679"
   y1="351.85599"
   x2="72.810204"
   y2="234.6936">
					<stop
   offset="0"
   style="stop-color:#7CDDAC"
   id="stop7" />
					<stop
   offset="1"
   style="stop-color:#7CDDEF"
   id="stop8" />
				</linearGradient>
				<path
   style="fill:#f1aa4b;fill-opacity:1"
   d="m 59.58,212.513 c 0,2.832 0.522,5.008 1.565,6.529 0.596,0.894 1.744,1.878 3.443,2.951 1.64,1.043 2.772,2.072 3.398,3.085 1.043,1.61 1.565,3.905 1.565,6.886 0,1.073 -0.745,4.71 -2.236,10.911 -1.491,6.171 -2.236,9.912 -2.236,11.224 0,4.382 1.595,8.719 4.785,13.012 2.117,2.862 5.649,6.454 10.598,10.776 5.425,4.74 8.943,8.049 10.553,9.927 3.19,3.726 4.785,7.274 4.785,10.642 0,0.745 -0.298,3.771 -0.894,9.077 -0.596,5.277 -0.894,8.287 -0.894,9.033 0,6.618 1.982,12.535 5.947,17.752 2.593,3.428 6.931,7.408 13.012,11.939 6.677,4.978 11.03,8.57 13.057,10.777 3.935,4.322 5.903,9.062 5.903,14.22 0,3.369 -1.342,8.988 -4.025,16.858 -2.683,7.9 -4.024,13.117 -4.024,15.65 0,7.363 1.506,13.609 4.516,18.736 2.569,4.386 6.429,8.425 11.581,12.118 11.434,-5.467 23.016,-11.4 34.744,-17.797 0.499,-0.272 0.991,-0.54 1.476,-0.805 -0.032,-0.014 -0.062,-0.029 -0.089,-0.045 -2.862,-1.61 -4.293,-5.187 -4.293,-10.732 0,-4.829 1.371,-11.09 4.114,-18.781 2.713,-7.661 4.069,-14.816 4.069,-21.464 0,-7.453 -1.848,-13.579 -5.545,-18.378 -2.832,-3.697 -7.214,-7.035 -13.146,-10.016 -7.065,-3.1 -12.267,-5.485 -15.606,-7.154 -5.843,-2.922 -10.106,-6.171 -12.789,-9.748 -2.951,-3.935 -4.635,-8.153 -5.053,-12.655 -0.239,-2.862 0.09,-6.722 0.984,-11.581 0.924,-4.978 1.312,-8.481 1.163,-10.508 -0.209,-3.667 -1.654,-6.841 -4.337,-9.525 -2.534,-2.534 -5.962,-5.127 -10.285,-7.781 -4.919,-2.862 -8.511,-5.008 -10.776,-6.439 -7.959,-5.127 -12.118,-10.97 -12.476,-17.529 0.894,-8.049 0.76,-15.114 -0.402,-21.195 -2.236,-11.805 -8.735,-17.707 -19.496,-17.707 -2.772,0 -5.455,0.641 -8.049,1.923 -3.071,1.551 -4.607,3.489 -4.607,5.814 z"
   id="path8" />
			</g>
		</g><g
           transform="matrix(0.206302,0.06779302,-0.06779302,0.206302,87.408658,-3.5344514)"
           id="g11"
           style="fill:#f1aa4b;fill-opacity:1">
		<g
   id="g10"
   style="fill:#f1aa4b;fill-opacity:1">
			<g
   id="Layer0_4_FILL"
   style="fill:#f1aa4b;fill-opacity:1">
				
					<linearGradient
   id="SVGID_00000183250178893838609230000017079775502065409938_"
   gradientUnits="userSpaceOnUse"
   x1="417.67639"
   y1="436.91489"
   x2="436.92841"
   y2="409.96201">
					<stop
   offset="0"
   style="stop-color:#23BE70"
   id="stop9" />
					<stop
   offset="1"
   style="stop-color:#66ECF1"
   id="stop10" />
				</linearGradient>
				<path
   style="fill:#f1aa4b;fill-opacity:1"
   d="m 443.718,386.013 c -2.623,2.206 -6.469,5.828 -11.537,10.866 -5.068,4.949 -10.836,12.52 -17.305,22.716 -6.499,10.165 -11.075,19.586 -13.728,28.26 -2.683,8.615 -3.965,15.188 -3.845,19.72 2.772,0.954 5.113,1.848 7.02,2.683 13.445,-12.819 23.073,-26.934 28.886,-42.346 5.784,-15.383 9.287,-29.349 10.509,-41.899 z"
   id="path10" />
			</g>
		</g>
	</g><g
           transform="matrix(0.25423189,-0.05981951,0.0666626,0.28332411,11.314492,21.349611)"
           id="g13"
           style="fill:#f1aa4b;fill-opacity:1">
		<g
   id="g12"
   style="fill:#f1aa4b;fill-opacity:1">
			<g
   id="Layer0_5_FILL"
   style="fill:#f1aa4b;fill-opacity:1">
				
					<linearGradient
   id="SVGID_00000057119612372480805070000002101638375285641089_"
   gradientUnits="userSpaceOnUse"
   x1="393.22601"
   y1="414.4299"
   x2="427.87979"
   y2="307.71811">
					<stop
   offset="0"
   style="stop-color:#7CDDAC"
   id="stop11" />
					<stop
   offset="1"
   style="stop-color:#7CDDEF"
   id="stop12" />
				</linearGradient>
				<path
   style="fill:#f1aa4b;fill-opacity:1"
   d="m 422.324,364.484 c -6.379,4.561 -13.996,11.835 -22.85,21.821 -8.854,9.986 -15.472,19.481 -19.854,28.484 -4.412,8.973 -6.961,15.934 -7.646,20.882 2.892,1.55 5.306,2.936 7.244,4.159 16.873,-11.686 29.81,-25.428 38.813,-41.228 8.973,-15.829 15.218,-30.481 18.736,-43.956 -3.249,1.968 -8.064,5.247 -14.443,9.838 z"
   id="path12" />
			</g>
		</g>
	</g><g
           transform="matrix(0.2595691,-0.05124041,0.05390901,0.27310995,9.8592841,20.555861)"
           id="g15"
           style="fill:#f1aa4b;fill-opacity:1">
		<g
   id="g14"
   style="fill:#f1aa4b;fill-opacity:1">
			<g
   id="Layer0_6_FILL"
   style="fill:#f1aa4b;fill-opacity:1">
				
					<linearGradient
   id="SVGID_00000129167260858312435700000016985853475046930590_"
   gradientUnits="userSpaceOnUse"
   x1="373.21869"
   y1="404.39182"
   x2="407.87241"
   y2="297.68039">
					<stop
   offset="0"
   style="stop-color:#7CDDAC"
   id="stop13" />
					<stop
   offset="1"
   style="stop-color:#7CDDEF"
   id="stop14" />
				</linearGradient>
				<path
   style="fill:#f1aa4b;fill-opacity:1"
   d="m 416.017,307.033 c 0.06,3.041 -0.298,5.44 -1.073,7.199 -1.52,3.458 -3.592,6.186 -6.216,8.183 -1.252,0.984 -3.503,2.266 -6.752,3.846 -2.623,1.282 -4.457,2.579 -5.5,3.89 -1.49,1.938 -2.236,4.725 -2.236,8.362 0,0.507 0.194,3.026 0.581,7.557 0.388,4.561 0.581,7.08 0.581,7.557 0,5.366 -1.759,9.331 -5.276,11.894 -1.669,1.222 -5.53,2.862 -11.581,4.919 -5.366,1.818 -9.226,3.98 -11.581,6.484 -3.518,3.756 -5.277,9.316 -5.276,16.679 0,1.52 0.835,6.394 2.504,14.622 1.55,7.691 0.805,14.235 -2.236,19.63 0.984,0.388 1.863,0.745 2.638,1.073 0.864,-2.892 2.444,-5.083 4.74,-6.573 2.713,-1.789 6.782,-4.129 12.207,-7.02 5.425,-2.892 9.196,-5.291 11.313,-7.199 3.309,-3.041 4.963,-6.215 4.963,-9.524 0,-2.594 -0.879,-6.275 -2.638,-11.045 -1.789,-4.77 -2.683,-7.9 -2.683,-9.39 0,-3.309 1.565,-6.171 4.695,-8.585 1.61,-1.252 5.068,-3.16 10.374,-5.724 4.829,-2.355 8.287,-4.531 10.374,-6.529 3.13,-2.981 4.695,-6.618 4.695,-10.911 0,-3.905 -1.088,-7.393 -3.264,-10.464 -1.371,-1.967 -2.117,-3.041 -2.236,-3.22 -0.686,-1.192 -1.029,-2.415 -1.029,-3.667 0,-2.176 0.954,-4.442 2.862,-6.797 1.163,-1.431 3.279,-3.503 6.35,-6.215 3.041,-2.713 5.426,-4.919 7.155,-6.618 1.729,-1.729 2.772,-3.846 3.13,-6.35 0.358,-2.504 -0.209,-5.008 -1.699,-7.512 -1.49,-2.534 -3.756,-3.801 -6.797,-3.801 -4.084,0 -7.005,0.76 -8.764,2.28 -1.431,1.222 -2.251,3.115 -2.459,5.679 0,0.09 0.045,2.52 0.134,7.29 z"
   id="path14" />
			</g>
		</g>
	</g><g
           id="g18"
           transform="matrix(0.26458333,0,0,0.26458333,34.558138,1.0428402)"
           style="fill:url(#linearGradient153);fill-opacity:1">
	<g
   id="g17"
   style="fill:url(#linearGradient3);fill-opacity:1">
		<g
   id="Layer0_7_FILL"
   style="fill:url(#linearGradient2);fill-opacity:1">
			
				<linearGradient
   id="SVGID_00000008114431043081566170000001078892828219320710_"
   gradientUnits="userSpaceOnUse"
   x1="249.9422"
   y1="344.21619"
   x2="249.9422"
   y2="517.45789"
   style="fill:url(#linearGradient153)">
				<stop
   offset="0.3235"
   style="stop-color:#DCEEB2;fill:url(#linearGradient153)"
   id="stop16" />
				<stop
   offset="1"
   style="stop-color:#C1EEEF;fill:url(#linearGradient153)"
   id="stop17" />
			</linearGradient>
			<path
   style="fill:url(#linearGradient1);fill-opacity:1"
   d="m 350.457,406.519 c -1.908,-11.924 -8.571,-17.886 -19.988,-17.886 -11.03,0 -17.931,4.308 -20.703,12.923 -0.686,2.087 -1.133,4.531 -1.341,7.333 -2.504,-1.967 -5.798,-2.951 -9.882,-2.951 -2.087,0 -4.874,0.507 -8.362,1.52 -0.268,-4.71 -1.312,-8.943 -3.13,-12.699 -4.024,-7.93 -11.283,-11.894 -21.777,-11.894 -5.068,0 -9.748,1.148 -14.041,3.443 -0.417,-5.873 -1.029,-10.583 -1.833,-14.13 -2.772,-12.073 -9.405,-18.11 -19.898,-18.11 -6.678,0 -13.117,3.413 -19.317,10.24 -6.439,7.154 -9.912,15.725 -10.419,25.711 -3.249,-3.488 -7.93,-5.232 -14.041,-5.232 -8.526,0 -14.607,3.205 -18.244,9.614 -2.802,4.919 -4.203,11.85 -4.203,20.793 0,0.209 0.119,2.728 0.358,7.557 0.06,1.312 0.104,2.519 0.134,3.622 -3.309,-2.951 -7.214,-4.427 -11.715,-4.427 -6.111,0 -12.476,1.833 -19.094,5.5 -2.117,1.133 -3.86,2.31 -5.232,3.533 -0.358,-3.398 -1.327,-6.454 -2.907,-9.167 -2.683,-4.621 -6.335,-6.931 -10.955,-6.931 -8.824,0 -14.264,5.902 -16.321,17.708 -0.864,5.008 -1.222,11.015 -1.073,18.02 -1.967,-1.192 -4.233,-1.789 -6.797,-1.789 -5.545,0 -9.688,1.491 -12.431,4.472 -1.566,1.688 -2.654,3.849 -3.264,6.484 -1.096,4.459 0.648,6.575 5.232,6.35 h 342.165 c 3.598,0.329 5.193,-1.712 4.785,-6.126 -0.008,-4.791 -0.44,-8.86 -1.297,-12.207 -2.683,-10.404 -9.972,-15.606 -21.866,-15.606 -3.935,0 -8.526,1.476 -13.772,4.427 -2.504,1.401 -4.576,2.921 -6.215,4.561 -0.298,-3.011 -0.924,-6.022 -1.878,-9.033 -2.981,-9.361 -8.645,-14.041 -16.992,-14.041 -5.366,0 -9.733,1.744 -13.102,5.232 0,-0.686 0.015,-1.401 0.045,-2.146 0.146,-6.201 -0.063,-11.09 -0.629,-14.668 z"
   id="path17" />
		</g>
	</g>
</g><g
           id="g35"
           transform="matrix(0.26458333,0,0,0.26458333,34.558138,1.0428402)">
	<g
   transform="matrix(0.86598206,-0.49995422,0.49995422,0.86598206,-266.25,276.8)"
   id="g20">
		<g
   id="g19">
			<g
   id="Layer0_8_MEMBER_0_FILL">
				<path
   style="fill:#4fbecf"
   d="m 384.043,217.856 v 2.683 h 8.004 v -2.683 h -8.004 m 8.004,7.914 h -8.675 v 2.683 h 8.675 z"
   id="path18" />
			</g>
		</g>
	</g>
	<g
   transform="matrix(0.86598206,-0.49995422,0.49995422,0.86598206,-266.25,276.8)"
   id="g22">
		<g
   id="g21">
			<g
   id="Layer0_8_MEMBER_1_FILL">
				<path
   style="fill:#4fbecf"
   d="m 390.974,193.843 v 2.683 h 12.029 c 0.358,0 0.671,-0.134 0.939,-0.402 0.268,-0.268 0.402,-0.581 0.402,-0.939 0,-0.358 -0.134,-0.671 -0.402,-0.939 -0.268,-0.268 -0.581,-0.402 -0.939,-0.402 l -12.029,-0.001 m 0,-7.915 v 2.683 h 14.488 c 0.358,0 0.671,-0.134 0.939,-0.402 0.268,-0.268 0.402,-0.581 0.402,-0.939 0,-0.358 -0.134,-0.671 -0.402,-0.939 -0.268,-0.268 -0.581,-0.402 -0.939,-0.402 l -14.488,-0.001 m 0,-15.829 v 2.683 h 14.488 c 0.358,0 0.671,-0.134 0.939,-0.402 0.268,-0.268 0.402,-0.581 0.402,-0.939 0,-0.358 -0.134,-0.671 -0.402,-0.939 -0.268,-0.268 -0.581,-0.402 -0.939,-0.402 l -14.488,-0.001 m 0,7.915 v 2.683 h 16.321 c 0.358,0 0.671,-0.134 0.939,-0.402 0.268,-0.268 0.402,-0.581 0.402,-0.939 0,-0.358 -0.134,-0.671 -0.402,-0.939 -0.268,-0.268 -0.581,-0.402 -0.939,-0.402 l -16.321,-10e-4 m 0,-15.83 v 2.683 h 12.789 c 0.358,0 0.671,-0.134 0.939,-0.402 0.268,-0.268 0.402,-0.581 0.402,-0.939 0,-0.358 -0.134,-0.671 -0.402,-0.939 -0.268,-0.268 -0.581,-0.402 -0.939,-0.403 z"
   id="path20" />
			</g>
		</g>
	</g>
	<g
   transform="matrix(0.86598206,-0.49995422,0.49995422,0.86598206,-266.25,276.8)"
   id="g24">
		<g
   id="g23">
			<g
   id="Layer0_8_MEMBER_2_FILL">
				<path
   style="fill:#fd8181"
   d="m 405.015,129.005 c -0.03,-0.865 -0.358,-1.595 -0.984,-2.191 -0.656,-0.596 -1.401,-0.879 -2.236,-0.85 -0.864,0.03 -1.595,0.373 -2.191,1.029 -0.596,0.626 -0.879,1.371 -0.85,2.236 0.328,8.377 -2.698,15.472 -9.077,21.285 v -0.045 c -7.572,6.827 -12.178,12.088 -13.817,15.785 l 0.045,-0.045 c -1.908,3.726 -2.862,8.347 -2.862,13.862 0,0.358 0.015,0.701 0.045,1.028 h 6.26 c -0.03,-0.328 -0.045,-0.671 -0.045,-1.028 0,-4.382 0.73,-8.079 2.191,-11.089 0,-0.03 0.015,-0.045 0.045,-0.045 1.55,-3.16 5.664,-7.766 12.342,-13.817 7.81,-7.155 11.521,-15.86 11.134,-26.115 z"
   id="path22" />
			</g>
		</g>
	</g>
	<g
   transform="matrix(0.86598206,-0.49995422,0.49995422,0.86598206,-266.25,276.8)"
   id="g26">
		<g
   id="g25">
			<g
   id="Layer0_8_MEMBER_3_FILL">
				<path
   style="fill:#4fbecf"
   d="m 386.056,139.245 v 2.683 h 13.146 c 0.358,0 0.671,-0.134 0.939,-0.402 0.268,-0.268 0.402,-0.581 0.402,-0.939 0,-0.358 -0.134,-0.671 -0.402,-0.939 -0.268,-0.268 -0.581,-0.402 -0.939,-0.402 l -13.146,-0.001 m 15.829,-7.512 c -0.268,-0.268 -0.581,-0.402 -0.939,-0.402 h -16.455 v 2.683 h 16.455 c 0.358,0 0.671,-0.134 0.939,-0.402 0.268,-0.268 0.402,-0.581 0.402,-0.939 0,-0.359 -0.134,-0.672 -0.402,-0.94 z"
   id="path24" />
			</g>
		</g>
	</g>
	<g
   transform="matrix(0.86598206,-0.49995422,0.49995422,0.86598206,-266.25,276.8)"
   id="g28">
		<g
   id="g27">
			<g
   id="Layer0_8_MEMBER_4_FILL">
				
					<radialGradient
   id="SVGID_00000088121754097234399090000003660810538092726185_"
   cx="383.03589"
   cy="180.0835"
   r="39.106899"
   gradientUnits="userSpaceOnUse">
					<stop
   offset="0"
   style="stop-color:#A7F0D6"
   id="stop26" />
					<stop
   offset="1"
   style="stop-color:#6BC7D6"
   id="stop27" />
				</radialGradient>
				<path
   style="fill:url(#SVGID_00000088121754097234399090000003660810538092726185_)"
   d="m 385.519,129.229 c 0.03,-0.864 -0.238,-1.61 -0.805,-2.236 -0.596,-0.656 -1.327,-0.999 -2.191,-1.028 -0.865,-0.03 -1.61,0.253 -2.236,0.85 -0.656,0.566 -0.999,1.282 -1.028,2.146 -0.447,10.314 3.369,19.049 11.447,26.203 6.886,6.022 11.134,10.627 12.744,13.817 l 0.045,0.045 c 1.461,2.981 2.191,6.663 2.191,11.045 0,3.935 -0.73,7.408 -2.191,10.419 h -0.045 c -1.61,3.16 -5.858,7.766 -12.744,13.817 -8.079,7.125 -11.894,15.844 -11.447,26.159 0.03,0.864 0.373,1.595 1.029,2.191 0.626,0.566 1.371,0.835 2.236,0.805 0.865,-0.03 1.595,-0.358 2.191,-0.984 0.566,-0.656 0.835,-1.416 0.805,-2.281 -0.328,-8.347 2.787,-15.412 9.346,-21.195 h -0.045 c 7.781,-6.856 12.535,-12.103 14.264,-15.74 v 0.045 c 1.908,-3.816 2.862,-8.228 2.862,-13.236 0,-5.485 -0.954,-10.091 -2.862,-13.817 v -0.045 c -1.759,-3.697 -6.514,-8.943 -14.264,-15.74 h 0.045 c -6.56,-5.813 -9.675,-12.893 -9.347,-21.24 z"
   id="path27" />
			</g>
		</g>
	</g>
	<g
   transform="matrix(0.86598206,-0.49995422,0.49995422,0.86598206,-266.25,276.8)"
   id="g30">
		<g
   id="g29">
			<g
   id="Layer0_8_MEMBER_5_FILL">
				<path
   style="fill:#fd8181"
   d="m 379.348,181.099 h -6.26 c 0.089,4.561 1.014,8.6 2.772,12.118 v 0.045 c 1.669,3.667 6.275,8.898 13.817,15.695 6.38,5.783 9.405,12.878 9.077,21.285 -0.03,0.835 0.253,1.58 0.85,2.236 0.596,0.626 1.327,0.954 2.191,0.984 0.835,0.03 1.58,-0.253 2.236,-0.85 0.626,-0.596 0.954,-1.312 0.984,-2.146 0.388,-10.285 -3.324,-18.989 -11.134,-26.114 v -0.045 c -6.678,-6.052 -10.791,-10.642 -12.342,-13.772 l -0.045,-0.045 c -1.341,-2.743 -2.056,-5.873 -2.146,-9.391 z"
   id="path28" />
			</g>
		</g>
	</g>
	<g
   transform="matrix(0.86598206,-0.49995422,0.49995422,0.86598206,-266.25,276.8)"
   id="g32">
		<g
   id="g31">
			<g
   id="Layer0_8_MEMBER_6_FILL">
				<path
   style="fill:#4fbecf"
   d="m 399.694,226.173 c -0.268,-0.268 -0.581,-0.402 -0.939,-0.402 h -6.707 v 2.683 h 6.707 c 0.358,0 0.671,-0.134 0.939,-0.402 0.268,-0.268 0.402,-0.581 0.402,-0.939 0,-0.359 -0.134,-0.672 -0.402,-0.94 m -7.647,-8.317 v 2.683 h 8.451 c 0.358,0 0.671,-0.134 0.939,-0.402 0.268,-0.268 0.402,-0.581 0.402,-0.939 0,-0.358 -0.134,-0.671 -0.402,-0.939 -0.268,-0.268 -0.581,-0.402 -0.939,-0.403 z"
   id="path30" />
			</g>
		</g>
	</g>
	<g
   transform="matrix(0.86598206,-0.49995422,0.49995422,0.86598206,-266.25,276.8)"
   id="g34">
		<g
   id="g33">
			<g
   id="Layer0_8_MEMBER_7_FILL">
				<path
   style="fill:#4fbecf"
   d="m 379.84,195.185 c 0,0.358 0.134,0.671 0.402,0.939 0.268,0.268 0.581,0.402 0.939,0.402 h 9.793 v -2.683 h -9.793 c -0.358,0 -0.671,0.134 -0.939,0.402 -0.268,0.269 -0.402,0.582 -0.402,0.94 m 11.134,-6.574 v -2.683 H 378.23 c -0.358,0 -0.671,0.134 -0.939,0.402 -0.268,0.268 -0.402,0.581 -0.402,0.939 0,0.358 0.134,0.671 0.402,0.939 0.268,0.268 0.581,0.402 0.939,0.403 h 12.744 m 0,-23.744 v -2.683 h -8.943 c -0.358,0 -0.671,0.134 -0.939,0.402 -0.268,0.268 -0.402,0.581 -0.402,0.939 0,0.358 0.134,0.671 0.402,0.939 0.268,0.268 0.581,0.402 0.939,0.402 l 8.943,10e-4 m -14.488,13.147 c -0.358,0 -0.671,0.134 -0.939,0.402 -0.268,0.268 -0.402,0.581 -0.402,0.939 0,0.358 0.134,0.671 0.402,0.939 0.268,0.268 0.581,0.402 0.939,0.402 h 14.488 v -2.683 l -14.488,0.001 m 1.074,-6.573 c 0,0.358 0.134,0.671 0.402,0.939 0.268,0.268 0.581,0.402 0.939,0.403 h 12.073 V 170.1 h -12.073 c -0.358,0 -0.671,0.134 -0.939,0.402 -0.268,0.268 -0.402,0.581 -0.402,0.939 z"
   id="path32" />
			</g>
		</g>
	</g>
</g><g
           id="g64"
           transform="matrix(0.26458333,0,0,0.26458333,34.558138,1.0428402)">
	<g
   transform="translate(3.5)"
   id="g37">
		<g
   id="g36">
			<g
   id="Layer0_9_MEMBER_0_FILL">
				<path
   style="opacity:0.8;fill:#ffffff"
   d="m 380.091,408.979 h -8.809 v 24.683 l -18.87,33.045 c -1.103,1.938 -0.596,2.936 1.52,2.996 h 43.509 c 2.116,-0.06 2.623,-1.058 1.52,-2.996 l -18.87,-33.045 z"
   id="path35" />
			</g>
		</g>
	</g>
	<g
   transform="translate(3.5)"
   id="g39">
		<g
   id="g38">
			<g
   id="Layer0_9_MEMBER_0_MEMBER_0_FILL">
				
					<linearGradient
   id="SVGID_00000044894919218648218760000016869439426548086709_"
   gradientUnits="userSpaceOnUse"
   x1="375.94611"
   y1="473.50131"
   x2="374.89828"
   y2="450.974">
					<stop
   offset="0"
   style="stop-color:#9FDD40"
   id="stop37" />
					<stop
   offset="1"
   style="stop-color:#C0DD40"
   id="stop38" />
				</linearGradient>
				<path
   style="fill:url(#SVGID_00000044894919218648218760000016869439426548086709_)"
   d="m 394.847,467.78 c 1.61,-0.06 2.027,-0.805 1.252,-2.236 l -9.39,-16.5 h -22.09 l -9.346,16.366 c -0.954,1.61 -0.507,2.4 1.342,2.37 z"
   id="path38" />
			</g>
		</g>
	</g>
	<g
   id="g41">
		<g
   id="g40">
			<g
   id="Layer0_9_MEMBER_1_FILL">
				<path
   style="opacity:0.8;fill:#ffffff"
   d="m 141.723,268.258 c 3.249,0.477 4.978,2.668 5.187,6.573 v 63.988 c -0.06,5.753 1.49,10.583 4.65,14.488 0.06,0.06 0.104,0.119 0.134,0.179 l 46.46,46.46 c 0.358,0.358 0.805,0.537 1.341,0.537 0.507,0 0.954,-0.179 1.342,-0.537 0.358,-0.388 0.537,-0.835 0.537,-1.341 0,-0.537 -0.179,-0.984 -0.537,-1.341 l -46.415,-46.415 c -2.534,-3.249 -3.786,-7.244 -3.756,-11.984 v -64.122 c 0,-0.03 0,-0.06 0,-0.09 -0.298,-6.171 -3.16,-9.554 -8.585,-10.15 -0.09,0 -0.164,0 -0.224,0 h -21.508 c -5.008,0.268 -7.467,2.742 -7.378,7.423 v 15.651 c 0,0.537 0.194,0.984 0.581,1.341 0.358,0.358 0.79,0.537 1.297,0.537 0.537,0 0.984,-0.179 1.341,-0.537 0.388,-0.358 0.581,-0.805 0.581,-1.341 V 271.88 c 0,-2.296 1.252,-3.503 3.756,-3.622 z"
   id="path39" />
			</g>
		</g>
	</g>
	<g
   id="g43">
		<g
   id="g42">
			<g
   id="Layer0_9_MEMBER_2_FILL">
				<path
   style="fill:#f8fae7"
   d="m 154.288,355.633 c -2.027,1.967 -1.58,4.412 1.341,7.333 l 28.842,28.842 c 2.951,2.951 5.411,3.413 7.378,1.386 l 2.236,-2.236 c 2.027,-1.967 1.565,-4.427 -1.386,-7.378 l -28.842,-28.842 c -2.921,-2.922 -5.366,-3.369 -7.333,-1.341 z"
   id="path41" />
			</g>
		</g>
	</g>
	<g
   transform="matrix(0.42555237,-0.42555237,0.42555237,0.42555237,23.3,292.5)"
   id="g45">
		<g
   id="g44">
			<g
   id="Layer0_9_MEMBER_3_FILL">
				<path
   style="fill:#fcd18f"
   d="M 89.003,326.508 H 76.572 v 12.431 h 12.431 z"
   id="path43" />
			</g>
		</g>
	</g>
	<g
   transform="translate(3.5)"
   style="opacity:0.8"
   id="g47">
		<g
   id="g46">
			<g
   id="Layer0_9_MEMBER_4_FILL">
				<path
   style="fill:#ffffff"
   d="m 201.899,397.576 -6.26,6.26 8.854,8.854 c -2.951,4.084 -4.427,8.794 -4.427,14.13 0,6.797 2.4,12.595 7.199,17.395 4.829,4.799 10.642,7.199 17.439,7.199 6.797,0 12.595,-2.4 17.395,-7.199 4.8,-4.799 7.199,-10.598 7.199,-17.395 0,-0.239 0,-0.477 0,-0.715 -0.119,-6.022 -2.191,-11.253 -6.215,-15.695 l 9.882,-9.882 -6.26,-6.215 -10.598,10.598 c -2.206,-1.163 -4.546,-1.938 -7.02,-2.325 v -0.045 c -2.922,-0.566 -5.843,-0.566 -8.764,0 -3.488,0.596 -6.663,1.908 -9.524,3.935 z"
   id="path45" />
			</g>
		</g>
	</g>
	<g
   transform="translate(3.5)"
   id="g49">
		<g
   id="g48">
			<g
   id="Layer0_9_MEMBER_4_MEMBER_0_FILL">
				
					<linearGradient
   id="SVGID_00000111179170418070915750000003944759266150897076_"
   gradientUnits="userSpaceOnUse"
   x1="210.3927"
   y1="465.14899"
   x2="225.5856"
   y2="426.38101">
					<stop
   offset="0"
   style="stop-color:#9FDD40"
   id="stop47" />
					<stop
   offset="1"
   style="stop-color:#C0DD40"
   id="stop48" />
				</linearGradient>
				<path
   style="fill:url(#SVGID_00000111179170418070915750000003944759266150897076_)"
   d="m 246.748,426.82 c 0,-0.239 0,-0.477 0,-0.715 h -44.09 c -0.03,0.239 -0.045,0.477 -0.045,0.715 0,6.081 2.161,11.283 6.484,15.606 4.293,4.293 9.495,6.439 15.606,6.439 6.081,0 11.268,-2.146 15.561,-6.439 4.323,-4.322 6.484,-9.524 6.484,-15.606 z"
   id="path48" />
			</g>
		</g>
	</g>
	<g
   transform="matrix(0.42555237,-0.42555237,0.42555237,0.42555237,-90.5,391.9)"
   id="g51">
		<g
   id="g50">
			<g
   id="Layer0_9_MEMBER_5_FILL">
				<path
   style="fill:#8c9393"
   d="m 342.008,351.862 h -17.842 c -0.775,1.699 -0.775,3.354 0,4.963 h 17.842 c 0.626,-1.699 0.626,-3.354 0,-4.963 z"
   id="path49" />
			</g>
		</g>
	</g>
	<g
   id="g53">
		<g
   id="g52">
			<g
   id="Layer0_9_MEMBER_6_FILL">
				<path
   style="opacity:0.8;fill:#ffffff"
   d="m 346.253,307.563 c 2.594,-0.03 4.546,0.566 5.858,1.789 1.222,1.312 1.818,3.279 1.789,5.902 v 0.045 c 0.03,2.623 -0.566,4.591 -1.789,5.902 -1.312,1.222 -3.264,1.818 -5.858,1.789 h -34.61 c -3.846,-0.06 -6.707,0.894 -8.585,2.862 -1.967,1.878 -2.936,4.725 -2.907,8.541 0,0.03 0,0.06 0,0.089 -0.03,3.816 0.939,6.663 2.907,8.541 1.878,1.967 4.74,2.921 8.585,2.862 h 34.61 c 2.594,-0.03 4.546,0.566 5.858,1.789 1.222,1.312 1.818,3.279 1.789,5.902 v 0.045 c 0.03,2.623 -0.566,4.591 -1.789,5.902 -1.312,1.222 -3.264,1.818 -5.858,1.789 h -34.61 c -3.846,-0.06 -6.707,0.894 -8.585,2.862 -1.967,1.878 -2.936,4.725 -2.907,8.541 0,0.03 0,0.06 0,0.09 -0.03,3.816 0.939,6.663 2.907,8.541 1.878,1.967 4.74,2.921 8.585,2.862 h 57.639 c 0.03,0 0.06,0 0.089,0 4.949,-0.089 7.542,2.385 7.781,7.423 v 33.358 c 0,0.537 0.194,0.984 0.581,1.341 0.358,0.358 0.79,0.536 1.297,0.536 0.537,0 0.984,-0.179 1.342,-0.536 0.358,-0.358 0.537,-0.805 0.537,-1.341 V 391.45 c -0.328,-7.482 -4.203,-11.149 -11.626,-11 H 311.6 c -2.623,0.03 -4.591,-0.566 -5.902,-1.789 -1.222,-1.282 -1.819,-3.234 -1.789,-5.858 0,-0.03 0,-0.06 0,-0.09 -0.03,-2.594 0.566,-4.546 1.789,-5.858 1.312,-1.222 3.279,-1.819 5.902,-1.789 h 34.61 c 3.845,0.06 6.707,-0.894 8.585,-2.862 1.967,-1.878 2.921,-4.74 2.862,-8.585 v -0.045 c 0.06,-3.846 -0.894,-6.693 -2.862,-8.541 -1.878,-1.997 -4.74,-2.966 -8.585,-2.907 H 311.6 c -2.623,0.03 -4.591,-0.566 -5.902,-1.789 -1.222,-1.312 -1.819,-3.264 -1.789,-5.858 0,-0.03 0,-0.06 0,-0.089 -0.03,-2.593 0.566,-4.546 1.789,-5.858 1.312,-1.222 3.279,-1.818 5.902,-1.789 h 34.61 c 3.845,0.06 6.707,-0.909 8.585,-2.906 1.967,-1.848 2.921,-4.695 2.862,-8.541 v -0.045 c 0.06,-3.845 -0.894,-6.707 -2.862,-8.585 -1.878,-1.967 -4.74,-2.921 -8.585,-2.862 h -54.374 c -4.77,-0.03 -8.317,1.178 -10.642,3.622 -2.415,2.325 -3.592,5.843 -3.533,10.553 V 358 c -0.06,8.138 -2.817,14.95 -8.272,20.435 l -39.126,39.484 c -0.358,0.387 -0.537,0.835 -0.537,1.341 0,0.507 0.194,0.954 0.581,1.341 0.358,0.358 0.805,0.537 1.341,0.537 0.507,0 0.939,-0.194 1.297,-0.581 l 39.082,-39.484 c 6.201,-6.141 9.331,-13.832 9.39,-23.073 v -40.065 c -0.06,-3.488 0.76,-6.111 2.459,-7.87 1.759,-1.669 4.412,-2.504 7.959,-2.504 h 54.418 z"
   id="path51" />
			</g>
		</g>
	</g>
	<g
   transform="matrix(0.60185242,0,0,0.60185242,28.25,129.8)"
   id="g55">
		<g
   id="g54">
			<g
   id="Layer0_9_MEMBER_7_FILL">
				<path
   style="fill:#f0bc7b"
   d="m 149.117,273.403 1.789,-16.455 H 136.82 l 1.789,16.455 z"
   id="path53" />
			</g>
		</g>
	</g>
	<g
   transform="translate(3.5)"
   id="g57">
		<g
   id="g56">
			<g
   id="Layer0_9_MEMBER_8_FILL">
				<path
   style="opacity:0.8;fill:#ffffff"
   d="m 106.967,290.84 v 28.216 c -4.978,0.835 -9.331,3.115 -13.057,6.841 -4.8,4.829 -7.199,10.642 -7.199,17.439 0,6.797 2.4,12.595 7.199,17.394 4.829,4.829 10.642,7.244 17.439,7.244 6.797,0 12.595,-2.415 17.394,-7.244 4.799,-4.799 7.199,-10.598 7.199,-17.394 0,-0.238 0,-0.477 0,-0.715 -0.149,-6.499 -2.549,-12.073 -7.199,-16.724 -3.726,-3.726 -8.064,-5.992 -13.012,-6.797 v -28.26 z"
   id="path55" />
			</g>
		</g>
	</g>
	<g
   transform="translate(3.5)"
   id="g59">
		<g
   id="g58">
			<g
   id="Layer0_9_MEMBER_8_MEMBER_0_FILL">
				
					<linearGradient
   id="SVGID_00000129902549883768844720000006295887516875404208_"
   gradientUnits="userSpaceOnUse"
   x1="106.4292"
   y1="361.46631"
   x2="112.7159"
   y2="339.9866">
					<stop
   offset="0"
   style="stop-color:#9FDD40"
   id="stop57" />
					<stop
   offset="1"
   style="stop-color:#C0DD40"
   id="stop58" />
				</linearGradient>
				<path
   style="fill:url(#SVGID_00000129902549883768844720000006295887516875404208_)"
   d="m 89.259,343.336 c 0,6.081 2.161,11.283 6.484,15.606 4.293,4.293 9.495,6.439 15.606,6.439 6.081,0 11.268,-2.146 15.561,-6.439 4.323,-4.323 6.484,-9.525 6.484,-15.606 0,-0.238 0,-0.477 0,-0.715 h -44.09 c -0.03,0.238 -0.045,0.477 -0.045,0.715 z"
   id="path58" />
			</g>
		</g>
	</g>
	<g
   transform="matrix(0,-0.60185242,0.60185242,0,62.85,444.15)"
   id="g61">
		<g
   id="g60">
			<g
   id="Layer0_9_MEMBER_9_FILL">
				<path
   style="fill:#8c9393"
   d="m 82.153,308.445 -12.61,12.61 c 0.656,1.729 1.818,2.907 3.488,3.532 l 12.61,-12.61 c -0.745,-1.669 -1.908,-2.846 -3.488,-3.532 z"
   id="path59" />
			</g>
		</g>
	</g>
	<g
   transform="matrix(0.60185242,0,0,0.60185242,-0.05,207.8)"
   id="g63">
		<g
   id="g62">
			<g
   id="Layer0_9_MEMBER_10_FILL">
				<path
   style="fill:#8c9393"
   d="m 639.074,336.617 c 0.626,-1.699 0.626,-3.354 0,-4.963 h -17.842 c -0.775,1.699 -0.775,3.354 0,4.963 z"
   id="path61" />
			</g>
		</g>
	</g>
</g><g
           transform="matrix(0.26458333,0,0,0.26458333,34.558138,3.2917985)"
           id="g66">
		<g
   id="g65">
			<g
   id="Layer0_10_MEMBER_0_FILL">
				<path
   style="opacity:0.8;fill:#f8ffff"
   d="m 230.126,171.132 v 58.22 c -10.225,1.729 -19.198,6.454 -26.919,14.175 -9.897,9.927 -14.846,21.896 -14.846,35.907 0,14.041 4.949,26.025 14.846,35.952 9.927,9.927 21.911,14.89 35.952,14.89 14.041,0 26.025,-4.964 35.952,-14.89 9.927,-9.927 14.89,-21.911 14.89,-35.952 0,-0.477 0,-0.954 0,-1.431 -0.358,-13.415 -5.321,-24.907 -14.89,-34.476 -7.721,-7.721 -16.664,-12.431 -26.829,-14.13 v -58.265 z"
   id="path64" />
			</g>
		</g>
	</g><g
           transform="matrix(0.26458333,0,0,0.26458333,34.558138,3.2917985)"
           id="g68">
		<g
   id="g67">
			<g
   id="Layer0_10_MEMBER_0_MEMBER_0_FILL">
				
					<linearGradient
   id="SVGID_00000006683130727211710060000011679000502018193059_"
   gradientUnits="userSpaceOnUse"
   x1="229.0844"
   y1="340.0386"
   x2="237.46671"
   y2="290.7926">
					<stop
   offset="0"
   style="stop-color:#9FDD40"
   id="stop66" />
					<stop
   offset="1"
   style="stop-color:#C0DD40"
   id="stop67" />
				</linearGradient>
				<path
   style="fill:url(#SVGID_00000006683130727211710060000011679000502018193059_)"
   d="m 284.635,279.433 c 0,-0.477 0,-0.954 0,-1.431 h -90.952 c -0.03,0.477 -0.045,0.954 -0.045,1.431 0,12.61 4.442,23.357 13.325,32.24 8.884,8.883 19.615,13.325 32.195,13.325 12.55,0 23.267,-4.442 32.151,-13.325 8.884,-8.883 13.326,-19.63 13.326,-32.24 z"
   id="path67" />
			</g>
		</g>
	</g><g
           transform="matrix(0.26458333,0,0,0.26458333,34.558138,3.2917985)"
           id="g70">
		<g
   id="g69">
			<g
   id="Layer0_10_MEMBER_1_FILL">
				<path
   style="fill:#c0dd40"
   d="m 215.504,268.567 c 0,-1.073 -0.388,-1.997 -1.163,-2.772 -0.775,-0.775 -1.699,-1.163 -2.772,-1.163 -1.073,0 -1.997,0.388 -2.772,1.163 -0.775,0.775 -1.163,1.699 -1.163,2.772 0,1.073 0.387,1.997 1.163,2.772 0.775,0.775 1.699,1.163 2.772,1.163 1.073,0 1.997,-0.388 2.772,-1.163 0.776,-0.774 1.163,-1.699 1.163,-2.772 m 12.565,-15.158 c -0.417,-0.417 -0.909,-0.626 -1.476,-0.626 -0.566,0 -1.058,0.209 -1.476,0.626 -0.417,0.417 -0.626,0.909 -0.626,1.476 0,0.566 0.209,1.058 0.626,1.476 0.417,0.417 0.909,0.626 1.476,0.626 0.566,0 1.058,-0.209 1.476,-0.626 0.417,-0.417 0.626,-0.909 0.626,-1.476 0,-0.567 -0.208,-1.059 -0.626,-1.476 m 47.354,16.187 c 0.477,-0.477 0.716,-1.043 0.716,-1.699 0,-0.656 -0.239,-1.222 -0.716,-1.699 -0.477,-0.477 -1.043,-0.715 -1.699,-0.715 -0.656,0 -1.222,0.238 -1.699,0.715 -0.477,0.477 -0.715,1.043 -0.715,1.699 0,0.656 0.238,1.222 0.715,1.699 0.477,0.477 1.043,0.715 1.699,0.715 0.656,0 1.223,-0.238 1.699,-0.715 m -19.138,-1.163 c 0.447,-0.417 0.671,-0.939 0.671,-1.565 0,-0.626 -0.224,-1.163 -0.671,-1.61 -0.417,-0.417 -0.939,-0.626 -1.565,-0.626 -0.626,0 -1.163,0.209 -1.61,0.626 -0.417,0.447 -0.626,0.984 -0.626,1.61 0,0.626 0.209,1.148 0.626,1.565 0.447,0.447 0.984,0.671 1.61,0.671 0.626,0 1.148,-0.224 1.565,-0.671 m -2.549,-24.057 c 0.656,-0.626 0.984,-1.401 0.984,-2.325 0,-0.924 -0.328,-1.714 -0.984,-2.37 -0.626,-0.626 -1.401,-0.939 -2.325,-0.939 -0.924,0 -1.714,0.313 -2.37,0.939 -0.626,0.656 -0.939,1.446 -0.939,2.37 0,0.924 0.313,1.699 0.939,2.325 0.656,0.656 1.446,0.984 2.37,0.984 0.924,0 1.699,-0.328 2.325,-0.984 z"
   id="path68" />
			</g>
		</g>
	</g><g
           transform="matrix(0.26458333,0,0,0.26458333,34.558138,3.2917985)"
           id="g72">
		<g
   id="g71">
			<g
   id="Layer0_10_MEMBER_2_FILL">
				<path
   style="opacity:0.8;fill:#ffffff"
   d="m 212.866,301.791 c 0.328,-0.328 0.492,-0.715 0.492,-1.163 0,-0.447 -0.164,-0.835 -0.492,-1.163 -0.328,-0.328 -0.715,-0.492 -1.163,-0.492 -0.447,0 -0.835,0.164 -1.163,0.492 -0.328,0.328 -0.492,0.715 -0.492,1.163 0,0.447 0.164,0.835 0.492,1.163 0.328,0.328 0.715,0.492 1.163,0.492 0.448,0 0.835,-0.164 1.163,-0.492 m 15.248,-17.439 c 0,-0.745 -0.268,-1.386 -0.805,-1.923 -0.507,-0.507 -1.133,-0.76 -1.878,-0.76 -0.745,0 -1.386,0.253 -1.923,0.76 -0.507,0.537 -0.76,1.177 -0.76,1.923 0,0.745 0.253,1.371 0.76,1.878 0.537,0.537 1.178,0.805 1.923,0.805 0.745,0 1.371,-0.268 1.878,-0.805 0.537,-0.507 0.805,-1.133 0.805,-1.878 m 20.122,18.959 c 0,-1.014 -0.358,-1.878 -1.073,-2.594 -0.715,-0.715 -1.58,-1.073 -2.594,-1.073 -1.014,0 -1.878,0.358 -2.594,1.073 -0.715,0.716 -1.073,1.58 -1.073,2.594 0,1.013 0.358,1.878 1.073,2.594 0.715,0.715 1.58,1.073 2.594,1.073 1.014,0 1.878,-0.358 2.594,-1.073 0.716,-0.716 1.073,-1.58 1.073,-2.594 m 6.573,4.83 c -0.298,-0.298 -0.671,-0.447 -1.118,-0.447 -0.447,0 -0.835,0.149 -1.163,0.447 -0.298,0.328 -0.447,0.715 -0.447,1.163 0,0.447 0.149,0.82 0.447,1.118 0.328,0.328 0.715,0.492 1.163,0.492 0.447,0 0.82,-0.164 1.118,-0.492 0.328,-0.298 0.492,-0.671 0.492,-1.118 0,-0.448 -0.164,-0.835 -0.492,-1.163 m 11.358,-20.659 c 0.447,-0.417 0.671,-0.939 0.671,-1.565 0,-0.626 -0.224,-1.163 -0.671,-1.61 -0.417,-0.417 -0.939,-0.626 -1.565,-0.626 -0.626,0 -1.163,0.209 -1.61,0.626 -0.417,0.447 -0.626,0.984 -0.626,1.61 0,0.626 0.209,1.148 0.626,1.565 0.447,0.447 0.984,0.671 1.61,0.671 0.626,0 1.148,-0.224 1.565,-0.671 z"
   id="path70" />
			</g>
		</g>
	</g><path
           style="fill:url(#SVGID_00000156569127905742558190000005161559305713244833_);stroke-width:0.264583"
           d="m 113.68919,32.906081 c -0.93848,-0.06323 -1.85737,-0.01191 -2.75669,0.153723 -2.03571,0.350838 -3.30915,1.12739 -3.82191,2.329657 -0.95726,0.409839 -1.92828,0.969698 -2.90592,1.679045 0.11642,-0.501385 0.19315,-0.813593 0.24501,-1.01256 0.80724,-0.60669 1.40097,-1.616869 1.77403,-3.043502 0.43391,-1.719527 0.33919,-3.541448 -0.2839,-5.466027 -0.37068,0.268287 -0.79269,0.757237 -1.26603,1.467115 -0.52044,0.788722 -0.93848,1.608931 -1.25413,2.460889 -0.73845,2.02856 -0.66278,3.563673 0.2212,4.608513 -0.0495,0.198966 -0.11325,0.464872 -0.19712,0.826822 -0.0735,0.309827 -0.1434,0.61304 -0.20902,0.909109 -0.59981,0.492918 -1.21047,1.047485 -1.81716,1.650471 -0.75618,0.756179 -1.431923,1.516856 -2.0148,2.267743 0.351102,-2.095764 0.77682,-4.011877 1.26974,-5.731404 0.83528,-0.470694 1.32609,-1.203589 1.46949,-2.200539 0.15769,-1.159405 -0.004,-2.397655 -0.48498,-3.715015 -0.26035,0.181504 -0.55219,0.520435 -0.87551,1.017323 -0.36274,0.544248 -0.65458,1.112044 -0.875503,1.703652 -0.466989,1.282171 -0.460639,2.281238 0.01561,2.998788 -0.626269,2.188104 -1.144852,4.683918 -1.541992,7.451989 0,5.29e-4 0,0.0011 -2.65e-4,0.0019 -0.178858,1.243806 -0.33655,2.568575 -0.468312,3.928798 -2.65e-4,0.0013 -2.65e-4,0.0026 -5.29e-4,0.0042 -0.0066,0.05583 -0.01244,0.112713 -0.01826,0.171186 -0.059,0.616214 -0.112712,1.268677 -0.161395,1.954477 -0.34634,-2.155561 -0.716757,-4.084902 -1.107282,-5.764213 -5.29e-4,-0.0026 -0.0013,-0.0053 -0.0019,-0.0079 -0.298979,-1.281113 -0.616214,-2.44475 -0.942181,-3.45784 -0.03334,-0.103716 -0.06694,-0.206639 -0.101071,-0.308768 0.02884,-0.374386 0.0934,-0.892705 0.192088,-1.541728 0.0545,-0.35216 0.162189,-0.71702 0.310885,-1.089025 0.947738,-0.374914 1.793081,-1.20941 2.534973,-2.507985 0.867569,-1.54596 1.246188,-3.328458 1.135856,-5.347494 -0.425979,0.16563 -0.958321,0.528373 -1.597289,1.088496 -0.709877,0.623094 -1.325034,1.309423 -1.845734,2.058459 -1.23772,1.759743 -1.563687,3.259137 -0.984514,4.499768 -0.152929,0.397404 -0.261673,0.789252 -0.321469,1.172369 -0.366448,-1.00039 -0.70776,-1.803929 -1.027112,-2.418292 0.282575,-1.6002 -0.550069,-3.2131 -2.505869,-4.839229 -0.820208,-0.701939 -1.731169,-1.301485 -2.732881,-1.798373 -0.899055,-0.441589 -1.616869,-0.690033 -2.153179,-0.745331 0.48895,2.334683 1.467114,4.251325 2.934229,5.749925 1.304395,1.31154 2.581539,2.014802 3.831166,2.11164 0.379942,0.756972 0.862277,1.936485 1.466586,3.777456 2.64e-4,7.94e-4 5.29e-4,0.0013 7.93e-4,0.0021 0.04127,0.123296 0.08229,0.24818 0.122767,0.374121 0.227806,0.707761 0.451379,1.491457 0.667544,2.339975 -0.305329,-0.217487 -0.647965,-0.449791 -1.025525,-0.695854 -0.13044,-0.0852 -0.255059,-0.1651 -0.37465,-0.240771 -0.366448,-1.589616 -1.765829,-2.785798 -4.2037,-3.586691 -1.041136,-0.331259 -2.129631,-0.548217 -3.265488,-0.650611 -1.033197,-0.08678 -1.817952,-0.0553 -2.354262,0.09472 1.356519,2.042848 3.020748,3.502025 4.992687,4.377531 1.788319,0.790046 3.307557,0.959909 4.559565,0.513821 0.07117,0.04551 0.144462,0.09313 0.220927,0.142875 0.719931,0.469106 1.304131,0.883973 1.738577,1.234281 0.159015,0.690563 0.31459,1.426898 0.46646,2.20054 -0.422804,-0.481013 -1.026583,-0.906463 -1.81557,-1.275821 -0.575734,-0.26035 -1.183217,-0.457465 -1.821921,-0.591608 -0.583671,-0.126207 -1.033198,-0.157692 -1.348846,-0.09472 0.591608,1.269735 1.35255,2.259806 2.283354,2.969683 0.833438,0.621506 1.829329,0.787136 2.985294,0.504296 0.310356,1.735931 0.604308,3.641196 0.878417,5.713412 -0.2032,5.371571 -0.224896,14.390952 -0.06403,26.807848 0.0026,0.212725 0.176213,0.383646 0.388409,0.383646 0.0019,0 0.0034,0 0.0053,0 0.214577,-0.0029 0.386292,-0.179123 0.383646,-0.3937 -0.161131,-12.428802 -0.139171,-21.445802 0.06456,-26.800175 0,-5.29e-4 0,-7.94e-4 0,-0.0013 0.08096,-2.185723 0.203729,-4.150518 0.365389,-5.839354 7.94e-4,-0.0079 0.0016,-0.01588 0.0024,-0.02355 l 1.513417,-1.494366 c 1.28932,0.284956 2.75881,-0.06191 4.40928,-1.045369 1.84997,-1.097227 3.3327,-2.737908 4.44844,-4.921779 -0.54424,-0.08678 -1.32503,-0.02752 -2.34262,0.177535 -1.11998,0.2286 -2.17699,0.571765 -3.17076,1.029229 -2.34977,1.094317 -3.603102,2.456921 -3.767673,4.085961 l -0.964671,0.9525 c 0.102923,-0.948267 0.217752,-1.869017 0.343429,-2.749286 0.131498,-0.20955 0.28866,-0.440795 0.468842,-0.689768 0.647703,-0.901965 1.441983,-1.825096 2.360083,-2.7432 0.62283,-0.618861 1.24937,-1.184805 1.86267,-1.68275 2.6e-4,-2.65e-4 5.3e-4,-5.3e-4 10e-4,-7.94e-4 1.17528,-0.953823 2.33786,-1.67931 3.47451,-2.179902 0.95805,0.466725 2.19445,0.496094 3.71051,0.08572 1.70365,-0.481013 3.22977,-1.471083 4.57862,-2.969683 -0.42519,-0.189442 -1.06019,-0.31168 -1.90421,-0.366978 z"
           id="path73" /><g
           transform="matrix(4.0372212e-6,-0.26457525,0.26457525,4.0372212e-6,86.231262,120.23763)"
           id="g76"
           style="fill:#c6cebe;fill-opacity:1">
		<g
   id="g75"
   style="fill:#c6cebe;fill-opacity:1">
			<g
   id="Layer0_11_MEMBER_0_FILL"
   style="fill:#c6cebe;fill-opacity:1">
				
					<radialGradient
   id="SVGID_00000123428931884225638050000017967841880473815977_"
   cx="288.90509"
   cy="154.53481"
   r="12.0512"
   gradientUnits="userSpaceOnUse">
					<stop
   offset="0"
   style="stop-color:#A7F0D6"
   id="stop74" />
					<stop
   offset="1"
   style="stop-color:#6BC7D6"
   id="stop75" />
				</radialGradient>
				<path
   style="fill:#c6cebe;fill-opacity:1"
   d="m 293.673,159.271 c 2.087,-2.087 3.13,-4.606 3.13,-7.557 0,-2.951 -1.043,-5.47 -3.13,-7.557 -2.087,-2.087 -4.606,-3.13 -7.557,-3.13 -2.951,0 -5.47,1.043 -7.557,3.13 -2.087,2.087 -3.13,4.606 -3.13,7.557 0,2.951 1.043,5.47 3.13,7.557 2.087,2.087 4.606,3.13 7.557,3.13 2.952,0 5.471,-1.043 7.557,-3.13 z"
   id="path75" />
			</g>
		</g>
	</g><g
           transform="matrix(0.18706868,0.18708483,0.18708483,-0.18706868,44.731367,12.023048)"
           id="g78">
		<g
   id="g77">
			<g
   id="Layer0_11_MEMBER_1_FILL">
				<path
   style="fill:#d9ef58"
   d="m 318.049,104.002 c 0.268,-0.715 0.254,-1.401 -0.045,-2.057 -0.328,-0.686 -0.82,-1.163 -1.476,-1.431 -0.715,-0.268 -1.401,-0.239 -2.057,0.089 -0.686,0.298 -1.163,0.79 -1.431,1.476 l -8.943,23.431 c -0.268,0.686 -0.239,1.371 0.089,2.057 0.298,0.656 0.79,1.118 1.476,1.386 0.686,0.268 1.371,0.253 2.057,-0.045 0.656,-0.328 1.118,-0.82 1.386,-1.476 z"
   id="path76" />
			</g>
		</g>
	</g><g
           transform="matrix(0.25556418,0.06847935,-0.06847935,0.25556418,59.640638,-17.68966)"
           id="g80"
           style="fill:#c6cebe;fill-opacity:1">
		<g
   id="g79"
   style="fill:#c6cebe;fill-opacity:1">
			<g
   id="Layer0_11_MEMBER_2_FILL"
   style="fill:#c6cebe;fill-opacity:1">
				
					<radialGradient
   id="SVGID_00000043416583631454936150000003447922366096931740_"
   cx="329.5058"
   cy="196.08949"
   r="15.6222"
   gradientUnits="userSpaceOnUse">
					<stop
   offset="0"
   style="stop-color:#A7F0D6"
   id="stop78" />
					<stop
   offset="1"
   style="stop-color:#6BC7D6"
   id="stop79" />
				</radialGradient>
				<path
   style="fill:#c6cebe;fill-opacity:1"
   d="m 333.361,210.302 c 2.087,-2.087 3.13,-4.606 3.13,-7.557 0,-2.951 -1.043,-5.47 -3.13,-7.557 -2.087,-2.087 -4.606,-3.13 -7.557,-3.13 -2.951,0 -5.47,1.043 -7.557,3.13 -2.087,2.087 -3.13,4.606 -3.13,7.557 0,2.951 1.043,5.47 3.13,7.557 2.087,2.087 4.606,3.13 7.557,3.13 2.951,0 5.47,-1.044 7.557,-3.13 z"
   id="path79" />
			</g>
		</g>
	</g><g
           transform="matrix(-0.22912845,0.13227955,0.13227955,0.22912845,174.90637,-29.767889)"
           id="g82">
		<g
   id="g81">
			<g
   id="Layer0_11_MEMBER_3_FILL">
				<path
   style="fill:#d9ef58"
   d="m 326.067,168.152 c 0.268,-0.715 0.253,-1.401 -0.045,-2.057 -0.328,-0.686 -0.82,-1.163 -1.476,-1.431 -0.715,-0.268 -1.401,-0.239 -2.057,0.089 -0.686,0.298 -1.163,0.79 -1.431,1.476 l -8.943,23.431 c -0.268,0.686 -0.238,1.371 0.089,2.057 0.298,0.656 0.79,1.118 1.476,1.386 0.686,0.268 1.371,0.253 2.057,-0.045 0.656,-0.328 1.118,-0.82 1.386,-1.476 z"
   id="path80" />
			</g>
		</g>
	</g><g
           transform="matrix(0,-0.26458333,0.26458333,0,82.553554,128.22805)"
           id="g84"
           style="fill:#c6cebe;fill-opacity:1">
		<g
   id="g83"
   style="fill:#c6cebe;fill-opacity:1">
			<g
   id="Layer0_11_MEMBER_4_FILL"
   style="fill:#c6cebe;fill-opacity:1">
				
					<radialGradient
   id="SVGID_00000055667687873961736480000003100520156475046077_"
   cx="292.36661"
   cy="157.26151"
   r="14.6846"
   gradientUnits="userSpaceOnUse">
					<stop
   offset="0"
   style="stop-color:#A7F0D6"
   id="stop82" />
					<stop
   offset="1"
   style="stop-color:#6BC7D6"
   id="stop83" />
				</radialGradient>
				<path
   style="fill:#c6cebe;fill-opacity:1"
   d="m 296.865,160.739 c 2.087,-2.087 3.13,-4.606 3.13,-7.557 0,-2.951 -1.043,-5.47 -3.13,-7.557 -2.087,-2.087 -4.606,-3.13 -7.557,-3.13 -2.951,0 -5.47,1.043 -7.557,3.13 -2.087,2.087 -3.13,4.606 -3.13,7.557 0,2.951 1.043,5.47 3.13,7.557 2.087,2.087 4.606,3.13 7.557,3.13 2.951,0 5.471,-1.043 7.557,-3.13 z"
   id="path83" />
			</g>
		</g>
	</g><g
           transform="matrix(0.1870808,0.18708887,0.18708887,-0.1870808,41.053659,20.013465)"
           id="g86">
		<g
   id="g85">
			<g
   id="Layer0_11_MEMBER_5_FILL">
				<path
   style="fill:#d9ef58"
   d="m 316.828,107.297 c 0.268,-0.716 0.253,-1.401 -0.045,-2.057 -0.328,-0.686 -0.82,-1.163 -1.475,-1.431 -0.715,-0.268 -1.401,-0.239 -2.057,0.089 -0.686,0.298 -1.163,0.79 -1.431,1.476 l -8.943,23.431 c -0.268,0.686 -0.239,1.371 0.089,2.057 0.298,0.656 0.79,1.118 1.476,1.386 0.686,0.268 1.371,0.253 2.057,-0.045 0.656,-0.328 1.118,-0.82 1.386,-1.476 z"
   id="path84" />
			</g>
		</g>
	</g><g
           transform="matrix(-0.17917592,-0.19467077,0.19467077,-0.17917592,139.33314,131.45596)"
           id="g88"
           style="fill:#c6cebe;fill-opacity:1">
		<g
   id="g87"
   style="fill:#c6cebe;fill-opacity:1">
			<g
   id="Layer0_11_MEMBER_6_FILL"
   style="fill:#c6cebe;fill-opacity:1">
				
					<radialGradient
   id="SVGID_00000085964621004547607340000010665915711217124789_"
   cx="296.92319"
   cy="146.22951"
   r="19.364401"
   gradientUnits="userSpaceOnUse">
					<stop
   offset="0"
   style="stop-color:#A7F0D6"
   id="stop86" />
					<stop
   offset="1"
   style="stop-color:#6BC7D6"
   id="stop87" />
				</radialGradient>
				<path
   style="fill:#c6cebe;fill-opacity:1"
   d="m 309.646,139.952 c 2.087,-2.087 3.13,-4.606 3.13,-7.557 0,-2.951 -1.043,-5.47 -3.13,-7.557 -2.087,-2.087 -4.606,-3.13 -7.557,-3.13 -2.951,0 -5.47,1.043 -7.557,3.13 -2.087,2.087 -3.13,4.606 -3.13,7.557 0,2.951 1.043,5.47 3.13,7.557 2.087,2.087 4.606,3.13 7.557,3.13 2.951,0 5.47,-1.043 7.557,-3.13 z"
   id="path87" />
			</g>
		</g>
	</g><g
           transform="matrix(0.26434513,0.01095298,0.01095298,-0.26434513,35.563555,79.92836)"
           id="g90"
           style="fill:#ffffff;fill-opacity:1">
		<g
   id="g89"
   style="fill:#ffffff;fill-opacity:1">
			<g
   id="Layer0_11_MEMBER_7_FILL"
   style="fill:#ffffff;fill-opacity:1">
				<path
   style="fill:#ffffff;fill-opacity:1"
   d="m 293.072,101.629 c 0.268,-0.716 0.253,-1.401 -0.045,-2.057 -0.328,-0.686 -0.82,-1.163 -1.476,-1.431 -0.715,-0.268 -1.401,-0.239 -2.057,0.089 -0.686,0.298 -1.163,0.79 -1.431,1.476 l -8.943,23.431 c -0.268,0.686 -0.238,1.371 0.089,2.057 0.298,0.656 0.79,1.118 1.476,1.386 0.686,0.268 1.371,0.253 2.057,-0.045 0.656,-0.328 1.118,-0.82 1.386,-1.476 z"
   id="path88" />
			</g>
		</g>
	</g><g
           transform="matrix(0.26458333,0,0,0.26458333,35.48418,6.2551318)"
           id="g92"
           style="fill:#c6cebe;fill-opacity:1">
		<g
   id="g91"
   style="fill:#c6cebe;fill-opacity:1">
			<g
   id="Layer0_11_MEMBER_8_FILL"
   style="fill:#c6cebe;fill-opacity:1">
				
					<radialGradient
   id="SVGID_00000008851185888527879070000000633630809297737375_"
   cx="326.61749"
   cy="191.1983"
   r="10.0536"
   gradientUnits="userSpaceOnUse">
					<stop
   offset="0"
   style="stop-color:#A7F0D6"
   id="stop90" />
					<stop
   offset="1"
   style="stop-color:#6BC7D6"
   id="stop91" />
				</radialGradient>
				<path
   style="fill:#c6cebe;fill-opacity:1"
   d="m 327.282,207.062 c 2.087,-2.087 3.13,-4.606 3.13,-7.557 0,-2.951 -1.043,-5.47 -3.13,-7.557 -2.087,-2.087 -4.606,-3.13 -7.557,-3.13 -2.951,0 -5.47,1.043 -7.557,3.13 -2.087,2.087 -3.13,4.606 -3.13,7.557 0,2.951 1.043,5.47 3.13,7.557 2.087,2.087 4.606,3.13 7.557,3.13 2.951,0 5.47,-1.043 7.557,-3.13 z"
   id="path91" />
			</g>
		</g>
	</g><g
           transform="matrix(-0.18708887,0.1870808,0.1870808,0.18708887,143.69876,-35.244764)"
           id="g94">
		<g
   id="g93">
			<g
   id="Layer0_11_MEMBER_9_FILL">
				<path
   style="fill:#d9ef58"
   d="m 328.074,161.561 c 0.268,-0.715 0.253,-1.401 -0.045,-2.057 -0.328,-0.686 -0.82,-1.163 -1.476,-1.431 -0.715,-0.268 -1.401,-0.239 -2.057,0.089 -0.686,0.298 -1.163,0.79 -1.431,1.476 l -8.943,23.431 c -0.268,0.686 -0.238,1.371 0.089,2.057 0.298,0.656 0.79,1.118 1.476,1.386 0.686,0.268 1.371,0.253 2.057,-0.045 0.656,-0.328 1.118,-0.82 1.386,-1.476 z"
   id="path92" />
			</g>
		</g>
	</g><g
           transform="matrix(0.26458333,0,0,0.26458333,35.933971,6.5197151)"
           id="g96"
           style="fill:#c6cebe;fill-opacity:1">
		<g
   id="g95"
   style="fill:#c6cebe;fill-opacity:1">
			<g
   id="Layer0_11_MEMBER_10_FILL"
   style="fill:#c6cebe;fill-opacity:1">
				
					<radialGradient
   id="SVGID_00000129170057386387734350000010082175425850525872_"
   cx="298.19019"
   cy="179.24451"
   r="16.224899"
   gradientUnits="userSpaceOnUse">
					<stop
   offset="0"
   style="stop-color:#A7F0D6"
   id="stop94" />
					<stop
   offset="1"
   style="stop-color:#6BC7D6"
   id="stop95" />
				</radialGradient>
				<path
   style="fill:#c6cebe;fill-opacity:1"
   d="m 291.553,176.415 c -2.951,0 -5.47,1.043 -7.557,3.13 -2.087,2.087 -3.13,4.606 -3.13,7.557 0,2.951 1.043,5.47 3.13,7.557 2.087,2.087 4.606,3.13 7.557,3.13 2.951,0 5.47,-1.043 7.557,-3.13 2.087,-2.087 3.13,-4.606 3.13,-7.557 0,-2.951 -1.043,-5.47 -3.13,-7.557 -2.087,-2.086 -4.606,-3.13 -7.557,-3.13 z"
   id="path95" />
			</g>
		</g>
	</g><g
           transform="matrix(0.26458333,0,0,0.26458333,35.933971,10.581069)"
           id="g98">
		<g
   id="g97">
			<g
   id="Layer0_11_MEMBER_11_FILL">
				<path
   style="fill:#d9ef58"
   d="m 291.955,176 c 0.262,-0.677 0.232,-1.363 -0.089,-2.057 -0.284,-0.66 -0.776,-1.122 -1.476,-1.386 -0.677,-0.262 -1.363,-0.247 -2.057,0.045 -0.66,0.314 -1.122,0.806 -1.386,1.476 l -8.943,23.431 c -0.262,0.707 -0.247,1.393 0.045,2.057 0.314,0.69 0.806,1.167 1.476,1.431 0.707,0.262 1.393,0.232 2.057,-0.09 0.69,-0.284 1.167,-0.776 1.431,-1.476 z"
   id="path96" />
			</g>
		</g>
	</g><g
           transform="matrix(0.26458333,0,0,0.26458333,35.933971,6.5197151)"
           id="g100"
           style="fill:#c6cebe;fill-opacity:1">
		<g
   id="g99"
   style="fill:#c6cebe;fill-opacity:1">
			<g
   id="Layer0_11_MEMBER_12_FILL"
   style="fill:#c6cebe;fill-opacity:1">
				
					<radialGradient
   id="SVGID_00000017512122298579230080000010825215754562628251_"
   cx="288.98901"
   cy="205.5336"
   r="15.8766"
   gradientUnits="userSpaceOnUse">
					<stop
   offset="0"
   style="stop-color:#A7F0D6"
   id="stop98" />
					<stop
   offset="1"
   style="stop-color:#6BC7D6"
   id="stop99" />
				</radialGradient>
				<path
   style="fill:#c6cebe;fill-opacity:1"
   d="m 270.402,212.277 c 0,2.951 1.043,5.47 3.13,7.557 2.087,2.087 4.606,3.13 7.557,3.13 2.951,0 5.47,-1.043 7.557,-3.13 2.087,-2.087 3.13,-4.606 3.13,-7.557 0,-2.951 -1.043,-5.47 -3.13,-7.557 -2.087,-2.087 -4.606,-3.13 -7.557,-3.13 -2.951,0 -5.47,1.043 -7.557,3.13 -2.086,2.087 -3.13,4.606 -3.13,7.557 z"
   id="path99" />
			</g>
		</g>
	</g><g
           id="g106"
           transform="matrix(0.26458333,0,0,0.26458333,34.558138,1.0428402)">
	<g
   transform="translate(29.05)"
   id="g103">
		<g
   id="g102">
			<g
   id="Layer0_12_FILL">
				<path
   style="fill:#c2dede"
   d="m 205.727,340.877 h -4.785 v 47.667 h 4.785 z"
   id="path101" />
			</g>
		</g>
	</g>
	<g
   transform="matrix(0.99255371,0.12179565,-0.12179565,0.99255371,70.65,-25.75)"
   id="g105">
		<g
   id="g104">
			<g
   id="Layer0_13_FILL">
				<path
   style="fill:#99b4b4"
   d="m 212.564,326.845 -3.264,-0.85 -12.789,47.891 3.22,0.85 z"
   id="path103" />
				
					<linearGradient
   id="SVGID_00000041287038171707472210000012917222499997155737_"
   gradientUnits="userSpaceOnUse"
   x1="198.6615"
   y1="355.39639"
   x2="213.5527"
   y2="324.12469">
					<stop
   offset="0.2433"
   style="stop-color:#C2DEDE"
   id="stop103" />
					<stop
   offset="1"
   style="stop-color:#C8EDED"
   id="stop104" />
				</linearGradient>
				<path
   style="fill:url(#SVGID_00000041287038171707472210000012917222499997155737_)"
   d="m 211.625,317.276 -4.472,-1.207 -17.752,66.358 4.472,1.207 z"
   id="path104" />
			</g>
		</g>
	</g>
</g><g
           id="g159"
           transform="matrix(0.49079362,0,0,0.53143399,43.210157,15.721477)"><g
             transform="matrix(0.26458333,0,0,0.26458333,73.770521,76.700493)"
             id="g111">
		<g
   id="g110">
			<g
   id="Layer0_15_FILL">
				<path
   style="opacity:0.8;fill:#ffffff"
   d="m 227.951,395.063 6.886,-11.894 -26.829,-15.516 -6.886,11.894 26.829,15.516 m -29.558,-10.776 0.447,11.402 16.277,9.346 10.106,-5.232 -26.83,-15.516 m 102.31,-128.782 11.09,-19.228 -15.069,-8.719 -11.09,19.228 z"
   id="path108" />
				<path
   style="fill:#63767b"
   d="m 234.837,383.169 5.053,-4.203 -30.809,-17.752 -1.073,6.439 26.829,15.516 m -37.83,0.313 1.386,0.805 26.829,15.516 1.386,0.805 2.728,-4.74 -1.386,-0.805 -26.829,-15.516 -1.386,-0.805 -2.728,4.74 m 84.871,-138.843 -4.382,7.602 22.581,13.012 4.382,-7.602 -3.756,-2.146 -15.069,-8.719 -3.756,-2.147 m 32.374,-6.931 2.817,-4.874 -19.988,-11.537 -2.817,4.874 2.459,1.386 15.069,8.719 z"
   id="path109" />
				
					<linearGradient
   id="SVGID_00000139285637598206718260000004360949288566468226_"
   gradientUnits="userSpaceOnUse"
   x1="245.0217"
   y1="346.17551"
   x2="280.2254"
   y2="249.9153">
					<stop
   offset="0"
   style="stop-color:#98B5DD"
   id="stop109" />
					<stop
   offset="1"
   style="stop-color:#C0B5DD"
   id="stop110" />
				</linearGradient>
				<path
   style="fill:url(#SVGID_00000139285637598206718260000004360949288566468226_)"
   d="m 304.191,267.623 -4.114,-2.37 -22.581,-13.012 -4.114,-2.37 -64.302,111.342 30.809,17.752 z"
   id="path110" />
			</g>
		</g>
	</g><g
             id="g158"><g
               id="g157"
               transform="translate(31.028127,4.8848373)"><g
                 id="g156"><g
                   transform="matrix(0.26458333,0,0,0.26458333,41.784073,75.589143)"
                   id="g108">
		<g
   id="g107">
			<g
   id="Layer0_14_FILL">
				
					<linearGradient
   id="SVGID_00000106125175930425573960000005386400524833463683_"
   gradientUnits="userSpaceOnUse"
   x1="276.84229"
   y1="364.9856"
   x2="345.04959"
   y2="336.38251">
					<stop
   offset="0.3075"
   style="stop-color:#7D9ECC"
   id="stop106" />
					<stop
   offset="1"
   style="stop-color:#C0B5DD"
   id="stop107" />
				</linearGradient>
				<path
   style="fill:url(#SVGID_00000106125175930425573960000005386400524833463683_)"
   d="m 263.052,333.355 c 31.987,7.244 43.747,25.026 35.281,53.346 -7.294,28.078 -20.575,43.803 -39.842,47.175 -19.78,2.529 -32.881,1.247 -39.305,-3.846 -6.426,-5.063 -8.736,-9.176 -6.931,-12.342 l -22.134,-11 c -3.678,11.975 -0.205,23.332 10.419,34.073 10.658,10.741 24.728,16.271 42.212,16.59 17.491,0.315 31.785,-4.246 42.882,-13.683 28.737,-29.363 42.465,-65.225 41.183,-107.586 -0.865,-30.437 -17.29,-49.277 -49.277,-56.521 z"
   id="path107" />
			</g>
		</g>
	</g><g
                   transform="matrix(0.26458333,0,0,0.26458333,41.784073,75.589143)"
                   id="g113">
		<g
   id="g112">
			<g
   id="Layer0_16_FILL">
				<path
   style="fill:#63767b"
   d="m 265.691,309.03 c 0,4.531 1.61,8.407 4.829,11.626 3.249,3.22 7.14,4.829 11.671,4.829 4.561,0 8.436,-1.61 11.626,-4.829 3.249,-3.219 4.874,-7.095 4.874,-11.626 0,-4.561 -1.625,-8.451 -4.874,-11.671 -3.19,-3.219 -7.065,-4.829 -11.626,-4.829 -4.531,0 -8.421,1.61 -11.671,4.829 -3.219,3.22 -4.829,7.11 -4.829,11.671 m 16.5,6.484 c -1.789,0 -3.324,-0.641 -4.606,-1.923 -1.282,-1.252 -1.923,-2.772 -1.923,-4.561 0,-1.789 0.641,-3.324 1.923,-4.606 0,-0.03 0.015,-0.045 0.045,-0.045 1.282,-1.252 2.802,-1.878 4.561,-1.878 1.789,0 3.324,0.626 4.606,1.878 1.282,1.282 1.923,2.832 1.923,4.65 0,1.759 -0.641,3.264 -1.923,4.516 l -0.045,0.089 c -1.252,1.254 -2.773,1.88 -4.561,1.88 z"
   id="path111" />
				<path
   style="opacity:0.8;fill:#ffffff"
   d="m 277.585,313.591 c 1.282,1.282 2.817,1.923 4.606,1.923 1.789,0 3.309,-0.626 4.561,-1.878 l 0.045,-0.089 c 1.282,-1.252 1.923,-2.757 1.923,-4.516 0,-1.818 -0.641,-3.369 -1.923,-4.65 -1.282,-1.252 -2.817,-1.878 -4.606,-1.878 -1.759,0 -3.279,0.626 -4.561,1.878 -0.03,0 -0.045,0.015 -0.045,0.045 -1.282,1.282 -1.923,2.817 -1.923,4.606 0,1.789 0.641,3.307 1.923,4.559 z"
   id="path112" />
			</g>
		</g>
	</g><g
                   transform="matrix(0.26458333,0,0,0.26458333,41.784073,75.589143)"
                   id="g115">
		<g
   id="g114">
			<g
   id="Layer0_17_FILL">
				
					<linearGradient
   id="SVGID_00000093162666636904400780000018029299373051746227_"
   gradientUnits="userSpaceOnUse"
   x1="268.18201"
   y1="461.8284"
   x2="297.33521"
   y2="438.1759">
					<stop
   offset="0"
   style="stop-color:#98B5DD"
   id="stop113" />
					<stop
   offset="1"
   style="stop-color:#C0B5DD"
   id="stop114" />
				</linearGradient>
				<path
   style="fill:url(#SVGID_00000093162666636904400780000018029299373051746227_)"
   d="m 296.947,450.734 c -6.856,-8.258 -12.401,-13.325 -16.634,-15.203 -4.263,-1.908 -7.885,-2.683 -10.866,-2.325 -3.011,0.298 -5.813,1.178 -8.407,2.638 -2.593,1.431 -10.18,8.6 -22.76,21.508 -2.117,2.325 -5.306,3.771 -9.569,4.337 h -12.968 -28.395 c -5.485,0.03 -8.064,2.832 -7.736,8.406 v 4.248 h 36.13 85.362 8.228 27.947 v -4.248 c 0.328,-5.574 -2.251,-8.377 -7.736,-8.406 h -18.02 c -5.038,-1.043 -9.092,-3.682 -12.163,-7.915 -0.773,-1.013 -1.578,-2.026 -2.413,-3.04 z"
   id="path114" />
			</g>
		</g>
	</g><g
                   transform="matrix(0.26458333,0,0,0.26458333,41.784073,75.589143)"
                   id="g117">
		<g
   id="g116">
			<g
   id="Layer0_18_FILL">
				<path
   style="fill:#63767b"
   d="m 278.256,449.572 c 2.743,-2.713 4.114,-6.007 4.114,-9.882 0,-3.846 -1.371,-7.155 -4.114,-9.927 -2.742,-2.713 -6.052,-4.069 -9.927,-4.069 -3.846,0 -7.14,1.356 -9.882,4.069 -2.743,2.772 -4.114,6.081 -4.114,9.927 0,3.875 1.371,7.169 4.114,9.882 2.742,2.772 6.037,4.159 9.882,4.159 3.875,-10e-4 7.184,-1.387 9.927,-4.159 m -5.947,-5.992 -0.089,0.045 c -1.073,1.103 -2.37,1.654 -3.89,1.654 -1.55,0 -2.847,-0.551 -3.89,-1.654 -1.073,-1.103 -1.61,-2.415 -1.61,-3.935 0,-1.491 0.537,-2.787 1.61,-3.89 h 0.045 c 1.073,-1.103 2.355,-1.654 3.846,-1.654 1.55,0 2.862,0.551 3.935,1.654 1.043,1.103 1.565,2.4 1.565,3.89 -0.002,1.52 -0.509,2.817 -1.522,3.89 z"
   id="path115" />
				<path
   style="opacity:0.8;fill:#ffffff"
   d="m 272.219,443.625 0.089,-0.045 c 1.014,-1.073 1.52,-2.37 1.52,-3.89 0,-1.491 -0.522,-2.787 -1.565,-3.89 -1.073,-1.103 -2.385,-1.654 -3.935,-1.654 -1.491,0 -2.772,0.551 -3.846,1.654 h -0.045 c -1.073,1.103 -1.61,2.4 -1.61,3.89 0,1.52 0.537,2.832 1.61,3.935 1.043,1.103 2.34,1.654 3.89,1.654 1.522,0 2.819,-0.551 3.892,-1.654 z"
   id="path116" />
			</g>
		</g>
	</g><g
                   transform="matrix(0.26458333,0,0,0.26458333,41.572406,75.589143)"
                   id="g119">
		<g
   id="g118">
			<g
   id="Layer0_19_FILL">
				<path
   style="fill:#63767b"
   d="m 183.543,399.132 -2.236,3.935 40.915,23.073 2.191,-3.935 z"
   id="path117" />
			</g>
		</g>
	</g></g></g></g></g><g
           transform="matrix(0.26458333,0,0,0.27383261,26.700013,6.2419026)"
           id="g122">
		<g
   id="g121">
			<g
   id="Layer0_20_MEMBER_0_FILL">
				
					<linearGradient
   id="SVGID_00000060749951366543129640000016773927117703473062_"
   gradientUnits="userSpaceOnUse"
   x1="195.01401"
   y1="430.06619"
   x2="195.6097"
   y2="369.31009">
					<stop
   offset="0.1898"
   style="stop-color:#7C7876"
   id="stop120" />
					<stop
   offset="1"
   style="stop-color:#687588"
   id="stop121" />
				</linearGradient>
				<path
   style="fill:url(#SVGID_00000060749951366543129640000016773927117703473062_)"
   d="m 191.411,403.088 c 0.477,-11.179 0.85,-18.989 1.118,-23.431 -3.22,-0.119 -6.037,-0.358 -8.451,-0.716 -0.268,4.382 -0.701,11.045 -1.297,19.988 -1.043,15.859 -1.625,27.157 -1.744,33.895 h 9.435 c 0.06,-6.081 0.373,-15.993 0.939,-29.736 m 16.187,0 c -0.298,-11.179 -0.462,-18.989 -0.492,-23.431 -3.279,-0.119 -6.126,-0.358 -8.541,-0.716 0.03,4.382 0.074,11.045 0.134,19.988 0.09,15.859 0.283,27.515 0.581,34.968 l 9.659,-1.565 c -0.446,-5.753 -0.893,-15.501 -1.341,-29.244 z"
   id="path121" />
			</g>
		</g>
	</g><g
           transform="matrix(0.26458333,0,0,0.26458333,26.700013,6.2551318)"
           id="g124"
           style="fill:#fcf1d8;fill-opacity:1">
		<g
   id="g123"
   style="fill:#fcf1d8;fill-opacity:1">
			<g
   id="Layer0_20_MEMBER_1_FILL"
   style="fill:#fcf1d8;fill-opacity:1">
				<path
   style="fill:#fcf1d8;fill-opacity:1"
   d="m 196.822,308.03 c -0.06,0.954 -0.134,2.34 -0.224,4.159 -0.089,0.477 -0.134,0.984 -0.134,1.52 l 4.158,3.085 c 1.014,-1.192 1.714,-2.027 2.102,-2.504 0.03,-0.06 0.06,-0.104 0.089,-0.134 -0.03,-0.298 -0.06,-0.864 -0.089,-1.699 0,-0.447 -0.015,-0.969 -0.045,-1.565 0,-0.894 0,-1.61 0,-2.146 -0.566,0 -1.118,-0.015 -1.655,-0.045 -1.877,-0.09 -3.278,-0.313 -4.202,-0.671 z"
   id="path122" />
				
					<linearGradient
   id="SVGID_00000134934615120013491650000016172277722592874150_"
   gradientUnits="userSpaceOnUse"
   x1="195.3777"
   y1="325.28189"
   x2="196.27119"
   y2="415.8208">
					<stop
   offset="0.2701"
   style="stop-color:#FFFFFF"
   id="stop122" />
					<stop
   offset="1"
   style="stop-color:#C8EDED"
   id="stop123" />
				</linearGradient>
				<path
   style="fill:#fcf1d8;fill-opacity:1"
   d="m 186.314,317.376 c -0.417,0.149 -0.775,0.283 -1.073,0.402 -0.328,2.653 -0.954,7.661 -1.878,15.025 -1.401,11.477 -2.489,21.628 -3.264,30.451 -0.507,3.697 -0.909,9.212 -1.207,16.545 -0.268,5.902 -0.402,10.717 -0.402,14.443 6.26,0.507 12.252,0.85 17.976,1.028 h 1.073 l 10.106,-1.252 c 2.325,-0.298 3.801,-0.596 4.427,-0.894 -0.477,-6.737 -1.103,-16.634 -1.878,-29.691 -0.537,-6.856 -0.701,-10.777 -0.492,-11.76 0.119,-0.596 0.313,-2.862 0.581,-6.797 0.358,-4.74 0.641,-8.243 0.85,-10.508 0.626,-6.767 1.207,-12.252 1.744,-16.455 -4.144,-1.52 -6.842,-2.489 -8.094,-2.907 -0.119,-1.073 -0.179,-1.729 -0.179,-1.967 l -1.878,-0.581 c 0.03,0.835 0.06,1.401 0.089,1.699 -0.03,0.03 -0.06,0.075 -0.089,0.134 -0.388,0.477 -1.088,1.312 -2.102,2.504 l -4.158,-3.085 c 0,-0.537 0.045,-1.043 0.134,-1.52 -0.805,0.268 -1.401,0.432 -1.789,0.492 -0.089,0.06 -0.298,0.79 -0.626,2.191 -3.281,0.774 -5.904,1.608 -7.871,2.503 z"
   id="path123" />
			</g>
		</g>
	</g><g
           transform="matrix(0.23518429,0,0,0.23518429,37.825742,4.3369027)"
           id="g127">
		<g
   id="g126">
			<g
   id="Layer0_20_MEMBER_2_FILL">
				
					<linearGradient
   id="SVGID_00000168076571342163201880000001905154921998558134_"
   gradientUnits="userSpaceOnUse"
   x1="174.1601"
   y1="346.25821"
   x2="183.9883"
   y2="316.7735">
					<stop
   offset="0.1257"
   style="stop-color:#8BA7A6"
   id="stop124" />
					<stop
   offset="1"
   style="stop-color:#C8EDED"
   id="stop125" />
				</linearGradient>
				<path
   style="fill:url(#SVGID_00000168076571342163201880000001905154921998558134_)"
   d="m 165.617,347.844 c -0.447,-0.089 -0.82,-0.209 -1.118,-0.358 0.686,1.58 1.938,2.981 3.756,4.203 -0.447,-1.133 -0.73,-2.385 -0.85,-3.756 -1.102,-0.03 -1.699,-0.06 -1.788,-0.089 m 5.098,-26.025 c -4.084,-0.298 -6.692,0.82 -7.825,3.354 -1.163,2.534 -1.789,5.232 -1.878,8.094 -0.119,2.832 0.492,6.335 1.833,10.508 0.417,-0.954 0.82,-1.714 1.207,-2.28 0.894,-1.222 2.027,-1.833 3.398,-1.833 0.119,0 0.238,0 0.358,0 0.179,0.537 0.432,1.028 0.76,1.476 0.298,0.388 0.611,0.701 0.939,0.939 0.268,-1.312 0.879,-3.279 1.833,-5.902 0.745,-0.537 1.625,-1.267 2.638,-2.191 1.371,-1.192 2.31,-2.072 2.817,-2.638 2.117,1.133 4.501,1.982 7.155,2.549 2.355,0.537 4.65,0.805 6.886,0.805 0.537,0 1.014,-0.015 1.431,-0.045 0.358,3.637 0.462,6.737 0.313,9.301 2.087,-3.1 3.458,-7.274 4.114,-12.521 0.447,-3.637 0.611,-7.125 0.492,-10.463 -1.222,0.179 -2.907,-0.581 -5.053,-2.28 -2.176,-1.699 -5.127,-2.653 -8.854,-2.862 -3.756,-0.209 -6.648,0.253 -8.675,1.386 -2.026,1.1 -3.323,2.635 -3.889,4.603 z"
   id="path125" />
				<path
   style="fill:#eaa58d"
   d="m 162.845,343.774 c 0.06,0.209 0.089,0.611 0.089,1.207 0,1.163 0.522,1.997 1.565,2.504 0.298,0.149 0.671,0.268 1.118,0.358 0.089,0.03 0.686,0.06 1.789,0.089 0.119,1.371 0.403,2.623 0.85,3.756 0.894,2.266 2.474,3.965 4.74,5.098 3.339,1.64 6.275,2.43 8.809,2.37 2.534,-0.06 5.098,-1.535 7.691,-4.427 1.759,-1.967 2.787,-5.56 3.085,-10.776 0.149,-2.564 0.045,-5.664 -0.313,-9.301 -0.417,0.03 -0.894,0.045 -1.431,0.045 -2.236,0 -4.531,-0.268 -6.886,-0.805 -2.653,-0.566 -5.038,-1.416 -7.155,-2.549 -0.507,0.566 -1.446,1.446 -2.817,2.638 -1.014,0.924 -1.893,1.655 -2.638,2.191 -0.954,2.623 -1.565,4.591 -1.833,5.902 -0.328,-0.238 -0.641,-0.551 -0.939,-0.939 -0.328,-0.447 -0.581,-0.939 -0.76,-1.476 -0.119,0 -0.238,0 -0.358,0 -1.371,0 -2.504,0.611 -3.398,1.833 -0.389,0.568 -0.791,1.328 -1.208,2.282 z"
   id="path126" />
			</g>
		</g>
	</g><g
           transform="matrix(0.23517217,0,0,0.23517217,37.825742,4.3369027)"
           id="g129">
		<g
   id="g128">
			<g
   id="Layer0_20_MEMBER_2_MEMBER_0_FILL">
				<path
   style="opacity:0.8;fill:#ffffff"
   d="m 168.614,340.915 c 0.03,0.089 0.104,0.164 0.224,0.224 l 8.317,2.37 c 0,0.06 0,0.134 0,0.224 0,0.954 0.328,1.759 0.984,2.415 0.686,0.686 1.505,1.029 2.459,1.029 0.954,0 1.759,-0.343 2.415,-1.029 0.686,-0.656 1.029,-1.461 1.029,-2.415 v -0.045 c 0.745,-0.537 1.49,-0.537 2.236,0 v 0.045 c 0,0.954 0.328,1.759 0.984,2.415 0.686,0.686 1.505,1.029 2.459,1.029 0.954,0 1.759,-0.343 2.415,-1.029 0.686,-0.656 1.029,-1.461 1.029,-2.415 0,-0.954 -0.343,-1.774 -1.029,-2.459 -0.656,-0.656 -1.461,-0.984 -2.415,-0.984 -0.954,0 -1.774,0.328 -2.459,0.984 -0.417,0.417 -0.701,0.894 -0.85,1.431 -0.835,-0.477 -1.669,-0.477 -2.504,0 -0.179,-0.537 -0.477,-1.014 -0.894,-1.431 -0.656,-0.656 -1.461,-0.984 -2.415,-0.984 -0.954,0 -1.774,0.328 -2.459,0.984 -0.388,0.417 -0.656,0.879 -0.805,1.386 l -8.228,-2.37 c -0.119,-0.06 -0.239,-0.045 -0.358,0.045 -0.089,0.03 -0.149,0.104 -0.179,0.224 -0.06,0.118 -0.045,0.237 0.044,0.356 z"
   id="path127" />
			</g>
		</g>
	</g><g
           transform="matrix(0.26458333,0,0,0.26458333,26.700013,6.2286735)"
           id="g131"
           style="fill:#fcf1d8;fill-opacity:1">
		<g
   id="g130"
   style="fill:#fcf1d8;fill-opacity:1">
			<g
   id="Layer0_20_MEMBER_3_FILL"
   style="fill:#fcf1d8;fill-opacity:1">
				
					<linearGradient
   id="SVGID_00000013188729409932710010000002483327930534112161_"
   gradientUnits="userSpaceOnUse"
   x1="176.0282"
   y1="325.57281"
   x2="176.9216"
   y2="416.11169">
					<stop
   offset="0.2701"
   style="stop-color:#FFFFFF"
   id="stop129" />
					<stop
   offset="1"
   style="stop-color:#C8EDED"
   id="stop130" />
				</linearGradient>
				<path
   style="fill:#fcf1d8;fill-opacity:1"
   d="m 173.301,327.537 c -3.07,2.772 -6.037,5.545 -8.898,8.317 -0.089,2.176 2.236,7.736 6.976,16.679 4.233,8.019 7.497,13.37 9.793,16.053 0.179,-0.596 0.417,-1.401 0.715,-2.415 0.477,-1.55 0.954,-3.056 1.431,-4.516 -1.192,-2.087 -2.743,-4.949 -4.65,-8.585 -3.548,-6.707 -6.037,-11.79 -7.468,-15.248 1.729,-1.55 4.725,-4.084 8.988,-7.602 3.309,-2.743 5.828,-4.77 7.557,-6.081 -0.268,-0.417 -0.522,-0.85 -0.76,-1.297 -0.924,-1.61 -1.386,-3.324 -1.386,-5.142 -3.071,1.967 -7.17,5.246 -12.298,9.837 z"
   id="path130" />
			</g>
		</g>
	</g><g
           transform="matrix(0.29764011,0.02063424,-0.02063424,0.29764011,25.00668,-8.667368)"
           id="g133">
		<g
   id="g132">
			<g
   id="Layer0_20_MEMBER_4_FILL">
				<path
   style="fill:#eaa58d"
   d="m 245.298,319.579 c -0.298,0.328 -0.641,0.879 -1.028,1.654 -0.447,0.865 -0.73,1.64 -0.85,2.325 0.686,0.894 1.252,1.61 1.699,2.146 0.298,-0.447 0.596,-0.85 0.894,-1.207 0.149,-0.179 0.283,-0.328 0.402,-0.447 1.163,0.626 2.027,0.969 2.594,1.028 1.52,-0.209 2.504,-1.014 2.951,-2.415 0,-0.298 -0.104,-0.581 -0.313,-0.85 -0.358,-0.447 -0.73,-0.894 -1.118,-1.342 0.566,0 1.163,-0.104 1.789,-0.313 1.252,-0.417 1.878,-1.088 1.878,-2.012 0,-0.477 -0.045,-0.76 -0.134,-0.85 -0.566,0.268 -1.953,0.656 -4.159,1.163 -2.175,0.508 -3.71,0.881 -4.605,1.12 z"
   id="path131" />
			</g>
		</g>
	</g><g
           transform="matrix(0.26458333,0,0,0.26458333,26.700013,6.2551318)"
           id="g135"
           style="fill:#fcf1d8;fill-opacity:1">
		<g
   id="g134"
   style="fill:#fcf1d8;fill-opacity:1">
			<g
   id="Layer0_20_MEMBER_5_FILL"
   style="fill:#fcf1d8;fill-opacity:1">
				
					<linearGradient
   id="SVGID_00000034091824976504780990000011834488461704134572_"
   gradientUnits="userSpaceOnUse"
   x1="228.01151"
   y1="324.95981"
   x2="228.905"
   y2="415.49869">
					<stop
   offset="0.2701"
   style="stop-color:#FFFFFF"
   id="stop133" />
					<stop
   offset="1"
   style="stop-color:#C8EDED"
   id="stop134" />
				</linearGradient>
				<path
   style="fill:#fcf1d8;fill-opacity:1"
   d="m 233.891,331.238 c -4.68,3.995 -7.482,6.394 -8.407,7.199 -2.057,-3.428 -6.26,-10.3 -12.61,-20.614 l -3.577,6.841 c 0.328,1.222 2.847,5.411 7.557,12.565 2.534,3.875 4.725,7.065 6.573,9.569 7.989,-5.873 15.77,-11.566 23.342,-17.081 l -4.337,-5.679 c -0.686,0.567 -3.533,2.967 -8.541,7.2 z"
   id="path134" />
			</g>
		</g>
	</g><g
           transform="matrix(0.26458333,0,0,0.27383261,26.700013,6.1625276)"
           id="g137">
		<g
   id="g136">
			<g
   id="Layer0_20_MEMBER_6_FILL">
				<path
   style="fill:#7c7876"
   d="m 189.801,434.42 c -0.089,-0.179 -0.179,-0.402 -0.268,-0.671 -0.179,-0.566 -0.328,-1.073 -0.447,-1.52 -2.862,0.119 -5.038,0.06 -6.528,-0.179 -0.537,1.312 -0.954,2.474 -1.252,3.488 -0.328,0.984 -0.537,1.55 -0.626,1.699 v 0.85 c 2.325,-0.06 6.096,-0.104 11.313,-0.134 -0.328,-1.431 -0.805,-2.489 -1.431,-3.175 h -0.045 c -0.119,-0.06 -0.358,-0.179 -0.716,-0.358 z"
   id="path135" />
			</g>
		</g>
	</g><g
           transform="matrix(0.26458333,0,0,0.27383261,26.700013,6.2419026)"
           id="g139">
		<g
   id="g138">
			<g
   id="Layer0_20_MEMBER_7_FILL">
				<path
   style="fill:#7c7876"
   d="m 218.062,437.788 c -0.089,-0.268 -0.328,-0.671 -0.715,-1.207 -0.209,-0.268 -0.402,-0.507 -0.581,-0.715 -6.35,-2.772 -10.508,-3.905 -12.476,-3.398 h -3.98 c -0.03,0.507 -0.089,2.266 -0.179,5.276 z"
   id="path137" />
			</g>
		</g>
	</g><g
           id="g4306"
           transform="matrix(0.08249321,0,0,0.08249321,138.83224,6.7443026)"><g
             id="layer1-5" /><g
             id="layer3"><g
               id="g2791"
               transform="matrix(0.97850099,0,0,-0.97850099,-179.54096,453.77399)"><g
                 id="g2793"
                 clip-path="url(#clipPath2797-9)"><g
                   id="g2799"
                   transform="translate(311.9674,324.2958)"><path
                     d="m 0,0 c 0,-11.372 -9.181,-20.827 -20.597,-20.827 h -0.165 -88.621 c -7.215,12.267 -11.957,26.155 -13.547,40.991 h 102.618 c 0.664,-0.014 1.558,0.007 1.965,0.014 0.426,0.009 0.984,-0.056 0.984,-0.056 C -7.511,18.559 0,10.259 0,0"
                     style="fill:#f1aa4b;fill-opacity:1;fill-rule:nonzero;stroke:none"
                     id="path2801" /></g><g
                   id="g2803"
                   transform="translate(291.6549,366.0117)"><path
                     d="m 0,0 h -102.691 c 1.514,15.098 6.296,29.23 13.621,41.686 H 0.166 C 11.639,41.494 20.88,32.375 20.88,20.854 20.88,9.822 12.049,0.896 1.249,-0.018 Z"
                     style="fill:#f1aa4b;fill-opacity:1;fill-rule:nonzero;stroke:none"
                     id="path2805" /></g><g
                   id="g2807"
                   transform="translate(394.3248,355.5829)"><path
                     d="m 0,0 c 0,-56.854 -46.088,-102.94 -102.94,-102.94 -27.977,0 -53.351,11.158 -71.908,29.273 h 72.344 c 22.915,0.323 41.389,19.26 41.389,42.161 0,12.36 -5.381,23.47 -13.936,31.13 8.913,7.734 14.547,19.142 14.547,31.868 0,23.235 -18.788,42.079 -42,42.175 h -72.348 c 18.556,18.115 43.93,29.278 71.912,29.278 C -46.088,102.945 0,56.854 0,0"
                     style="fill:#f1aa4b;fill-opacity:1;fill-rule:nonzero;stroke:none"
                     id="path2809" /></g></g></g></g></g></g></g></g></svg>
