<?xml version="1.0" encoding="UTF-8" standalone="no"?>
<svg
   version="1.1"
   x="0px"
   y="0px"
   viewBox="0 0 1600 1200"
   xml:space="preserve"
   width="1600"
   height="1200"
   id="svg395"
   xmlns="http://www.w3.org/2000/svg"
   xmlns:svg="http://www.w3.org/2000/svg"><defs
   id="defs395" />

<g
   id="background">
	<g
   id="g2">
		<g
   id="g1">
			<path
   d="m 228.4,1020.2 c 49.2,2.2 98.4,3.3 147.6,3.2 1.9,0 1.9,-3 0,-3 -49.2,0.1 -98.4,-1 -147.6,-3.2 -1.9,-0.1 -1.9,2.9 0,3 z"
   style="fill:#e8e8e8"
   id="path1" />
		</g>
	</g>
	<g
   id="g4">
		<g
   id="g3">
			<path
   d="m 379,945.8 c 7.7,28.9 14.9,58 21.5,87.2 0.4,1.9 3.3,1.1 2.9,-0.8 -6.7,-29.2 -13.8,-58.3 -21.5,-87.2 -0.5,-1.8 -3.4,-1 -2.9,0.8 z"
   style="fill:#e8e8e8"
   id="path2" />
		</g>
	</g>
	<g
   id="g6">
		<g
   id="g5">
			<path
   d="m 513,948 c -2.8,27.5 -5.6,55.1 -8.3,82.6 -0.2,1.9 2.8,1.9 3,0 2.8,-27.5 5.6,-55.1 8.3,-82.6 0.1,-1.9 -2.9,-1.9 -3,0 z"
   style="fill:#e8e8e8"
   id="path4" />
		</g>
	</g>
	<g
   id="g8">
		<g
   id="g7">
			<path
   d="m 401.3,1035.7 c 17.5,3.1 35.2,4.5 53,4 17,-0.5 35.6,-1.8 51.8,-7.2 1.8,-0.6 1,-3.5 -0.8,-2.9 -16.1,5.3 -34.2,6.6 -51,7.1 -17.5,0.5 -35,-0.9 -52.2,-3.9 -1.9,-0.4 -2.7,2.5 -0.8,2.9 z"
   style="fill:#e8e8e8"
   id="path6" />
		</g>
	</g>
	<g
   id="g10">
		<g
   id="g9">
			<path
   d="m 380.2,946.8 c 20.7,5.8 43.2,5.9 64.6,6 23,0.2 46,-1.1 68.8,-3.7 1.9,-0.2 1.9,-3.2 0,-3 -22.2,2.6 -44.5,3.8 -66.8,3.7 -21.7,-0.1 -44.7,-0.1 -65.8,-5.9 -1.9,-0.5 -2.7,2.4 -0.8,2.9 z"
   style="fill:#e8e8e8"
   id="path8" />
		</g>
	</g>
	<g
   id="g12">
		<g
   id="g11">
			<path
   d="m 371.6,936.5 c 0.2,1.9 0.4,3.9 0.6,5.8 0.1,1.2 0.1,2.7 0.6,3.8 1.2,2.6 5.2,1.7 7.5,1.7 1.9,0 1.9,-3 0,-3 -1.1,0 -2.2,0 -3.4,0 -1.5,0 -1.5,-0.3 -1.6,-1.8 -0.2,-2.2 -0.4,-4.3 -0.6,-6.5 -0.3,-1.9 -3.3,-2 -3.1,0 z"
   style="fill:#e8e8e8"
   id="path10" />
		</g>
	</g>
	<g
   id="g14">
		<g
   id="g13">
			<path
   d="m 373.6,938.1 c 25,2.9 50.1,4.3 75.3,4.5 12.4,0.1 24.8,-0.1 37.3,-0.5 6.2,-0.2 12.4,-0.5 18.6,-0.8 2.9,-0.1 6.9,-1.1 9.8,-0.5 3.5,0.6 3.3,3.6 3.7,6.7 0.3,-0.6 0.7,-1.2 1,-1.8 -1.3,0 -2.6,0 -3.9,0 -1.9,-0.4 -2.7,2.5 -0.8,2.9 2,0.4 3.5,0.4 5.4,0 0.9,-0.2 1.2,-1.1 1,-1.8 -0.5,-3.5 -0.1,-7.9 -4.3,-8.8 -2.5,-0.6 -5.6,0.1 -8.2,0.2 -3.3,0.2 -6.5,0.3 -9.8,0.5 -14,0.6 -28.1,1 -42.2,1 -27.8,0 -55.5,-1.3 -83.1,-4.6 -1.7,-0.2 -1.7,2.8 0.2,3 z"
   style="fill:#e8e8e8"
   id="path12" />
		</g>
	</g>
	<g
   id="g16">
		<g
   id="g15">
			<path
   d="m 395.3,1010.8 c 8,10.5 17.4,19.6 28,27.4 1.6,1.1 3.1,-1.5 1.5,-2.6 -10.2,-7.5 -19.3,-16.3 -27,-26.4 -1.1,-1.5 -3.7,0 -2.5,1.6 z"
   style="fill:#e8e8e8"
   id="path14" />
		</g>
	</g>
	<g
   id="g18">
		<g
   id="g17">
			<path
   d="m 388.6,980.3 c 15.6,22.5 34.8,42.2 57,58.3 1.6,1.1 3.1,-1.5 1.5,-2.6 -21.7,-15.8 -40.6,-35.2 -55.9,-57.2 -1.1,-1.6 -3.7,-0.1 -2.6,1.5 z"
   style="fill:#e8e8e8"
   id="path16" />
		</g>
	</g>
	<g
   id="g20">
		<g
   id="g19">
			<path
   d="m 382.5,953.5 c 27,32 57,61.9 92.8,84.1 1.6,1 3.2,-1.6 1.5,-2.6 -35.6,-22 -65.4,-51.7 -92.2,-83.6 -1.2,-1.5 -3.3,0.7 -2.1,2.1 z"
   style="fill:#e8e8e8"
   id="path18" />
		</g>
	</g>
	<g
   id="g22">
		<g
   id="g21">
			<path
   d="m 411.2,951.8 c 25.7,29.9 54.2,58.3 86,81.7 1.6,1.1 3.1,-1.5 1.5,-2.6 -31.6,-23.2 -59.9,-51.6 -85.4,-81.2 -1.3,-1.5 -3.4,0.6 -2.1,2.1 z"
   style="fill:#e8e8e8"
   id="path20" />
		</g>
	</g>
	<g
   id="g24">
		<g
   id="g23">
			<path
   d="m 444,953.9 c 17.4,21.3 37.4,40.3 59.6,56.6 1.6,1.1 3.1,-1.5 1.5,-2.6 -22,-16.1 -41.8,-35 -59,-56.1 -1.2,-1.5 -3.3,0.6 -2.1,2.1 z"
   style="fill:#e8e8e8"
   id="path22" />
		</g>
	</g>
	<g
   id="g26">
		<g
   id="g25">
			<path
   d="m 470.8,952.8 c 11.2,12.6 24,23.4 38.2,32.5 1.6,1 3.1,-1.6 1.5,-2.6 -14,-8.9 -26.6,-19.7 -37.6,-32 -1.3,-1.5 -3.4,0.6 -2.1,2.1 z"
   style="fill:#e8e8e8"
   id="path24" />
		</g>
	</g>
	<g
   id="g28">
		<g
   id="g27">
			<path
   d="m 332.4,788 c 6.5,13.7 10.9,28.1 13.4,43.1 0.1,0.7 0.8,1.1 1.4,1.1 0.6,0 3.8,-0.1 4,0.9 0.1,0.4 -1.9,2.7 -2.1,3.2 -0.6,1.6 -0.6,3.5 0,5.1 0.8,1.9 2.3,3.2 4.1,3.9 0.6,0.3 1.3,0.4 2,0.5 0.6,0.1 1.2,0.1 1.8,0 0.8,-0.1 0.7,0 -0.2,0.4 -1,1.5 -2.4,1.7 -2.8,3.9 -0.3,2.1 0.7,4.1 1.5,5.9 3.3,7 5.2,14.4 7.9,21.7 9.3,24.8 27.1,45.3 47.2,62.2 1.5,1.2 3.6,-0.9 2.1,-2.1 -20.7,-17.4 -39.1,-38.7 -47.8,-64.8 -1.1,-3.4 -2.1,-6.8 -3.3,-10.1 -1,-2.9 -2.9,-5.9 -3.8,-8.8 -1,-1.6 -0.9,-3.4 0.4,-5.2 0.4,-0.3 0.8,-0.6 1.2,-0.9 0.3,-0.5 0.9,-0.8 1.2,-1.4 0.4,-1.1 0.1,-2.1 -0.7,-2.9 -1.3,-1.3 -3.3,-0.6 -5,-1.1 -6.5,-1.9 -1.2,-6.3 -0.7,-9.5 0.7,-4.2 -4.5,-3.7 -7.3,-3.9 0.5,0.4 1,0.7 1.4,1.1 -2.5,-15.2 -7.1,-29.9 -13.7,-43.8 -0.4,-1.8 -3,-0.3 -2.2,1.5 z"
   style="fill:#e8e8e8"
   id="path26" />
		</g>
	</g>
	<g
   id="g30">
		<g
   id="g29">
			<path
   d="m 333.5,787.3 c 32.5,8.7 61,30.8 81.7,57 22,27.8 35.7,61.2 43.1,95.7 0.4,1.9 3.3,1.1 2.9,-0.8 -7.5,-35 -21.5,-68.8 -43.8,-97 -21,-26.5 -50,-48.9 -83,-57.7 -2,-0.6 -2.8,2.3 -0.9,2.8 z"
   style="fill:#e8e8e8"
   id="path28" />
		</g>
	</g>
	<g
   id="g32">
		<g
   id="g31">
			<path
   d="m 345.3,799.7 c 39.8,38.7 70.5,86.2 89.4,138.5 0.7,1.8 3.6,1 2.9,-0.8 -19.1,-52.7 -50,-100.7 -90.2,-139.8 -1.3,-1.4 -3.5,0.7 -2.1,2.1 z"
   style="fill:#e8e8e8"
   id="path30" />
		</g>
	</g>
	<g
   id="g34">
		<g
   id="g33">
			<path
   d="m 363,862.6 c 8.4,0.9 16.6,2.8 24.4,5.9 7.6,3 15.9,6.8 20.7,13.7 1.1,1.6 3.7,0.1 2.6,-1.5 -4.8,-6.9 -12.3,-10.8 -19.9,-14 -8.9,-3.8 -18.2,-6.1 -27.9,-7.1 -1.8,-0.2 -1.8,2.8 0.1,3 z"
   style="fill:#e8e8e8"
   id="path32" />
		</g>
	</g>
	<g
   id="g36">
		<g
   id="g35">
			<path
   d="m 377.9,807.8 c -0.1,11.5 1.8,22.8 5.5,33.7 0.6,1.8 3.5,1 2.9,-0.8 -3.6,-10.6 -5.4,-21.6 -5.4,-32.9 0,-1.9 -3,-1.9 -3,0 z"
   style="fill:#e8e8e8"
   id="path34" />
		</g>
	</g>
	<g
   id="g38">
		<g
   id="g37">
			<path
   d="m 432.8,862.2 c 4.9,-18.3 21.2,-29.2 35.1,-40.4 14.8,-11.9 29.1,-24.6 42.7,-37.8 -0.8,-0.5 -1.7,-1 -2.5,-1.5 -4.5,12.1 -5.4,24.8 -5.2,37.6 0.2,12.8 3.1,27.5 -1,39.9 0.5,-0.4 1,-0.7 1.4,-1.1 -3.2,0.2 -6.4,0.5 -9.6,0.7 -1,0.1 -2,1.3 -1.3,2.3 2.3,3.1 5,4.1 4.9,8.7 0,3.2 -0.8,6.9 -1.9,9.9 -1.1,3.1 -4,5.2 -5,8.1 -0.8,2.6 1.2,4.8 1.2,7.4 0.1,4.3 -3,7.9 -5.2,11.3 -2.1,3.2 -4,6.5 -5.7,9.9 -3.4,6.7 -6.1,13.6 -8.1,20.8 -0.5,1.9 2.4,2.7 2.9,0.8 2.5,-8.9 6.1,-17.5 10.8,-25.5 3.2,-5.4 9.2,-11.7 8.5,-18.5 -0.3,-2.7 -1.7,-3.5 -0.5,-6.6 0.1,-0.1 1.9,-2.5 2,-2.7 1.9,-3.1 2.8,-6.6 3.4,-10.1 0.4,-2.6 1.2,-5.8 0.8,-8.4 -0.6,-3.7 -3.4,-4 -5.5,-6.8 -0.4,0.8 -0.9,1.5 -1.3,2.3 3.2,-0.2 6.4,-0.5 9.6,-0.7 0.7,-0.1 1.2,-0.4 1.4,-1.1 3.8,-11.6 1.5,-25.1 1.1,-37.1 -0.4,-13.7 0.1,-27.5 5,-40.5 0.6,-1.5 -1.5,-2.4 -2.5,-1.5 -14.5,14.1 -29.7,27.6 -45.6,40.2 -13.6,10.8 -28.3,21.8 -33,39.4 -0.3,2.1 2.6,2.9 3.1,1 z"
   style="fill:#e8e8e8"
   id="path36" />
		</g>
	</g>
	<g
   id="g40">
		<g
   id="g39">
			<path
   d="m 499.5,797 c -9.8,17.1 -19.8,34 -29.2,51.3 -8.8,16 -16.6,32.6 -20.3,50.5 -0.4,1.9 2.5,2.7 2.9,0.8 3.8,-18.3 11.9,-35.1 20.9,-51.4 9.2,-16.7 18.9,-33.1 28.3,-49.7 0.9,-1.6 -1.7,-3.2 -2.6,-1.5 z"
   style="fill:#e8e8e8"
   id="path38" />
		</g>
	</g>
	<g
   id="g42">
		<g
   id="g41">
			<path
   d="m 470,824.8 c 1.3,5.7 1.9,11.4 1.7,17.2 -0.1,1.9 2.9,1.9 3,0 0.2,-6.1 -0.4,-12 -1.8,-18 -0.5,-1.9 -3.3,-1.1 -2.9,0.8 z"
   style="fill:#e8e8e8"
   id="path40" />
		</g>
	</g>
	<g
   id="g44">
		<g
   id="g43">
			<path
   d="m 486.3,805.7 c 1.1,4.3 1.3,8.5 0.8,12.8 -0.2,1.9 2.8,1.9 3,0 0.6,-4.6 0.3,-9.1 -0.9,-13.6 -0.5,-1.8 -3.4,-1 -2.9,0.8 z"
   style="fill:#e8e8e8"
   id="path42" />
		</g>
	</g>
	<g
   id="g46">
		<g
   id="g45">
			<path
   d="m 487,825.6 c 5.9,-3.5 12,-6.6 18.3,-9.2 1.8,-0.7 1,-3.6 -0.8,-2.9 -6.6,2.7 -12.9,5.9 -19.1,9.5 -1.6,1 -0.1,3.6 1.6,2.6 z"
   style="fill:#e8e8e8"
   id="path44" />
		</g>
	</g>
	<g
   id="g48">
		<g
   id="g47">
			<path
   d="m 461.2,875.8 c 3.8,-3.2 7.6,-6.3 11.5,-9.3 4.1,-3.2 8.6,-7.5 13.6,-9.5 1.8,-0.7 1,-3.6 -0.8,-2.9 -4.5,1.7 -8.2,5 -12,8 -4.9,3.8 -9.7,7.6 -14.4,11.6 -1.5,1.2 0.6,3.3 2.1,2.1 z"
   style="fill:#e8e8e8"
   id="path46" />
		</g>
	</g>
	<g
   id="g50">
		<g
   id="g49">
			<path
   d="m 345.4,819.7 c 7,0.7 14,1.4 21,2 1.9,0.2 1.9,-2.8 0,-3 -7,-0.7 -14,-1.4 -21,-2 -1.9,-0.2 -1.9,2.8 0,3 z"
   style="fill:#e8e8e8"
   id="path48" />
		</g>
	</g>
	<g
   id="g52">
		<g
   id="g51">
			<path
   d="m 528.9,1019.2 c 125.3,0 250.5,0 375.8,0 35.3,0 70.6,0 105.9,0 1.9,0 1.9,-3 0,-3 -125.3,0 -250.5,0 -375.8,0 -35.3,0 -70.6,0 -105.9,0 -2,0 -2,3 0,3 z"
   style="fill:#e8e8e8"
   id="path50" />
		</g>
	</g>
	<g
   id="g54">
		<g
   id="g53">
			<path
   d="m 952.7,774.2 c 0,14.6 0,29.2 0,43.8 0,1.9 3,1.9 3,0 0,-14.6 0,-29.2 0,-43.8 0,-1.9 -3,-1.9 -3,0 z"
   style="fill:#e8e8e8"
   id="path52" />
		</g>
	</g>
	<g
   id="g56">
		<g
   id="g55">
			<path
   d="m 883.7,824.7 c 48.5,0 97,0 145.5,0 1.9,0 1.9,-3 0,-3 -48.5,0 -97,0 -145.5,0 -1.9,0 -2,3 0,3 z"
   style="fill:#e8e8e8"
   id="path54" />
		</g>
	</g>
	<g
   id="g58">
		<g
   id="g57">
			<path
   d="m 916.3,825.5 c 0,12.6 0,25.2 0,37.9 0,1.9 3,1.9 3,0 0,-12.6 0,-25.2 0,-37.9 0,-2 -3,-2 -3,0 z"
   style="fill:#e8e8e8"
   id="path56" />
		</g>
	</g>
	<g
   id="g60">
		<g
   id="g59">
			<path
   d="m 991.3,824.7 c 0,11.1 0,22.3 0,33.4 0,1.9 3,1.9 3,0 0,-11.1 0,-22.3 0,-33.4 0,-1.9 -3,-1.9 -3,0 z"
   style="fill:#e8e8e8"
   id="path58" />
		</g>
	</g>
	<g
   id="g62">
		<g
   id="g61">
			<path
   d="m 943.8,866.3 c 37.1,0 74.2,0 111.3,0 1.9,0 1.9,-3 0,-3 -37.1,0 -74.2,0 -111.3,0 -1.9,0 -1.9,3 0,3 z"
   style="fill:#e8e8e8"
   id="path60" />
		</g>
	</g>
	<g
   id="g64">
		<g
   id="g63">
			<path
   d="m 859.9,1048.2 c 81.9,0 163.8,0 245.7,0 1.9,0 1.9,-3 0,-3 -81.9,0 -163.8,0 -245.7,0 -1.9,0 -1.9,3 0,3 z"
   style="fill:#e8e8e8"
   id="path62" />
		</g>
	</g>
	<g
   id="g66">
		<g
   id="g65">
			<path
   d="m 1198.6,1022.3 c 80.4,0 160.9,0 241.3,0 22.6,0 45.2,0 67.8,0 1.9,0 1.9,-3 0,-3 -80.4,0 -160.9,0 -241.3,0 -22.6,0 -45.2,0 -67.8,0 -1.9,0 -1.9,3 0,3 z"
   style="fill:#e8e8e8"
   id="path64" />
		</g>
	</g>
	<g
   id="g68">
		<g
   id="g67">
			<path
   d="m 201.7,1073.5 c 82.4,0 164.9,0 247.3,0 1.9,0 1.9,-3 0,-3 -82.4,0 -164.9,0 -247.3,0 -1.9,0 -1.9,3 0,3 z"
   style="fill:#e8e8e8"
   id="path66" />
		</g>
	</g>
	<g
   id="g70">
		<g
   id="g69">
			<path
   d="m 367.9,1103.5 c 67.3,0 134.6,0 201.9,0 1.9,0 1.9,-3 0,-3 -67.3,0 -134.6,0 -201.9,0 -2,0 -2,3 0,3 z"
   style="fill:#e8e8e8"
   id="path68" />
		</g>
	</g>
	<g
   id="g72">
		<g
   id="g71">
			<path
   d="m 1391,248.5 c 0,-27.9 0,-55.7 0,-83.6 0,-1.9 -3,-1.9 -3,0 0,27.9 0,55.7 0,83.6 0,1.9 3,1.9 3,0 z"
   style="fill:#e8e8e8"
   id="path70" />
		</g>
	</g>
	<g
   id="g74">
		<g
   id="g73">
			<path
   d="m 1390.5,164.3 c 36.1,0 72.2,0 108.3,0 1.9,0 1.9,-3 0,-3 -36.1,0 -72.2,0 -108.3,0 -1.9,0 -1.9,3 0,3 z"
   style="fill:#e8e8e8"
   id="path72" />
		</g>
	</g>
	<g
   id="g76">
		<g
   id="g75">
			<path
   d="m 1497.3,163 c -0.2,28.3 -0.4,56.6 -0.7,84.9 0,1.9 3,1.9 3,0 0.2,-28.3 0.4,-56.6 0.7,-84.9 0,-1.9 -3,-1.9 -3,0 z"
   style="fill:#e8e8e8"
   id="path74" />
		</g>
	</g>
	<g
   id="g78">
		<g
   id="g77">
			<path
   d="m 1391,250 c 35.6,0 71.2,0 106.8,0 1.9,0 1.9,-3 0,-3 -35.6,0 -71.2,0 -106.8,0 -1.9,0 -1.9,3 0,3 z"
   style="fill:#e8e8e8"
   id="path76" />
		</g>
	</g>
	<g
   id="g80">
		<g
   id="g79">
			<path
   d="m 1393.9,170.7 c 0,23.5 0,46.9 0,70.4 0,1.9 3,1.9 3,0 0,-23.5 0,-46.9 0,-70.4 0,-1.9 -3,-1.9 -3,0 z"
   style="fill:#e8e8e8"
   id="path78" />
		</g>
	</g>
	<g
   id="g82">
		<g
   id="g81">
			<path
   d="m 1396.1,172.2 c 31.6,0 63.1,0 94.7,0 1.9,0 1.9,-3 0,-3 -31.6,0 -63.1,0 -94.7,0 -2,0 -2,3 0,3 z"
   style="fill:#e8e8e8"
   id="path80" />
		</g>
	</g>
	<g
   id="g84">
		<g
   id="g83">
			<path
   d="m 1489.2,171.4 c -0.1,23 -0.2,46 -0.3,69.1 0,1.9 3,1.9 3,0 0.1,-23 0.2,-46 0.3,-69.1 0,-1.9 -3,-1.9 -3,0 z"
   style="fill:#e8e8e8"
   id="path82" />
		</g>
	</g>
	<g
   id="g86">
		<g
   id="g85">
			<path
   d="m 1396.7,243 c 31.1,0 62.2,0 93.3,0 1.9,0 1.9,-3 0,-3 -31.1,0 -62.2,0 -93.3,0 -1.9,0 -1.9,3 0,3 z"
   style="fill:#e8e8e8"
   id="path84" />
		</g>
	</g>
	<g
   id="g88">
		<g
   id="g87">
			<path
   d="m 1396.1,222.3 c 11.5,-4 23.6,-0.4 34.8,2.9 11.4,3.3 22.6,7.3 33.5,11.9 1.8,0.7 2.6,-2.2 0.8,-2.9 -12.1,-5.1 -24.5,-9.4 -37.1,-12.9 -10.7,-2.9 -22,-5.7 -32.8,-1.9 -1.8,0.6 -1,3.5 0.8,2.9 z"
   style="fill:#e8e8e8"
   id="path86" />
		</g>
	</g>
	<g
   id="g90">
		<g
   id="g89">
			<path
   d="m 1434.1,225.7 c 18.9,-1.1 36.6,-8.7 55.3,-10.8 1.9,-0.2 1.9,-3.2 0,-3 -18.7,2.1 -36.4,9.6 -55.3,10.8 -2,0.2 -2,3.2 0,3 z"
   style="fill:#e8e8e8"
   id="path88" />
		</g>
	</g>
	<g
   id="g92">
		<g
   id="g91">
			<path
   d="m 1469.9,189.1 c -4.2,-2.4 -0.4,-10.3 4.1,-8.4 2.4,1 2.9,3.9 1.6,6 -1.4,2.3 -4.3,2.7 -6.7,2 -1.9,-0.5 -2.7,2.4 -0.8,2.9 4,1.1 8.5,-0.1 10.5,-4 1.8,-3.5 0.4,-8.1 -3.4,-9.7 -7.8,-3.3 -14.2,9.7 -6.8,13.8 1.6,0.9 3.2,-1.7 1.5,-2.6 z"
   style="fill:#e8e8e8"
   id="path90" />
		</g>
	</g>
	<g
   id="g94">
		<g
   id="g93">
			<path
   d="m 1439.3,162.3 c 0.1,-1.7 0.2,-3.4 0.7,-5 0.4,-1.3 1.4,-4.4 2.9,-5 2.7,-1 3.7,8.5 3.9,10.3 0.2,1.9 3.2,1.9 3,0 -0.3,-3.5 -1.1,-14.5 -6.7,-13.7 -2.4,0.3 -4.1,3 -5,5 -1.2,2.6 -1.6,5.5 -1.7,8.3 -0.1,2 2.9,2 2.9,0.1 z"
   style="fill:#e8e8e8"
   id="path92" />
		</g>
	</g>
	<g
   id="g96">
		<g
   id="g95">
			<path
   d="m 1456.1,628.8 c 0,12 0,24.1 0,36.1 0,1.9 3,1.9 3,0 0,-12 0,-24.1 0,-36.1 0,-1.9 -3,-1.9 -3,0 z"
   style="fill:#e8e8e8"
   id="path94" />
		</g>
	</g>
	<g
   id="g98">
		<g
   id="g97">
			<path
   d="m 1419.8,669.3 c 27.2,0 54.5,0 81.7,0 1.9,0 1.9,-3 0,-3 -27.2,0 -54.5,0 -81.7,0 -1.9,0 -1.9,3 0,3 z"
   style="fill:#e8e8e8"
   id="path96" />
		</g>
	</g>
	<g
   id="g100">
		<g
   id="g99">
			<path
   d="m 1431.3,670.2 c 0,5.7 0,11.3 0,17 0,1.9 3,1.9 3,0 0,-5.7 0,-11.3 0,-17 0,-1.9 -3,-1.9 -3,0 z"
   style="fill:#e8e8e8"
   id="path98" />
		</g>
	</g>
	<g
   id="g102">
		<g
   id="g101">
			<path
   d="m 1475,671.1 c 0,6.7 0,13.5 0,20.2 0,1.9 3,1.9 3,0 0,-6.7 0,-13.5 0,-20.2 0,-2 -3,-2 -3,0 z"
   style="fill:#e8e8e8"
   id="path100" />
		</g>
	</g>
	<g
   id="g104">
		<g
   id="g103">
			<path
   d="m 1453.8,695.2 c 18.9,0 37.8,0 56.7,0 1.9,0 1.9,-3 0,-3 -18.9,0 -37.8,0 -56.7,0 -1.9,0 -1.9,3 0,3 z"
   style="fill:#e8e8e8"
   id="path102" />
		</g>
	</g>
</g>
<g
   id="cat">
	<path
   d="m 761.9,987.6 c 31.5,-21.3 47.3,-32 51.4,-33.3 10,-3.2 42.4,-13.5 70.7,3.8 20.3,12.4 39,39.3 31.2,57.3 -5.6,12.8 -22.7,16.8 -38.2,20.5 -22.9,5.4 -42.5,2.4 -53.5,-0.2 -4.3,4.2 -11.2,9.8 -20.9,13.5 -16.1,6.2 -34.7,5.1 -35.6,1.4 -0.4,-1.9 3.6,-5.6 23,-13.2 -2.3,-2.5 -5.7,-5.5 -10.5,-7.6 -14.2,-6.5 -28.4,-0.2 -31.1,1.1 13.9,8.1 16.9,12.3 16.2,14.6 -1.8,5.8 -30.1,7.7 -37.7,-5.6 -0.8,-1.3 -3,-5.8 -1.2,-14.3 3.6,-15.6 16.6,-24.7 36.2,-38 z"
   style="fill:#161616"
   id="path104" />
	<path
   d="m 899.1,1009.8 c 3.2,-6.6 17.6,-5 23.2,-4.4 7.2,0.8 13.6,1.5 19.4,6.6 4.4,3.8 10.8,12.1 8.5,18.8 -2.1,6.4 -10,5.9 -25.3,13.4 -2.6,1.3 -27.6,13.6 -25.9,21.7 0.7,3.3 5.2,3.2 19.5,9.3 12.4,5.2 19.7,8.4 25.8,15.4 3,3.5 9,10.4 7.4,17.4 -3,12.9 -29.8,15.1 -30.5,13.1 -0.6,-1.7 18.2,-6.4 18.4,-15.2 0.2,-6.7 -10.3,-12.1 -16.9,-15.6 -19.4,-10.1 -32.5,-6.5 -37.6,-16.2 -2.9,-5.5 -1.3,-11.4 -1,-12.5 1.5,-5.4 5.7,-10 26.2,-20.3 18.7,-9.4 27,-11.6 26.9,-15.8 -0.1,-3.9 -7.3,-7.1 -11.7,-8.2 -12.4,-3.3 -21.5,4.5 -25.7,0.1 -1.8,-2 -1.7,-5.4 -0.7,-7.6 z"
   style="fill:#161616"
   id="path105" />
	<path
   d="m 728.3,961.4 c 6.3,4.7 12.6,9.4 18.9,14.1 9,-0.9 17.9,-1.7 26.9,-2.6 5.6,-5.4 11.2,-10.9 16.8,-16.3 0.4,3.4 1.2,11.1 1.5,14.8 3.5,33.3 3.8,36.2 1.7,40 -6.9,12.3 -30.2,17.3 -43.6,8.7 -6.5,-4.2 -9,-10.5 -13.7,-22.6 -5.7,-14.6 -7.7,-27.4 -8.5,-36.1 z"
   style="fill:#161616"
   id="path106" />
	<g
   id="g108">
		<g
   id="g107">
			<path
   d="m 753.7,996 c -1.5,3.1 -4.8,5 -8.2,4.4 -0.9,-0.2 -1.3,1.3 -0.4,1.4 4.1,0.7 8.2,-1.3 9.9,-5.1 0.4,-0.8 -0.8,-1.6 -1.3,-0.7 z"
   style="fill:#ffffff"
   id="path107" />
		</g>
	</g>
	<g
   id="g110">
		<g
   id="g109">
			<path
   d="m 767.6,995 c 3.3,3.2 7.7,4.6 12.2,3.9 1,-0.1 0.5,-1.6 -0.4,-1.4 -4,0.6 -7.9,-0.7 -10.8,-3.5 -0.7,-0.7 -1.7,0.3 -1,1 z"
   style="fill:#ffffff"
   id="path108" />
		</g>
	</g>
	<g
   id="g112">
		<g
   id="g111">
			<path
   d="m 762.3,1004.5 c 0,0 0,0 0,0 -0.3,0 -0.5,-0.1 -0.8,-0.1 0.1,-0.1 0.1,-0.3 0.2,-0.4 0.2,0.2 0.5,0.4 0.7,0.6 0,-0.2 -0.1,-0.3 -0.1,-0.5 -0.3,-0.9 -1.7,-0.5 -1.4,0.4 0.5,2.2 1.3,5.6 -1.4,6.7 -0.9,0.4 -0.5,1.8 0.4,1.4 3.6,-1.5 3.2,-5.4 2.5,-8.6 -0.5,0.1 -1,0.3 -1.4,0.4 0,0.2 0.1,0.3 0.1,0.5 0.1,0.3 0.4,0.6 0.7,0.6 2.6,-0.2 0.5,-3.8 -0.7,-1.7 -0.5,0.7 0.7,1.5 1.2,0.7 z"
   style="fill:#ffffff"
   id="path110" />
		</g>
	</g>
	<g
   id="g114">
		<g
   id="g113">
			<path
   d="m 761.3,1005.2 c 0.5,1.7 0.6,3.6 1.7,5.1 0.9,1.2 2.3,1.8 3.8,1.5 0.9,-0.2 0.5,-1.6 -0.4,-1.4 -2.8,0.6 -3.2,-3.8 -3.7,-5.6 -0.2,-0.9 -1.6,-0.5 -1.4,0.4 z"
   style="fill:#ffffff"
   id="path112" />
		</g>
	</g>
	<g
   id="g116">
		<g
   id="g115">
			<path
   d="m 756.5,1006.6 c -2.9,-1.3 -5.9,-1.9 -9.1,-1.7 -1,0.1 -1,1.6 0,1.5 2.9,-0.2 5.7,0.3 8.3,1.5 0.9,0.4 1.7,-0.9 0.8,-1.3 z"
   style="fill:#ffffff"
   id="path114" />
		</g>
	</g>
	<g
   id="g118">
		<g
   id="g117">
			<path
   d="m 753.9,1008.6 c -2.5,0.2 -4.7,1.2 -6.4,2.9 -0.7,0.7 0.4,1.7 1.1,1.1 1.5,-1.4 3.3,-2.3 5.4,-2.5 0.8,-0.1 0.8,-1.6 -0.1,-1.5 z"
   style="fill:#ffffff"
   id="path116" />
		</g>
	</g>
	<g
   id="g120">
		<g
   id="g119">
			<path
   d="m 768.2,1005.9 c 2.9,-1.1 5.8,-1.5 8.9,-1.2 1,0.1 1,-1.4 0,-1.5 -3.2,-0.3 -6.3,0.2 -9.3,1.3 -0.9,0.3 -0.6,1.8 0.4,1.4 z"
   style="fill:#ffffff"
   id="path118" />
		</g>
	</g>
	<g
   id="g122">
		<g
   id="g121">
			<path
   d="m 770.2,1008.6 c 2.2,-0.3 4.3,-0.1 6.4,0.7 0.9,0.3 1.3,-1.1 0.4,-1.4 -2.2,-0.8 -4.5,-1 -6.8,-0.7 -1,0 -1,1.6 0,1.4 z"
   style="fill:#ffffff"
   id="path120" />
		</g>
	</g>
	<g
   id="g124">
		<g
   id="g123">
			<path
   d="m 746.6,991.6 c 1.5,-0.9 3.3,-0.9 4.8,0 0.8,0.5 1.6,-0.8 0.8,-1.3 -2,-1.1 -4.3,-1.1 -6.3,0 -0.9,0.5 -0.1,1.8 0.7,1.3 z"
   style="fill:#ffffff"
   id="path122" />
		</g>
	</g>
	<g
   id="g126">
		<g
   id="g125">
			<path
   d="m 767.6,989.6 c 1.5,-0.8 3.2,-1 5,-0.8 0.9,0.1 1.4,-1.3 0.4,-1.4 -2.1,-0.3 -4.2,0 -6.1,1 -1,0.3 -0.2,1.6 0.7,1.2 z"
   style="fill:#ffffff"
   id="path124" />
		</g>
	</g>
	<g
   id="g128">
		<g
   id="g127">
			<path
   d="m 743.7,958.2 c 3.1,-1.3 6.2,-2.6 9.2,-4 -0.6,-0.4 -1.1,-0.8 -1.7,-1.3 -1.2,3.8 -3,7.2 -5.4,10.4 -0.6,0.8 0.4,2 1.3,1.7 3.4,-1.3 6.8,-2.5 10.2,-3.8 1.3,-0.5 0.8,-2.7 -0.6,-2.2 -3.4,1.3 -6.8,2.5 -10.2,3.8 0.4,0.6 0.8,1.1 1.3,1.7 2.6,-3.3 4.4,-6.9 5.7,-10.9 0.3,-1 -0.8,-1.6 -1.7,-1.3 -3.1,1.3 -6.2,2.6 -9.2,4 -1.4,0.6 -0.2,2.5 1.1,1.9 z"
   style="fill:#161616"
   id="path126" />
		</g>
	</g>
	<g
   id="g130">
		<g
   id="g129">
			<path
   d="m 748.7,940 c 2.1,-1.2 4.2,-2 6.5,-2.5 -0.4,-0.6 -0.8,-1.1 -1.3,-1.7 -0.9,2 -2,4 -3.3,5.8 -0.5,0.8 0.2,1.6 1,1.7 2.7,0.2 5.2,-0.5 7.3,-2.1 1.1,-0.9 0,-2.8 -1.1,-1.9 -1.8,1.4 -3.8,2 -6.1,1.8 0.3,0.6 0.6,1.1 1,1.7 1.3,-1.9 2.4,-3.8 3.3,-5.8 0.4,-0.9 -0.3,-1.9 -1.3,-1.7 -2.5,0.5 -4.9,1.4 -7.1,2.7 -1.3,0.8 -0.2,2.7 1.1,2 z"
   style="fill:#161616"
   id="path128" />
		</g>
	</g>
	<g
   id="g132">
		<g
   id="g131">
			<path
   d="m 765.2,964.2 c -3.3,-3.3 2.4,-5.2 3,-8.1 0.6,-3.4 -3.4,-6.6 1.1,-9.2 1.3,-0.7 0.1,-2.7 -1.1,-1.9 -1.6,0.9 -2.9,2.3 -3.3,4.2 -0.6,3.2 2.2,5.1 -0.2,8 -1.1,1.4 -2.4,1.8 -2.8,3.7 -0.4,1.9 0.4,3.5 1.7,4.9 1.1,1 2.7,-0.6 1.6,-1.6 z"
   style="fill:#161616"
   id="path130" />
		</g>
	</g>
</g>
<g
   id="desk">
	<path
   d="m 1041.3,678.7 c -250.7,18.1 -501.4,36.1 -752,54.2 -6.8,-181.8 -13.6,-363.6 -20.3,-545.4 251.8,-3.4 503.6,-6.8 755.4,-10.2 5.6,167.1 11.2,334.2 16.9,501.4 z"
   style="fill:#ffffff;stroke:#161616;stroke-width:3.5;stroke-miterlimit:10"
   id="path132" />
	<g
   id="g134">
		<g
   id="g133">
			<path
   d="m 482,276 c 48.6,0 97.3,0 145.9,0 1.9,0 1.9,-3 0,-3 -48.6,0 -97.3,0 -145.9,0 -1.9,0 -1.9,3 0,3 z"
   style="fill:#161616"
   id="path133" />
		</g>
	</g>
	<g
   id="g136">
		<g
   id="g135">
			<path
   d="m 536.6,288.3 c 50.1,0 100.2,0 150.3,0 1.9,0 1.9,-3 0,-3 -50.1,0 -100.2,0 -150.3,0 -2,0 -2,3 0,3 z"
   style="fill:#161616"
   id="path134" />
		</g>
	</g>
	<g
   id="g138">
		<g
   id="g137">
			<path
   d="m 299.4,581.7 c 1.8,41.8 3.6,83.7 5.4,125.5 0.1,1.9 3.1,1.9 3,0 -1.8,-41.8 -3.6,-83.7 -5.4,-125.5 -0.1,-1.9 -3.1,-1.9 -3,0 z"
   style="fill:#161616"
   id="path136" />
		</g>
	</g>
	<g
   id="g140">
		<g
   id="g139">
			<path
   d="m 519.7,557.3 c 4.3,0 8.6,0 13,0 1.9,0 1.9,-3 0,-3 -4.3,0 -8.6,0 -13,0 -1.9,0 -1.9,3 0,3 z"
   style="fill:#161616"
   id="path138" />
		</g>
	</g>
	<g
   id="g142">
		<g
   id="g141">
			<path
   d="m 544,557.3 c 11.1,0 22.1,0 33.2,0 1.9,0 1.9,-3 0,-3 -11.1,0 -22.1,0 -33.2,0 -1.9,0 -1.9,3 0,3 z"
   style="fill:#161616"
   id="path140" />
		</g>
	</g>
	<g
   id="g144">
		<g
   id="g143">
			<path
   d="m 602.3,555.7 c 13.2,0 26.4,0 39.7,0 1.9,0 1.9,-3 0,-3 -13.2,0 -26.4,0 -39.7,0 -1.9,0 -1.9,3 0,3 z"
   style="fill:#161616"
   id="path142" />
		</g>
	</g>
	<g
   id="g146">
		<g
   id="g145">
			<path
   d="m 537.6,578.3 c 16.2,0 32.4,0 48.6,0 1.9,0 1.9,-3 0,-3 -16.2,0 -32.4,0 -48.6,0 -2,0 -2,3 0,3 z"
   style="fill:#161616"
   id="path144" />
		</g>
	</g>
	<g
   id="g148">
		<g
   id="g147">
			<path
   d="m 561,567 c 18.9,0 37.8,0 56.7,0 1.9,0 1.9,-3 0,-3 -18.9,0 -37.8,0 -56.7,0 -1.9,0 -1.9,3 0,3 z"
   style="fill:#161616"
   id="path146" />
		</g>
	</g>
	<g
   id="g150">
		<g
   id="g149">
			<path
   d="m 661.4,673.9 c 31.8,0 63.7,0 95.5,0 1.9,0 1.9,-3 0,-3 -31.8,0 -63.7,0 -95.5,0 -1.9,0 -1.9,3 0,3 z"
   style="fill:#161616"
   id="path148" />
		</g>
	</g>
	<g
   id="g152">
		<g
   id="g151">
			<path
   d="m 739.9,682 c 16.7,0 33.5,0 50.2,0 1.9,0 1.9,-3 0,-3 -16.7,0 -33.5,0 -50.2,0 -1.9,0 -1.9,3 0,3 z"
   style="fill:#161616"
   id="path150" />
		</g>
	</g>
	<g
   id="g154">
		<g
   id="g153">
			<path
   d="m 783.6,669.8 c 16.5,0 32.9,0 49.4,0 1.9,0 1.9,-3 0,-3 -16.5,0 -32.9,0 -49.4,0 -1.9,0 -1.9,3 0,3 z"
   style="fill:#161616"
   id="path152" />
		</g>
	</g>
	<g
   id="g156">
		<g
   id="g155">
			<path
   d="m 867.8,398.7 c 30.5,0 61,0 91.5,0 1.9,0 1.9,-3 0,-3 -30.5,0 -61,0 -91.5,0 -1.9,0 -1.9,3 0,3 z"
   style="fill:#161616"
   id="path154" />
		</g>
	</g>
	<g
   id="g158">
		<g
   id="g157">
			<path
   d="m 839.5,403.5 c 9.7,0 19.4,0 29.1,0 1.9,0 1.9,-3 0,-3 -9.7,0 -19.4,0 -29.1,0 -2,0 -2,3 0,3 z"
   style="fill:#161616"
   id="path156" />
		</g>
	</g>
	<g
   id="g160">
		<g
   id="g159">
			<path
   d="m 845.1,411.6 c 32.6,0 65.3,0 97.9,0 1.9,0 1.9,-3 0,-3 -32.6,0 -65.3,0 -97.9,0 -1.9,0 -1.9,3 0,3 z"
   style="fill:#161616"
   id="path158" />
		</g>
	</g>
	<g
   id="g162">
		<g
   id="g161">
			<path
   d="m 965.8,404.3 c 6.2,0 12.4,0 18.6,0 1.9,0 1.9,-3 0,-3 -6.2,0 -12.4,0 -18.6,0 -2,0 -2,3 0,3 z"
   style="fill:#161616"
   id="path160" />
		</g>
	</g>
	<g
   id="g164">
		<g
   id="g163">
			<path
   d="m 941.5,526.5 c 9.2,0 18.3,0 27.5,0 1.9,0 1.9,-3 0,-3 -9.2,0 -18.3,0 -27.5,0 -2,0 -2,3 0,3 z"
   style="fill:#161616"
   id="path162" />
		</g>
	</g>
	<g
   id="g166">
		<g
   id="g165">
			<path
   d="m 923.7,534.6 c 10,0 20,0 29.9,0 1.9,0 1.9,-3 0,-3 -10,0 -20,0 -29.9,0 -2,0 -2,3 0,3 z"
   style="fill:#161616"
   id="path164" />
		</g>
	</g>
	<g
   id="g168">
		<g
   id="g167">
			<path
   d="m 938.2,542.7 c 19.7,0 39.4,0 59.1,0 1.9,0 1.9,-3 0,-3 -19.7,0 -39.4,0 -59.1,0 -1.9,0 -1.9,3 0,3 z"
   style="fill:#161616"
   id="path166" />
		</g>
	</g>
	<g
   id="g170">
		<g
   id="g169">
			<path
   d="m 975.5,533 c 5.9,0 11.9,0 17.8,0 1.9,0 1.9,-3 0,-3 -5.9,0 -11.9,0 -17.8,0 -2,0 -2,3 0,3 z"
   style="fill:#161616"
   id="path168" />
		</g>
	</g>
	<g
   id="g172">
		<g
   id="g171">
			<path
   d="m 563.6,408.3 c 14,0 27.9,0 41.9,0 1.9,0 1.9,-3 0,-3 -14,0 -27.9,0 -41.9,0 -1.9,0 -1.9,3 0,3 z"
   style="fill:#161616"
   id="path170" />
		</g>
	</g>
	<g
   id="g174">
		<g
   id="g173">
			<path
   d="m 594.1,416.9 c 20.6,0 41.3,0 61.9,0 1.9,0 1.9,-3 0,-3 -20.6,0 -41.3,0 -61.9,0 -1.9,0 -2,3 0,3 z"
   style="fill:#161616"
   id="path172" />
		</g>
	</g>
	<g
   id="g176">
		<g
   id="g175">
			<path
   d="m 648.4,405.4 c 11.7,0 23.5,0 35.2,0 1.9,0 1.9,-3 0,-3 -11.7,0 -23.5,0 -35.2,0 -1.9,0 -1.9,3 0,3 z"
   style="fill:#161616"
   id="path174" />
		</g>
	</g>
	<g
   id="g178">
		<g
   id="g177">
			<path
   d="m 290.5,245.8 c 2.2,75.9 4.4,151.9 6.6,227.8 0.6,21.6 1.2,43.1 1.9,64.7 0.1,1.9 3.1,1.9 3,0 -2.2,-75.9 -4.4,-151.9 -6.6,-227.8 -0.6,-21.6 -1.2,-43.1 -1.9,-64.7 0,-1.9 -3,-1.9 -3,0 z"
   style="fill:#161616"
   id="path176" />
		</g>
	</g>
	<g
   id="g180">
		<g
   id="g179">
			<path
   d="m 1017.4,493.9 c 1.5,50.2 3,100.3 4.5,150.5 0.1,1.9 3.1,1.9 3,0 -1.5,-50.2 -3,-100.3 -4.5,-150.5 0,-1.9 -3,-1.9 -3,0 z"
   style="fill:#161616"
   id="path178" />
		</g>
	</g>
</g>
<path
   d="m 810.3,470.9 c 0.6,6.1 1.2,12.3 1.7,18.4 5.8,-1.5 11.5,-3.1 17.3,-4.6 -0.8,-6.1 -1.5,-12.3 -2.3,-18.4 -5.6,1.5 -11.1,3.1 -16.7,4.6 z"
   style="fill:#ec615b"
   id="path180" /><path
   d="m 806.8,517.6 c 6,-0.8 11.9,-1.5 17.9,-2.3 0.8,7.3 1.5,14.6 2.3,21.9 -5.4,0.2 -10.8,0.4 -16.1,0.6 -1.4,-6.8 -2.7,-13.5 -4.1,-20.2 z"
   style="fill:#ec615b"
   id="path181" /><path
   d="m 828.7,561.9 c 1.9,6.3 3.8,12.7 5.8,19 5.4,-2.5 10.8,-5 16.1,-7.5 -1.7,-5.6 -3.5,-11.1 -5.2,-16.7 -5.5,1.8 -11.1,3.5 -16.7,5.2 z"
   style="fill:#ec615b"
   id="path182" /><path
   d="m 433.4,621.5 c 1.3,19.4 2.6,38.8 3.9,58.1 34,-2.2 68,-4.3 102,-6.5 0.6,-17.4 1.3,-34.9 1.9,-52.3 -35.9,0.3 -71.9,0.5 -107.8,0.7 z"
   style="fill:#091a3e;fill-opacity:1"
   id="path183" /><ellipse
   cx="856.09998"
   cy="220.89999"
   rx="7.0999999"
   ry="5.9000001"
   style="fill:#5222d0"
   id="ellipse183" /><ellipse
   cx="373.60001"
   cy="267.10001"
   rx="5.9000001"
   ry="3.9000001"
   style="fill:#ec615b"
   id="ellipse184" /><ellipse
   cx="467.5"
   cy="378.70001"
   rx="4.5999999"
   ry="5.4000001"
   style="fill:#ec615b"
   id="ellipse185" /><path
   d="m 425.3,249.4 c 1.8,-0.3 5.3,16.4 13.9,46.7 11.3,39.9 22.5,72.1 30.6,94.1 -12.3,7.6 -39.8,22.1 -77.3,22.6 -26.5,0.3 -47.4,-6.5 -59.8,-11.7 24.3,2.7 43.9,2 57.6,0.7 21.7,-2 17.9,-4.3 34.3,-5.1 6.8,-0.3 15.7,-0.3 24.8,-5.8 3.3,-2 5.7,-4.2 7.3,-5.8 -6.4,-13.2 -14.6,-32.6 -21.2,-56.9 -10.5,-39.5 -12.8,-78.3 -10.2,-78.8 z"
   style="opacity:0.21;fill:#6d6c6c"
   id="path185" /><path
   d="m 519,357.9 c 1.6,12.7 4.5,26.9 9.3,42.1 13.7,43.2 36.8,74 54.2,93 -10.4,7.7 -23.3,15.7 -38.8,22.4 -47,20.3 -90.9,17.3 -114.4,13.7 -0.9,-5.3 -1.8,-10.6 -2.7,-15.9 10,0.3 20.6,0.1 31.7,-0.5 39.6,-2.5 73.6,-11.4 100.7,-21.3 -8.6,-14.6 -14.8,-27.2 -19.1,-36.7 -10.4,-22.7 -18.1,-39.8 -20.8,-62.9 -1.7,-14.1 -1,-26 -0.1,-33.9 z"
   style="opacity:0.25;fill:#6d6c6c"
   id="path186" /><path
   d="m 836.9,424.1 c 1,22.8 3.4,41.7 5.5,55.3 4.9,31.2 8.5,52.8 21.3,77.1 8,15.1 17,26.2 23.5,33.4 -11.3,9.7 -26.5,20.7 -46,29.5 -49,22.3 -95,17.8 -116.5,14.2 -1.1,-4.9 -2.2,-9.8 -3.3,-14.8 2.7,0.2 6.9,0.4 12,0.5 17,0.4 52.4,1 93,-12.6 11.4,-3.8 27.4,-10.2 45.4,-20.8 -7.1,-9.5 -14.1,-20.8 -20.2,-33.9 -24.1,-51.7 -19.3,-101.9 -14.7,-127.9 z"
   style="opacity:0.14;fill:#6d6c6c"
   id="path187" /><path
   d="m 913.5,199.8 c 2,9.3 4.9,23.5 7.8,41.2 5.4,34.2 5,46.6 11.3,66.8 3.3,10.5 9.2,25.4 20.3,42.4 -9.3,7.6 -20.9,15.5 -35.2,22.1 -46.8,21.7 -91.6,15.6 -112.2,11.3 0.2,-4 0.4,-8 0.6,-11.9 2.6,0.7 6.5,1.6 11.3,2.4 6.3,1 29.6,4.4 73.4,-6.6 12.1,-3 28.4,-7.8 47.1,-15.5 -3.6,-6.4 -8.9,-16.4 -13.7,-29.2 -14,-37.1 -13.9,-69.3 -13.7,-85.9 0.1,-9.1 0.7,-21.8 3,-37.1 z"
   style="opacity:0.18;fill:#6d6c6c"
   id="path188" /><g
   id="g190">
		<g
   id="g189">
			<path
   d="m 315.7,243.7 c -9.9,52.4 0.1,105.4 10.1,157 0.4,1.9 3.3,1.1 2.9,-0.8 -9.9,-51 -19.8,-103.5 -10.1,-155.4 0.3,-1.8 -2.6,-2.7 -2.9,-0.8 z"
   style="fill:#161616"
   id="path189" />
		</g>
	</g><g
   id="g192">
		<g
   id="g191">
			<path
   d="m 318.5,243.3 c 14.3,9.6 31.6,11.3 48.5,10.1 19.3,-1.4 38.4,-5.5 57.5,-8.7 1.9,-0.3 1.1,-3.2 -0.8,-2.9 -18.3,3 -36.6,6.9 -55.1,8.4 -16.9,1.4 -34.2,0.1 -48.6,-9.6 -1.6,-1 -3.1,1.6 -1.5,2.7 z"
   style="fill:#161616"
   id="path190" />
		</g>
	</g><g
   id="g194">
		<g
   id="g193">
			<path
   d="m 422.5,246.8 c 2.8,47.8 10,96.6 34.2,138.6 1,1.7 3.6,0.2 2.6,-1.5 -23.9,-41.6 -31,-89.9 -33.8,-137.1 -0.1,-1.9 -3.1,-1.9 -3,0 z"
   style="fill:#161616"
   id="path192" />
		</g>
	</g><g
   id="g196">
		<g
   id="g195">
			<path
   d="m 328.3,401.5 c 22.7,6.6 47.1,2.6 70.2,0.7 20.5,-1.7 42.5,-2.5 60.1,-14.5 1.6,-1.1 0.1,-3.7 -1.5,-2.6 -17.7,12.1 -39.9,12.5 -60.5,14.2 -22.2,1.8 -45.6,5.5 -67.5,-0.8 -1.9,-0.4 -2.7,2.5 -0.8,3 z"
   style="fill:#161616"
   id="path194" />
		</g>
	</g><g
   id="g198">
		<g
   id="g197">
			<path
   d="m 366.7,267.7 c -2,-0.9 0.2,-2.8 1.4,-3.1 1.5,-0.4 4.4,-0.6 5.1,1.1 0.5,1.3 -0.3,3 -1.5,3.5 -1.9,0.9 -4,-0.2 -5.3,-1.5 -1.4,-1.4 -3.5,0.7 -2.1,2.1 2.5,2.5 6.6,3.8 9.7,1.5 2.5,-1.8 3.4,-5.8 1.3,-8.2 -2.4,-2.7 -7.5,-2.4 -10.2,-0.4 -2.4,1.8 -2.9,6.1 0.2,7.5 1.7,0.9 3.2,-1.7 1.4,-2.5 z"
   style="fill:#161616"
   id="path196" />
		</g>
	</g><g
   id="g200">
		<g
   id="g199">
			<path
   d="m 406.8,401.9 c -7.2,36.5 0.5,73.4 8.3,109.2 0.4,1.9 3.3,1.1 2.9,-0.8 -7.7,-35.2 -15.3,-71.6 -8.3,-107.6 0.4,-1.9 -2.5,-2.7 -2.9,-0.8 z"
   style="fill:#161616"
   id="path198" />
		</g>
	</g><g
   id="g202">
		<g
   id="g201">
			<path
   d="m 448.1,363.6 c 23.1,-4.4 46.5,-6 69.9,-5.1 -0.5,-0.5 -1,-1 -1.5,-1.5 -4.7,48.2 15.9,94.1 40.9,134 1,1.6 3.6,0.1 2.6,-1.5 C 535.3,450 514.8,404.7 519.5,357 c 0.1,-0.8 -0.8,-1.5 -1.5,-1.5 -23.7,-0.9 -47.4,0.8 -70.7,5.2 -1.9,0.4 -1.1,3.3 0.8,2.9 z"
   style="fill:#161616"
   id="path200" />
		</g>
	</g><g
   id="g204">
		<g
   id="g203">
			<path
   d="m 416.7,513.2 c 48.6,5.7 97.9,-1.6 142.9,-20.8 1.8,-0.8 0.2,-3.3 -1.5,-2.6 -44.4,19 -93.4,26 -141.4,20.4 -1.9,-0.2 -1.9,2.8 0,3 z"
   style="fill:#161616"
   id="path202" />
		</g>
	</g><g
   id="g206">
		<g
   id="g205">
			<path
   d="m 466.9,375.9 c 0,-0.1 0.3,-0.6 0.3,-0.8 0.1,-0.4 0.4,-0.8 0.7,-1.1 0.6,-0.5 1.3,-0.9 2.1,-1 1.5,-0.2 2.9,0.6 3.3,2.1 0.3,1.2 -0.2,2.8 -1.6,3 -1.3,0.2 -2.5,-0.7 -2.7,-2 -0.3,-1.9 -3.2,-1.1 -2.9,0.8 0.5,3.5 5,5.2 7.9,3.5 3.2,-1.9 3,-6.8 0.3,-9.1 -3,-2.5 -8,-1.2 -9.7,2.2 -0.8,1.7 -0.8,4 1.1,5 1.5,0.8 3.7,0.1 4.1,-1.8 0.3,-1.9 -2.6,-2.7 -2.9,-0.8 z"
   style="fill:#161616"
   id="path204" />
		</g>
	</g><g
   id="g208">
		<g
   id="g207">
			<path
   d="m 325.6,298.1 c 26.6,3.7 53,-1.8 78.5,-9.1 1.9,-0.5 1.1,-3.4 -0.8,-2.9 -25,7.1 -50.9,12.7 -76.9,9.1 -1.9,-0.3 -2.7,2.6 -0.8,2.9 z"
   style="fill:#161616"
   id="path206" />
		</g>
	</g><g
   id="g210">
		<g
   id="g209">
			<path
   d="m 330.6,317.7 c 13.8,1.5 27.6,0.1 40.9,-4.1 1.8,-0.6 1.1,-3.5 -0.8,-2.9 -13,4.1 -26.5,5.4 -40.1,4 -1.9,-0.2 -1.9,2.8 0,3 z"
   style="fill:#161616"
   id="path208" />
		</g>
	</g><g
   id="g212">
		<g
   id="g211">
			<path
   d="m 330.6,341.9 c 26.4,3.1 53,1.2 78.6,-5.5 1.9,-0.5 1.1,-3.4 -0.8,-2.9 -25.4,6.7 -51.7,8.5 -77.8,5.4 -1.9,-0.3 -1.9,2.7 0,3 z"
   style="fill:#161616"
   id="path210" />
		</g>
	</g><g
   id="g214">
		<g
   id="g213">
			<path
   d="m 429.4,495.4 c 26.5,1.2 53,-2 78.4,-9.6 1.8,-0.5 1.1,-3.4 -0.8,-2.9 -25.2,7.5 -51.3,10.7 -77.6,9.5 -2,-0.1 -2,2.9 0,3 z"
   style="fill:#161616"
   id="path212" />
		</g>
	</g><g
   id="g216">
		<g
   id="g215">
			<path
   d="m 434.5,472.5 c 11.8,-0.4 23.6,-1.3 35.4,-2.6 1.9,-0.2 1.9,-3.2 0,-3 -11.8,1.3 -23.5,2.2 -35.4,2.6 -1.9,0.1 -1.9,3.1 0,3 z"
   style="fill:#161616"
   id="path214" />
		</g>
	</g><g
   id="g218">
		<g
   id="g217">
			<path
   d="m 444.1,431.3 c 7.8,1 15.9,-1 23.6,-2.1 8.5,-1.3 16.9,-2.5 25.4,-3.8 1.9,-0.3 1.1,-3.2 -0.8,-2.9 -7.8,1.2 -15.7,2.4 -23.5,3.5 -8.1,1.2 -16.5,3.4 -24.7,2.3 -1.9,-0.3 -1.9,2.7 0,3 z"
   style="fill:#161616"
   id="path216" />
		</g>
	</g><g
   id="g220">
		<g
   id="g219">
			<path
   d="m 797.5,207.1 c -10.9,53.5 -12,108.5 -3.3,162.4 0.3,1.9 3.2,1.1 2.9,-0.8 -8.6,-53.3 -7.4,-107.9 3.3,-160.8 0.4,-1.9 -2.5,-2.7 -2.9,-0.8 z"
   style="fill:#161616"
   id="path218" />
		</g>
	</g><g
   id="g222">
		<g
   id="g221">
			<path
   d="m 800.9,207.8 c 36.3,-8.3 73.8,-10 110.8,-5 1.9,0.3 2.7,-2.6 0.8,-2.9 -37.5,-5.1 -75.5,-3.4 -112.4,5 -1.8,0.5 -1,3.4 0.8,2.9 z"
   style="fill:#161616"
   id="path220" />
		</g>
	</g><g
   id="g224">
		<g
   id="g223">
			<path
   d="m 910.8,200.1 c -1.1,51.5 -0.4,105.9 25.7,152 1,1.7 3.5,0.2 2.6,-1.5 -25.8,-45.6 -26.4,-99.5 -25.3,-150.5 0.1,-1.9 -2.9,-1.9 -3,0 z"
   style="fill:#161616"
   id="path222" />
		</g>
	</g><g
   id="g226">
		<g
   id="g225">
			<path
   d="m 796.5,371.1 c 11.2,3.4 23.2,3.6 34.8,3.7 12.5,0.1 25,-0.7 37.5,-2.4 23.9,-3.2 47.2,-9.7 69.5,-19.1 1.8,-0.7 0.2,-3.3 -1.5,-2.6 -22.3,9.4 -45.8,15.8 -69.8,18.9 -11.2,1.4 -22.5,2.2 -33.8,2.1 -11.9,0 -24.4,-0.1 -35.8,-3.6 -2,-0.4 -2.7,2.5 -0.9,3 z"
   style="fill:#161616"
   id="path224" />
		</g>
	</g><g
   id="g228">
		<g
   id="g227">
			<path
   d="m 857.7,211 c -3.4,1.2 -4.9,5.1 -3.7,8.4 1.4,3.7 5.7,4.6 8.9,2.4 3.1,-2.2 4.1,-6.6 1.1,-9.4 -2.6,-2.4 -7.1,-2.5 -9.5,0.1 -1.3,1.4 0.8,3.5 2.1,2.1 3,-3.2 8.9,1.3 4.8,4.5 -1.6,1.2 -3.9,1.2 -4.6,-0.9 -0.5,-1.6 0,-3.8 1.7,-4.4 1.8,-0.6 1,-3.5 -0.8,-2.8 z"
   style="fill:#161616"
   id="path226" />
		</g>
	</g><g
   id="g230">
		<g
   id="g229">
			<path
   d="m 799,253.6 c 27.3,0.7 54.5,0.2 81.7,-1.6 1.9,-0.1 1.9,-3.1 0,-3 -27.2,1.8 -54.5,2.4 -81.7,1.6 -2,0 -2,3 0,3 z"
   style="fill:#161616"
   id="path228" />
		</g>
	</g><g
   id="g232">
		<g
   id="g231">
			<path
   d="m 801.7,268.8 c 10.2,0.4 20.4,0.8 30.5,1.2 1.9,0.1 1.9,-2.9 0,-3 -10.2,-0.4 -20.4,-0.8 -30.5,-1.2 -2,-0.1 -2,2.9 0,3 z"
   style="fill:#161616"
   id="path230" />
		</g>
	</g><g
   id="g234">
		<g
   id="g233">
			<path
   d="m 798.9,290 c 25.7,1.4 51.7,2.6 77,-3 1.9,-0.4 1.1,-3.3 -0.8,-2.9 -25.1,5.5 -50.8,4.3 -76.2,2.9 -1.9,-0.1 -1.9,2.9 0,3 z"
   style="fill:#161616"
   id="path232" />
		</g>
	</g><g
   id="g236">
		<g
   id="g235">
			<path
   d="m 426.1,615.1 c -2.3,20 -3.1,40.1 -2.4,60.2 0.1,1.9 3.1,1.9 3,0 -0.7,-20.1 0.1,-40.2 2.4,-60.2 0.2,-1.9 -2.8,-1.9 -3,0 z"
   style="fill:#161616"
   id="path234" />
		</g>
	</g><g
   id="g238">
		<g
   id="g237">
			<path
   d="m 427.1,616.3 c 35.6,0 71.3,-0.5 106.9,-1.6 1.9,-0.1 1.9,-3.1 0,-3 -35.6,1.1 -71.3,1.6 -106.9,1.6 -1.9,0 -1.9,3 0,3 z"
   style="fill:#161616"
   id="path236" />
		</g>
	</g><g
   id="g240">
		<g
   id="g239">
			<path
   d="m 533.7,613.3 c 0.3,17.4 0.6,34.7 0.9,52.1 0,1.9 3,1.9 3,0 -0.3,-17.4 -0.6,-34.7 -0.9,-52.1 0,-1.9 -3.1,-1.9 -3,0 z"
   style="fill:#161616"
   id="path238" />
		</g>
	</g><g
   id="g242">
		<g
   id="g241">
			<path
   d="m 423.4,673.1 c 0.2,6.5 11.5,3.6 15.2,3.4 10.6,-0.7 21.2,-1.4 31.7,-2.2 21.5,-1.5 43,-2.9 64.5,-4.4 1.9,-0.1 1.9,-3.1 0,-3 -18.3,1.2 -36.5,2.5 -54.8,3.7 -8.7,0.6 -17.4,1.2 -26.1,1.8 -2.6,0.2 -27.5,2.6 -27.6,0.7 0.1,-1.9 -2.9,-1.9 -2.9,0 z"
   style="fill:#161616"
   id="path240" />
		</g>
	</g><g
   id="g244">
		<g
   id="g243">
			<path
   d="m 435.2,629.8 c 24,-1.1 48,-0.2 71.8,2.8 1.9,0.2 1.9,-2.8 0,-3 -23.8,-3 -47.8,-3.9 -71.8,-2.8 -2,0.1 -2,3.1 0,3 z"
   style="fill:#161616"
   id="path242" />
		</g>
	</g><g
   id="g246">
		<g
   id="g245">
			<path
   d="m 436.1,645 c 13.4,-1 26.9,-2.1 40.3,-3.1 1.9,-0.1 1.9,-3.1 0,-3 -13.4,1 -26.9,2.1 -40.3,3.1 -1.9,0.1 -1.9,3.1 0,3 z"
   style="fill:#161616"
   id="path244" />
		</g>
	</g><g
   id="g248">
		<g
   id="g247">
			<path
   d="m 440.6,660.3 c 19.3,-2.5 40.3,-7.6 59.7,-4.1 1.9,0.3 2.7,-2.5 0.8,-2.9 -19.8,-3.6 -40.8,1.4 -60.5,4 -1.8,0.3 -1.9,3.3 0,3 z"
   style="fill:#161616"
   id="path246" />
		</g>
	</g><g
   id="g250">
		<g
   id="g249">
			<path
   d="m 700.7,444.9 c -15.9,56.6 -13.9,117.2 5.6,172.7 0.6,1.8 3.5,1 2.9,-0.8 -19.3,-55 -21.3,-115 -5.6,-171.1 0.5,-1.9 -2.4,-2.7 -2.9,-0.8 z"
   style="fill:#161616"
   id="path248" />
		</g>
	</g><g
   id="g252">
		<g
   id="g251">
			<path
   d="m 702.7,445.9 c 44.5,-0.2 88.8,-6 131.9,-17.3 1.9,-0.5 1.1,-3.4 -0.8,-2.9 -42.8,11.2 -86.8,17 -131.1,17.2 -2,0 -2,3 0,3 z"
   style="fill:#161616"
   id="path250" />
		</g>
	</g><g
   id="g254">
		<g
   id="g253">
			<path
   d="m 833.8,426.8 c -1.8,27.8 -0.6,55.8 4.4,83.3 2.5,13.9 5.5,27.8 11,40.8 5.5,12.9 13.1,24.6 22,35.3 1.2,1.5 3.4,-0.6 2.1,-2.1 -9.1,-10.9 -16.8,-23 -22.2,-36.2 -5.1,-12.6 -7.9,-26.1 -10.2,-39.4 -4.8,-26.9 -5.9,-54.4 -4.2,-81.7 0.2,-1.9 -2.8,-1.9 -2.9,0 z"
   style="fill:#161616"
   id="path252" />
		</g>
	</g><g
   id="g256">
		<g
   id="g255">
			<path
   d="m 706.7,619.2 c 56.6,4 115.7,-2.4 165.3,-31.6 1.7,-1 0.2,-3.6 -1.5,-2.6 -49.3,29 -107.8,35.1 -163.8,31.2 -1.9,-0.2 -1.9,2.8 0,3 z"
   style="fill:#161616"
   id="path254" />
		</g>
	</g><g
   id="g258">
		<g
   id="g257">
			<path
   d="m 766.9,454.9 c -1.7,-2.9 1.7,-6.5 4.6,-4.2 3.1,2.5 -0.2,6.5 -3.5,5.2 -1.8,-0.7 -2.6,2.2 -0.8,2.9 2.7,1.1 6,-0.1 7.6,-2.5 1.8,-2.7 1,-6.1 -1.5,-8 -5.4,-4.3 -12.2,2.4 -9,8.1 1,1.7 3.6,0.2 2.6,-1.5 z"
   style="fill:#161616"
   id="path256" />
		</g>
	</g><g
   id="g260">
		<g
   id="g259">
			<path
   d="m 703.7,489.4 c 29.9,-0.5 59.8,-2.6 89.6,-6.2 1.9,-0.2 1.9,-3.2 0,-3 -29.7,3.7 -59.6,5.7 -89.6,6.2 -1.9,0.1 -1.9,3.1 0,3 z"
   style="fill:#161616"
   id="path258" />
		</g>
	</g><g
   id="g262">
		<g
   id="g261">
			<path
   d="m 804,469.3 c 0.9,4.6 1.8,9.3 2.7,13.9 0.4,1.9 3.3,1.1 2.9,-0.8 -0.9,-4.6 -1.8,-9.3 -2.7,-13.9 -0.3,-1.9 -3.2,-1.1 -2.9,0.8 z"
   style="fill:#161616"
   id="path260" />
		</g>
	</g><g
   id="g264">
		<g
   id="g263">
			<path
   d="m 806,468.9 c 5.5,-0.8 11,-1.6 16.6,-2.5 1.9,-0.3 1.1,-3.2 -0.8,-2.9 -5.5,0.8 -11,1.6 -16.6,2.5 -1.9,0.3 -1.1,3.2 0.8,2.9 z"
   style="fill:#161616"
   id="path262" />
		</g>
	</g><g
   id="g266">
		<g
   id="g265">
			<path
   d="m 821.7,465.5 c 0.8,4.3 1.5,8.6 2.3,12.8 0.3,1.9 3.2,1.1 2.9,-0.8 -0.8,-4.3 -1.5,-8.6 -2.3,-12.8 -0.3,-1.8 -3.2,-1 -2.9,0.8 z"
   style="fill:#161616"
   id="path264" />
		</g>
	</g><g
   id="g268">
		<g
   id="g267">
			<path
   d="m 809.2,485.5 c 5.9,-1.2 11.5,-2.8 17.1,-5 1.8,-0.7 1,-3.6 -0.8,-2.9 -5.6,2.1 -11.3,3.8 -17.1,5 -1.9,0.4 -1.1,3.3 0.8,2.9 z"
   style="fill:#161616"
   id="path266" />
		</g>
	</g><g
   id="g270">
		<g
   id="g269">
			<path
   d="m 809.7,472.3 c 1.1,2.5 2.6,4.5 4.8,6.2 0.8,0.6 2.3,0.6 2.5,-0.7 0.8,-5.4 2.7,-10.2 5.9,-14.7 1.1,-1.6 -1.5,-3.1 -2.6,-1.5 -3.3,4.6 -5.4,9.8 -6.2,15.4 0.8,-0.2 1.7,-0.4 2.5,-0.7 -1.9,-1.5 -3.3,-3.3 -4.3,-5.6 -0.8,-1.7 -3.4,-0.2 -2.6,1.6 z"
   style="fill:#161616"
   id="path268" />
		</g>
	</g><g
   id="g272">
		<g
   id="g271">
			<path
   d="m 810.8,515.2 c -1.6,7.2 -0.9,14.2 2,20.9 0.8,1.8 3.3,0.2 2.6,-1.5 -2.6,-5.9 -3.1,-12.3 -1.7,-18.6 0.4,-1.9 -2.5,-2.7 -2.9,-0.8 z"
   style="fill:#161616"
   id="path270" />
		</g>
	</g><g
   id="g274">
		<g
   id="g273">
			<path
   d="m 812.8,516.2 c 6,-1 12,-1.9 18,-2.9 -0.6,-0.6 -1.2,-1.2 -1.8,-1.8 -1,6.4 -0.3,12.5 2.2,18.5 0.7,1.8 3.6,1 2.9,-0.8 -2.3,-5.4 -3.1,-11.1 -2.2,-16.9 0.2,-1.2 -0.6,-2 -1.8,-1.8 -6,0.9 -12,1.9 -18,2.9 -2,0.2 -1.2,3.1 0.7,2.8 z"
   style="fill:#161616"
   id="path272" />
		</g>
	</g><g
   id="g276">
		<g
   id="g275">
			<path
   d="m 814.1,536.2 c 6.6,-0.2 12.9,-1.5 19.1,-3.7 1.8,-0.7 1,-3.6 -0.8,-2.9 -5.9,2.2 -12,3.4 -18.3,3.6 -1.9,0 -1.9,3 0,3 z"
   style="fill:#161616"
   id="path274" />
		</g>
	</g><g
   id="g278">
		<g
   id="g277">
			<path
   d="m 815,522.3 c 0.9,2.6 2.4,4.4 4.8,5.8 1.1,0.6 2.1,-0.2 2.3,-1.3 0.6,-5.3 2,-10.4 4.2,-15.3 0.8,-1.7 -1.8,-3.3 -2.6,-1.5 -2.4,5.4 -3.9,11 -4.6,16.8 0.8,-0.4 1.5,-0.9 2.3,-1.3 -1.7,-1 -2.7,-2.2 -3.4,-4.1 -0.7,-1.7 -3.6,-0.9 -3,0.9 z"
   style="fill:#161616"
   id="path276" />
		</g>
	</g><g
   id="g280">
		<g
   id="g279">
			<path
   d="m 817,561.6 c 0.7,6.7 2.5,13 5.5,19 0.8,1.7 3.4,0.2 2.6,-1.5 -2.7,-5.5 -4.4,-11.4 -5,-17.5 -0.3,-1.9 -3.3,-1.9 -3.1,0 z"
   style="fill:#161616"
   id="path278" />
		</g>
	</g><g
   id="g282">
		<g
   id="g281">
			<path
   d="m 818.4,561.3 c 7.7,0.7 14.9,-0.7 21.8,-4.1 -0.7,-0.3 -1.5,-0.6 -2.2,-0.9 1.3,6.1 4,11.4 8.2,16.1 1.3,1.4 3.4,-0.7 2.1,-2.1 -3.8,-4.3 -6.2,-9.1 -7.4,-14.7 -0.2,-1 -1.4,-1.3 -2.2,-0.9 -6.4,3.1 -13.2,4.3 -20.3,3.7 -1.9,-0.2 -1.9,2.8 0,2.9 z"
   style="fill:#161616"
   id="path280" />
		</g>
	</g><g
   id="g284">
		<g
   id="g283">
			<path
   d="m 825.2,581.7 c 7.8,-2.9 15.5,-6 23,-9.4 1.8,-0.8 0.2,-3.4 -1.5,-2.6 -7.3,3.3 -14.8,6.3 -22.3,9.1 -1.8,0.7 -1,3.6 0.8,2.9 z"
   style="fill:#161616"
   id="path282" />
		</g>
	</g><g
   id="g286">
		<g
   id="g285">
			<path
   d="m 823.6,566.6 c 2.4,2.1 7.9,9.3 10.7,4 1.3,-2.4 1,-5.7 1.8,-8.4 1.2,-3.8 3.2,-7.3 5.8,-10.3 1.2,-1.5 -0.9,-3.6 -2.1,-2.1 -2.8,3.3 -5,6.9 -6.3,11.1 -0.6,1.9 -1.1,3.9 -1.4,5.9 -0.4,2.5 -1.1,1.9 -3,0.7 -1.2,-0.8 -2.3,-2 -3.4,-3 -1.4,-1.3 -3.5,0.8 -2.1,2.1 z"
   style="fill:#161616"
   id="path284" />
		</g>
	</g><g
   id="g288">
		<g
   id="g287">
			<path
   d="m 706.4,538.3 c 28,-0.3 55.9,-2.6 83.5,-7 1.9,-0.3 1.1,-3.2 -0.8,-2.9 -27.4,4.3 -55,6.6 -82.7,6.8 -1.9,0.1 -1.9,3.1 0,3.1 z"
   style="fill:#161616"
   id="path286" />
		</g>
	</g><g
   id="g290">
		<g
   id="g289">
			<path
   d="m 703.2,497.7 c 18.1,0.5 36.1,-0.1 54.1,-1.6 1.9,-0.2 1.9,-3.2 0,-3 -18,1.5 -36.1,2 -54.1,1.6 -1.9,-0.1 -1.9,2.9 0,3 z"
   style="fill:#161616"
   id="path288" />
		</g>
	</g><g
   id="g292">
		<g
   id="g291">
			<path
   d="m 707.5,544.2 c 19,0.9 38,0.2 56.8,-2.2 1.9,-0.2 1.9,-3.2 0,-3 -18.9,2.3 -37.9,3.1 -56.8,2.2 -1.9,-0.1 -1.9,2.9 0,3 z"
   style="fill:#161616"
   id="path290" />
		</g>
	</g><g
   id="g294">
		<g
   id="g293">
			<path
   d="m 770.7,540.6 c 5.4,0.1 10.7,-0.6 15.9,-2.3 1.8,-0.6 1,-3.5 -0.8,-2.9 -4.9,1.6 -9.9,2.3 -15.1,2.2 -1.9,0 -1.9,3 0,3 z"
   style="fill:#161616"
   id="path292" />
		</g>
	</g><g
   id="g296">
		<g
   id="g295">
			<path
   d="m 717.7,581.8 c 22.8,-1.4 45.5,-3.5 68.1,-6.6 1.9,-0.3 1.9,-3.3 0,-3 -22.6,3 -45.3,5.2 -68.1,6.6 -2,0.1 -2,3.1 0,3 z"
   style="fill:#161616"
   id="path294" />
		</g>
	</g><g
   id="g298">
		<g
   id="g297">
			<path
   d="m 720.3,588.8 c 7.5,0 15,0 22.5,0 1.9,0 1.9,-3 0,-3 -7.5,0 -15,0 -22.5,0 -1.9,0 -1.9,3 0,3 z"
   style="fill:#161616"
   id="path296" />
		</g>
	</g><g
   id="g300">
		<g
   id="g299">
			<path
   d="m 726.8,595.5 c 11.7,-0.7 23.4,-1.8 35.1,-3.2 9.4,-1.2 19.5,-1.7 27.6,-7.2 1.6,-1.1 0.1,-3.7 -1.5,-2.6 -8.5,5.8 -19.9,6.1 -29.8,7.2 -10.4,1.2 -20.9,2.1 -31.3,2.8 -2,0.1 -2.1,3.1 -0.1,3 z"
   style="fill:#161616"
   id="path298" />
		</g>
	</g><g
   id="g302">
		<g
   id="g301">
			<path
   d="m 841,514.7 c 18.2,-0.9 36.3,-3.3 54.2,-7.1 -0.6,-0.3 -1.2,-0.7 -1.8,-1 8.4,25 20.8,48.3 36.7,69.4 1.1,1.5 3.8,0 2.6,-1.5 -15.7,-20.8 -28,-43.9 -36.4,-68.6 -0.3,-0.8 -1,-1.2 -1.8,-1 -17.6,3.8 -35.4,6.1 -53.4,7 -2.1,-0.1 -2.1,2.9 -0.1,2.8 z"
   style="fill:#161616"
   id="path300" />
		</g>
	</g><g
   id="g304">
		<g
   id="g303">
			<path
   d="m 844.1,599.1 c 2.7,3.8 4.9,7.8 6.8,12.1 0.2,0.6 1.1,0.9 1.7,0.7 14.7,-4.9 29.2,-10.3 43.4,-16.4 7.2,-3.1 14.3,-6.3 21.4,-9.7 3.4,-1.6 6.8,-3.3 10.1,-5 2,-1 4.3,-1.6 5,-3.8 0.2,-0.6 -0.1,-1.4 -0.7,-1.7 -0.9,-0.5 -1.4,-0.5 -2.3,0 -0.6,0.3 -0.9,1.1 -0.7,1.7 0,0.1 0.1,0.2 0.1,0.3 0.5,1.9 3.4,1.1 2.9,-0.8 0,-0.1 -0.1,-0.2 -0.1,-0.3 -0.2,0.6 -0.5,1.1 -0.7,1.7 -0.2,0 -0.5,0 -0.7,0 -0.2,-0.6 -0.5,-1.1 -0.7,-1.7 -0.6,1.8 -6.9,3.7 -8.6,4.6 -2.8,1.4 -5.6,2.7 -8.5,4.1 -6.7,3.2 -13.5,6.2 -20.4,9.1 -13.2,5.6 -26.7,10.6 -40.3,15.1 0.6,0.2 1.1,0.5 1.7,0.7 -1.8,-4.3 -4.1,-8.3 -6.8,-12.1 -1.1,-1.7 -3.7,-0.2 -2.6,1.4 z"
   style="fill:#161616"
   id="path302" />
		</g>
	</g><g
   id="g306">
		<g
   id="g305">
			<path
   d="m 861.5,522.5 c -0.2,-1.3 2.2,-2.5 3.1,-1.6 1.2,1.2 -0.8,3.4 -2.2,2.9 -1.8,-0.7 -2.6,2.2 -0.8,2.9 4.3,1.6 8.5,-4.6 5.2,-7.9 -1.5,-1.5 -3.8,-1.4 -5.6,-0.5 -1.9,1 -2.9,2.9 -2.5,5 0.2,1.9 3.1,1 2.8,-0.8 z"
   style="fill:#161616"
   id="path304" />
		</g>
	</g><g
   id="g308">
		<g
   id="g307">
			<path
   d="m 418.4,442.5 c 11.1,0.2 22.3,-0.3 33.3,-1.8 11.5,-1.6 22.9,-4.9 34.6,-4.4 1.9,0.1 1.9,-2.9 0,-3 -10.7,-0.4 -21.1,2.3 -31.6,3.9 -12,1.9 -24.2,2.6 -36.4,2.3 -1.8,0 -1.8,3 0.1,3 z"
   style="fill:#161616"
   id="path306" />
		</g>
	</g><g
   id="g310">
		<g
   id="g309">
			<path
   d="m 420,409.4 c 17,1.3 34,-0.2 50.5,-4.5 1.9,-0.5 1.1,-3.4 -0.8,-2.9 -16.3,4.2 -32.9,5.7 -49.7,4.4 -1.9,-0.1 -1.9,2.9 0,3 z"
   style="fill:#161616"
   id="path308" />
		</g>
	</g><g
   id="g312">
		<g
   id="g311">
			<path
   d="m 804.8,325.2 c -1.7,11 -3.1,22.9 3.8,32.5 1.1,1.6 3.7,0.1 2.6,-1.5 -6.4,-8.9 -5,-20 -3.5,-30.2 0.3,-1.9 -2.6,-2.7 -2.9,-0.8 z"
   style="fill:#161616"
   id="path310" />
		</g>
	</g><g
   id="g314">
		<g
   id="g313">
			<path
   d="m 805.7,325.1 c 23.8,0.9 47.6,-1.4 70.8,-6.9 -0.6,-0.3 -1.2,-0.7 -1.8,-1 2.1,10.3 6.1,19.9 11.7,28.7 1,1.6 3.6,0.1 2.6,-1.5 -5.5,-8.6 -9.3,-18 -11.4,-28 -0.2,-0.8 -1.1,-1.2 -1.8,-1 -22.9,5.4 -46.4,7.7 -70,6.8 -2,-0.2 -2,2.8 -0.1,2.9 z"
   style="fill:#161616"
   id="path312" />
		</g>
	</g><g
   id="g316">
		<g
   id="g315">
			<path
   d="m 811.1,357.6 c 25.8,-0.8 51.3,-4.6 76.1,-11.4 1.9,-0.5 1.1,-3.4 -0.8,-2.9 -24.6,6.8 -49.8,10.6 -75.3,11.3 -2,0.1 -2,3.1 0,3 z"
   style="fill:#161616"
   id="path314" />
		</g>
	</g>
<path
   d="m 1163.7,1056.1 c 0,11.3 0,22.5 0,33.8 -80,31.7 -96.3,43 -95.1,47.1 0.3,1 2.4,4 44.4,-0.9 41.6,-4.9 75.3,-12 98.7,-17.8 -4.1,-23.1 -8.3,-46.2 -12.4,-69.3 -11.9,2.4 -23.8,4.8 -35.6,7.1 z"
   style="fill:#161616"
   id="path316" /><path
   d="m 1199.6,577.8 c -2.3,4.3 -3.1,7.8 -3.3,8.6 -14.3,60.8 -33,96.7 -45.2,167.2 -23.3,135.8 -3.2,290.1 -1.3,304.6 6.4,2.8 18.7,7 34.4,6.4 13.8,-0.6 24.5,-4.7 30.6,-7.6 -2.3,-44.3 0,-99 15.3,-159.3 18.7,-73.9 42.4,-98.4 63.7,-184.8 15.8,-64 34.1,-138.5 2.5,-160.6 -24.2,-17.2 -80.9,-4.6 -96.7,25.5 z"
   style="fill:#f1aa4b;fill-opacity:1"
   id="path317" /><path
   d="m 1254.9,609.7 c -16,73 -30.9,150.8 -43.5,233.1 -11.9,77.4 -20.8,151.5 -27.4,221.9 10.1,-2.1 20.1,-4.2 30.2,-6.3 -1.3,-31.1 0.1,-57.6 2.1,-77.9 2.4,-25.2 8.5,-83.9 33,-142.5 3.2,-7.5 7.3,-16.6 14,-33.7 11.3,-28.3 19.5,-52.5 23.2,-63.9 17.4,-54.4 26.1,-117.5 28.8,-138.3 -20.2,2.4 -40.3,5 -60.4,7.6 z"
   style="opacity:0.2;fill:#6d6c6c"
   id="path318" /><path
   d="m 1287.9,736.8 c -39.2,51.1 -57.5,97.4 -66.7,128.5 -8.4,28.3 -12.1,53.3 -16.9,85.7 -6.8,46 -9.4,84.8 -10.5,112.4 6.6,-1.6 13.1,-3.3 19.7,-4.9 -1.1,-38.7 1.6,-71.8 4.9,-97.6 4,-30.6 8.6,-66.1 24.6,-108.8 5.8,-15.5 8.6,-19.9 21.8,-53.4 10.2,-26.2 18,-47.7 23.1,-61.9 z"
   style="opacity:0.19;fill:#6d6c6c"
   id="path319" />
<path
   d="m 1379.7,1044.6 c 5.6,13.9 11.3,27.8 16.9,41.8 -47,29.9 -69.2,47.3 -66.7,52.4 3.1,6.3 43.7,-6.2 121.8,-37.3 -8.3,-27 -16.6,-53.9 -24.9,-80.9 -15.7,8 -31.4,16 -47.1,24 z"
   style="fill:#161616"
   id="path320" /><path
   d="m 1341.1,579 c 24.5,22.4 23.7,53.8 26.8,105.8 0,0 7.6,127.9 33.1,230.7 6.4,25.7 18,65.6 39.5,113.4 -3.6,4.6 -13.4,15.8 -30.6,21.7 -17.6,6 -32.6,2.8 -38.2,1.3 -30.6,-52.2 -52.3,-96.7 -66.3,-127.5 -64.9,-142.2 -70.1,-217.1 -70.1,-256.2 0,-40.2 0.7,-88.4 30.6,-104.5 22.5,-12.1 55.5,-2.7 75.2,15.3 z"
   style="fill:#f1aa4b;fill-opacity:1"
   id="path321" /><path
   d="m 1271.7,594.3 c 11.1,42.7 23.1,86.1 35.9,130.1 33.4,114.2 69.7,222.1 107.8,323.3 3.7,-1.9 8.2,-4.5 12.8,-8 4.7,-3.6 8.4,-7.2 11.2,-10.4 -5.2,-12.1 -12.4,-29.6 -20,-51.1 -11.5,-32.9 -30.2,-93.4 -39.9,-174 -9.3,-77.4 -14,-116.1 -13.6,-140.5 0.3,-20.1 2.1,-61 -23.9,-83 -5.4,-4.5 -10.7,-7.2 -14.4,-8.8 -18.7,7.5 -37.3,15 -55.9,22.4 z"
   style="opacity:0.15;fill:#f1aa4b;fill-opacity:1"
   id="path322" /><path
   d="m 1367.1,689.7 c -4.6,46.5 -6.1,108.8 5.1,180.8 11.3,72.4 31.8,131.5 50.3,174.5 5.7,-4.7 11.4,-9.4 17.1,-14.2 -6.8,-16.1 -15.7,-38.5 -24.6,-65.9 -17.1,-52.7 -24.5,-93.8 -30.9,-130.7 -6.5,-37.8 -13.3,-86.7 -17,-144.5 z"
   style="opacity:0.22;fill:#6d6c6c"
   id="path323" />
<g
   id="hand_r">
	<path
   d="m 898.9,213.7 c -4,2 -9.5,5.5 -13.8,11.5 -2.3,3.1 -5.1,7.2 -5.5,13 -0.1,2.3 -0.4,7.3 2.8,10.6 0.9,1 3.3,2.9 15.1,2.5 10.5,-0.4 15.8,-0.6 18.5,-3.4 5.2,-5.4 3.3,-15.6 0,-21.7 -5.2,-9.7 -15.4,-12.1 -17.1,-12.5 z"
   style="fill:#ffffff;stroke:#161616;stroke-width:2;stroke-miterlimit:10"
   id="path325" />
	<path
   d="m 959.3,238.8 c 14.1,16.1 36.7,25.7 78.2,42.8 52.3,21.6 78.5,32.4 109.5,36.2 33.5,4.1 51.4,-0.2 57.6,10.7 8.1,14.1 -10.9,40.5 -30.5,62.6 -14.6,-3.2 -29.7,-7.2 -45.3,-12.4 -85.5,-28.3 -147.3,-78.1 -187.9,-119.5 -5.1,1.1 -13.8,2.2 -23.7,-0.8 -8.5,-2.5 -20.5,-8.9 -19.8,-14 0.9,-6.2 22.6,-7.3 23.9,-7.4 -6.6,-2.7 -16.1,-7.3 -26.4,-14.8 -3,-2.2 -20.2,-14.9 -18.1,-18.9 1.8,-3.5 17.4,1.3 32.1,5.8 13.4,4.1 22.7,7 32.9,14 9.8,6.6 15.5,13.4 17.5,15.7 z"
   style="fill:#ffffff;stroke:#161616;stroke-width:2;stroke-miterlimit:10"
   id="path326" />
	<g
   id="g328">
		<g
   id="g327">
			<path
   d="m 890.1,214.8 c 2.4,2.7 2.9,6.3 5,9.1 1.8,2.5 4.4,4.3 7.1,5.8 8.1,4.5 16.7,8.2 25,12.3 1.4,0.7 3.2,-1.2 1.8,-2.4 -4.3,-3.7 -8.9,-7 -13.7,-10 -1.6,-1 -3.2,1.6 -1.5,2.6 4.6,2.9 9,6 13.1,9.5 0.6,-0.8 1.2,-1.6 1.8,-2.4 -7.9,-3.8 -15.8,-7.5 -23.6,-11.6 -3.7,-1.9 -7,-4.1 -8.9,-7.9 -1.3,-2.6 -2,-5.1 -4,-7.3 -1.3,-1.2 -3.4,0.9 -2.1,2.3 z"
   style="fill:#ffffff"
   id="path327" />
		</g>
	</g>
	<g
   id="g330">
		<g
   id="g329">
			<path
   d="m 897.9,225.3 c 4.6,2 9,4.6 13,7.7 1.5,1.2 3.6,-0.9 2.1,-2.1 -4.2,-3.3 -8.7,-6 -13.6,-8.2 -1.8,-0.8 -3.3,1.8 -1.5,2.6 z"
   style="fill:#ffffff"
   id="path328" />
		</g>
	</g>
	<g
   id="g332">
		<g
   id="g331">
			<path
   d="m 886.1,213 c 3.8,6.1 8.8,11.1 14.7,15.1 1.6,1.1 3.1,-1.5 1.5,-2.6 -5.5,-3.7 -10.1,-8.4 -13.6,-14.1 -1,-1.5 -3.6,0 -2.6,1.6 z"
   style="fill:#ffffff"
   id="path330" />
		</g>
	</g>
	<g
   id="g334">
		<g
   id="g333">
			<path
   d="m 890.6,221.2 c 2,2.7 4.2,5.2 6.7,7.4 1.8,1.6 9.7,7.3 5.6,10.2 -0.8,0.5 0,1.8 0.8,1.3 2.8,-1.9 1.7,-5.3 0,-7.6 -1.3,-1.7 -3.1,-3 -4.8,-4.5 -2.6,-2.3 -4.9,-4.8 -7,-7.5 -0.6,-0.9 -1.9,-0.1 -1.3,0.7 z"
   style="fill:#161616"
   id="path332" />
		</g>
	</g>
	<g
   id="g336">
		<g
   id="g335">
			<path
   d="m 888.5,231.6 c 3,4.1 8.7,9.9 14.3,8.2 0.9,-0.3 0.5,-1.7 -0.4,-1.4 -4.8,1.5 -10.1,-4 -12.6,-7.5 -0.6,-0.8 -1.9,-0.1 -1.3,0.7 z"
   style="fill:#161616"
   id="path334" />
		</g>
	</g>
	<g
   id="g338">
		<g
   id="g337">
			<path
   d="m 884.1,238.6 c 3.3,4.5 8.1,7.1 13.7,7.4 1,0.1 1,-1.4 0,-1.5 -5,-0.3 -9.4,-2.7 -12.4,-6.7 -0.6,-0.8 -1.9,0 -1.3,0.8 z"
   style="fill:#161616"
   id="path336" />
		</g>
	</g>
	<g
   id="g340">
		<g
   id="g339">
			<path
   d="m 880.9,247.6 c 4.7,4.9 12.5,5 17.2,0 0.7,-0.7 -0.4,-1.8 -1.1,-1.1 -4.1,4.4 -10.9,4.3 -15,0 -0.7,-0.7 -1.8,0.4 -1.1,1.1 z"
   style="fill:#161616"
   id="path338" />
		</g>
	</g>
	<g
   id="g342">
		<g
   id="g341">
			<path
   d="m 881.9,212.8 c 11.1,7.3 19.1,19.6 33,22 0.9,0.2 1.4,-1.3 0.4,-1.4 -13.7,-2.3 -21.7,-14.6 -32.6,-21.8 -0.9,-0.7 -1.6,0.6 -0.8,1.2 z"
   style="fill:#161616"
   id="path340" />
		</g>
	</g>
	<path
   d="m 880.7,245.5 c -3.6,-4.9 -0.6,-15.4 8.1,-25.3 9.8,5.7 19.5,11.5 29.3,17.2 -1.8,0 -17.6,0.2 -18.7,5.1 -0.2,0.8 0,2 1.5,3.7 5,2.4 13.4,5.6 24.2,5.9 5.6,0.1 10.5,-0.6 14.3,-1.5 20.4,20.6 56.3,51.7 109.1,74.3 46.4,19.8 88,25.5 115.5,27.1 -0.9,11.8 -1.8,23.5 -2.7,35.3 -45.3,-12 -106.7,-34.8 -167.7,-80.6 -20.8,-15.6 -38.6,-31.7 -53.8,-47.2 -14,2.3 -22.7,-0.1 -28.2,-2.9 -4.7,-2.4 -7.7,-5.4 -13.9,-5.9 -4.1,-0.3 -7.6,0.7 -12.1,-1.5 -0.5,-0.2 -3.4,-1.7 -4.9,-3.7 z"
   style="opacity:0.2;fill:#6d6c6c"
   id="path342" />
	<path
   d="m 1009.5,316.1 c 14,7.5 30.2,15.1 48.7,21.6 40.3,14.3 76.8,18.8 104.7,19.8 -0.4,10.2 -0.7,20.5 -1.1,30.7 -29,-6.8 -65.4,-18.7 -104,-40.3 -18.5,-10.3 -34.5,-21.2 -48.3,-31.8 z"
   style="opacity:0.14;fill:#6d6c6c"
   id="path343" />
</g>
<g
   id="torso">
	<path
   d="m 1167.6,344.6 c -5.7,12.9 -6,23.6 -6.5,42.8 -0.4,14.5 0.6,30.1 8.4,71.1 9.5,49.6 14,57.6 15.5,83.9 1.2,20.6 -0.4,37.5 -1.9,48.7 12.6,6.9 33.7,16.3 61.3,18.4 48.8,3.7 84.9,-17.8 97.3,-26 1.5,-31.4 3,-62.9 4.6,-94.3 -5.5,-26.8 -12,-47.8 -16.7,-61.6 -14.8,-43.5 -28.6,-64.1 -19.8,-85.9 4.9,-12.1 14.6,-19.5 21.3,-23.6 -4.7,-3.6 -54,-40.1 -107.8,-21.2 -5.6,1.9 -41,14.4 -55.7,47.7 z"
   style="fill:#ffffff;stroke:#161616;stroke-width:2;stroke-miterlimit:10"
   id="path344" />
	<path
   d="m 1223.1,296.8 c 15,24 23.4,45.2 28.2,60 0,0 23.5,71.4 6.3,167.2 -3.7,20.4 -10.3,49.4 -23.3,82.6 5,1.1 11,2 17.8,2.3 0,0 10.5,0.5 22.3,-1 14.4,-1.9 39.1,-9.6 68.2,-24.4 0.5,-33.5 1,-66.9 1.5,-100.4 -7.4,-28.3 -14.9,-51 -20.5,-66.9 -13.5,-37.9 -23,-55.7 -15.2,-74.5 5.1,-12.3 15.5,-19.9 23.6,-24.3 -10.6,-7 -30.2,-17.9 -57,-22.1 -22.1,-3.4 -40.3,-1 -51.9,1.5 z"
   style="opacity:0.19;fill:#6d6c6c"
   id="path345" />
	<path
   d="m 1236.8,294.5 c 16.1,19.8 34.9,48.7 46.5,86.8 32.9,108.8 -21.2,204.2 -33.7,225.1 10.5,-0.1 22.8,-1 36.2,-3.6 23.9,-4.6 43,-12.8 56.7,-20.1 0.5,-31.2 1,-62.4 1.5,-93.5 -8.5,-28.9 -16.5,-56.3 -27.4,-93.5 -7.4,-25.5 -13.2,-46.4 -2.3,-63.1 5.3,-8.1 12.7,-12.6 18.3,-15.2 -31.9,-7.7 -63.9,-15.3 -95.8,-22.9 z"
   style="opacity:0.11;fill:#6d6c6c"
   id="path346" />
</g>
<g
   id="files">
	<path
   d="m 1229.4,498.8 c -0.3,-21.4 -0.5,-42.7 -0.8,-64.1 51.3,-2.6 102.6,-5.2 154,-7.8 1.8,19.8 3.6,39.6 5.5,59.4 -52.9,4.2 -105.8,8.3 -158.7,12.5 z"
   style="fill:#ffffff;stroke:#161616;stroke-width:2;stroke-miterlimit:10"
   id="path347" />
	<path
   d="m 1213.8,491.8 c 0,-7.8 0,-15.6 0,-23.4 65.9,-4.9 131.8,-9.9 197.7,-14.8 0.5,9.6 1,19.3 1.6,28.9 -66.4,3 -132.9,6.2 -199.3,9.3 z"
   style="fill:#ffffff;stroke:#161616;stroke-width:2;stroke-miterlimit:10"
   id="path348" />
	<path
   d="m 1219.3,456.6 c 0.8,11.5 1.6,22.9 2.3,34.4 61,-4.9 121.9,-9.9 182.9,-14.8 0.5,-10.4 1,-20.8 1.6,-31.3 -62.3,3.9 -124.6,7.8 -186.8,11.7 z"
   style="fill:#ffffff;stroke:#161616;stroke-width:2;stroke-miterlimit:10"
   id="path349" />
	<path
   d="m 1204.4,482.4 c 1.8,45.6 3.6,91.2 5.5,136.8 68,-7.6 136,-15.1 204,-22.7 2.1,-44.8 4.2,-89.6 6.3,-134.4 -72,6.8 -143.9,13.5 -215.8,20.3 z"
   style="fill:#ffffff;stroke:#161616;stroke-width:2;stroke-miterlimit:10"
   id="path350" />
	<g
   id="g352">
		<g
   id="g351">
			<path
   d="m 1216,500.2 c 30.9,-4.1 61.8,-7 92.9,-8.8 1.4,-0.1 1.4,-2.3 0,-2.3 -31.1,1.8 -62.1,4.7 -92.9,8.8 -1.4,0.2 -1.4,2.5 0,2.3 z"
   style="fill:#161616"
   id="path351" />
		</g>
	</g>
	<g
   id="g354">
		<g
   id="g353">
			<path
   d="m 1250.5,506.3 c 23.7,-3 47.4,-6.1 71.2,-9.1 1.4,-0.2 1.4,-2.4 0,-2.3 -23.7,3 -47.4,6.1 -71.2,9.1 -1.4,0.3 -1.4,2.5 0,2.3 z"
   style="fill:#161616"
   id="path352" />
		</g>
	</g>
	<g
   id="g356">
		<g
   id="g355">
			<path
   d="m 1364.4,570.3 c -0.4,6.3 -0.4,12.7 0.2,19 0.1,1.4 2.4,1.4 2.3,0 -0.6,-6.3 -0.7,-12.7 -0.2,-19 0.1,-1.4 -2.2,-1.4 -2.3,0 z"
   style="fill:#161616"
   id="path354" />
		</g>
	</g>
	<g
   id="g358">
		<g
   id="g357">
			<path
   d="m 1365.4,570.5 c 12.4,0.3 24.7,-0.4 37,-2 -0.4,-0.4 -0.8,-0.8 -1.1,-1.1 -0.2,5.8 0,11.5 0.4,17.2 0.1,1.4 2.4,1.4 2.3,0 -0.5,-5.7 -0.6,-11.5 -0.4,-17.2 0,-0.6 -0.5,-1.2 -1.1,-1.1 -12.3,1.6 -24.6,2.2 -37,2 -1.6,-0.1 -1.6,2.1 -0.1,2.2 z"
   style="fill:#161616"
   id="path356" />
		</g>
	</g>
	<g
   id="g360">
		<g
   id="g359">
			<path
   d="m 1366.3,591.1 c 12.3,0.2 24.4,-1.1 36.4,-3.8 1.4,-0.3 0.8,-2.5 -0.6,-2.2 -11.8,2.6 -23.7,3.9 -35.8,3.7 -1.4,0 -1.4,2.2 0,2.3 z"
   style="fill:#161616"
   id="path358" />
		</g>
	</g>
	<g
   id="g362">
		<g
   id="g361">
			<path
   d="m 1371,577.5 c 7.6,0.5 15.1,0.1 22.7,-1.1 1.4,-0.2 0.8,-2.4 -0.6,-2.2 -7.3,1.2 -14.7,1.5 -22.1,1 -1.4,-0.1 -1.4,2.2 0,2.3 z"
   style="fill:#161616"
   id="path360" />
		</g>
	</g>
	<g
   id="g364">
		<g
   id="g363">
			<path
   d="m 1375.8,583.8 c 7.9,-0.2 15.5,-1.7 23,-4.4 1.3,-0.5 0.8,-2.7 -0.6,-2.2 -7.2,2.7 -14.7,4.1 -22.4,4.4 -1.4,-0.1 -1.5,2.2 0,2.2 z"
   style="fill:#161616"
   id="path362" />
		</g>
	</g>
	<path
   d="m 1236.7,614 c 1.8,-42.2 3.6,-84.4 5.3,-126.7 58.4,-4.7 116.9,-9.3 175.3,-14 -1.3,40 -2.7,80 -4,120 -58.9,6.9 -117.7,13.8 -176.6,20.7 z"
   style="opacity:0.2;fill:#6d6c6c"
   id="path364" />
	<path
   d="m 1395.3,446 c 0.3,11.6 -0.3,25.4 -3.3,40.7 -7.4,37.6 -25.2,64.7 -37.3,80 8.2,10.9 16.4,21.8 24.7,32.7 -25.1,2.9 -50.2,5.8 -75.3,8.7 4,-45.8 8,-91.6 12,-137.3 -1.3,-6 -2.7,-12 -4,-18 27.7,-2.4 55.5,-4.6 83.2,-6.8 z"
   style="opacity:0.2;fill:#6d6c6c"
   id="path365" />
</g>
<g
   id="hand_l">
	<path
   d="m 1325.7,315.4 c 20.9,-2.8 45.8,45.2 55.7,79.7 11.4,39.7 6.4,74 2.3,92.1 -8,35.5 -24.6,60.5 -35,74 1.6,5.3 5.3,19.7 -0.8,35.5 -9,23.1 -33.4,34.2 -35.3,32.1 -0.6,-0.7 0.6,-3.6 10.1,-14.5 -2,2.1 -16.4,16.4 -32.6,13 -2.8,-0.6 -6.3,-1.3 -8.3,-4.1 -4.7,-6.8 3.1,-22.2 19.7,-39.3 -18.1,4.5 -22.9,3.3 -23.8,1.3 -2.3,-4.8 16.2,-18.4 22.9,-23.4 9.9,-7.3 18.8,-12.3 24.9,-15.4 17.1,-35.5 16.2,-63.2 14.7,-76.2 -2.2,-19.2 -9.4,-40.1 -10.8,-44.1 -4,-11.5 -5.9,-14.1 -13.9,-34.8 -12.9,-33.2 -12.9,-38.9 -12.4,-43.3 1.8,-13.2 10.7,-31 22.6,-32.6 z"
   style="fill:#ffffff;stroke:#161616;stroke-width:2;stroke-miterlimit:10"
   id="path366" />
	<g
   id="g368">
		<g
   id="g367">
			<path
   d="m 1282.2,620.4 c 11.1,-6.3 20.8,-14.4 28.9,-24.2 1.2,-1.5 -0.9,-3.6 -2.1,-2.1 -7.9,9.6 -17.4,17.6 -28.3,23.8 -1.7,0.8 -0.2,3.4 1.5,2.5 z"
   style="fill:#161616"
   id="path367" />
		</g>
	</g>
	<g
   id="g370">
		<g
   id="g369">
			<path
   d="m 1292,627.1 c 11,-5.7 20.4,-13.6 28,-23.4 1.2,-1.5 -1.4,-3 -2.6,-1.5 -7.2,9.4 -16.4,16.9 -26.9,22.3 -1.7,0.9 -0.2,3.5 1.5,2.6 z"
   style="fill:#161616"
   id="path368" />
		</g>
	</g>
	<path
   d="m 1317.3,320.2 c -19.9,17.3 61.3,93.2 47.4,179.4 -9.5,59.1 -48.9,97.7 -48.9,97.7 -11,11 -31.7,24.5 -29.2,29.2 1.8,3.4 14.3,0.3 18.8,-1.1 8.5,-2.6 14.4,-7 17.7,-9.9 -5,5.6 -10.7,12.5 -9.5,13.9 1.7,1.8 15.9,-5.6 24.8,-16 15.4,-18 13.2,-43 11.7,-53.2 3.6,-4.7 8.3,-11.3 13.1,-19.7 4.4,-7.5 17.1,-30.9 22.6,-62.7 9.7,-56.3 -10.2,-100.7 -18.2,-118.1 -7.2,-15.5 -19.4,-41.2 -37.9,-42.3 -2.4,-0.3 -8.5,-0.6 -12.4,2.8 z"
   style="opacity:0.17;fill:#6d6c6c"
   id="path370" />
	<path
   d="m 1384.7,476.2 c -5.4,15.7 -11.8,32.2 -19.4,49.5 -5.4,12.3 -10.9,23.8 -16.5,34.7 -2.8,9 -8.1,22.5 -18.6,36.4 -11,14.6 -23.1,23.5 -31.2,28.6 2.3,0.1 5.1,-0.1 8.2,-0.9 7.8,-1.8 13,-6.1 15.6,-8.7 -3,3.8 -6.1,7.5 -9.1,11.3 2.4,-0.4 6.2,-1.1 10.4,-3 22,-9.9 26.6,-36.8 26.9,-38.6 0.8,-4.9 1.3,-13.3 -1.7,-23.7 7.2,-8.5 16.3,-21.2 23.6,-38.3 8.1,-18.8 10.8,-35.7 11.8,-47.3 z"
   style="opacity:0.22;fill:#6d6c6c"
   id="path371" />
</g>
<path
   d="m 1144.6,249.6 c -16.1,18.4 -5,44.1 -3.5,47.6 5.6,13 20.1,31.5 38.5,30 13.4,-1.2 21.9,-12.5 24,-15.5 14.8,-21.3 9.9,-62 -15.1,-72.5 -13.8,-5.8 -32.8,-2.4 -43.9,10.4 z"
   style="fill:#091a3e;fill-opacity:1"
   id="path372" /><path
   d="m 1185.2,266 c 0.7,7.9 9,9.6 14.6,22.6 4,9.4 4,18.6 3.3,25.2 6.5,0.6 18.5,0.9 32.1,-4.3 10.7,-4.1 18.2,-10 22.7,-14.1 -2.1,-4.7 -5.2,-11.6 -8.9,-19.8 -16,-34.9 -18.6,-37.9 -22.5,-39.4 -15.6,-5.9 -42.6,15.1 -41.3,29.8 z"
   style="fill:#ffffff;stroke:#161616;stroke-width:2;stroke-miterlimit:10"
   id="path373" /><path
   d="m 1127.6,162.7 c -3.4,4.8 -5.5,10.7 -5.8,36 -0.2,21.6 1,41.3 3,58.8 4.5,-2.6 9,-5.2 13.5,-7.8 2,4.9 5.4,11.6 11.2,18.1 11.5,12.9 25.5,17.3 31.7,18.9 6.5,-1.6 22.7,-6.6 35,-21.9 8.1,-10.2 10.7,-20.3 11.3,-22.6 3.7,-15.1 0.1,-27.6 -1.8,-32.8 2.4,-1.1 6.1,-3.2 8.9,-7 5.9,-8 7.5,-22.3 0.2,-27.1 -5.4,-3.6 -15,-1.5 -22.2,5.9 -1.6,-3.7 -4.1,-8.8 -8.1,-14.1 -1,-1.3 -8.5,-11.1 -17.7,-16.2 -17.7,-10.2 -47,-5.4 -59.2,11.8 z"
   style="fill:#ffffff;stroke:#161616;stroke-width:2;stroke-miterlimit:10"
   id="path374" /><path
   d="m 1120.3,194.1 c -4,-0.7 -11.4,-2.8 -14.9,-8.9 -6,-10.3 2.8,-26 5,-29.9 1.8,-3.3 6.6,-11.2 27,-25.5 15.5,-10.9 23.3,-16.3 31.7,-18.9 29.8,-8.9 57.1,6.5 62.2,9.4 10.7,6.1 17.5,12.7 22.9,17.9 8.3,8 17.6,17.2 28,27.8 26.7,34.6 36.1,66.2 39.9,85.1 4.3,21.4 8.7,43.2 -4.1,56 -12.8,12.8 -36.2,10.2 -50.5,4.1 -19.9,-8.5 -28.4,-26.5 -35,-40.4 -11.2,-23.8 -11.9,-46.6 -10.8,-61.4 10,-2.9 15.1,-12.3 12.8,-19.4 -1.8,-5.6 -8.5,-11.2 -15.4,-9.2 -5.3,1.5 -9.1,7 -8.8,13.4 -4.8,-0.1 -17.6,-1.2 -29.8,-10.4 -8.9,-6.7 -13.4,-14.7 -15.5,-19.1 -5.5,0.7 -16.5,2.7 -27.6,10.7 -9.3,6.4 -14.5,14.1 -17.1,18.7 z"
   style="fill:#091a3e;fill-opacity:1"
   id="path375" /><path
   d="m 1186.5,213.2 c 12,14.5 15.8,29.8 15.8,29.8 3.9,17.2 -1.7,31.8 -4.2,37.7 6.3,-4.8 12.7,-9.6 19,-14.4 4.4,14.6 8.7,29.1 13.1,43.7 3.3,-0.3 10.1,-1.5 16.9,-6.3 5.2,-3.7 8.3,-8 10,-10.7 -8.1,-7.5 -23.6,-24.1 -30.7,-50.2 -3.4,-12.6 -3.9,-23.8 -3.5,-32.2 9.1,-3.7 13.8,-12.6 11.9,-20 -1.4,-5.4 -6.9,-11.9 -14,-10.9 -5.9,0.9 -10.8,6.7 -10.7,13.8 -4.5,0 -15.1,-0.5 -26.2,-7.2 -11.5,-6.9 -17,-16.5 -19.1,-20.6 0.5,19.2 6.4,30.3 11.7,36.9 3.5,4.5 5.1,4.7 10,10.6 z"
   style="opacity:0.24;fill:#6d6c6c"
   id="path376" /><g
   id="g378">
		<g
   id="g377">
			<path
   d="m 1140,209 c -1.1,4 -1,8.1 0.5,12 0.5,1.4 2.4,1.5 2.9,0 1.2,-3.6 1.2,-7.4 0.1,-11 -0.6,-1.8 -3.5,-1.1 -2.9,0.8 1,3.2 0.9,6.3 -0.1,9.5 1,0 1.9,0 2.9,0 -1.3,-3.4 -1.5,-6.9 -0.5,-10.4 0.5,-2 -2.3,-2.8 -2.9,-0.9 z"
   style="fill:#161616"
   id="path377" />
		</g>
	</g><g
   id="g380">
		<g
   id="g379">
			<path
   d="m 1136.4,202.8 c 2.6,-1.6 5.8,-1.3 8,0.8 1.4,1.3 3.5,-0.8 2.1,-2.1 -3.1,-3 -7.9,-3.6 -11.6,-1.3 -1.6,1 -0.1,3.6 1.5,2.6 z"
   style="fill:#161616"
   id="path378" />
		</g>
	</g><g
   id="g382">
		<g
   id="g381">
			<path
   d="m 1147.2,228.2 c 1.9,0 1.9,-3 0,-3 -2,0 -2,3 0,3 z"
   style="fill:#161616"
   id="path380" />
		</g>
	</g><g
   id="g384">
		<g
   id="g383">
			<path
   d="m 1153.8,219.5 c 0,0.1 0,0.2 0,0.3 0,0.8 0.7,1.5 1.5,1.5 0.8,0 1.5,-0.7 1.5,-1.5 0,-0.1 0,-0.2 0,-0.3 0,-0.8 -0.7,-1.5 -1.5,-1.5 -0.8,0 -1.5,0.6 -1.5,1.5 z"
   style="fill:#161616"
   id="path382" />
		</g>
	</g><g
   id="g386">
		<g
   id="g385">
			<path
   d="m 1154.1,227 c 1.9,0 1.9,-3 0,-3 -1.9,0 -1.9,3 0,3 z"
   style="fill:#161616"
   id="path384" />
		</g>
	</g><g
   id="g388">
		<g
   id="g387">
			<path
   d="m 1112.9,213.6 c -1.2,4 -1.1,8.1 0.3,12 0.5,1.4 2.4,1.4 2.9,0 1.2,-3.6 1.3,-7.4 0.3,-11 -0.5,-1.9 -3.4,-1.1 -2.9,0.8 0.9,3.2 0.8,6.3 -0.3,9.4 1,0 1.9,0 2.9,0 -1.2,-3.4 -1.4,-6.9 -0.3,-10.4 0.5,-1.9 -2.4,-2.7 -2.9,-0.8 z"
   style="fill:#161616"
   id="path386" />
		</g>
	</g><g
   id="g390">
		<g
   id="g389">
			<path
   d="m 1111.2,206.1 c 2.1,-1.1 5,-0.6 6.4,1.4 1.1,1.5 3.7,0 2.6,-1.5 -2.5,-3.3 -6.8,-4.4 -10.5,-2.5 -1.7,0.9 -0.2,3.5 1.5,2.6 z"
   style="fill:#161616"
   id="path388" />
		</g>
	</g><g
   id="g392">
		<g
   id="g391">
			<path
   d="m 1144.9,260.5 c 7.7,-1.4 14.4,-5.5 19.4,-11.6 0.9,-1.1 -0.7,-2.7 -1.6,-1.6 -4.7,5.8 -11,9.6 -18.4,11 -1.4,0.3 -0.8,2.5 0.6,2.2 z"
   style="fill:#161616"
   id="path390" />
		</g>
	</g><g
   id="g394">
		<g
   id="g393">
			<path
   d="m 1160.5,247.5 c 1.8,0.6 3.3,1.5 4.6,2.8 1,1 2.6,-0.6 1.6,-1.6 -1.6,-1.6 -3.5,-2.7 -5.6,-3.4 -1.4,-0.4 -2,1.8 -0.6,2.2 z"
   style="fill:#161616"
   id="path392" />
		</g>
	</g><path
   d="m 1222.8,116.7 c 12.7,17.6 29,42.5 44.5,74.3 16.4,33.6 28.4,58.9 19.1,68.9 -12.3,13.3 -54.8,-7.8 -61.6,-11.3 1.4,9.1 4.9,23.6 15.2,38.1 5.2,7.3 14.3,20.2 31.1,26.2 10.1,3.6 19.1,3.4 22.6,3.1 4.7,-0.3 10.1,-0.7 16,-3.9 0,0 7.7,-4.1 12.9,-12.5 7.9,-12.8 3.7,-30.1 -1.9,-51.8 -6.7,-26 -15.7,-43.3 -24.5,-60.4 -2.2,-4.2 -4.8,-9.1 -9,-14.8 -4.2,-5.8 -7.3,-8.9 -20.3,-21.4 -19.3,-18.7 -22.3,-21.4 -28.1,-25.3 -6.4,-4.4 -12.1,-7.3 -16,-9.2 z"
   style="opacity:0.45;fill:#091a3e;fill-opacity:1"
   id="path394" /><path
   d="m 1198.7,286.8 c 0.8,2.3 2.6,8.8 0,16 -3.9,10.7 -14.7,14.3 -16.4,14.8 -12.3,4 -27.8,-2.3 -38.2,-16 1.4,3.6 4.5,10 10.9,15.6 3.2,2.8 11.9,10.3 24.2,9.4 2.1,-0.2 15.6,-1.2 21.8,-12.9 4.5,-8.3 3.5,-18.7 -2.3,-26.9 z"
   style="opacity:0.43;fill:#091a3e;fill-opacity:1"
   id="path395" />
</svg>
