<?xml version="1.0" encoding="UTF-8" standalone="no"?>
<!-- Created with Inkscape (http://www.inkscape.org/) -->

<svg
   width="24"
   height="24"
   viewBox="0 0 6.3499999 6.35"
   version="1.1"
   id="svg1"
   sodipodi:docname="instagram.svg"
   inkscape:version="1.3.2 (1:1.3.2+202311252150+091e20ef0f)"
   xmlns:inkscape="http://www.inkscape.org/namespaces/inkscape"
   xmlns:sodipodi="http://sodipodi.sourceforge.net/DTD/sodipodi-0.dtd"
   xmlns="http://www.w3.org/2000/svg"
   xmlns:svg="http://www.w3.org/2000/svg">
  <sodipodi:namedview
     id="namedview1"
     pagecolor="#ffffff"
     bordercolor="#666666"
     borderopacity="1.0"
     inkscape:showpageshadow="2"
     inkscape:pageopacity="0.0"
     inkscape:pagecheckerboard="0"
     inkscape:deskcolor="#d1d1d1"
     inkscape:zoom="33"
     inkscape:cx="11.984848"
     inkscape:cy="12"
     inkscape:window-width="1850"
     inkscape:window-height="1016"
     inkscape:window-x="0"
     inkscape:window-y="0"
     inkscape:window-maximized="1"
     inkscape:current-layer="svg1" />
  <defs
     id="defs1" />
  <g
     id="layer1"
     style="fill:#ffffff;fill-opacity:1">
    <path
       d="M 1.8601132,0.02255676 C 1.522202,0.03843114 1.2915606,0.09240419 1.0899478,0.17154944 0.88130461,0.25296247 0.70441152,0.36204236 0.52819872,0.53870187 0.35221279,0.71536137 0.24380906,0.89247445 0.16307322,1.1013363 0.08483204,1.3033949 0.0319909,1.5342542 0.01702302,1.8723792 0.00205514,2.2102773 -0.0011199,2.3191304 4.6762325e-4,3.1811109 0.00205505,4.0430914 0.00591049,4.1512641 0.02223908,4.4900695 c 0.0161018,0.3376714 0.06985013,0.5683038 0.14899843,0.7701356 0.0814162,0.2086351 0.19050028,0.3855215 0.36716662,0.5617274 0.17666632,0.1759792 0.35355941,0.2841519 0.56310967,0.3651114 0.2018397,0.078011 0.4329346,0.131304 0.7708459,0.1460445 0.3379111,0.014741 0.4467684,0.018142 1.3087822,0.016555 0.8620137,-0.00159 0.9704175,-0.00545 1.3092359,-0.021543 C 4.8291961,6.3119982 5.0584768,6.2580252 5.2603164,6.1791067 5.4689595,6.097467 5.6460794,5.9886138 5.8220654,5.8117275 5.9980514,5.6348413 6.1064551,5.4577281 6.1869642,5.2486394 6.2652053,5.0468077 6.3182733,4.8157217 6.3330143,4.4780503 6.3477555,4.139245 6.3513841,4.0310722 6.3495697,3.168865 6.3477555,2.3066577 6.3441269,2.1987117 6.3280251,1.8601332 6.3119233,1.5215547 6.2581749,1.2916025 6.1790267,1.0897707 6.0973837,0.88113556 5.9885264,0.70424927 5.81186,0.52804335 5.6351937,0.35183738 5.4578471,0.24366462 5.2487503,0.16315868 5.0466839,0.08492052 4.8158157,0.03162786 4.4779045,0.0171141 4.1399933,0.00260037 4.031136,-0.00125492 3.1688955,3.3258811e-4 2.3066549,0.00192019 2.1987048,0.00577567 1.8601132,0.02210324 M 1.8973061,5.7616097 C 1.5877432,5.7482298 1.4196947,5.6967514 1.3076624,5.6536638 1.1593443,5.5965159 1.053662,5.5273488 0.94208324,5.4169083 0.83050453,5.3064677 0.7617884,5.2003359 0.70395792,5.0522504 0.660415,4.9402223 0.60802747,4.7724071 0.5935131,4.4628562 0.57786491,4.1283597 0.57446307,4.0278974 0.57264884,3.1802038 0.57083427,2.3325103 0.57400913,2.2322747 0.58875064,1.8975514 0.6019042,1.5882273 0.65361142,1.4199585 0.69670082,1.3079305 0.75385091,1.1593913 0.82279384,1.0539399 0.93346543,0.94236543 1.044137,0.83079099 1.150046,0.76207753 1.2981374,0.70424927 1.4099428,0.66048175 1.5779913,0.60854931 1.8873275,0.5938088 2.2220637,0.57793425 2.32253,0.57475951 3.1700294,0.57294501 c 0.8474994,-0.001817 0.9481924,0.001363 1.2831554,0.0161008 0.3093362,0.0133795 0.4776115,0.0646313 0.589417,0.10794601 0.1483181,0.0571479 0.2540003,0.12586136 0.3655791,0.2367555 C 5.5197596,1.0446414 5.5884758,1.1500929 5.646533,1.298632 5.690303,1.4102065 5.742237,1.5780217 5.756751,1.8875726 5.772626,2.222296 5.776254,2.3227583 5.777842,3.170225 5.779432,4.0176917 5.776482,4.1183808 5.761741,4.4528773 5.7481331,4.762429 5.6968795,4.9304709 5.6537902,5.0427257 5.5966401,5.1910381 5.5276971,5.2967162 5.4167988,5.4082907 5.3059004,5.5198651 5.2002181,5.5885787 5.0521268,5.6464069 4.9403213,5.6899481 4.7722728,5.7421069 4.4631635,5.7568474 4.1284273,5.772495 4.027961,5.7758967 3.1802347,5.7777109 2.3325085,5.7795251 2.2322691,5.7761235 1.8975329,5.7616097 M 4.4856152,1.4782402 C 4.4860688,1.6886896 4.6568387,1.8589993 4.8672962,1.8585457 5.0777536,1.8580921 5.24807,1.6873289 5.2476164,1.4768796 5.2471628,1.2664302 5.0763929,1.0961204 4.8659355,1.096574 c 0,0 0,0 0,0 C 4.655478,1.0970276 4.4853884,1.2677909 4.4856152,1.4782402 M 1.5448806,3.1781628 C 1.5466949,4.0784686 2.2778531,4.8068773 3.1781937,4.8050631 4.0785343,4.8032488 4.8071979,4.0721188 4.8056104,3.171813 4.803796,2.2715071 4.0724111,1.5428718 3.1720704,1.544686 2.2717298,1.5465002 1.543293,2.277857 1.5451074,3.1781628 m 0.5719544,-0.00114 C 2.1159279,2.5926238 2.5887767,2.1177521 3.1734311,2.1166183 3.7578588,2.1154844 4.2327488,2.5883151 4.2338827,3.172947 4.2350166,3.7573519 3.7621678,4.2322236 3.1775133,4.2333576 2.5930857,4.2344915 2.1181957,3.7618875 2.1170618,3.1774825 v 0"
       id="path1"
       style="stroke-width:0.226781;fill:#ffffff;fill-opacity:1" />
  </g>
</svg>
